<svg width="120" height="27" viewBox="0 0 120 27" fill="none" xmlns="http://www.w3.org/2000/svg">
<g clip-path="url(#clip0_2164_1814)">
<path d="M59.608 0C57.2757 0 55.5072 0.615564 54.3026 1.84672C53.098 3.07787 52.4954 4.88581 52.4947 7.27052V20.3973C52.4947 22.4409 53.1234 24.0523 54.3807 25.2314C55.6381 26.4105 57.3674 27 59.5686 27C61.7951 27 63.5504 26.4367 64.8347 25.31C65.4744 24.7411 65.9792 24.0367 66.3124 23.248C66.6455 22.4594 66.7986 21.6064 66.7605 20.7511V7.27052C66.7609 2.42385 64.3767 0.000344861 59.608 0ZM61.1081 20.4195C61.1081 20.8119 60.9522 21.1882 60.6748 21.4657C60.3973 21.7431 60.021 21.899 59.6286 21.899C59.2363 21.899 58.86 21.7431 58.5825 21.4657C58.3051 21.1882 58.1492 20.8119 58.1492 20.4195V6.58045C58.1492 6.18807 58.3051 5.81178 58.5825 5.53432C58.86 5.25687 59.2363 5.101 59.6286 5.101C60.021 5.101 60.3973 5.25687 60.6748 5.53432C60.9522 5.81178 61.1081 6.18807 61.1081 6.58045V20.4195ZM30.5843 0.39313H41.4066V5.46259H38.7684V26.6069H33.1092V5.46259H30.5864L30.5843 0.39313ZM42.0563 0.39313H51.9945V5.46259H47.7154V9.58954H51.8579V14.5814H47.7154V26.6079H42.0563V0.39313ZM90.7334 0.39313H96.3874V20.7516C96.4255 21.6069 96.2724 22.4599 95.9392 23.2486C95.6061 24.0372 95.1012 24.7416 94.4615 25.3105C93.1776 26.4375 91.4222 27.0009 89.1954 27.0005C86.9942 27.0005 85.2649 26.411 84.0075 25.2319C82.7502 24.0528 82.1213 22.4414 82.121 20.3978V0.392625H87.775V20.419C87.775 20.8114 87.9308 21.1877 88.2083 21.4651C88.4857 21.7426 88.8621 21.8985 89.2544 21.8985C89.6468 21.8985 90.0231 21.7426 90.3006 21.4651C90.578 21.1877 90.7339 20.8114 90.7339 20.419L90.7334 0.39313ZM24.0545 0.39313H15.9926V26.6074H21.5891V14.5028H23.2993C23.4914 14.504 23.6753 14.581 23.811 14.7171C23.9466 14.8532 24.023 15.0374 24.0235 15.2296V26.61H29.6672V16.8916C29.6672 15.5032 29.5859 14.8054 29.2714 14.2017C29.0784 13.8694 28.8181 13.5811 28.5072 13.3552C28.1964 13.1293 27.8417 12.9708 27.4661 12.8899C27.9215 12.8039 28.3515 12.6157 28.7236 12.3394C29.0842 12.0528 29.3685 11.6816 29.5513 11.2588C29.784 10.7139 29.9361 10.138 30.0029 9.54919C30.1027 8.72782 30.1487 7.9008 30.1405 7.07343C30.1405 4.71492 29.6623 3.01184 28.706 1.96415C27.7497 0.916466 26.198 0.392625 24.0509 0.392625L24.0545 0.39313ZM24.2558 9.27398C24.0712 9.47115 23.8438 9.62342 23.5912 9.7191C23.3386 9.81477 23.0675 9.85132 22.7986 9.82594H21.5943V5.18843H22.7986C23.0675 5.16308 23.3386 5.19964 23.5912 5.29532C23.8438 5.39099 24.0711 5.54323 24.2558 5.74037C24.549 6.28319 24.7026 6.89047 24.7026 7.50744C24.7026 8.12441 24.549 8.73168 24.2558 9.2745V9.27398ZM75.5193 0.39313H67.4594V26.6074H73.056V14.5028H74.7661C74.9583 14.504 75.1422 14.581 75.2778 14.7171C75.4134 14.8532 75.4898 15.0374 75.4903 15.2296V26.61H81.134V16.8916C81.134 15.5032 81.0528 14.8054 80.7383 14.2017C80.5452 13.8694 80.2849 13.5811 79.9741 13.3552C79.6632 13.1293 79.3086 12.9708 78.9329 12.8899C79.3883 12.8039 79.8183 12.6157 80.1905 12.3394C80.551 12.0528 80.8353 11.6816 81.0181 11.2588C81.2508 10.7139 81.4029 10.138 81.4697 9.54919C81.5696 8.72783 81.6156 7.9008 81.6073 7.07343C81.6073 4.71492 81.1292 3.01184 80.1729 1.96415C79.2166 0.916466 77.6643 0.392625 75.5162 0.392625L75.5193 0.39313ZM75.72 9.27398C75.5355 9.47108 75.3082 9.6233 75.0557 9.71897C74.8032 9.81464 74.5322 9.85124 74.2633 9.82594H73.0586V5.18843H74.2633C74.5322 5.16317 74.8032 5.19977 75.0557 5.29544C75.3082 5.39112 75.5354 5.54331 75.72 5.74037C76.0133 6.28319 76.1668 6.89047 76.1668 7.50744C76.1668 8.12441 76.0133 8.73168 75.72 9.2745V9.27398ZM3.69449 0.392625L0 26.6069H5.714L6.22508 22.873H9.17364L9.68472 26.6069H15.3987L11.7042 0.392625H3.69449ZM6.46717 17.9215L7.61711 8.82549H7.78161L8.93155 17.9215H6.46717ZM119.198 0.392625V26.6069H113.739V9.82542H113.488L110.752 26.6074H105.643L102.907 9.82542H102.656V26.6074H97.1969V0.392625H105.725L108.197 12.1522L110.669 0.392625H119.198Z" fill="#1A1818"/>
</g>
<defs>
<clipPath id="clip0_2164_1814">
<rect width="119.198" height="27" fill="white"/>
</clipPath>
</defs>
</svg>
