<svg width="220" height="27" viewBox="0 0 220 27" fill="none" xmlns="http://www.w3.org/2000/svg">
<g clip-path="url(#clip0_2164_1263)">
<path d="M-0.952393 26.6852C-0.478956 26.4756 0.00082165 26.2993 0.466436 26.0912C1.17169 25.776 1.67773 25.2433 2.02851 24.5616C2.47784 23.6883 2.94251 22.8219 3.35873 21.9329C3.76013 21.0756 4.10925 20.1937 4.47958 19.3218C4.79024 18.5904 5.09968 17.8585 5.40729 17.1258C5.75031 16.3088 6.0906 15.4906 6.43216 14.6729C6.74132 13.9329 7.0505 13.1928 7.35984 12.4528C7.70161 11.6352 8.04379 10.8178 8.38536 10.0001C8.69452 9.26003 9.00243 8.51945 9.31211 7.77961C9.62183 7.03967 9.93352 6.30055 10.2435 5.56072C10.5534 4.82096 10.8609 4.08015 11.1721 3.34092C11.5278 2.49587 11.8877 1.65255 12.2432 0.807393C12.3436 0.568569 12.4351 0.325945 12.5306 0.0663965C12.5518 0.0477295 12.573 0.0477295 12.61 0.0477295C13.235 1.5394 13.8428 3.03163 14.4536 4.52258C15.0416 5.95765 15.6329 7.39132 16.2225 8.82573C16.7771 10.1753 17.3317 11.5249 17.8858 12.8747C18.4717 14.3021 19.0547 15.7308 19.643 17.1573C20.2168 18.5486 20.7937 19.9387 21.3729 21.3278C21.8316 22.4281 22.3033 23.5229 22.7553 24.6258C23.1168 25.5076 23.7762 26.0273 24.6719 26.2847C24.921 26.3562 25.1668 26.4405 25.4097 26.531C25.4919 26.5616 25.5604 26.6294 25.6327 26.7426C25.4486 26.7807 25.2644 26.8524 25.0804 26.8517C23.3456 26.8446 21.6109 26.8201 19.8761 26.8108C18.4471 26.8031 17.0181 26.8038 15.5891 26.8113C14.7911 26.8155 13.9932 26.8444 13.1951 26.8526C13.0958 26.8536 12.9959 26.7958 12.8685 26.7567C13.6183 26.4403 14.3071 26.1381 15.0051 25.8589C15.4914 25.6644 15.7842 24.9822 15.587 24.4505C15.1753 23.3407 14.7678 22.2293 14.3553 21.1198C14.0226 20.2249 13.6756 19.3352 13.3583 18.4349C13.2971 18.2612 13.2076 18.27 13.082 18.27C11.0259 18.2705 8.96972 18.2703 6.91356 18.2703C6.70715 18.2703 6.49933 18.2565 6.29503 18.2773C6.21563 18.2854 6.10063 18.3558 6.07564 18.4247C5.7266 19.3864 5.30178 20.3211 5.09114 21.3323C4.9325 22.0939 4.85947 22.8447 4.99383 23.6217C5.12787 24.3968 5.42646 25.0669 6.01026 25.5987C6.4634 26.0115 7.02685 26.2172 7.58723 26.4278C7.74424 26.4868 7.90013 26.55 8.05165 26.6217C8.09259 26.641 8.14857 26.7095 8.13968 26.7356C8.12399 26.7819 8.06933 26.8265 8.02061 26.8465C7.97249 26.8663 7.91154 26.8566 7.85622 26.8566C7.4434 26.8572 7.03052 26.8616 6.61778 26.856C5.66892 26.8431 4.72019 26.8177 3.77131 26.8111C2.61271 26.8031 1.45399 26.8052 0.295362 26.8114C-0.105741 26.8135 -0.506709 26.841 -0.930065 26.8569C-0.952392 26.806 -0.952392 26.7551 -0.952393 26.6852ZM8.26657 17.5071C9.85988 17.5071 11.4532 17.5071 13.0855 17.5071C12.0022 14.6667 10.93 11.8556 9.85775 9.0446C9.83269 9.05198 9.80763 9.05936 9.78258 9.06674C8.61508 11.8705 7.44759 14.6742 6.26793 17.5071C6.93908 17.5071 7.57901 17.5071 8.26657 17.5071Z" fill="black"/>
<path d="M219.826 24.5462C219.696 24.7533 219.575 24.9469 219.434 25.1245C218.901 25.7934 218.22 26.2564 217.429 26.5721C216.487 26.9485 215.502 27.0007 214.511 26.9448C213.853 26.9078 213.218 26.7257 212.681 26.3267C212.16 25.9395 211.791 25.4308 211.664 24.7587C211.372 24.9824 211.094 25.2025 210.809 25.4138C209.912 26.0791 208.92 26.5415 207.835 26.8118C207.195 26.9715 206.543 26.9945 205.897 26.9425C204.977 26.8686 204.107 26.5913 203.421 25.9437C202.941 25.4898 202.667 24.913 202.621 24.2264C202.553 23.1945 202.954 22.3754 203.701 21.7112C204.232 21.2383 204.856 20.8973 205.503 20.6114C206.236 20.2879 206.987 20.0039 207.718 19.6769C208.332 19.4022 208.941 19.1117 209.532 18.79C210.362 18.3379 211.056 17.7277 211.487 16.8674C211.731 16.3814 211.864 15.859 211.869 15.3106C211.873 14.8814 211.897 14.4501 211.863 14.0235C211.818 13.4467 211.638 12.9188 211.117 12.58C210.766 12.3518 210.366 12.3806 209.982 12.4106C209.561 12.4436 209.159 12.5624 208.801 12.8173C208.509 13.0249 208.329 13.3082 208.31 13.6379C208.285 14.0572 208.342 14.4828 208.382 14.9039C208.469 15.8095 208.533 16.7148 207.96 17.5045C207.373 18.3131 206.583 18.763 205.567 18.7984C204.977 18.8189 204.473 18.6421 204.047 18.2368C203.553 17.7677 203.439 17.1633 203.493 16.5279C203.545 15.9041 203.806 15.3396 204.177 14.8424C204.619 14.2488 205.191 13.79 205.821 13.4048C206.706 12.863 207.643 12.429 208.648 12.1682C209.316 11.9951 209.992 11.8393 210.675 11.7455C211.371 11.6498 212.08 11.5888 212.781 11.604C213.777 11.6256 214.771 11.7317 215.677 12.2117C216.57 12.6846 217.073 13.4471 217.246 14.4218C217.325 14.874 217.343 15.3416 217.345 15.8024C217.353 18.7037 217.349 21.605 217.349 24.5062C217.35 24.9868 217.709 25.3755 218.131 25.326C218.516 25.2809 218.82 25.0721 219.063 24.7723C219.195 24.6094 219.33 24.4491 219.463 24.2869C219.555 24.1745 219.662 24.142 219.809 24.2282C219.826 24.3306 219.826 24.428 219.826 24.5462ZM209.392 19.8213C209.233 20.0741 209.047 20.314 208.919 20.5821C208.553 21.3548 208.369 22.1618 208.481 23.0295C208.545 23.5276 208.672 23.988 208.968 24.3991C209.257 24.8011 209.869 25.0285 210.334 24.8483C210.622 24.7371 210.878 24.5479 211.154 24.4038C211.428 24.2608 211.489 24.0205 211.489 23.7416C211.489 21.9298 211.489 20.1179 211.488 18.3061C211.488 18.2321 211.481 18.1581 211.477 18.079C211.14 18.347 210.828 18.6133 210.497 18.8529C210.107 19.1351 209.698 19.3912 209.392 19.8213Z" fill="black"/>
<path d="M154.101 27.0477C154.016 27.0159 153.954 26.9602 153.889 26.9559C153.013 26.8979 152.18 26.6705 151.373 26.3337C150.438 25.9435 149.622 25.3801 148.934 24.6367C148.12 23.757 147.546 22.7379 147.273 21.5686C147.151 21.0434 147.1 20.5005 147.029 19.964C146.89 18.9099 147.072 17.8854 147.391 16.8903C147.681 15.9839 148.151 15.1686 148.775 14.4368C149.487 13.6006 150.336 12.9524 151.316 12.4787C152.029 12.1347 152.777 11.878 153.567 11.7866C154.156 11.7185 154.75 11.6375 155.34 11.6506C156.37 11.6734 157.371 11.8758 158.322 12.3036C159.12 12.6622 159.821 13.1475 160.4 13.7993C161.093 14.5791 161.544 15.4881 161.746 16.5122C161.846 17.0198 161.907 17.5351 161.99 18.0739C158.811 18.0739 155.695 18.0739 152.545 18.0739C152.565 18.4204 152.561 18.7501 152.608 19.072C152.683 19.5744 152.767 20.0781 152.893 20.5694C153.107 21.3995 153.45 22.1777 154.084 22.775C154.782 23.4321 155.609 23.841 156.568 24.0015C157.631 24.1794 158.626 24.0142 159.567 23.5135C160.22 23.1662 160.715 22.6473 161.081 22.0044C161.209 21.7782 161.332 21.5486 161.466 21.3253C161.509 21.2527 161.565 21.1696 161.637 21.136C161.77 21.073 161.919 21.0427 162.061 20.9988C162.084 21.1167 162.147 21.243 162.124 21.3512C162.025 21.8147 161.942 22.2876 161.78 22.73C161.398 23.771 160.751 24.6429 159.919 25.3679C159.161 26.0284 158.276 26.4671 157.303 26.7074C156.841 26.8215 156.363 26.8769 155.891 26.9503C155.691 26.9814 155.487 26.9902 155.277 27.0284C155.141 27.0477 155.013 27.0477 154.858 27.0307C154.771 27.0251 154.711 27.0364 154.65 27.0477C154.475 27.0477 154.299 27.0477 154.101 27.0477ZM156.008 17.3163C156.346 17.3163 156.684 17.3163 157.084 17.3163C157.017 16.6316 156.969 15.9774 156.886 15.3277C156.802 14.6763 156.612 14.06 156.227 13.5098C155.835 12.9499 155.105 12.6114 154.464 12.7386C153.612 12.9077 153.077 13.4532 152.801 14.2446C152.656 14.6612 152.553 15.1056 152.517 15.5445C152.469 16.1286 152.505 16.7195 152.505 17.3163C153.646 17.3163 154.803 17.3163 156.008 17.3163Z" fill="black"/>
<path d="M45.8556 27.0477C45.6534 27 45.4756 26.9403 45.293 26.9068C44.67 26.7925 44.0714 26.6141 43.5526 26.2359C42.9639 25.8067 42.5755 25.224 42.4626 24.5122C42.3588 23.8579 42.3173 23.1877 42.3142 22.5242C42.2996 19.4326 42.3077 16.3409 42.3077 13.2492C42.3077 13.1639 42.3077 13.0787 42.3077 12.9783C41.8071 12.9783 41.3254 12.9783 40.8235 12.9783C40.93 12.655 41.03 12.3515 41.1197 12.0793C41.8148 11.9177 42.5097 11.786 43.1862 11.5902C43.8218 11.4062 44.3375 10.9867 44.8549 10.5888C45.4237 10.1512 45.8499 9.58829 46.1897 8.96378C46.4653 8.45719 46.6352 7.90837 46.7395 7.33971C46.7978 7.02201 46.8595 6.70448 46.9369 6.39114C46.9511 6.33335 47.0454 6.25973 47.1069 6.25557C47.342 6.23966 47.5788 6.24914 47.833 6.24914C47.833 8.06689 47.833 9.86679 47.833 11.6817C49.1741 11.6817 50.497 11.6817 51.8555 11.6817C51.6466 12.1277 51.4499 12.5477 51.2511 12.9722C50.1217 12.9722 48.995 12.9722 47.8343 12.9722C47.8343 13.0619 47.8343 13.1451 47.8343 13.2284C47.8343 16.4632 47.8358 19.6979 47.8322 22.9327C47.8319 23.2785 47.7712 23.6266 47.7954 23.9696C47.8201 24.319 47.8721 24.6792 47.9912 25.0059C48.1193 25.3575 48.4578 25.5181 48.8133 25.5645C50.1066 25.7333 51.0273 25.1202 51.7311 24.1069C51.8989 23.8654 51.9883 23.5705 52.1318 23.3102C52.1941 23.1972 52.3021 23.1095 52.397 23.0017C52.6646 23.2838 52.5382 23.564 52.4686 23.8071C52.1416 24.95 51.3821 25.7361 50.3531 26.2849C49.6757 26.6462 48.9569 26.8737 48.1922 26.9535C48.0612 26.9672 47.9314 26.9909 47.7938 27.0288C47.1504 27.0477 46.5142 27.0477 45.8556 27.0477Z" fill="black"/>
<path d="M130.162 16.1238C130.141 15.7157 130.163 15.3236 130.092 14.9489C129.969 14.299 129.535 13.9162 128.892 13.7962C128.192 13.6654 127.497 13.6891 126.854 14.0366C126.578 14.1857 126.327 14.383 126.072 14.5682C125.849 14.7301 125.77 14.9415 125.771 15.2335C125.783 18.4768 125.784 21.7202 125.775 24.9636C125.773 25.8325 126.241 26.2407 126.947 26.4276C127.101 26.4687 127.258 26.5049 127.408 26.5602C127.462 26.5801 127.497 26.6498 127.541 26.6968C127.49 26.7341 127.438 26.8039 127.387 26.8035C126.985 26.8002 126.583 26.783 126.181 26.7711C126.031 26.7666 125.881 26.7623 125.731 26.762C125.199 26.7609 124.667 26.7676 124.135 26.76C123.472 26.7505 122.809 26.7162 122.146 26.7173C121.34 26.7186 120.534 26.743 119.728 26.7628C119.39 26.7711 119.053 26.8021 118.715 26.8035C118.624 26.8039 118.533 26.7338 118.442 26.696C118.523 26.6387 118.596 26.5589 118.686 26.5281C119.01 26.4171 119.352 26.35 119.665 26.2158C120.167 26.0014 120.388 25.565 120.39 25.0464C120.4 22.121 120.407 19.1955 120.386 16.2703C120.381 15.5261 120.194 14.8106 119.615 14.2721C119.263 13.9454 118.821 13.7889 118.375 13.643C118.289 13.6151 118.206 13.5827 118.088 13.5406C119.428 13.2498 120.741 13.0106 122.028 12.6727C123.315 12.3346 124.54 11.8068 125.726 11.1008C125.726 12.0712 125.726 12.9608 125.726 13.8931C126.006 13.6693 126.256 13.4583 126.518 13.2623C127.662 12.4051 128.911 11.7825 130.335 11.5417C131.278 11.382 132.206 11.3927 133.113 11.7339C133.811 11.9965 134.397 12.4125 134.845 13.0128C135.035 13.2662 135.225 13.5194 135.398 13.7837C135.479 13.9063 135.536 13.9064 135.636 13.8181C136.429 13.1129 137.287 12.502 138.252 12.0526C138.875 11.7627 139.521 11.5678 140.21 11.4908C141.082 11.3933 141.942 11.4296 142.776 11.6947C143.601 11.9571 144.255 12.4708 144.68 13.2361C145.028 13.8617 145.222 14.5398 145.264 15.2576C145.283 15.5794 145.31 15.9015 145.31 16.2234C145.314 19.1011 145.308 21.9788 145.317 24.8565C145.319 25.2071 145.36 25.5608 145.582 25.8681C145.814 26.1897 146.153 26.315 146.504 26.427C146.664 26.478 146.828 26.5167 146.986 26.5731C147.046 26.5942 147.093 26.6495 147.146 26.6892C147.139 26.7108 147.132 26.7324 147.125 26.754C146.984 26.7724 146.844 26.808 146.703 26.8065C145.683 26.7957 144.663 26.7792 143.642 26.7609C142.932 26.7482 142.221 26.7171 141.51 26.7173C140.776 26.7176 140.041 26.743 139.307 26.7629C139.009 26.7709 138.711 26.8002 138.413 26.8063C138.269 26.8092 138.125 26.7808 137.981 26.7666C137.971 26.74 137.962 26.7134 137.953 26.6868C138.06 26.6322 138.161 26.5613 138.273 26.5259C138.672 26.4004 139.096 26.3578 139.45 26.097C139.753 25.8729 139.921 25.5678 139.922 25.2117C139.933 21.8888 139.952 18.5657 139.912 15.2433C139.902 14.4039 139.48 13.9431 138.567 13.7872C137.951 13.682 137.332 13.6746 136.773 13.985C136.372 14.2073 136.009 14.499 135.642 14.7763C135.578 14.8247 135.549 14.9557 135.549 15.0486C135.545 18.3874 135.531 21.7263 135.557 25.0648C135.563 25.8133 135.869 26.1813 136.672 26.4276C136.825 26.4747 136.979 26.5184 137.13 26.5723C137.196 26.5957 137.253 26.6407 137.292 26.7056C136.834 26.8498 136.406 26.8148 135.978 26.7867C135.924 26.7832 135.871 26.7633 135.817 26.7626C134.567 26.7454 133.316 26.7212 132.066 26.7172C131.347 26.7148 130.628 26.7432 129.91 26.7625C129.524 26.7729 129.139 26.8 128.754 26.8041C128.668 26.805 128.582 26.7408 128.495 26.7065C128.564 26.6455 128.623 26.5616 128.703 26.5275C128.989 26.4061 129.296 26.3269 129.57 26.1848C130.003 25.9608 130.158 25.5502 130.159 25.0907C130.165 22.1097 130.162 19.1286 130.162 16.1238Z" fill="black"/>
<path d="M112.307 18.3959C112.675 19.2729 113.034 20.1332 113.39 20.9949C113.758 21.8847 114.116 22.7786 114.49 23.6653C114.675 24.1012 114.885 24.5262 115.088 24.954C115.419 25.6531 116.005 26.0274 116.722 26.237C116.971 26.3097 117.218 26.3912 117.46 26.4854C117.577 26.5312 117.68 26.6157 117.789 26.6826C117.786 26.7066 117.784 26.7307 117.781 26.7547C117.576 26.7887 117.371 26.853 117.167 26.8521C115.455 26.8446 113.744 26.82 112.033 26.8108C110.604 26.8031 109.174 26.8039 107.745 26.8113C106.963 26.8154 106.181 26.8449 105.398 26.8528C105.28 26.854 105.161 26.8 105.042 26.7715C105.045 26.7471 105.048 26.7227 105.05 26.6984C105.442 26.5603 105.837 26.4317 106.223 26.2814C106.557 26.1515 106.892 26.016 107.208 25.8488C107.678 25.6003 107.955 25.015 107.737 24.4155C107.351 23.353 106.953 22.295 106.56 21.2355C106.195 20.2543 105.829 19.2735 105.455 18.2703C105.397 18.2703 105.319 18.2703 105.241 18.2703C103.001 18.2703 100.762 18.2736 98.523 18.2645C98.3297 18.2637 98.2523 18.3265 98.1915 18.4971C97.994 19.0511 97.7639 19.5938 97.5783 20.1515C97.3197 20.9282 97.1026 21.7118 97.089 22.5464C97.0766 23.3038 97.1457 24.0375 97.4835 24.72C97.8189 25.3978 98.3575 25.866 99.0628 26.1444C99.432 26.2901 99.7966 26.448 100.16 26.6084C100.213 26.6319 100.246 26.7003 100.289 26.748C100.229 26.7842 100.168 26.8525 100.108 26.8518C99.4602 26.844 98.8129 26.8253 98.1657 26.8098C98.1101 26.8085 98.0545 26.8092 97.9989 26.8092C96.173 26.8092 94.3471 26.8066 92.5212 26.8113C92.1518 26.8123 91.7826 26.8474 91.4131 26.8515C91.3392 26.8523 91.2645 26.784 91.1902 26.7476C91.2491 26.6996 91.3011 26.6355 91.3682 26.6062C91.8933 26.3774 92.4407 26.1912 92.9437 25.9218C93.5602 25.5915 93.9527 25.0281 94.2683 24.4155C94.6268 23.7197 95.0021 23.0313 95.3292 22.3208C95.767 21.3699 96.1693 20.4026 96.5798 19.4393C97.0112 18.4269 97.4363 17.4117 97.8605 16.3962C98.373 15.1695 98.88 13.9404 99.3924 12.7137C99.8166 11.6982 100.247 10.6854 100.671 9.66986C101.184 8.44313 101.689 7.21347 102.204 5.98764C102.609 5.02199 103.027 4.06137 103.434 3.0964C103.834 2.14604 104.228 1.19265 104.628 0.242084C104.652 0.186465 104.707 0.144266 104.747 0.0958252C104.786 0.146024 104.838 0.19067 104.862 0.24726C105.166 0.973299 105.468 1.70011 105.767 2.4286C106.088 3.21333 106.403 4.00044 106.723 4.78579C107.216 5.99573 107.707 7.20634 108.204 8.41426C108.658 9.51663 109.124 10.6141 109.577 11.7169C110.044 12.8546 110.498 13.9976 110.965 15.1356C111.356 16.0903 111.758 17.0409 112.153 17.9939C112.206 18.1206 112.249 18.2511 112.307 18.3959ZM99.9322 17.5071C101.696 17.5071 103.459 17.5071 105.24 17.5071C104.155 14.6589 103.079 11.8361 101.982 8.95947C100.785 11.8352 99.609 14.6585 98.4228 17.5071C98.9227 17.5071 99.4036 17.5071 99.9322 17.5071Z" fill="black"/>
<path d="M75.4674 19.0336C75.4674 21.0606 75.4632 23.0638 75.4699 25.067C75.4719 25.6881 75.7589 26.1687 76.3781 26.2412C76.4819 26.2534 76.5938 26.2878 76.6787 26.346C76.7655 26.4056 76.8802 26.506 76.8819 26.5905C76.8848 26.7361 76.7503 26.7663 76.6075 26.7641C75.2776 26.7438 73.9477 26.7265 72.6177 26.715C71.8476 26.7083 71.0774 26.7078 70.3074 26.7157C69.7236 26.7218 69.1401 26.7525 68.5564 26.7544C68.4625 26.7547 68.3133 26.6817 68.286 26.6072C68.232 26.4602 68.3566 26.3984 68.4951 26.3654C68.7027 26.3159 68.905 26.2441 69.1117 26.1901C69.5654 26.0715 69.8826 25.7667 69.9372 25.2768C69.9719 24.9651 69.9859 24.6496 69.9863 24.3358C69.9899 21.5059 69.9964 18.6759 69.9823 15.8461C69.9791 15.2018 69.8631 14.5611 69.303 14.1385C69.0511 13.9485 68.7399 13.8368 68.4545 13.6919C68.2915 13.6092 68.1263 13.531 67.9736 13.4163C69.289 13.0711 70.5592 12.663 71.795 12.1592C73.0244 11.6579 74.2363 11.1135 75.4631 10.585C75.4631 11.6889 75.4631 12.8266 75.4631 14.0078C75.8316 13.7399 76.1616 13.4933 76.4984 13.2563C77.2532 12.7253 78.0428 12.2447 78.9178 11.9509C79.4159 11.7836 79.9515 11.7033 80.4768 11.6501C80.9642 11.6008 81.463 11.6083 81.9524 11.6465C82.7911 11.712 83.5681 11.9731 84.1857 12.5747C84.6962 13.072 84.9996 13.6998 85.1298 14.3905C85.2375 14.9618 85.3172 15.5477 85.3209 16.1278C85.3397 19.0529 85.3221 21.9784 85.3352 24.9036C85.3381 25.5586 85.5023 25.9172 86.0908 26.1591C86.3293 26.2571 86.5926 26.2935 86.8344 26.385C86.9199 26.4173 87.0311 26.5296 87.0317 26.6062C87.0329 26.7495 86.8948 26.7639 86.7669 26.7629C84.6033 26.745 82.4398 26.7259 80.2762 26.7165C79.7561 26.7142 79.2357 26.7418 78.7159 26.7639C78.574 26.7699 78.4337 26.739 78.4385 26.5956C78.4416 26.5058 78.5601 26.3837 78.6558 26.3409C78.8556 26.2515 79.0855 26.2285 79.2834 26.136C79.7072 25.9377 79.8437 25.5408 79.845 25.119C79.855 21.828 79.8601 18.537 79.842 15.2461C79.8386 14.6304 79.5375 14.0667 78.6938 13.962C77.7728 13.8476 77.0139 14.1495 76.2958 14.6539C76.0553 14.8229 75.8234 15.0076 75.6086 15.2077C75.5302 15.2807 75.4742 15.419 75.4733 15.528C75.4637 16.6885 75.4674 17.8491 75.4674 19.0336Z" fill="black"/>
<path d="M195.824 11.6394C196.71 11.6749 197.53 11.8955 198.325 12.2243C199.062 12.5287 199.721 12.963 200.275 13.5231C200.978 14.2332 201.505 15.0559 201.631 16.0891C201.725 16.8704 201.619 17.5919 201.157 18.249C200.873 18.6515 200.481 18.8694 200.024 18.9943C199.349 19.1788 198.688 19.1594 198.043 18.8597C197.37 18.5467 196.991 18.0017 196.817 17.3012C196.646 16.6124 196.738 15.9215 196.806 15.2276C196.867 14.6026 196.912 13.9716 196.899 13.3447C196.887 12.8329 196.445 12.3982 195.871 12.2661C195.02 12.0699 194.245 12.2165 193.567 12.8108C192.891 13.4033 192.536 14.1764 192.293 15.0099C192.088 15.7179 192.006 16.4502 192.054 17.1867C192.131 18.3768 192.341 19.5407 192.786 20.6562C193.012 21.2229 193.275 21.7629 193.655 22.2448C194.067 22.7663 194.563 23.1873 195.136 23.5137C195.685 23.8266 196.275 24.0656 196.903 24.1248C197.626 24.1929 198.352 24.1581 199.032 23.8422C199.857 23.4591 200.507 22.8986 200.887 22.0495C200.967 21.8703 201.091 21.6959 201.237 21.5668C201.322 21.4914 201.49 21.5103 201.621 21.4868C201.635 21.599 201.686 21.7204 201.659 21.822C201.44 22.6688 201.017 23.4121 200.465 24.0822C199.869 24.8035 199.191 25.4305 198.372 25.8954C197.654 26.3026 196.897 26.5947 196.088 26.7658C195.395 26.9123 194.698 26.9713 193.993 26.9511C193.067 26.9245 192.175 26.7388 191.316 26.389C190.524 26.0666 189.814 25.622 189.171 25.0544C188.293 24.2797 187.688 23.3367 187.28 22.2444C186.881 21.1751 186.784 20.0669 186.868 18.9518C186.983 17.4306 187.53 16.0591 188.48 14.8516C189.459 13.6088 190.687 12.7244 192.16 12.1571C192.884 11.8779 193.621 11.6802 194.396 11.6402C194.797 11.6195 195.198 11.6051 195.599 11.5943C195.666 11.5925 195.734 11.6235 195.824 11.6394Z" fill="black"/>
<path d="M172.648 11.6717C173.059 11.6204 173.457 11.5306 173.848 11.5536C175.096 11.627 176.204 12.3001 176.63 13.5955C176.908 14.4394 176.813 15.2778 176.304 16.0151C175.904 16.5936 175.332 16.9319 174.614 17.038C173.997 17.1292 173.44 17.0152 172.961 16.6406C172.684 16.4237 172.472 16.122 172.233 15.8563C171.991 15.5873 171.773 15.2932 171.507 15.0507C171.129 14.7055 170.459 14.8114 170.15 15.2266C169.877 15.5923 169.753 16.002 169.753 16.4558C169.754 19.3018 169.747 22.1479 169.758 24.994C169.761 25.8067 170.106 26.0617 170.745 26.2363C170.966 26.2966 171.187 26.3528 171.4 26.4086C171.442 26.7612 171.442 26.7613 171.13 26.7614C170.749 26.7615 170.368 26.7641 169.987 26.761C168.156 26.7461 166.326 26.7249 164.496 26.7166C163.944 26.714 163.392 26.7436 162.84 26.7629C162.711 26.7674 162.569 26.7472 162.574 26.6098C162.577 26.5255 162.697 26.4088 162.79 26.3711C162.994 26.2886 163.213 26.2418 163.428 26.1901C163.842 26.0909 164.198 25.6911 164.225 25.2707C164.249 24.8939 164.272 24.5161 164.272 24.1387C164.276 21.3563 164.282 18.5737 164.268 15.7913C164.265 15.1693 164.13 14.5606 163.602 14.1492C163.377 13.9745 163.099 13.8685 162.841 13.7386C162.652 13.6432 162.458 13.5597 162.268 13.4318C164.757 12.6815 167.123 11.6694 169.469 10.5269C169.469 12.0727 169.469 13.5922 169.469 15.1117C169.488 15.1193 169.506 15.1269 169.525 15.1345C169.57 15.0638 169.624 14.9975 169.657 14.9217C169.981 14.1725 170.349 13.4444 170.863 12.8089C171.321 12.2427 171.897 11.8299 172.648 11.6717Z" fill="black"/>
<path d="M30.9565 11.5299C31.5885 11.2327 32.2063 10.9475 32.8244 10.663C32.8921 10.6319 32.9615 10.6043 33.0619 10.5615C33.0619 12.134 33.0619 13.6702 33.0619 15.2817C33.1387 15.1811 33.1816 15.1431 33.2018 15.0955C33.5235 14.3385 33.8685 13.5902 34.3738 12.9381C34.9158 12.2388 35.6204 11.7939 36.5117 11.6317C37.3098 11.4864 38.0681 11.5552 38.7801 11.9303C39.7913 12.4631 40.3409 13.2984 40.3565 14.4664C40.3706 15.531 39.9113 16.3347 38.9879 16.8229C38.208 17.2351 37.1534 17.221 36.4535 16.5696C36.1471 16.2845 35.9073 15.9275 35.6381 15.6025C35.4131 15.3308 35.1912 15.0691 34.8503 14.9163C34.496 14.7575 34.2159 14.8928 33.9534 15.0778C33.6216 15.3118 33.46 15.6672 33.4012 16.0628C33.3692 16.2786 33.3531 16.4987 33.3528 16.7169C33.3497 19.4353 33.3492 22.1538 33.3516 24.8723C33.3524 25.7871 33.6772 26.1017 34.4682 26.2843C34.6023 26.3153 34.7489 26.3249 34.8647 26.3893C34.9394 26.4308 34.9685 26.5544 35.0181 26.6412C34.9468 26.6813 34.8759 26.7553 34.8041 26.7562C34.1215 26.7651 33.4386 26.7667 32.756 26.7604C31.4578 26.7484 30.1598 26.7258 28.8616 26.7152C27.9851 26.708 27.1085 26.7138 26.2251 26.7138C26.1814 26.4636 26.2228 26.4027 26.5005 26.3322C26.7369 26.2722 26.9774 26.2212 27.2056 26.1377C27.5612 26.0075 27.7473 25.7197 27.8195 25.3627C27.8579 25.1729 27.8695 24.9749 27.8697 24.7806C27.8727 21.7759 27.8918 18.7711 27.8608 15.7668C27.8501 14.7346 27.5092 14.0982 26.4105 13.7379C26.001 13.6036 25.9802 13.5868 25.9214 13.3876C27.6486 12.9187 29.3017 12.2475 30.9565 11.5299Z" fill="black"/>
<path d="M186.522 26.7382C185.901 26.7404 185.294 26.7184 184.687 26.7156C183.401 26.7097 182.115 26.7079 180.829 26.7158C179.904 26.7215 178.979 26.7469 178.054 26.7608C177.754 26.7653 177.754 26.7613 177.765 26.4173C177.977 26.3594 178.203 26.3007 178.427 26.2362C178.844 26.1162 179.233 25.9577 179.349 25.4762C179.387 25.3193 179.421 25.1565 179.422 24.9963C179.427 23.2239 179.42 21.4515 179.427 19.6791C179.432 18.6338 179.471 17.5885 179.465 16.5433C179.463 16.1343 179.379 15.7256 179.331 15.317C179.254 14.6685 178.803 14.3695 178.252 14.1688C178.016 14.0828 177.773 14.0165 177.538 13.926C177.408 13.8756 177.29 13.794 177.102 13.6912C179.795 12.7562 182.328 11.6445 184.904 10.5312C184.904 10.6353 184.904 10.7247 184.904 10.8142C184.904 15.5114 184.899 20.2086 184.91 24.9058C184.911 25.562 185.077 25.9174 185.667 26.16C185.912 26.2609 186.182 26.3021 186.437 26.3812C186.628 26.4405 186.656 26.5565 186.522 26.7382Z" fill="black"/>
<path d="M59.8872 26.7615C59.5778 26.7615 59.2917 26.7693 59.0064 26.7569C58.9183 26.7531 58.8326 26.6941 58.7458 26.6603C58.8144 26.5988 58.8734 26.5072 58.9535 26.4813C59.2002 26.4018 59.457 26.3543 59.7061 26.2816C60.1194 26.1611 60.3541 25.8648 60.4557 25.4606C60.4931 25.3118 60.5053 25.1531 60.5054 24.9989C60.5082 21.8831 60.51 18.7674 60.5049 15.6516C60.5041 15.1549 60.3778 14.6722 60.0341 14.311C59.8195 14.0855 59.5087 13.9468 59.2295 13.7897C59.0579 13.6931 58.8621 13.6405 58.6824 13.557C58.6236 13.5296 58.5812 13.4668 58.5557 13.443C59.8282 13.015 61.1 12.6325 62.3369 12.1586C63.5681 11.6869 64.7642 11.1235 65.9865 10.5957C65.9865 10.6378 65.9865 10.7282 65.9865 10.8186C65.9865 15.5161 65.979 20.2136 65.9942 24.911C65.9966 25.6342 66.1923 26.0489 66.8576 26.2685C67.0024 26.3163 67.1569 26.3348 67.3015 26.3832C67.4016 26.4167 67.4998 26.4684 67.584 26.5317C67.6238 26.5617 67.648 26.6404 67.6419 26.6925C67.6386 26.7204 67.5552 26.7593 67.5087 26.7584C66.9965 26.7478 66.4843 26.7302 65.9722 26.715C65.9087 26.7131 65.8452 26.7139 65.7817 26.7139C64.2972 26.7138 62.8127 26.7101 61.3283 26.716C60.8558 26.7179 60.3834 26.7456 59.8872 26.7615Z" fill="black"/>
<path d="M63.8858 9.87498C63.4849 10.1035 63.0786 10.2288 62.6275 10.2635C61.73 10.3324 60.9699 10.0635 60.3596 9.40972C59.9729 8.99554 59.7656 8.49376 59.6902 7.92192C59.6006 7.24308 59.7513 6.6387 60.1247 6.07939C60.5399 5.45742 61.1197 5.08812 61.8552 4.96089C62.6519 4.82307 63.3925 4.93724 64.0561 5.43156C64.6002 5.83683 64.9559 6.35959 65.0806 7.03074C65.2376 7.87645 65.0866 8.65231 64.5153 9.31292C64.3356 9.5207 64.1089 9.6877 63.8858 9.87498Z" fill="black"/>
<path d="M182.312 5.0679C183.242 5.44488 183.811 6.09961 183.999 7.07495C184.143 7.82714 184.016 8.53202 183.566 9.14929C183.081 9.8129 182.426 10.1918 181.588 10.2627C180.96 10.3158 180.372 10.2123 179.847 9.88212C179.138 9.43652 178.716 8.79733 178.608 7.94154C178.492 7.02426 178.769 6.25299 179.414 5.62899C179.892 5.16745 180.49 4.9272 181.169 4.91076C181.554 4.90144 181.93 4.93087 182.312 5.0679Z" fill="black"/>
</g>
<defs>
<clipPath id="clip0_2164_1263">
<rect width="220" height="27" fill="white"/>
</clipPath>
</defs>
</svg>
