<svg width="155" height="27" viewBox="0 0 155 27" fill="none" xmlns="http://www.w3.org/2000/svg">
<g clip-path="url(#clip0_2164_1285)">
<path d="M40.0548 0.0410156C40.2063 0.0683676 40.3373 0.110624 40.4708 0.120736C41.6368 0.20905 42.7584 0.476878 43.828 0.95039C44.6118 1.29737 45.3225 1.75169 45.942 2.35458C46.4376 2.83694 46.8821 3.35641 47.1805 3.97799C47.4746 4.59057 47.671 5.2385 47.7928 5.91372C47.9301 6.67502 47.9368 7.43997 47.8978 8.20177C47.8618 8.90298 47.7205 9.59449 47.5152 10.2727C47.2934 11.0051 46.9836 11.6898 46.5629 12.3282C45.9208 13.3027 45.0576 13.9861 43.9507 14.364C43.6154 14.4784 43.2893 14.6201 42.9175 14.7655C43.2981 14.8554 43.6394 14.954 43.9873 15.015C45.009 15.1939 45.8074 15.7137 46.4344 16.5333C47.0983 17.4011 47.388 18.4216 47.6575 19.4493C47.8068 20.0184 47.9242 20.5974 48.0255 21.1772C48.1173 21.7029 48.1613 22.2368 48.2382 22.7653C48.3408 23.4701 48.4489 24.1743 48.566 24.8768C48.642 25.3332 48.738 25.7862 48.8274 26.2525C48.7884 26.2547 48.7304 26.2609 48.6724 26.261C46.7448 26.2615 44.8172 26.2594 42.8897 26.2652C42.7349 26.2657 42.6472 26.2247 42.6222 26.072C42.5108 25.3899 42.3873 24.7093 42.292 24.0249C42.1567 23.0523 42.0752 22.0711 41.9089 21.1042C41.7715 20.3052 41.5241 19.5259 41.1272 18.8113C40.817 18.2527 40.3666 17.8217 39.8025 17.5118C39.29 17.2302 38.7548 17.0351 38.1618 17.0284C37.0987 17.0163 36.0358 16.9978 34.9727 16.9891C34.2076 16.9827 33.4424 16.9878 32.6609 16.9878C32.6609 20.0735 32.6609 23.1537 32.6609 26.2476C30.5911 26.2476 28.5374 26.2476 26.4973 26.2476C26.4973 17.5305 26.4973 8.80497 26.4973 0.0602463C31.0101 0.0410157 35.5228 0.0410157 40.0548 0.0410156ZM35.0084 12.3921C35.4768 12.4058 35.9452 12.4309 36.4136 12.4301C36.9641 12.4292 37.5147 12.4124 38.0648 12.3897C38.4206 12.375 38.7785 12.3574 39.1303 12.3061C39.9415 12.1878 40.6295 11.8047 41.1363 11.1722C41.9427 10.1657 42.1903 8.98909 41.9035 7.74504C41.641 6.60657 40.9021 5.84738 39.7905 5.45374C39.1393 5.22314 38.4624 5.1468 37.7851 5.13696C36.138 5.11301 34.4903 5.12916 32.8428 5.12916C32.7834 5.12916 32.7239 5.12916 32.6656 5.12916C32.6656 7.57495 32.6656 10.0026 32.6656 12.3921C33.4431 12.3921 34.2053 12.3921 35.0084 12.3921Z" fill="#080A0A"/>
<path d="M16.3877 0.0410158C16.523 0.369051 16.6341 0.698946 16.756 1.02479C17.2491 2.34304 17.747 3.6595 18.2403 4.97768C18.616 5.98166 18.9845 6.98835 19.3615 7.99182C19.7502 9.02621 20.1491 10.0567 20.5365 11.0916C20.9285 12.1386 21.3073 13.1906 21.7002 14.2372C22.2111 15.5981 22.7355 16.9539 23.2442 18.3155C23.6678 19.449 24.0733 20.5893 24.4938 21.7239C24.9578 22.9759 25.4299 24.2248 25.8978 25.4753C25.9919 25.7269 26.0831 25.9797 26.1818 26.2489C24.0143 26.2489 21.8654 26.2489 19.7024 26.2489C19.4672 25.4591 19.2326 24.6587 18.9901 23.8606C18.7068 22.9283 18.4129 21.9992 18.133 21.0659C18.0829 20.8989 18.0125 20.8396 17.8299 20.8401C15.0683 20.8471 12.3068 20.845 9.54521 20.845C9.06691 20.845 8.58862 20.845 8.08257 20.845C7.91938 21.3035 7.74304 21.763 7.59271 22.2308C7.41548 22.7824 7.26305 23.3418 7.0957 23.8966C6.87893 24.6152 6.65265 25.331 6.44295 26.0516C6.39462 26.2177 6.32132 26.2663 6.14941 26.2657C4.1261 26.259 2.10277 26.2614 0.0602196 26.2614C0.0409965 26.2044 0.0409965 26.1474 0.0556033 26.0695C0.098765 26.0043 0.136682 25.9635 0.154508 25.9152C0.617013 24.6631 1.07569 23.4096 1.53878 22.1577C1.87868 21.2389 2.22413 20.3221 2.56667 19.4042C2.86786 18.5971 3.16812 17.7897 3.4694 16.9827C3.83043 16.0156 4.19196 15.0487 4.55355 14.0819C4.86221 13.2565 5.17081 12.4312 5.48026 11.6061C5.86816 10.5718 6.25839 9.53846 6.6448 8.50365C6.96685 7.64118 7.28362 6.77674 7.60491 5.91399C8.00875 4.82959 8.41442 3.74588 8.82005 2.66215C9.14716 1.78822 9.47539 0.914711 9.80313 0.0410156C11.9916 0.0410157 14.18 0.0410157 16.3877 0.0410158ZM9.59967 15.8668C9.54252 16.055 9.48537 16.2432 9.42419 16.4446C11.8361 16.4446 14.232 16.4446 16.6753 16.4446C15.4795 12.8972 14.2872 9.36011 13.095 5.82304C12.9572 6.11323 12.8693 6.4074 12.7697 6.69757C12.2252 8.28406 11.6781 9.86967 11.1313 11.4554C10.6275 12.9167 10.1228 14.3777 9.59967 15.8668Z" fill="#080A0A"/>
<path d="M99.2398 27.041C99.1579 27.0137 99.0959 26.9652 99.0317 26.9622C98.1094 26.9183 97.2118 26.7385 96.3344 26.4613C95.4114 26.1697 94.5474 25.7547 93.7468 25.204C92.7368 24.5093 91.9297 23.6298 91.3069 22.5792C90.7856 21.7 90.4094 20.7568 90.1765 19.7645C90.0476 19.2155 89.9664 18.6508 89.9182 18.0885C89.8677 17.5001 89.8476 16.9042 89.8775 16.3148C89.9179 15.5175 90.0565 14.7315 90.2731 13.9585C90.4715 13.2507 90.7337 12.5697 91.0696 11.9195C91.4021 11.2758 91.8075 10.678 92.2774 10.1229C93.2009 9.03178 94.3227 8.21075 95.6245 7.63212C96.4045 7.28542 97.2151 7.04658 98.0564 6.88399C98.9635 6.70867 99.8755 6.69436 100.785 6.74054C101.821 6.79315 102.826 7.0414 103.792 7.42981C104.501 7.71469 105.162 8.08897 105.768 8.54933C106.442 9.06122 107.027 9.66934 107.501 10.3715C107.81 10.8306 108.11 11.3029 108.353 11.7991C108.793 12.6957 109.111 13.6394 109.269 14.6302C109.347 15.124 109.425 15.6191 109.471 16.1166C109.527 16.7367 109.549 17.3599 109.587 17.9932C104.75 17.9932 99.9457 17.9932 95.1207 17.9932C95.1087 18.367 95.2082 18.7284 95.3231 19.088C95.6102 19.9861 96.1162 20.7449 96.8161 21.3667C97.4353 21.9167 98.1656 22.2766 98.9763 22.4394C99.9514 22.6352 100.896 22.4729 101.819 22.1288C102.585 21.8437 103.207 21.363 103.75 20.7661C103.826 20.6818 103.918 20.6014 103.964 20.5013C104.051 20.3125 104.164 20.3306 104.326 20.3926C104.995 20.6481 105.67 20.8904 106.341 21.1414C107.055 21.4087 107.768 21.6805 108.482 21.9493C108.506 21.9582 108.533 21.9564 108.602 21.9648C108.563 22.0861 108.537 22.1993 108.491 22.3041C108.107 23.1905 107.524 23.9364 106.818 24.5829C106.308 25.0499 105.75 25.4543 105.137 25.789C104.189 26.3074 103.175 26.6254 102.123 26.8291C101.723 26.9066 101.311 26.9173 100.904 26.9592C100.757 26.9743 100.611 26.9919 100.458 27.0247C100.327 27.041 100.203 27.041 100.054 27.0251C99.924 27.0197 99.8185 27.0304 99.7131 27.041C99.5616 27.041 99.4102 27.041 99.2398 27.041ZM96.2255 12.3323C95.6987 12.9478 95.3212 13.6411 95.1235 14.4152C98.1449 14.4152 101.159 14.4152 104.179 14.4152C104.179 14.3335 104.194 14.2747 104.177 14.2281C104.06 13.9144 103.963 13.5895 103.809 13.2941C103.427 12.5584 102.903 11.9401 102.179 11.5175C101.564 11.1589 100.898 10.9483 100.184 10.9172C99.8703 10.9035 99.5547 10.9023 99.2411 10.9189C98.9887 10.9322 98.7334 10.9598 98.4878 11.0173C97.6124 11.2222 96.8582 11.6459 96.2255 12.3323Z" fill="#080A0A"/>
<path d="M70.4895 0.0410156C70.5088 1.78394 70.5088 3.52687 70.5088 5.28641C67.8168 5.28641 65.1341 5.28641 62.435 5.28641C62.435 12.2951 62.435 19.2873 62.435 26.2909C60.3784 26.2909 58.3384 26.2909 56.2818 26.2909C56.2818 19.3 56.2818 12.3079 56.2818 5.2991C53.5827 5.2991 50.9 5.2991 48.1953 5.2991C48.1953 3.5482 48.1953 1.81384 48.1953 0.0602462C55.6203 0.0410156 63.0453 0.0410156 70.4895 0.0410156Z" fill="#080A0A"/>
<path d="M144.687 27.041C144.621 27.0136 144.575 26.9659 144.526 26.9619C143.082 26.8457 141.695 26.5046 140.356 25.9523C139.408 25.5615 138.536 25.0475 137.726 24.423C137.604 24.3286 137.498 24.2121 137.375 24.1186C137.235 24.012 137.234 23.9102 137.323 23.7631C138.047 22.5583 138.765 21.3494 139.486 20.1423C139.495 20.1266 139.516 20.1177 139.513 20.1202C139.926 20.4288 140.316 20.7532 140.738 21.0302C141.747 21.6929 142.84 22.1729 144.008 22.4933C144.849 22.7241 145.699 22.86 146.568 22.8086C147.237 22.769 147.897 22.6606 148.48 22.2826C149.033 21.924 149.285 21.4127 149.214 20.7673C149.169 20.3516 148.849 20.1104 148.514 19.9188C147.976 19.6109 147.375 19.4697 146.779 19.3308C146.071 19.1657 145.357 19.0181 144.642 18.8831C143.7 18.7051 142.775 18.4678 141.876 18.1366C140.987 17.8095 140.16 17.3833 139.458 16.7261C138.656 15.9758 138.17 15.0663 138.03 13.9853C137.961 13.4506 137.932 12.9046 137.951 12.3661C137.972 11.7832 138.13 11.2189 138.363 10.6788C138.683 9.93635 139.156 9.30441 139.748 8.76076C140.325 8.23049 140.992 7.83104 141.704 7.51671C142.362 7.22623 143.055 7.02838 143.763 6.89983C144.144 6.83063 144.533 6.79566 144.92 6.77442C145.456 6.74503 145.997 6.70204 146.53 6.73973C147.214 6.7881 147.895 6.89314 148.573 7.00628C149.296 7.12707 149.992 7.35284 150.671 7.63206C151.546 7.99243 152.381 8.42692 153.144 8.99137C153.336 9.13328 153.531 9.27084 153.734 9.41717C153.016 10.687 152.3 11.9534 151.591 13.2076C151.247 12.9387 150.92 12.675 150.585 12.4221C149.946 11.9402 149.227 11.6144 148.47 11.367C147.902 11.1813 147.324 11.0319 146.725 10.999C146.278 10.9745 145.827 10.9309 145.382 10.9645C144.63 11.0216 143.913 11.2197 143.367 11.7906C143.057 12.1148 142.904 12.5235 143.085 12.9443C143.181 13.1683 143.415 13.3632 143.632 13.4988C144.147 13.8206 144.744 13.9397 145.328 14.0708C146.013 14.2244 146.706 14.3396 147.391 14.4924C148.054 14.6403 148.715 14.7992 149.37 14.9817C150.087 15.1817 150.786 15.4416 151.441 15.8001C152.526 16.3939 153.403 17.1929 153.898 18.3563C154.125 18.8899 154.267 19.4451 154.301 20.0574C154.272 20.1375 154.23 20.1848 154.229 20.2327C154.223 20.5979 154.222 20.9633 154.231 21.3283C154.232 21.3734 154.307 21.4165 154.348 21.4604C154.348 21.4604 154.348 21.481 154.334 21.4947C154.33 21.5472 154.339 21.5859 154.348 21.6246C154.348 21.6428 154.348 21.6611 154.333 21.6977C154.3 21.7917 154.282 21.8672 154.266 21.943C154.051 22.9164 153.641 23.794 152.971 24.5383C152.502 25.0598 151.946 25.4762 151.333 25.8133C150.083 26.5 148.734 26.8435 147.321 26.961C147.174 26.9732 147.029 27.0136 146.883 27.041C146.158 27.041 145.432 27.041 144.687 27.041Z" fill="#050708"/>
<path d="M154.348 21.4413C154.307 21.4165 154.232 21.3734 154.231 21.3284C154.222 20.9634 154.223 20.5979 154.229 20.2327C154.23 20.1848 154.272 20.1375 154.302 20.0754C154.309 20.0609 154.329 20.0647 154.338 20.065C154.348 20.5176 154.348 20.9698 154.348 21.4413Z" fill="#050708"/>
<path d="M118.785 14.0698C119.001 13.1802 119.222 12.31 119.428 11.4359C119.7 10.2777 119.958 9.11627 120.223 7.95641C120.262 7.78907 120.299 7.62098 120.349 7.45712C120.362 7.41251 120.421 7.38096 120.462 7.34611C120.47 7.33933 120.488 7.34499 120.502 7.34499C122.354 7.34498 124.206 7.34498 126.062 7.34498C127.102 11.5976 128.141 15.8454 129.177 20.0821C130.34 15.8482 131.506 11.605 132.674 7.3519C134.635 7.3519 136.609 7.3519 138.609 7.3519C138.507 7.68062 138.409 7.9984 138.31 8.31604C137.873 9.72433 137.437 11.1332 136.997 12.5407C136.691 13.5208 136.377 14.4988 136.069 15.4785C135.803 16.3265 135.54 17.1758 135.276 18.0244C134.938 19.1052 134.599 20.1855 134.263 21.2667C133.993 22.1342 133.727 23.0031 133.457 23.8705C133.206 24.6751 132.947 25.4771 132.703 26.2838C132.667 26.4042 132.616 26.4271 132.508 26.427C130.58 26.425 128.652 26.4244 126.725 26.4282C126.606 26.4284 126.563 26.3823 126.537 26.2768C126.142 24.6674 125.752 23.0566 125.345 21.4504C124.918 19.7688 124.471 18.0922 124.036 16.4128C123.804 15.5185 123.576 14.6231 123.349 13.7275C123.303 13.5451 123.27 13.3595 123.187 13.1817C123.046 13.7767 122.912 14.3732 122.764 14.9665C122.386 16.4845 122.001 18.001 121.62 19.5182C121.181 21.2659 120.741 23.0134 120.304 24.7616C120.176 25.2742 120.061 25.79 119.928 26.3013C119.914 26.3535 119.82 26.4202 119.763 26.4204C117.828 26.4266 115.894 26.4253 113.959 26.4261C113.864 26.4262 113.812 26.4149 113.775 26.2963C113.321 24.8243 112.853 23.3565 112.393 21.8862C112.124 21.0254 111.866 20.161 111.597 19.3001C111.251 18.1942 110.897 17.0909 110.552 15.985C110.283 15.1239 110.025 14.2594 109.756 13.3983C109.368 12.1541 108.971 10.9124 108.584 9.66783C108.346 8.90161 108.118 8.13199 107.88 7.34497C107.949 7.34497 108.015 7.34497 108.081 7.34497C109.913 7.34497 111.745 7.34606 113.577 7.34288C113.721 7.34263 113.788 7.36446 113.831 7.53454C114.048 8.39746 114.287 9.2551 114.526 10.1123C114.849 11.2673 115.178 12.4206 115.506 13.574C115.722 14.3344 115.951 15.0914 116.159 15.8542C116.481 17.0378 116.79 18.2249 117.105 19.4105C117.179 19.6909 117.255 19.971 117.34 20.2889C117.376 20.1685 117.41 20.0764 117.43 19.9813C117.543 19.4502 117.644 18.9166 117.763 18.3872C117.962 17.5108 118.169 16.6364 118.377 15.7621C118.509 15.2031 118.648 14.6456 118.785 14.0698Z" fill="#080A0A"/>
<path d="M76.3333 7.83767C76.4104 8.27107 76.4875 8.68662 76.5677 9.11874C76.8542 8.89501 77.1346 8.67329 77.418 8.45548C78.0345 7.98161 78.7352 7.67363 79.4782 7.47439C80.0524 7.32042 80.6366 7.16941 81.2255 7.11383C81.883 7.05178 82.5527 7.06739 83.2135 7.10852C83.7556 7.14227 84.3013 7.22547 84.8295 7.35256C86.0618 7.64899 87.1462 8.22674 87.9741 9.21009C88.5759 9.92498 88.9658 10.745 89.1373 11.674C89.2467 12.2668 89.296 12.8589 89.2958 13.4593C89.2938 17.6446 89.2947 21.8298 89.2947 26.0151C89.2947 26.0894 89.2947 26.1637 89.2947 26.2702C87.4365 26.2702 85.5877 26.2702 83.7164 26.2702C83.7164 26.1789 83.7164 26.1063 83.7164 26.0336C83.7164 22.7921 83.7253 19.5506 83.7099 16.3091C83.7062 15.53 83.6102 14.7513 83.3016 14.022C82.9445 13.1779 82.3003 12.645 81.4289 12.3966C80.4767 12.1252 79.5314 12.1521 78.6033 12.5241C78.1591 12.7021 77.7574 12.9529 77.43 13.2942C76.9319 13.8137 76.6266 14.4505 76.414 15.1352C76.1855 15.8713 76.1647 16.6264 76.1665 17.3886C76.1732 20.2676 76.1692 23.1467 76.1692 26.0258C76.1692 26.0991 76.1692 26.1725 76.1692 26.2534C74.3085 26.2534 72.4646 26.2534 70.6031 26.2534C70.5994 26.2086 70.5915 26.1572 70.5914 26.1058C70.5904 25.6955 70.5931 25.2851 70.5904 24.8748C70.5776 22.9428 70.5644 21.0107 70.5495 19.0787C70.5372 17.468 70.5243 15.8574 70.5081 14.2467C70.4981 13.2515 70.4978 12.2558 70.4618 11.2615C70.439 10.6307 70.3662 10.0013 70.3018 9.37272C70.244 8.8076 70.1704 8.24399 70.0966 7.68065C70.0734 7.50316 70.0271 7.3287 69.99 7.14645C72.0389 7.14645 74.0875 7.14645 76.1615 7.14645C76.2173 7.36527 76.2752 7.59255 76.3333 7.83767Z" fill="#080A0A"/>
</g>
<defs>
<clipPath id="clip0_2164_1285">
<rect width="154.307" height="27" fill="white"/>
</clipPath>
</defs>
</svg>
