<svg width="44" height="27" viewBox="0 0 44 27" fill="none" xmlns="http://www.w3.org/2000/svg">
<g clip-path="url(#clip0_2164_1254)">
<path d="M42.7583 19.4921C42.7353 19.0885 42.7063 18.6849 42.6713 18.2813C42.6624 18.1817 42.6424 18.0843 42.6119 17.9892C42.4015 17.3239 41.7065 16.7947 40.9528 16.7612C38.9125 16.6757 37.4831 16.6349 35.4806 16.6349C35.416 16.6349 35.3528 16.6349 35.2866 16.6349C34.4601 15.1676 34.8206 13.901 34.8206 13.901C34.2081 14.5231 33.2723 15.4508 33.3124 16.6557C32.0005 16.675 30.6878 16.7062 29.3759 16.7612C28.5144 16.7999 27.7295 17.4852 27.6574 18.2813C27.4485 20.6881 27.4485 23.0956 27.6574 25.5025C27.7295 26.2985 28.5144 26.9839 29.3759 27.0225C32.1588 27.1392 34.6377 27.1764 37.2274 27.1333C39.2559 27.1407 40.0475 27.0634 40.9506 27.0225C40.9513 27.0225 40.9513 27.0225 40.9521 27.0225C41.8136 26.9839 42.5985 26.2985 42.6706 25.5025C42.7494 24.5949 42.7984 23.6873 42.8178 22.7797C42.8423 21.6841 42.8215 20.5885 42.7583 19.4921Z" fill="black"/>
<path d="M8.99173 5.84432C8.99173 4.75241 8.6022 4.34582 7.0441 4.34582C5.35641 4.34582 4.9343 4.81782 4.98243 5.82797C4.51219 5.77891 3.78127 5.77891 3.00222 5.77891C2.12542 5.77891 1.21678 5.79526 0.696916 5.86067C0.664332 2.74921 2.4009 1.52722 7.14111 1.52722C12.0109 1.52722 13.666 2.92835 13.666 5.58416C13.666 6.90353 13.6172 7.83265 13.6172 9.0866C13.6172 10.1785 13.7149 11.4652 13.8771 11.9379H10.03C9.16946 11.9379 9.03986 11.8725 9.03986 10.9605C9.03986 10.7486 9.03986 10.4394 9.05615 10.0968H8.9584C8.42299 11.4979 6.91303 12.1661 4.62475 12.1661C1.80106 12.1661 0.372559 11.4169 0.372559 9.29844C0.372559 7.14807 2.04396 6.31706 5.80962 6.31706C7.09224 6.31706 8.21194 6.34977 8.99099 6.47984V5.84432H8.99173ZM8.97543 7.83191C8.26155 7.75015 7.51509 7.73379 6.73529 7.73379C5.40454 7.73379 4.83655 8.02665 4.83655 8.67853C4.83655 9.31405 5.30679 9.5913 6.6057 9.5913C8.01865 9.59205 8.97543 8.97288 8.97543 7.83191Z" fill="#1E1E1D"/>
<path d="M21.3106 1.8201C23.3234 1.8201 25.271 1.80375 26.5536 1.7874C26.521 2.8139 26.4559 4.08494 26.4721 5.14341C25.482 5.12705 23.4048 5.09435 21.2617 5.06239C21.2454 5.71426 21.2454 6.3981 21.2454 7.13174C21.2454 8.02742 21.6186 8.38569 23.1604 8.38569C24.5401 8.38569 25.5628 8.20655 26.3418 7.97836C26.4388 9.13494 26.6173 10.5197 26.7965 11.6443C25.3843 11.9045 23.9402 12.0844 22.0733 12.0844C17.6582 12.0844 16.5385 10.455 16.5385 8.17459C16.5385 7.40899 16.5548 6.25241 16.5711 5.01407L15.4025 4.99772C15.4188 4.1013 15.4188 2.61915 15.3862 1.78814L16.6037 1.80449C16.6037 1.05525 16.62 0.371407 16.6037 -0.150391C17.3827 -0.134781 18.1944 -0.118429 19.006 -0.118429C19.8013 -0.118429 20.6619 -0.118429 21.3757 -0.150391L21.3106 1.8201Z" fill="#1E1E1D"/>
<path d="M42.4426 1.78748C41.6147 3.05852 40.5439 4.93164 39.359 6.87092C40.5439 8.76039 41.745 10.6179 42.5404 11.938H36.8923C36.5027 11.0743 36.1458 10.4878 35.6259 9.51038C35.3505 8.94027 35.1394 8.45118 34.9928 8.0275H34.8469C34.6847 8.46753 34.4574 8.98858 34.1811 9.55944C33.662 10.5369 33.2881 11.2207 32.98 11.938H27.7695C28.6463 10.6506 29.8475 8.72843 31.0479 6.7899C29.863 4.93239 28.7263 3.05852 27.8503 1.78822H33.5147C33.8879 2.65194 34.3426 3.48295 34.8462 4.49309C35.0891 4.94948 35.252 5.37316 35.3816 5.73144H35.5112C35.6408 5.35681 35.8192 4.94948 36.0466 4.47674C36.5657 3.43389 37.0367 2.53821 37.3447 1.78822H42.4426V1.78748Z" fill="#1E1E1D"/>
<path d="M5.92434 16.7976C7.93713 16.7976 9.88475 16.7813 11.1674 16.7649C11.1348 17.7914 11.0696 19.0625 11.0859 20.1209C10.0958 20.1046 8.01859 20.0719 5.87546 20.0399C5.85917 20.6918 5.85917 21.3756 5.85917 22.1093C5.85917 23.005 6.2324 23.3632 7.77421 23.3632C9.15384 23.3632 10.1765 23.1841 10.9556 22.9559C11.0526 24.1125 11.2311 25.4972 11.4103 26.6219C9.99806 26.882 8.554 27.0619 6.68709 27.0619C2.27198 27.0619 1.15228 25.4326 1.15228 23.1521C1.15228 22.3865 1.16858 21.23 1.18487 19.9916L0.0162919 19.9753C0.0325839 19.0788 0.0325838 17.5967 0 16.7657L1.21745 16.782C1.21745 16.0328 1.23374 15.3489 1.21745 14.8271C1.9965 14.8428 2.80814 14.8591 3.61977 14.8591C4.41511 14.8591 5.27562 14.8591 5.9895 14.8271L5.92434 16.7976Z" fill="#1E1E1D"/>
<path d="M27.0891 16.7649C26.0013 19.3553 23.6804 25.2534 23.0309 26.9147C22.2193 26.8983 21.2292 26.882 19.7844 26.882C18.1611 26.882 16.863 26.882 16.3757 26.9147C15.7262 25.3508 13.3239 19.4044 12.1716 16.7649H17.5931C17.7716 17.6286 18.4855 19.6653 18.9891 21.4566C19.2971 22.4504 19.5408 23.3305 19.7192 24.0307H19.914C20.0925 23.3297 20.3361 22.4341 20.6442 21.4403C21.1796 19.5991 21.8616 17.5461 22.0075 16.7642H27.0891V16.7649Z" fill="#1E1E1D"/>
<path d="M32.3379 20.7542L31.5857 19.1219C31.5857 19.1219 30.8335 21.4797 30.8335 22.8852C30.8335 24.2908 32.3372 25.0178 32.3372 25.0178L33.7859 25.9722C32.4955 24.2321 34.8325 21.1154 34.8325 21.1154C34.1018 22.9373 35.6233 25.6949 35.6233 25.6949C36.354 25.5299 37.5648 23.3349 37.5648 23.3349C37.5589 24.8505 37.0839 25.9729 37.0839 25.9729C37.0839 25.9729 38.1795 25.3552 39.1533 24.0515C40.127 22.7477 39.1533 18.945 39.1533 18.945C38.9704 20.5037 36.3778 22.2691 36.3778 22.2691C36.3778 22.2691 37.4816 19.1821 36.082 17.7371C35.775 17.4205 35.5118 17.0362 35.2836 16.6311C34.637 16.6318 33.9576 16.6415 33.3109 16.6512C33.3191 16.9039 33.3399 17.1484 33.3719 17.3737C33.5555 18.6514 32.3379 20.7542 32.3379 20.7542Z" fill="#F8F8F8"/>
</g>
<defs>
<clipPath id="clip0_2164_1254">
<rect width="43.3929" height="27" fill="white"/>
</clipPath>
</defs>
</svg>
