<svg width="130" height="27" viewBox="0 0 130 27" fill="none" xmlns="http://www.w3.org/2000/svg">
<g clip-path="url(#clip0_2164_1302)">
<path d="M52.0166 27.0538C51.6362 26.9648 51.282 26.8712 50.9254 26.7877C50.0676 26.5869 49.3161 26.1734 48.6216 25.6448C48.4278 25.4972 48.2388 25.3433 48.0241 25.1738C48.0241 25.7129 48.0241 26.2335 48.0241 26.7694C46.0083 26.7694 44.0152 26.7694 42.0066 26.7694C42.0066 18.2007 42.0066 9.62794 42.0066 1.03857C44.0292 1.03857 46.0581 1.03857 48.1146 1.03857C48.1146 3.73065 48.1146 6.4302 48.1146 9.12952C50.7932 7.61872 53.5136 7.64803 56.2248 8.88567C58.9673 10.1376 60.4724 12.4112 61.1768 15.2916C61.4436 14.249 61.8239 13.2789 62.383 12.3808C62.9552 11.4617 63.6436 10.6443 64.484 9.96112C65.3096 9.28998 66.2178 8.76074 67.2241 8.40396C68.2366 8.04496 69.2786 7.85572 70.3523 7.85409C71.4263 7.85246 72.4704 8.01886 73.4869 8.38394C74.4921 8.74499 75.4028 9.25492 76.2416 9.9167C77.0938 10.5891 77.7738 11.3998 78.3607 12.3056C78.927 13.1796 79.2774 14.1475 79.6126 15.1258C79.937 13.7153 80.4915 12.4357 81.3304 11.2943C82.2089 10.0992 83.3561 9.2214 84.7238 8.6462C85.4359 8.34668 86.176 8.1343 86.9514 8.06733C87.3458 8.03327 87.7396 7.97043 88.1342 7.9653C89.0964 7.95279 90.0247 8.14948 90.8944 8.55661C91.4689 8.82559 92.0135 9.15874 92.5748 9.46499C92.5748 9.11112 92.5748 8.70784 92.5748 8.29406C94.6338 8.29406 96.6626 8.29406 98.7026 8.29406C98.7026 14.4559 98.7026 20.6086 98.7026 26.7731C96.666 26.7731 94.6372 26.7731 92.5913 26.7731C92.5913 26.4561 92.5913 26.1454 92.5913 25.7865C91.5285 26.4956 90.3943 26.8995 89.1516 27.0326C88.5331 27.0538 87.9226 27.0538 87.2789 27.0326C87.0896 26.9896 86.9336 26.9671 86.7773 26.9465C85.939 26.836 85.1361 26.588 84.3794 26.2256C83.2894 25.7036 82.3326 24.9988 81.5457 24.0614C80.6718 23.0203 80.0499 21.8619 79.7312 20.5399C79.6867 20.3555 79.6196 20.1765 79.5629 19.995C79.3289 20.4513 79.1545 20.8964 78.9838 21.343C78.6223 22.2885 78.0667 23.1175 77.4011 23.8661C76.4772 24.9052 75.3873 25.7295 74.0949 26.2723C73.2751 26.6166 72.4321 26.8609 71.5451 26.9478C71.281 26.9737 71.0187 27.018 70.7557 27.0538C70.3961 27.0538 70.0365 27.0538 69.6441 27.0328C65.1511 26.4733 62.4377 23.9129 61.1733 19.7534C60.9893 20.3246 60.8156 20.9479 60.5881 21.5509C60.1885 22.6095 59.5823 23.5488 58.8223 24.3848C58.2934 24.9665 57.6887 25.4603 57.0175 25.8732C56.2077 26.3714 55.3441 26.7274 54.4052 26.8927C54.1023 26.946 53.7996 27.0001 53.4969 27.0538C53.0118 27.0538 52.5268 27.0538 52.0166 27.0538ZM85.3236 18.4794C85.6656 19.5739 86.3871 20.3073 87.4537 20.7061C88.0746 20.9383 88.7126 20.9971 89.3608 20.8403C90.1497 20.6494 90.8139 20.2666 91.337 19.6242C91.9808 18.8335 92.2091 17.9257 92.0872 16.9477C91.9805 16.0916 91.5711 15.3659 90.8994 14.792C90.2794 14.2624 89.5645 13.9633 88.766 13.9404C87.6886 13.9095 86.7717 14.3067 86.038 15.1217C85.4629 15.7605 85.159 16.4971 85.1712 17.351C85.1765 17.7162 85.2516 18.0803 85.3236 18.4794ZM72.6903 14.7087C72.0804 14.1572 71.3582 13.8506 70.5436 13.8297C69.366 13.7996 68.3845 14.2445 67.6521 15.1825C67.0391 15.9677 66.7881 16.8721 66.9501 17.848C67.0942 18.7162 67.4949 19.4648 68.2133 20.0254C69.1587 20.7632 70.2066 21.0041 71.3523 20.6685C72.421 20.3555 73.1893 19.6693 73.6173 18.6272C73.9268 17.8736 73.9601 17.1122 73.7279 16.3241C73.5411 15.6901 73.2004 15.1724 72.6903 14.7087ZM55.1636 17.2517C55.0203 16.1957 54.5296 15.3536 53.6517 14.7339C52.8925 14.198 52.0365 14.0425 51.1508 14.16C50.3483 14.2664 49.6666 14.6662 49.1074 15.2756C48.3597 16.0904 48.1046 17.0634 48.2427 18.1185C48.3643 19.0465 48.8384 19.8117 49.5999 20.3894C50.9543 21.417 52.8247 21.3219 54.0776 20.1443C54.888 19.3827 55.2398 18.4175 55.1636 17.2517Z" fill="black"/>
<path d="M117.826 27.0538C117.757 27.018 117.717 26.9566 117.669 26.9501C116.592 26.8029 115.594 26.4396 114.663 25.8808C113.914 25.432 113.263 24.8654 112.69 24.2176C111.973 23.4072 111.421 22.4903 111.02 21.4779C110.719 20.7165 110.504 19.9334 110.392 19.129C110.306 18.5176 110.259 17.8916 110.285 17.2758C110.33 16.178 110.491 15.0936 110.86 14.047C111.232 12.9912 111.756 12.0287 112.47 11.1624C113.263 10.1985 114.22 9.44522 115.336 8.90205C116.162 8.49953 117.033 8.20542 117.957 8.12503C118.582 8.07064 119.213 7.99968 119.837 8.02462C121.073 8.07398 122.257 8.35492 123.317 9.03692C123.364 9.06706 123.421 9.07994 123.5 9.11097C123.5 6.40089 123.5 3.72475 123.5 1.02197C125.537 1.02197 127.558 1.02197 129.604 1.02197C129.629 9.57489 129.629 18.1278 129.604 26.7059C127.594 26.7311 125.609 26.7311 123.602 26.7311C123.602 26.2021 123.602 25.6987 123.602 25.181C123.447 25.2883 123.301 25.3667 123.182 25.4752C122.342 26.2422 121.338 26.6626 120.241 26.8914C119.949 26.9524 119.654 27.0001 119.36 27.0538C118.857 27.0538 118.354 27.0538 117.826 27.0538ZM122.228 14.9C122.197 14.8842 122.163 14.8735 122.138 14.8517C121.364 14.1805 120.434 13.9781 119.464 14.111C118.534 14.2385 117.756 14.7152 117.178 15.4894C116.581 16.2875 116.39 17.1932 116.532 18.1464C116.673 19.0866 117.187 19.8371 117.956 20.4078C118.717 20.9725 119.59 21.1445 120.492 21.0124C121.403 20.8791 122.166 20.4173 122.74 19.6689C123.317 18.9147 123.54 18.0556 123.436 17.1321C123.336 16.256 122.918 15.5167 122.228 14.9Z" fill="black"/>
<path d="M0.053772 1.04718C2.06801 1.02197 4.08225 1.02197 6.12272 1.02197C6.12272 3.73072 6.12272 6.42984 6.12272 9.12432C6.61425 8.89133 7.0761 8.64324 7.55997 8.45046C8.16025 8.21131 8.79117 8.08342 9.44185 8.0663C9.82277 8.05628 10.2033 8.01658 10.584 8.01714C11.4191 8.01838 12.2355 8.16532 13.034 8.39963C14.0126 8.68681 14.9159 9.14408 15.7288 9.7529C16.7289 10.5019 17.5137 11.4449 18.1257 12.5411C18.6412 13.4644 18.9699 14.4494 19.1838 15.474C19.3878 16.4515 19.4104 17.4507 19.3456 18.4407C19.2565 19.8012 18.8913 21.102 18.2773 22.3228C17.7512 23.369 17.036 24.2784 16.161 25.0534C15.1925 25.9112 14.066 26.4932 12.8182 26.8217C12.3989 26.9321 11.9553 26.9503 11.5143 27.0323C10.9671 27.0538 10.4283 27.0538 9.85819 27.0333C9.66101 26.9727 9.49643 26.9261 9.32911 26.8936C8.46747 26.7263 7.68837 26.3666 6.96889 25.8738C6.65062 25.6559 6.34705 25.4164 6.00572 25.1637C6.00572 25.7288 6.00572 26.2532 6.00572 26.7849C4.00947 26.7849 2.03162 26.7849 0.053772 26.7849C0.053772 18.2141 0.053772 9.64323 0.053772 1.04718ZM13.1189 17.0256C13.0658 16.8263 13.0257 16.6224 12.9574 16.4285C12.7381 15.8056 12.3679 15.2957 11.8453 14.8814C10.9413 14.1648 9.91888 13.9912 8.82813 14.2278C8.11012 14.3835 7.51334 14.7875 7.03763 15.3595C6.33253 16.2072 6.05038 17.1778 6.25541 18.2582C6.39617 18.9999 6.75378 19.6421 7.32523 20.1591C8.24302 20.9893 9.30307 21.2766 10.5007 20.987C11.8086 20.6707 12.6428 19.8324 13.036 18.5556C13.1847 18.0729 13.2428 17.5763 13.1189 17.0256Z" fill="black"/>
<path d="M23.6317 0.053833C23.9517 0.158183 24.2527 0.247841 24.5401 0.369651C25.3845 0.727573 25.9723 1.35648 26.3319 2.18596C26.5406 2.66725 26.6484 3.18518 26.6121 3.71711C26.555 4.55474 26.2819 5.30132 25.7112 5.94018C25.1579 6.55966 24.483 6.96983 23.6737 7.08117C22.6352 7.22405 21.662 7.02856 20.817 6.33728C20.1771 5.81387 19.7763 5.1566 19.6038 4.36172C19.353 3.20548 19.6142 2.16761 20.3799 1.26054C20.8644 0.686568 21.4702 0.3103 22.2015 0.13837C22.2862 0.118459 22.3734 0.109345 22.4668 0.0745292C22.8515 0.0538329 23.229 0.0538329 23.6317 0.053833Z" fill="black"/>
<path d="M27.313 21.6753C27.313 14.7833 27.313 7.91817 27.313 1.03748C29.3533 1.03748 31.3823 1.03748 33.4268 1.03748C33.4268 9.60694 33.4268 18.1803 33.4268 26.7692C31.4019 26.7692 29.3729 26.7692 27.313 26.7692C27.313 25.0829 27.313 23.3925 27.313 21.6753Z" fill="black"/>
<path d="M39.5716 1.02197C39.9736 1.02197 40.3487 1.02197 40.7391 1.02197C40.7391 9.60731 40.7391 18.1806 40.7391 26.7695C38.7138 26.7695 36.6848 26.7695 34.6404 26.7695C34.6404 18.1996 34.6404 9.62625 34.6404 1.02197C36.2727 1.02197 37.9087 1.02197 39.5716 1.02197Z" fill="black"/>
<path d="M99.8967 11.6175C99.8967 10.4985 99.8967 9.4065 99.8967 8.29866C101.936 8.29866 103.964 8.29866 106.021 8.29866C106.021 8.85787 106.021 9.42436 106.021 9.99085C106.038 10.0066 106.055 10.0224 106.072 10.0382C107.034 8.59794 108.459 8.1316 110.095 8.07617C110.095 10.2089 110.095 12.3463 110.095 14.5219C109.755 14.5219 109.401 14.512 109.047 14.5239C108.208 14.5521 107.456 14.8081 106.868 15.4322C106.466 15.859 106.221 16.3807 106.141 16.9567C106.069 17.4711 106.033 17.9943 106.031 18.5139C106.02 21.166 106.026 23.8182 106.026 26.4704C106.026 26.5671 106.026 26.6637 106.026 26.7724C103.98 26.7724 101.951 26.7724 99.8967 26.7724C99.8967 21.7271 99.8967 16.6857 99.8967 11.6175Z" fill="black"/>
<path d="M20.0009 23.7191C20.0009 18.5662 20.0009 13.4401 20.0009 8.29846C22.0412 8.29846 24.0702 8.29846 26.1147 8.29846C26.1147 14.4476 26.1147 20.6006 26.1147 26.7693C24.0898 26.7693 22.0608 26.7693 20.0009 26.7693C20.0009 25.7643 20.0009 24.7552 20.0009 23.7191Z" fill="black"/>
</g>
<defs>
<clipPath id="clip0_2164_1302">
<rect width="129.575" height="27" fill="white"/>
</clipPath>
</defs>
</svg>
