<svg width="206" height="27" viewBox="0 0 206 27" fill="none" xmlns="http://www.w3.org/2000/svg">
<g clip-path="url(#clip0_2164_1323)">
<path d="M205.426 25.8226C205.361 25.8858 205.247 25.8861 205.237 25.9181C205.031 26.5969 204.494 26.7921 203.881 26.7873C202.229 26.7745 200.579 26.7161 198.928 26.6941C195.788 26.6524 192.649 26.6116 189.51 26.5957C188.39 26.5901 187.268 26.653 186.148 26.6938C185.472 26.7184 184.796 26.7645 184.12 26.7935C183.47 26.8214 182.853 26.605 182.582 26.0364C182.297 25.4355 182.288 24.7285 182.644 24.0991C182.92 23.6126 183.755 23.4141 184.46 23.531C185.077 23.6334 185.736 23.7345 186.337 23.6214C187.137 23.4706 187.241 22.7116 187.246 22.0383C187.267 19.2673 187.255 16.496 187.255 13.7249C187.255 10.9195 187.273 8.11396 187.237 5.30907C187.231 4.85789 187.089 4.3347 186.828 3.97641C186.337 3.30013 185.563 3.61193 184.895 3.64911C184.214 3.687 183.495 3.96733 182.922 3.4027C182.689 3.17294 182.519 2.82207 182.449 2.49858C182.378 2.16327 182.396 1.775 182.493 1.44436C182.674 0.827791 183.188 0.505675 183.869 0.515913C185.623 0.542278 187.376 0.603761 189.13 0.611328C192.705 0.626755 196.28 0.624041 199.855 0.611232C200.993 0.607156 202.132 0.562187 203.269 0.509317C204.501 0.452014 204.887 1.06278 204.903 2.14718C204.916 2.97634 204.815 3.80681 204.817 4.63654C204.82 5.6546 204.908 6.67267 204.902 7.69041C204.898 8.30963 204.785 8.93561 204.116 9.23098C203.42 9.53837 202.752 9.53215 202.098 9.06578C201.685 8.77163 201.476 7.8589 201.551 7.41287C201.689 6.59662 201.822 5.7756 201.537 4.94697C201.26 4.14071 200.654 3.65311 199.888 3.61855C197.574 3.51425 195.254 3.49122 192.937 3.50866C192.121 3.51481 191.516 3.90689 191.475 4.94263C191.4 6.81335 191.376 8.68681 191.372 10.5592C191.37 11.2395 191.747 11.6509 192.512 11.6788C193.378 11.7103 194.258 11.6127 195.118 11.4795C195.621 11.4016 195.904 11.0166 195.883 10.4554C195.862 9.90875 195.875 9.36075 195.879 8.81339C195.884 8.06247 196.458 7.50029 197.218 7.49426C197.722 7.49026 198.21 7.46386 198.611 7.89935C198.947 8.26348 199.066 8.68233 199.052 9.13011C199.007 10.5681 198.878 12.0047 198.87 13.4424C198.865 14.5714 199.006 15.7006 199.055 16.8308C199.076 17.3262 198.971 17.8192 198.535 18.1245C197.954 18.5317 197.33 18.552 196.656 18.2973C196.016 18.0553 195.896 17.5637 195.881 16.9898C195.868 16.5282 195.85 16.0639 195.885 15.6048C195.936 14.9391 195.618 14.5391 195.025 14.43C194.153 14.2694 193.237 14.2513 192.348 14.3093C191.662 14.3541 191.374 14.7886 191.367 15.5697C191.349 17.6394 191.34 19.7096 191.369 21.779C191.388 23.0766 191.847 23.6264 193.144 23.6958C195.15 23.8032 197.163 23.8194 199.172 23.7954C199.78 23.7881 200.399 23.5608 200.988 23.3611C201.783 23.0916 202.077 22.3937 202.122 21.6452C202.17 20.8556 202.107 20.0538 202.03 19.2636C201.955 18.5056 202.476 17.6634 203.219 17.4704C204.115 17.2377 204.919 17.6109 205.228 18.397C205.25 18.4531 205.316 18.4921 205.394 18.5091C205.426 20.9109 205.426 23.3427 205.426 25.8226Z" fill="black"/>
<path d="M170.958 18.6509C171.273 19.2002 171.557 19.7222 171.864 20.2308C171.92 20.3238 172.081 20.4266 172.167 20.4073C172.252 20.3885 172.324 20.2264 172.362 20.1139C172.394 20.0222 172.369 19.9109 172.369 19.8082C172.369 15.1546 172.374 10.501 172.36 5.84745C172.358 5.40496 172.274 4.95059 172.152 4.52345C171.961 3.8568 171.55 3.56777 170.851 3.60088C170.201 3.6317 169.552 3.71398 168.906 3.79732C167.972 3.91765 167.034 2.84339 167.252 1.90316C167.498 0.843417 168.065 0.484582 169.043 0.506959C171.395 0.560778 173.748 0.596119 176.101 0.609274C177.119 0.614966 178.137 0.536909 179.156 0.516704C179.954 0.500868 180.483 0.80582 180.701 1.52813C180.907 2.2085 180.903 3.00942 180.291 3.40761C180.068 3.55313 179.784 3.66953 179.523 3.68094C179.072 3.70066 178.617 3.61935 178.163 3.59566C176.804 3.52471 176.083 4.04035 176.076 5.57039C176.048 11.5583 176.026 17.5468 176.081 23.5344C176.108 26.4606 175.709 26.916 172.775 26.7937C172.606 26.7867 172.438 26.7727 172.271 26.7498C171.37 26.6258 170.923 25.9516 170.526 25.2544C169.145 22.8322 167.785 20.3979 166.414 17.97C164.978 15.4274 163.541 12.8853 162.099 10.3462C161.39 9.09697 160.674 7.85116 159.943 6.61402C159.825 6.41339 159.616 6.26607 159.449 6.09411C159.41 6.12469 159.37 6.15528 159.331 6.18586C159.331 6.33823 159.331 6.4906 159.331 6.64297C159.331 11.6901 159.327 16.7372 159.338 21.7842C159.339 22.1262 159.41 22.4792 159.511 22.8077C159.796 23.734 160.715 23.7724 161.564 23.6875C162.168 23.6272 162.784 23.5713 163.384 23.6293C163.999 23.6888 164.353 24.1944 164.361 24.8143C164.377 25.9276 164.155 26.488 163.415 26.6349C162.666 26.7834 161.876 26.729 161.104 26.7557C161.008 26.759 160.911 26.6971 160.813 26.6947C159.299 26.6567 157.784 26.5854 156.27 26.6008C154.934 26.6145 153.6 26.7611 152.265 26.7732C151.868 26.7768 151.403 26.6109 151.087 26.3693C150.49 25.9136 150.405 24.8789 150.802 24.1674C151.107 23.6205 151.872 23.3709 152.616 23.5287C153.072 23.6254 153.54 23.6918 154.005 23.7068C154.848 23.734 155.387 23.2834 155.526 22.467C155.588 22.104 155.63 21.7327 155.63 21.3651C155.637 16.2153 155.647 11.0655 155.618 5.91594C155.615 5.33738 155.399 4.75495 155.245 4.18403C155.135 3.77541 154.773 3.60029 154.4 3.60586C153.678 3.61664 152.956 3.70054 152.234 3.75525C151.548 3.80722 150.573 3.41088 150.605 2.45797C150.616 2.12002 150.574 1.76562 150.663 1.44816C150.813 0.905955 151.446 0.50565 152.048 0.515691C153.682 0.54296 155.316 0.597439 156.95 0.609127C157.729 0.614693 158.508 0.551261 159.286 0.512451C160.529 0.450502 161.343 1.04255 161.902 2.12308C162.667 3.60244 163.473 5.06051 164.276 6.51966C165.51 8.7605 166.761 10.9918 167.995 13.2322C168.982 15.024 169.956 16.8232 170.958 18.6509Z" fill="black"/>
<path d="M32.7491 26.692C31.5941 26.7262 30.4904 26.7742 29.3863 26.7854C29.0973 26.7883 28.8014 26.6972 28.5185 26.6149C27.6379 26.3589 27.474 25.3736 27.6866 24.521C27.9184 23.5915 28.7498 23.4456 29.5938 23.5217C30.092 23.5666 30.5851 23.6756 31.0836 23.7091C31.9911 23.7701 32.369 23.093 32.4311 22.4729C32.5069 21.7157 32.5377 20.9514 32.5391 20.19C32.5483 15.4507 32.5538 10.7114 32.5305 5.97221C32.5277 5.40259 32.3595 4.83048 32.2389 4.26572C32.1288 3.7501 31.7225 3.58062 31.2599 3.60187C30.6087 3.63178 29.9563 3.69578 29.3115 3.79258C28.4672 3.91932 27.6236 3.22771 27.616 2.36211C27.6043 1.02727 28.1175 0.506538 29.4622 0.514511C34.7407 0.545808 40.0192 0.588905 45.2977 0.610307C46.4356 0.614921 47.5744 0.56229 48.7116 0.508725C49.65 0.464521 50.0938 1.20404 50.0915 1.87905C50.0889 2.65789 49.9997 3.4367 50.0035 4.21525C50.0091 5.33631 50.0144 6.4615 50.1114 7.57696C50.2364 9.01295 49.1215 9.6683 47.8253 9.33763C47.2401 9.18836 46.8037 8.63256 46.818 8.01215C46.8331 7.35278 46.9041 6.69445 46.9122 6.03519C46.9365 4.07754 45.9128 3.59349 44.4019 3.51601C42.3883 3.41275 40.3646 3.45774 38.3468 3.50487C37.3942 3.52712 36.6406 3.8892 36.6419 5.19315C36.6434 6.67323 36.572 8.15327 36.5538 9.63359C36.5486 10.0518 36.6052 10.4727 36.6575 10.8894C36.7429 11.5692 37.3198 11.662 37.8076 11.6812C38.5796 11.7116 39.373 11.6893 40.1277 11.54C41.0405 11.3595 41.3473 10.6311 41.1116 9.63232C40.9357 8.887 41.1294 7.81029 41.9151 7.59307C43.0179 7.2882 44.2786 7.48289 44.2399 9.07266C44.2065 10.4427 44.059 11.8112 44.0568 13.1805C44.0548 14.4469 44.199 15.7129 44.2406 16.9803C44.2727 17.9576 43.6093 18.4721 42.6513 18.4676C41.638 18.4627 41.1106 17.9227 41.0736 16.9845C41.0558 16.5331 41.1557 16.0783 41.1616 15.6246C41.1689 15.0611 40.8258 14.6101 40.2683 14.4529C39.2973 14.1789 38.3124 14.1985 37.3259 14.3721C36.8705 14.4522 36.6898 14.776 36.6558 15.1833C36.6011 15.84 36.5621 16.4994 36.552 17.1581C36.5355 18.2358 36.5238 19.3146 36.5559 20.3915C36.5773 21.1098 36.6701 21.8266 36.746 22.5425C36.8215 23.2555 37.3473 23.5366 37.947 23.6901C38.3004 23.7806 38.6773 23.8093 39.0441 23.8121C40.6694 23.8245 42.2952 23.8363 43.92 23.8077C44.518 23.7971 45.1399 23.7591 45.7057 23.586C46.9439 23.2073 47.2932 22.5894 47.4108 21.3087C47.4799 20.5566 47.378 19.786 47.3228 19.026C47.2531 18.0675 47.9787 17.4764 48.7225 17.4438C50.1067 17.383 50.5578 18.0644 50.5909 19.0138C50.6394 20.4055 50.5285 21.8022 50.5163 23.197C50.5107 23.8385 50.617 24.4815 50.6038 25.1223C50.5789 26.3253 50.1356 26.8119 48.9452 26.7926C47.3451 26.7667 45.7453 26.7157 44.1452 26.6943C41.0225 26.6524 37.8998 26.6166 34.777 26.595C34.1183 26.5904 33.4592 26.6578 32.7491 26.692Z" fill="black"/>
<path d="M103.209 25.0756C102.17 25.7642 101.027 26.0818 99.8782 26.3832C98.0067 26.8742 96.093 26.8086 94.1854 26.7918C91.6444 26.7693 89.1036 26.7155 86.5625 26.6982C85.7498 26.6927 84.9366 26.7891 84.1238 26.7858C83.4432 26.7832 82.8109 26.5735 82.5492 25.8692C82.3076 25.2187 82.3054 24.5137 82.7816 23.9777C83.2015 23.505 83.8268 23.4392 84.4523 23.5361C84.8975 23.6051 85.3439 23.6782 85.7926 23.7103C86.8407 23.7855 87.1841 23.1295 87.2573 22.2775C87.2879 21.9209 87.2624 21.5594 87.2624 21.2001C87.2624 15.845 87.2626 10.4899 87.2623 5.13476C87.2622 4.06111 86.7956 3.57314 85.7299 3.6016C85.1983 3.6158 84.6653 3.69661 84.1395 3.78645C83.305 3.92906 82.4704 3.22717 82.4312 2.37032C82.3798 1.2455 82.7256 0.878591 83.4362 0.594328C83.4809 0.576427 83.5203 0.52144 83.5616 0.522023C84.7365 0.538613 85.9113 0.558892 87.0861 0.581586C87.4428 0.588476 87.7992 0.612597 88.1558 0.614352C89.1139 0.619067 90.0722 0.629101 91.03 0.612605C92.2025 0.592411 93.3789 0.599506 94.5458 0.502116C96.8786 0.307436 99.1669 0.534321 101.376 1.2651C104.605 2.33297 106.703 4.57721 107.67 7.8188C108.004 8.93984 108.173 10.1243 108.288 11.2926C108.41 12.5246 108.465 13.7769 108.392 15.0112C108.242 17.5812 107.744 20.0707 106.259 22.2613C105.467 23.4284 104.494 24.39 103.209 25.0756ZM101.476 5.23266C101.024 4.92644 100.601 4.56045 100.115 4.3242C97.8377 3.21747 95.4137 3.25432 92.9793 3.51715C92.4551 3.57374 91.8989 3.78588 91.6891 4.33352C91.5092 4.80315 91.3843 5.32638 91.3821 5.82654C91.3603 10.8703 91.3663 15.9143 91.3734 20.9581C91.374 21.3941 91.3884 21.8414 91.4849 22.2632C91.6347 22.9182 91.9457 23.4807 92.6995 23.6134C93.3024 23.7195 93.9094 23.9168 94.5097 23.8998C95.8014 23.8632 97.1091 23.82 98.3755 23.5888C100.619 23.1793 102.275 21.9081 103.234 19.803C104.074 17.958 104.222 15.9715 104.279 13.9943C104.313 12.8271 104.138 11.6477 103.988 10.4828C103.731 8.4927 103.033 6.69285 101.476 5.23266Z" fill="black"/>
<path d="M5.23575 10.7795C5.23575 9.08609 5.24997 7.44378 5.22635 5.80202C5.21997 5.35864 5.13814 4.90624 5.02144 4.47687C4.8364 3.79609 4.52778 3.56787 3.83431 3.60112C3.20118 3.63148 2.57236 3.74235 1.93966 3.79319C0.829059 3.88242 0.0158782 2.75927 0.365512 1.63524C0.601351 0.877049 1.08363 0.51583 1.87193 0.513892C2.7956 0.511622 3.71951 0.500617 4.64292 0.516469C5.91773 0.538353 7.19217 0.608692 8.46677 0.60851C9.75848 0.608325 11.05 0.536381 12.3419 0.516773C13.4369 0.500153 14.5392 0.434693 15.6262 0.529366C18.0661 0.741877 20.408 1.34222 22.353 2.92183C23.9316 4.20389 25.0308 5.85956 25.5479 7.83901C25.8318 8.92585 26.0587 10.0424 26.1572 11.1591C26.2811 12.5625 26.3548 13.9872 26.258 15.3894C26.0795 17.9751 25.4829 20.4652 23.9134 22.6098C22.7889 24.1463 21.2819 25.1979 19.5108 25.863C18.2481 26.3371 16.9441 26.6577 15.5855 26.6911C13.9862 26.7305 12.3866 26.7909 10.7873 26.7872C8.53763 26.7821 6.28813 26.7228 4.03846 26.694C3.18497 26.683 2.32188 26.7712 1.48006 26.6715C0.533831 26.5594 0.226471 25.9198 0.312155 24.7403C0.358947 24.0962 1.07294 23.4925 1.79643 23.519C2.43051 23.5422 3.06041 23.6622 3.69433 23.711C4.55412 23.7773 4.92865 23.3132 5.11417 22.6031C5.2105 22.2344 5.22998 21.8375 5.23088 21.4532C5.23915 17.9124 5.23575 14.3716 5.23575 10.7795ZM9.91413 23.3087C10.69 23.871 11.6172 23.8466 12.4975 23.9037C13.893 23.9942 15.2819 23.8567 16.6465 23.5123C18.2445 23.1089 19.5622 22.2788 20.491 20.9157C21.5253 19.3979 21.9157 17.647 22.0547 15.8546C22.1471 14.6644 22.1253 13.4581 22.056 12.2647C21.9972 11.2533 21.8621 10.2357 21.6429 9.24693C21.3621 7.98009 20.8137 6.811 19.9398 5.82768C18.3791 4.07172 16.3202 3.47361 14.0708 3.39937C13.0558 3.36587 12.0323 3.40945 11.0208 3.50438C10.0892 3.59181 9.35103 4.01285 9.34838 5.1169C9.33499 10.7085 9.33028 16.3001 9.36449 21.8915C9.36728 22.347 9.68529 22.8006 9.91413 23.3087Z" fill="black"/>
<path d="M63.4448 3.38818C63.6191 2.88437 63.7894 2.422 63.9598 1.95967C64.2933 1.05506 64.9216 0.475065 65.8942 0.42572C66.6674 0.386488 67.4474 0.476437 68.2242 0.513696C68.8844 0.545361 69.3405 0.940509 69.5723 1.49085C70.1205 2.79233 70.6105 4.11933 71.0924 5.44751C72.3707 8.97071 73.6325 12.4998 74.9001 16.0269C75.6062 17.9916 76.2923 19.9638 77.0229 21.9193C77.4317 23.0131 78.2962 23.5393 79.4402 23.6093C80.5091 23.6747 80.8786 24.1276 80.9059 25.3265C80.9244 26.1419 80.2787 26.7971 79.3486 26.7829C77.8951 26.7609 76.443 26.6168 74.9899 26.6095C73.8454 26.6037 72.7004 26.7712 71.5551 26.7769C70.6921 26.7812 69.797 26.9925 68.9694 26.526C68.3872 26.1977 68.132 25.558 68.2709 24.6823C68.3572 24.1385 68.8213 23.6633 69.4276 23.6231C70.1413 23.5757 70.8605 23.6129 71.5773 23.612C72.7053 23.6107 73.29 22.9125 72.9617 21.8289C72.5815 20.5734 72.0932 19.3509 71.6643 18.1098C71.4718 17.5525 71.0764 17.3469 70.5166 17.3479C68.0194 17.3524 65.5221 17.3484 63.0249 17.3508C62.3663 17.3514 62.1177 17.5435 61.9015 18.1842C61.4758 19.4451 61.0298 20.6996 60.6272 21.9679C60.3552 22.8248 60.9542 23.6121 61.8571 23.6064C62.4808 23.6025 63.105 23.5559 63.7274 23.5069C64.5156 23.4447 65.2596 23.9987 65.3941 24.7704C65.5612 25.7296 65.1045 26.5722 64.2453 26.6732C63.4707 26.7643 62.6772 26.6944 61.892 26.6945C61.4302 26.6946 60.9684 26.6923 60.5066 26.6922C59.2264 26.6918 57.9461 26.6805 56.6661 26.6966C55.9557 26.7055 55.246 26.7855 54.5358 26.7896C53.0157 26.7982 52.5121 25.5527 53.0641 24.2744C53.2573 23.8271 53.6653 23.6282 54.0587 23.6319C55.7785 23.6482 56.5672 22.5945 57.0785 21.1609C58.3265 17.6619 59.5798 14.1648 60.8342 10.6682C61.7002 8.25431 62.5717 5.84242 63.4448 3.38818ZM63.5475 13.3973C63.2292 14.3489 63.4413 14.3953 64.2297 14.3822C66.0414 14.3521 67.854 14.3752 69.6662 14.371C70.1667 14.3699 70.2977 14.1848 70.1356 13.7108C69.5667 12.0467 68.9897 10.3854 68.4205 8.72142C67.9896 7.46158 67.5731 6.19669 67.13 4.94118C67.0725 4.77826 66.8942 4.65798 66.7718 4.51795C66.6711 4.65499 66.5321 4.77807 66.4762 4.93144C66.2058 5.6728 65.9612 6.42349 65.7012 7.16868C64.9863 9.2175 64.2682 11.2652 63.5475 13.3973Z" fill="black"/>
<path d="M118.774 0.615956C120.014 0.581736 121.203 0.539219 122.392 0.515731C123.484 0.494157 123.901 1.17912 124.005 1.98015C124.125 2.89996 123.622 3.55789 122.702 3.68381C122.258 3.74448 121.795 3.65447 121.34 3.64007C120.585 3.61615 119.762 3.33277 119.183 4.08069C118.991 4.32964 118.854 4.65553 118.795 4.9659C118.707 5.42595 118.682 5.90349 118.681 6.37366C118.674 11.1631 118.671 15.9525 118.686 20.7419C118.687 21.2534 118.806 21.7654 118.881 22.2758C119.029 23.292 119.777 23.6611 120.593 23.7012C122.224 23.7813 123.86 23.8272 125.492 23.7965C126.173 23.7837 126.896 23.6455 127.518 23.3753C128.416 22.9853 128.807 22.1415 128.828 21.1906C128.849 20.2081 128.762 19.2237 128.741 18.2397C128.727 17.5623 128.972 17.0039 129.629 16.7224C130.331 16.4214 131.069 16.4432 131.627 16.9528C131.917 17.2172 132.076 17.7377 132.102 18.1545C132.15 18.9279 132.024 19.7103 132.03 20.4886C132.041 22.0541 132.092 23.6193 132.124 25.1848C132.127 25.337 132.128 25.495 132.093 25.6414C131.866 26.5871 131.528 26.7677 130.561 26.7797C128.927 26.8 127.293 26.7171 125.659 26.694C122.743 26.6527 119.826 26.6105 116.909 26.5959C115.772 26.5902 114.634 26.653 113.496 26.6939C112.82 26.7182 112.144 26.7849 111.468 26.7898C109.825 26.8019 109.382 25.4426 109.951 24.1723C110.192 23.6341 111.053 23.3793 111.754 23.5282C112.194 23.6214 112.644 23.6722 113.092 23.7113C114.11 23.7999 114.552 23.0656 114.556 22.2668C114.583 16.5196 114.586 10.7722 114.553 5.02508C114.548 4.19362 114.133 3.47033 113.096 3.59034C112.528 3.65602 111.959 3.70601 111.388 3.74003C110.599 3.78713 109.774 3.43376 109.747 2.39041C109.741 2.11805 109.715 1.83433 109.777 1.57432C109.941 0.877637 110.598 0.503712 111.205 0.51248C113.711 0.548645 116.217 0.581735 118.774 0.615956Z" fill="black"/>
<path d="M143.418 7.28909C143.418 12.0108 143.416 16.6812 143.423 21.3516C143.424 21.7359 143.458 22.1273 143.536 22.5029C143.743 23.4881 144.52 23.8928 145.543 23.7013C146.167 23.5845 146.838 23.5394 147.46 23.6377C148.159 23.7481 148.508 24.4217 148.444 25.277C148.394 25.9389 148.002 26.6202 147.291 26.6788C146.527 26.7418 145.755 26.6989 144.986 26.7013C144.918 26.7015 144.85 26.6939 144.782 26.6923C143.268 26.6578 141.753 26.585 140.24 26.6008C138.87 26.6152 137.502 26.7541 136.132 26.7819C135.531 26.7941 134.931 26.6526 134.586 26.0554C134.265 25.5001 134.283 24.4124 134.668 24.0081C135.177 23.4718 135.843 23.4382 136.527 23.5521C136.822 23.6011 137.112 23.6799 137.408 23.7114C138.753 23.8546 139.287 23.1896 139.298 21.9236C139.335 17.8865 139.312 13.8489 139.312 9.81149C139.312 8.37445 139.329 6.93707 139.301 5.50058C139.293 5.07712 139.244 4.60751 139.048 4.24946C138.89 3.96025 138.496 3.64947 138.185 3.62565C137.504 3.57352 136.802 3.64746 136.124 3.76251C135.289 3.90425 134.446 3.26427 134.375 2.43017C134.252 0.998779 135.065 0.468113 136.271 0.505765C138.264 0.567945 140.258 0.605036 142.251 0.608592C143.817 0.611386 145.382 0.543429 146.948 0.51543C147.563 0.504438 148.296 0.929549 148.446 1.78408C148.594 2.63045 148.228 3.37191 147.531 3.63753C146.983 3.84626 146.43 3.69801 145.876 3.64498C145.403 3.59976 144.921 3.56587 144.451 3.60944C143.992 3.65196 143.57 4.29634 143.525 4.95564C143.473 5.71521 143.452 6.47697 143.418 7.28909Z" fill="black"/>
</g>
<defs>
<clipPath id="clip0_2164_1323">
<rect width="205.323" height="27" fill="white"/>
</clipPath>
</defs>
</svg>
