<svg width="72" height="27" viewBox="0 0 72 27" fill="none" xmlns="http://www.w3.org/2000/svg">
<g clip-path="url(#clip0_2164_1620)">
<path d="M45.0871 16.7366C44.1696 17.8595 43.483 18.8584 42.6369 19.6973C41.4465 20.8779 40.017 21.6163 38.2513 21.2213C36.7895 20.8941 35.8958 19.9314 35.9742 18.4352C36.0846 16.3261 36.3876 14.226 36.6375 12.1257C36.7724 10.9922 36.9681 9.86608 37.1364 8.73668C37.3178 7.51746 37.112 7.27626 35.8283 7.1775C35.5455 7.15576 35.2649 7.10414 34.9011 7.05558C35.4091 6.50124 38.6073 6.16148 40.0485 6.43845C39.759 8.52318 39.4689 10.6114 39.1781 12.7032C38.9504 14.3359 38.6905 15.9648 38.4988 17.6016C38.2936 19.3618 39.5067 20.2839 41.1714 19.6641C42.4776 19.1777 43.2904 18.1442 44.0044 17.0239C45.1879 15.1689 45.6422 13.0818 45.9001 10.9362C46.0361 9.80634 46.1942 8.67937 46.3413 7.55099C46.4276 6.88671 46.7314 6.52319 47.4749 6.61625C48.0008 6.64962 48.5282 6.65322 49.0544 6.62702C48.8559 8.12361 48.6726 9.46638 48.5007 10.8106C48.1904 13.2366 47.8157 15.6572 47.6066 18.092C47.4758 19.6182 48.5865 20.4136 50.0475 19.8828C52.7881 18.8871 54.2451 16.7405 54.9949 14.0387C55.4096 12.5437 55.0282 11.1072 54.6251 9.67284C54.4531 9.06058 54.1833 8.41521 54.2479 7.81596C54.3024 7.31019 54.6937 6.55184 55.0847 6.44414C55.5693 6.31084 56.5177 6.56342 56.7276 6.94442C57.8635 9.00572 59.7403 9.08476 61.6466 8.86957C64.7787 8.5158 67.2391 7.03343 68.7457 4.15952C69.0561 3.56336 69.434 3.00488 69.872 2.49508C70.3091 1.99114 70.9262 1.84179 71.5121 2.25124C72.0947 2.65765 72.5261 3.25141 72.1603 3.96668C71.8626 4.59931 71.4331 5.16093 70.9004 5.61385C66.8963 8.70153 62.4563 9.97886 57.2986 8.64991C57.174 9.4359 57.0861 10.2534 56.9111 11.0518C56.1934 14.3252 54.7165 17.1926 52.2153 19.4717C51.0464 20.5371 49.714 21.3298 48.0628 21.3233C46.2358 21.316 45.105 20.163 45.0877 18.3506C45.0832 17.8835 45.0871 17.4159 45.0871 16.7366Z" fill="black"/>
<path d="M3.30234 25.6961C4.40797 19.6045 5.04806 13.4413 6.02527 7.1481H3.66059L3.64738 6.79087C4.13629 6.75389 4.62499 6.68927 5.1141 6.68643C5.77086 6.68195 6.09151 6.51817 6.20856 5.73686C6.83727 1.54558 11.1734 -0.990801 15.3996 0.367816C16.3208 0.663884 17.0998 0.85835 17.9056 0.197126C18.0393 0.0875995 18.2681 0.0934921 18.6111 0.00570828C18.4312 1.30052 18.2711 2.48377 18.1031 3.66581C17.399 8.59186 16.6835 13.5163 16.0013 18.4452C15.9414 18.8786 15.969 19.6425 16.1726 19.7254C16.5687 19.8879 17.125 19.7065 17.6024 19.6075C17.8982 19.5174 18.1845 19.3982 18.4568 19.2517L18.6194 19.5008C18.3361 19.727 18.0821 20.0141 17.7635 20.1673C16.9481 20.5599 16.1296 20.983 15.2651 21.2289C13.9065 21.615 13.1248 20.9808 13.2737 19.5864C13.5072 17.4143 13.8537 15.2543 14.1591 13.0902C14.6616 9.52985 15.1836 5.97216 15.6675 2.4094C15.8369 1.16092 14.7275 0.387931 13.1219 0.577723C10.6276 0.872774 9.21901 2.47971 8.87966 5.42697C8.84187 5.75494 8.83902 6.08718 8.81017 6.61551H11.9751L12.0179 6.92702C11.8507 7.02938 11.6676 7.1034 11.4762 7.14607C10.8699 7.19271 10.261 7.19271 9.65468 7.14607C8.81078 7.05524 8.56023 7.44681 8.4572 8.21594C7.95997 11.9317 7.37535 15.6365 6.90433 19.3555C6.66455 21.25 6.26037 23.0685 5.13767 24.6388C4.21473 25.9288 3.08715 26.9625 1.34996 26.9988C0.66842 27.0131 0.0291429 26.806 0.00292969 26.1021C0.0145756 25.8343 0.0793326 25.5715 0.193439 25.3289C0.307545 25.0864 0.468725 24.8689 0.667607 24.6892C1.1998 24.2338 1.8023 24.4907 2.24995 25.0219C2.46027 25.2712 2.69192 25.5029 2.91382 25.7426L3.30234 25.6961Z" fill="black"/>
<path d="M33.8435 12.8592C33.8187 16.7223 31.6083 19.8965 28.1973 20.9644C23.9396 22.2976 20.3482 19.9941 19.9814 15.5665C19.7071 12.253 21.1864 8.84043 24.4316 7.15384C29.2422 4.65261 33.8779 7.46718 33.8435 12.8592ZM31.3378 12.6456C31.4262 10.5776 31.1753 9.9995 30.7615 8.81747C30.1462 7.05732 28.3394 6.41824 26.5855 7.07601C25.4709 7.50636 24.5651 8.35001 24.0568 9.43134C22.6911 12.0475 22.2891 15.0607 22.9213 17.9433C23.5468 20.8595 26.3037 21.7554 28.5202 19.7439C29.3027 19.0097 29.9013 18.1016 30.2678 17.0931C30.7869 15.6579 31.2496 14.7136 31.3378 12.6456Z" fill="black"/>
</g>
<defs>
<clipPath id="clip0_2164_1620">
<rect width="72" height="27" fill="white"/>
</clipPath>
</defs>
</svg>
