<svg width="116" height="27" viewBox="0 0 116 27" fill="none" xmlns="http://www.w3.org/2000/svg">
<g clip-path="url(#clip0_2164_1530)">
<path d="M23.8842 0.0541992C24.033 0.37669 23.9515 0.483879 23.5627 0.486732C22.9484 0.49124 22.334 0.487934 21.7197 0.487934C21.6299 0.487934 21.54 0.487934 21.4439 0.487934C19.585 6.56758 17.7281 12.6406 15.8607 18.748C16.7318 18.748 17.5734 18.748 18.412 18.748C18.4429 19.0826 18.4007 19.1379 18.1211 19.138C15.6908 19.1389 13.2606 19.1385 10.8304 19.1386C10.7033 19.1386 10.575 19.1602 10.5688 18.9613C10.5622 18.7527 10.6872 18.7573 10.8326 18.7579C11.4469 18.7605 12.0613 18.7544 12.6755 18.7621C12.8408 18.7641 12.9127 18.7247 12.9657 18.5472C13.46 16.8898 13.9693 15.2369 14.4762 13.5832C14.8706 12.2965 15.2678 11.0106 15.6698 9.7048C15.5851 9.7048 15.5142 9.7048 15.4432 9.7048C13.1395 9.7048 10.8357 9.7082 8.53198 9.69886C8.33076 9.69805 8.2496 9.76868 8.19752 9.94352C7.94436 10.7932 7.68704 11.6417 7.42769 12.4896C6.89129 14.2432 6.35174 15.9958 5.81577 17.7495C5.71685 18.0732 5.6287 18.4002 5.52733 18.7545C6.32588 18.7545 7.11393 18.7545 7.89418 18.7545C7.96501 19.0269 7.88841 19.1419 7.61803 19.1413C5.16973 19.1366 2.72142 19.1388 0.273117 19.1369C0.214784 19.1368 0.156469 19.1122 0.0761725 19.0917C0.054199 19.009 0.054199 18.9337 0.0761725 18.8284C0.183616 18.7853 0.269033 18.7612 0.354564 18.7608C1.01413 18.7576 1.67381 18.7528 2.33322 18.7632C2.50474 18.7659 2.5828 18.7183 2.63084 18.5481C2.83397 17.8285 3.04772 17.1118 3.26624 16.3966C3.7387 14.8504 4.21798 13.3063 4.69164 11.7604C5.10416 10.414 5.51154 9.06613 5.92347 7.71961C6.45998 5.96586 6.99824 4.21264 7.53678 2.45951C7.73658 1.80909 7.93929 1.15958 8.1474 0.487934C7.37332 0.487934 6.64193 0.492651 5.91073 0.482811C5.80197 0.481348 5.69413 0.41134 5.58587 0.373043C5.63957 0.266762 5.69327 0.16048 5.74697 0.0541992C8.27822 0.0541992 10.8095 0.0541992 13.3721 0.074754C13.4836 0.390015 13.4177 0.484138 13.1111 0.486696C12.5784 0.491142 12.0456 0.487934 11.5128 0.487934C11.1107 0.487935 11.1207 0.49103 10.9991 0.886C10.447 2.67928 9.88648 4.46998 9.33351 6.26301C9.02149 7.27472 8.71825 8.28914 8.4041 9.32528C8.5118 9.32528 8.60869 9.32528 8.70559 9.32528C10.4123 9.32528 12.119 9.32528 13.8257 9.32528C14.4126 9.32528 14.9997 9.33055 15.5864 9.31926C15.6688 9.31768 15.8017 9.25203 15.8228 9.18721C15.9872 8.68351 16.1253 8.17134 16.2801 7.66443C16.8155 5.91143 17.3538 4.15936 17.8921 2.40725C18.0872 1.77216 18.2852 1.13795 18.4867 0.487934C17.7752 0.487934 17.098 0.492011 16.4211 0.483685C16.3155 0.482386 16.2106 0.424559 16.1054 0.392872C16.1405 0.279981 16.1757 0.16709 16.2108 0.0541992C18.7602 0.0541992 21.3095 0.0541992 23.8842 0.0541992Z" fill="black"/>
<path d="M115.699 0.515527C115.635 0.668353 115.553 0.788651 115.511 0.921697C115.177 1.99221 114.849 3.06448 114.522 4.13743C113.973 5.9423 113.43 7.74884 112.879 9.55318C112.438 10.9998 111.982 12.4421 111.546 13.8904C111.195 15.0561 110.848 16.2235 110.535 17.3998C110.453 17.7112 110.473 18.0606 110.501 18.388C110.533 18.7736 110.941 18.8277 111.244 18.7082C111.814 18.4828 112.157 18.0122 112.436 17.5159C112.937 16.629 113.385 15.7126 113.855 14.8084C113.875 14.7697 113.881 14.7122 113.912 14.6932C114.007 14.6348 114.111 14.5909 114.212 14.5413C114.229 14.6464 114.284 14.7637 114.255 14.8542C114.182 15.0845 114.07 15.3028 113.975 15.5261C113.558 16.4987 113.09 17.4487 112.436 18.2823C111.894 18.9735 111.239 19.5308 110.267 19.4632C109.147 19.3853 108.357 18.8035 108.22 17.5763C108.176 17.1843 108.173 16.7878 108.15 16.3768C108.031 16.5737 107.91 16.7893 107.776 16.996C107.217 17.8539 106.553 18.6086 105.632 19.0945C104.505 19.6889 103.182 19.5542 102.171 18.7121C101.345 18.0235 100.918 17.1157 100.75 16.097C100.635 15.3966 100.603 14.6693 100.642 13.9598C100.688 13.0954 100.932 12.2618 101.271 11.4567C101.707 10.4222 102.284 9.48547 103.017 8.63382C103.993 7.50188 105.14 6.6321 106.572 6.16935C107.299 5.93419 108.043 5.85625 108.787 6.07592C109.539 6.29772 110.014 6.82106 110.274 7.54644C110.355 7.77225 110.407 8.00823 110.494 8.31341C111.299 5.66762 112.084 3.0884 112.876 0.487925C112.21 0.487925 111.563 0.492685 110.916 0.482278C110.829 0.480879 110.744 0.403054 110.657 0.36062C110.707 0.271737 110.757 0.182854 110.813 0.0740847C112.446 0.0541992 114.072 0.0541992 115.699 0.0541992C115.699 0.201163 115.699 0.345034 115.699 0.515527ZM109.462 11.7785C109.473 11.7179 109.478 11.6557 109.495 11.5971C109.808 10.5427 110.236 9.51208 110.064 8.36811C109.96 7.6778 109.698 7.07868 109.138 6.65055C108.877 6.45134 108.553 6.34983 108.218 6.40273C107.675 6.48823 107.219 6.77063 106.818 7.12509C106.041 7.81108 105.458 8.6529 104.964 9.55638C104.331 10.7136 103.802 11.9186 103.508 13.2069C103.302 14.1116 103.118 15.0289 103.031 15.9506C102.969 16.6094 103.045 17.2901 103.134 17.951C103.199 18.4375 103.473 18.8332 103.995 18.9788C104.533 19.1288 105.015 18.9623 105.476 18.7053C106.009 18.4081 106.435 17.9921 106.829 17.5266C107.521 16.7082 108.031 15.7813 108.421 14.7988C108.809 13.8242 109.104 12.8127 109.462 11.7785Z" fill="black"/>
<path d="M45.6252 0.0541992C45.6688 0.170559 45.7294 0.299767 45.6986 0.401346C45.2609 1.84846 44.8078 3.29089 44.3648 4.73642C43.9853 5.97453 43.617 7.21605 43.2386 8.45448C42.7662 10.0004 42.2851 11.5437 41.8142 13.0901C41.4394 14.3207 41.0645 15.5515 40.7099 16.788C40.5901 17.2059 40.4949 17.6388 40.4621 18.0704C40.4453 18.2917 40.4973 18.5718 40.7633 18.7035C41.0244 18.8328 41.2654 18.7489 41.4839 18.61C41.9202 18.3326 42.2408 17.9307 42.4837 17.4909C42.9845 16.5846 43.4494 15.658 43.9076 14.7291C43.9955 14.5508 44.1067 14.4888 44.2527 14.5504C44.3018 14.5711 44.3196 14.7855 44.279 14.8801C44.025 15.4713 43.769 16.0631 43.4779 16.6365C43.0882 17.4038 42.6482 18.1429 42.0393 18.7643C41.1137 19.709 39.7257 19.6593 38.8101 18.9235C38.4363 18.6231 38.2528 18.1664 38.1703 17.6897C37.9837 16.6108 38.2788 15.5991 38.5974 14.5856C39.0638 13.1016 39.5027 11.6089 39.9582 10.1214C40.4009 8.67561 40.8517 7.23225 41.2954 5.78669C41.6932 4.49064 42.0867 3.19328 42.4807 1.89606C42.6194 1.43929 42.7539 0.981236 42.901 0.487931C42.3057 0.487931 41.7321 0.492707 41.1588 0.483117C41.0659 0.481563 40.9221 0.438029 40.8955 0.374609C40.8662 0.304818 40.9451 0.189654 40.9824 0.0742279C42.5252 0.0541992 44.0625 0.0541992 45.6252 0.0541992Z" fill="black"/>
<path d="M38.7396 0.0541992C38.7585 0.249754 38.7928 0.457503 38.7387 0.638856C38.4232 1.69607 38.0832 2.74593 37.7585 3.80046C37.2291 5.52004 36.7046 7.24115 36.179 8.96193C35.783 10.2587 35.3876 11.5556 34.9938 12.853C34.5772 14.2252 34.1441 15.593 33.7585 16.9739C33.6365 17.4106 33.4672 17.8617 33.6102 18.3429C33.7111 18.6824 33.972 18.8288 34.3298 18.7249C34.7984 18.5888 35.0782 18.225 35.3365 17.8611C35.9947 16.9342 36.5116 15.9273 36.9376 14.8735C36.9733 14.7852 37.0099 14.6797 37.0799 14.6277C37.1505 14.5753 37.2656 14.5604 37.3563 14.5711C37.383 14.5742 37.4321 14.7377 37.4048 14.7974C37.0355 15.6042 36.682 16.4203 36.2661 17.2031C36.0094 17.6862 35.6819 18.1399 35.3347 18.5647C34.8634 19.1413 34.055 19.6052 33.1346 19.4219C32.7419 19.3438 32.3788 19.2578 32.0467 19.0168C31.5959 18.6897 31.3778 18.241 31.2857 17.7191C31.1154 16.7535 31.3136 15.8299 31.6027 14.91C32.0716 13.4174 32.5077 11.9146 32.9659 10.4186C33.4622 8.79811 33.9714 7.1816 34.4683 5.56131C34.8047 4.46421 35.1281 3.3631 35.4603 2.2647C35.6361 1.68314 35.8185 1.10354 36.0087 0.487933C35.4279 0.487933 34.864 0.489693 34.3001 0.487246C33.9831 0.48587 33.9331 0.40546 34.0479 0.0763315C35.6035 0.0541992 37.1589 0.0541992 38.7396 0.0541992Z" fill="black"/>
<path d="M77.3929 27.0542C77.247 26.9998 77.13 26.9357 77.0056 26.8927C76.2909 26.6456 75.7227 26.2309 75.6267 25.4354C75.5728 24.9886 75.6132 24.5144 75.7019 24.0708C75.7946 23.6072 75.9839 23.1608 76.1528 22.7152C76.4582 21.9093 77.0446 21.383 77.8552 21.1208C78.9065 20.7808 79.9737 20.7381 81.0277 21.0961C81.7575 21.344 82.2212 21.9799 82.2534 22.7588C82.2773 23.337 82.1305 23.8772 81.9675 24.4147C81.8086 24.9386 81.6147 25.4474 81.2734 25.8947C80.8572 26.4399 80.3007 26.7345 79.656 26.8877C79.3918 26.9505 79.1176 26.9711 78.8396 27.0326C78.3603 27.0542 77.8893 27.0542 77.3929 27.0542ZM79.7527 25.2926C79.8432 25.174 79.968 25.0684 80.0183 24.9347C80.2134 24.4159 80.4132 23.8958 80.5572 23.3616C80.7015 22.8257 80.3711 22.3368 79.827 22.2339C79.5675 22.1849 79.2941 22.1581 79.0324 22.1819C78.4907 22.231 78.0293 22.4668 77.8092 22.9874C77.5937 23.497 77.42 24.0271 77.2671 24.5594C77.1401 25.0014 77.3519 25.3896 77.785 25.5987C77.9156 25.6617 78.0587 25.7194 78.2008 25.7342C78.7588 25.792 79.2935 25.7401 79.7527 25.2926Z" fill="black"/>
<path d="M57.7698 0.0541993C57.7413 0.273584 57.6964 0.495669 57.6319 0.711909C57.2545 1.97756 56.8743 3.24237 56.4871 4.50505C56.4675 4.56902 56.3763 4.65364 56.316 4.65563C55.9114 4.669 55.5063 4.66259 55.0447 4.66259C55.23 4.03558 55.4059 3.44024 55.5864 2.82956C55.0149 2.82956 54.4662 2.82956 53.907 2.82956C53.7393 3.39377 53.5763 3.96038 53.3965 4.52159C53.3764 4.58429 53.262 4.65385 53.1891 4.65636C52.8019 4.66968 52.414 4.66263 51.9632 4.66263C52.4306 3.12349 52.89 1.61073 53.3494 0.0760818C53.8023 0.0541994 54.2553 0.0541994 54.7335 0.075574C54.5827 0.657525 54.4067 1.2181 54.2273 1.78914C54.7348 1.78914 55.2293 1.78735 55.7238 1.79035C55.8524 1.79113 55.9193 1.77059 55.9614 1.61473C56.103 1.08974 56.2777 0.573676 56.4398 0.0541992C56.8746 0.0541994 57.3095 0.0541994 57.7698 0.0541993Z" fill="black"/>
<path d="M62.7035 0.0541992C62.6344 0.39531 62.5399 0.736421 62.4435 1.08432C61.6443 1.08432 60.8593 1.09441 60.0748 1.07806C59.8449 1.07327 59.7307 1.13849 59.6907 1.36371C59.6637 1.516 59.6085 1.66332 59.5571 1.84393C60.291 1.84393 60.9913 1.84393 61.7253 1.84393C61.6141 2.20495 61.5125 2.53464 61.4085 2.87229C60.6799 2.87229 59.9588 2.87229 59.2249 2.87229C59.1507 3.12691 59.0784 3.37498 59.0017 3.63815C59.8855 3.63815 60.7596 3.63815 61.6525 3.63815C61.547 3.98597 61.4469 4.31618 61.3443 4.65463C60.0074 4.65463 58.664 4.65463 57.2886 4.65463C57.7644 3.1237 58.235 1.60902 58.7113 0.0742697C60.0373 0.0541994 61.3577 0.0541994 62.7035 0.0541992Z" fill="black"/>
<path d="M52.7276 0.0541992C52.6601 0.395506 52.5671 0.736813 52.4725 1.08432C52.0307 1.08432 51.6072 1.08713 51.1838 1.08271C51.0474 1.08128 50.998 1.11992 50.9556 1.26909C50.7182 2.10416 50.4569 2.93246 50.2007 3.76216C50.109 4.0595 50.0088 4.35427 49.912 4.65181C49.47 4.65181 49.0303 4.65181 48.535 4.65181C48.8985 3.45957 49.2544 2.29216 49.6191 1.09571C49.0691 1.09571 48.5345 1.09571 47.9674 1.09571C48.0689 0.741265 48.1609 0.41972 48.253 0.0761877C49.7361 0.0541995 51.2191 0.0541995 52.7276 0.0541992Z" fill="black"/>
<path d="M46.0173 18.7192C45.4139 18.1655 45.1993 17.4691 45.1623 16.6973C45.1151 15.7097 45.407 14.7896 45.7003 13.8647C46.2152 12.2409 46.7082 10.6103 47.2071 8.9815C47.4184 8.29154 47.6218 7.59913 47.8278 6.90756C47.849 6.83651 47.8639 6.76358 47.8873 6.66863C47.2774 6.66863 46.7003 6.66929 46.1231 6.66806C46.0106 6.66782 45.8445 6.69438 45.8799 6.51989C45.8983 6.42959 46.0435 6.29977 46.1325 6.2989C47.5509 6.28502 48.9694 6.28556 50.3879 6.29178C50.7189 6.29323 50.777 6.38179 50.6925 6.65815C50.2762 8.02147 49.8607 9.38508 49.4466 10.7491C48.9087 12.5207 48.3622 14.2899 47.8415 16.0666C47.6873 16.5926 47.5512 17.1358 47.5062 17.6794C47.4231 18.6833 48.1896 19.1298 49.1164 18.705C49.7264 18.4255 50.1823 17.9671 50.6145 17.4643C51.2029 16.7799 51.668 16.0175 52.0399 15.2079C52.4633 14.2862 52.8492 13.3424 53.1772 12.3828C53.6774 10.9195 54.1155 9.43495 54.5763 7.95827C54.7292 7.46852 54.8801 6.97774 55.0121 6.48216C55.0531 6.32817 55.1166 6.2854 55.2661 6.28639C56.1153 6.29201 56.9644 6.28911 57.8359 6.28911C57.6177 7.01187 57.4061 7.72427 57.1875 8.43447C56.6529 10.1706 56.1129 11.905 55.5795 13.6415C55.2476 14.7217 54.9264 15.8052 54.5959 16.8858C54.1104 18.4732 53.6465 20.0678 53.1257 21.6436C52.6304 23.1421 51.8622 24.491 50.6536 25.5399C49.8981 26.1955 49.0179 26.6198 48.035 26.8431C47.357 26.9972 46.6736 27.035 45.9896 26.9927C45.0879 26.937 44.2466 26.6624 43.5784 26.0293C42.9197 25.4053 42.6038 24.4871 42.9962 23.5551C43.4138 22.5632 44.6894 22.4048 45.4016 23.0249C45.9641 23.5146 46.0344 24.5673 45.5751 25.1485C45.3194 25.472 44.5725 25.8852 43.904 25.6074C43.8653 25.5914 43.8182 25.5956 43.7445 25.5867C44.1215 26.0634 44.6237 26.3027 45.1543 26.4429C45.5935 26.5589 46.0637 26.6231 46.5166 26.6078C47.3332 26.5803 47.9978 26.2098 48.53 25.5732C49.4499 24.4727 49.8958 23.1549 50.313 21.8202C50.8134 20.2193 51.3125 18.618 51.8088 17.0158C51.8787 16.7902 51.9294 16.5585 51.9291 16.3028C51.7697 16.5649 51.6207 16.834 51.4488 17.0876C50.9796 17.7804 50.4572 18.4327 49.7539 18.8999C49.1117 19.3266 48.4179 19.5571 47.6143 19.4209C47.0182 19.3198 46.479 19.1469 46.0173 18.7192Z" fill="black"/>
<path d="M63.3725 6.2891C63.4529 6.2891 63.5074 6.29243 63.5613 6.28851C63.7778 6.27278 63.8556 6.34389 63.7824 6.57203C63.5859 7.18436 63.4048 7.80164 63.2175 8.41692C62.6608 10.2461 62.1008 12.0744 61.5484 13.9049C61.2571 14.8702 60.9607 15.8346 60.7032 16.8091C60.5949 17.2192 60.5363 17.6372 60.5954 18.086C60.6983 18.8663 61.5074 18.9993 62.0512 18.7511C62.8341 18.3939 63.4026 17.7927 63.9217 17.1326C64.5087 16.3863 64.955 15.5559 65.3511 14.6986C65.8405 13.6394 66.2044 12.5342 66.5272 11.414C66.7101 10.7794 66.9248 10.1541 67.1193 9.52288C67.4291 8.51792 67.7411 7.51353 68.0342 6.50367C68.0851 6.32814 68.1536 6.28436 68.3217 6.2858C69.1613 6.29301 70.0009 6.2891 70.8703 6.2891C70.6823 6.89446 70.5006 7.47999 70.3187 8.06547C69.7824 9.79154 69.2407 11.5159 68.7116 13.2442C68.3274 14.4992 67.9419 15.7543 67.5971 17.0203C67.5057 17.3561 67.5352 17.7339 67.557 18.0895C67.5989 18.769 68.3353 18.9455 68.8168 18.8548C69.6017 18.7069 70.2513 18.2925 70.8507 17.7728C72.2231 16.583 73.1524 15.0835 73.9092 13.4614C74.3562 12.5034 74.696 11.5022 74.8588 10.46C74.9657 9.77554 74.9461 9.07121 74.9793 8.37559C74.9811 8.33776 74.9477 8.29825 74.9169 8.22831C74.6508 8.73339 74.2074 8.94256 73.6996 8.98553C73.3612 9.01415 73.0223 8.90748 72.7478 8.68633C71.9956 8.0804 71.9401 7.11615 72.5873 6.45676C73.2865 5.74434 74.5793 5.87478 75.0901 6.82871C75.3615 7.33542 75.4508 7.88317 75.4716 8.45075C75.5363 10.2191 75.0903 11.8783 74.4191 13.4928C73.9513 14.6181 73.3567 15.6745 72.6181 16.6383C71.8206 17.6789 70.8917 18.5955 69.6572 19.1123C68.5856 19.561 67.5005 19.6768 66.4719 18.9737C65.8363 18.5391 65.5043 17.9007 65.3935 17.1588C65.3243 16.6953 65.3322 16.2203 65.3034 15.714C65.1052 16.0635 64.93 16.3981 64.7311 16.7179C64.1319 17.6813 63.4287 18.5578 62.4242 19.123C61.89 19.4237 61.3045 19.5215 60.6702 19.4221C59.9907 19.3156 59.4038 19.078 58.9387 18.571C58.5545 18.1522 58.3706 17.6444 58.2794 17.0874C58.094 15.9557 58.4558 14.9122 58.7756 13.8633C59.323 12.0679 59.8881 10.2778 60.4411 8.48407C60.6256 7.88545 60.7958 7.28241 60.9762 6.66861C60.3861 6.66861 59.8008 6.67049 59.2155 6.66701C59.1005 6.66633 58.9371 6.72024 58.9362 6.51632C58.9355 6.3277 59.0619 6.28733 59.2269 6.28764C60.6 6.29021 61.9732 6.2891 63.3725 6.2891Z" fill="black"/>
<path d="M81.5029 6.1273C82.0917 5.99562 82.6637 5.93264 83.2448 5.96378C84.1516 6.01237 84.9333 6.36297 85.6309 6.93241C86.4327 7.58703 86.9497 8.4262 87.2383 9.40785C87.4719 10.2025 87.5446 11.0082 87.4664 11.8445C87.388 12.6835 87.2009 13.4843 86.9094 14.2668C86.5929 15.1162 86.1334 15.8834 85.5776 16.5991C85.0286 17.306 84.3824 17.8978 83.6333 18.3859C82.7619 18.9537 81.826 19.3035 80.7829 19.422C79.9561 19.5159 79.1798 19.4114 78.4496 19.0481C77.2412 18.4469 76.4505 17.4678 76.0132 16.1981C75.7448 15.4186 75.6338 14.6116 75.6919 13.7935C75.813 12.0907 76.3666 10.5344 77.3619 9.14264C78.1354 8.06106 79.0932 7.18432 80.2925 6.5959C80.6731 6.40915 81.0832 6.28229 81.5029 6.1273ZM78.637 18.4844C79.1454 19.0548 79.8165 19.1183 80.497 19.0048C81.2619 18.8772 81.8081 18.3482 82.2684 17.7751C83.1068 16.7311 83.6495 15.5193 84.0893 14.2631C84.5792 12.8642 84.9357 11.4352 85.0743 9.95248C85.1371 9.28137 85.1488 8.62063 85.0109 7.96151C84.7761 6.83863 84.0859 6.30781 83.0682 6.34967C82.3817 6.37791 81.8108 6.71458 81.3306 7.18467C80.7609 7.74254 80.336 8.41258 79.9724 9.11676C79.4564 10.1159 79.0588 11.1632 78.7533 12.2463C78.355 13.6588 78.0403 15.0836 78.0727 16.5633C78.0875 17.2397 78.2184 17.8837 78.637 18.4844Z" fill="black"/>
<path d="M98.5533 7.3335C99.2605 8.09008 99.7101 8.96411 99.8572 9.96515C99.9488 10.589 99.9951 11.2306 99.9627 11.8591C99.9158 12.7698 99.6708 13.6506 99.3193 14.4937C98.9954 15.2707 98.572 15.9974 98.0395 16.648C97.2989 17.5531 96.4372 18.3166 95.3604 18.8181C94.705 19.1233 94.0317 19.3214 93.3121 19.4192C92.215 19.5681 91.2393 19.3007 90.3422 18.6916C89.362 18.0261 88.7705 17.08 88.4286 15.9646C88.1524 15.0635 88.169 14.1445 88.2611 13.2182C88.3745 12.0774 88.7415 11.0163 89.3057 10.033C89.6311 9.46577 90.0351 8.93803 90.4468 8.4272C91.1377 7.56991 92.0184 6.94926 93.0177 6.49141C93.5622 6.24197 94.1278 6.09006 94.7229 6.01211C95.483 5.91253 96.217 5.95211 96.9387 6.23045C97.5601 6.47013 98.0873 6.8374 98.5533 7.3335ZM91.1673 12.5229C91.0911 12.8179 90.9916 13.1091 90.9428 13.4086C90.7985 14.2938 90.6297 15.1788 90.5593 16.0709C90.519 16.582 90.5862 17.1242 90.7194 17.6219C91.0298 18.7818 91.8545 19.2135 93.0178 18.9801C93.8473 18.8138 94.3868 18.2506 94.8754 17.6284C95.4286 16.9241 95.8498 16.1348 96.1702 15.3043C96.5168 14.406 96.8263 13.4902 97.092 12.5649C97.2892 11.8778 97.4107 11.1666 97.5275 10.4598C97.6025 10.0055 97.6313 9.54006 97.6367 9.0791C97.6407 8.74567 97.5841 8.40957 97.5332 8.07791C97.4589 7.59312 97.2869 7.12473 96.9197 6.80487C96.3927 6.34589 95.7636 6.24133 95.0732 6.43703C94.2352 6.67461 93.6942 7.27011 93.2018 7.92269C92.567 8.76413 92.129 9.7163 91.7589 10.6959C91.5382 11.28 91.3782 11.887 91.1673 12.5229Z" fill="black"/>
<path d="M27.7937 17.825C27.298 18.1552 26.8403 18.5156 26.334 18.7839C25.6611 19.1405 24.9299 19.3268 24.1635 19.4214C23.1248 19.5496 22.1935 19.326 21.332 18.761C20.1262 17.9704 19.4413 16.8288 19.2046 15.4315C19.098 14.8025 19.0455 14.1453 19.0994 13.512C19.2272 12.0101 19.7265 10.6201 20.585 9.37113C21.4413 8.12536 22.5043 7.11193 23.9007 6.48835C24.4438 6.24588 25.0092 6.08636 25.6055 6.01024C26.3395 5.91655 27.052 5.94455 27.7484 6.20087C28.6937 6.54876 29.4256 7.176 29.97 8.00483C30.4182 8.68731 30.7029 9.44154 30.8 10.2669C30.972 11.7301 30.7644 13.1308 30.1994 14.4873C29.66 15.7827 28.8385 16.8719 27.7937 17.825ZM24.0659 18.9565C24.4986 18.7973 24.8822 18.5611 25.2157 18.2407C25.84 17.6408 26.2848 16.9125 26.6702 16.1511C27.2732 14.9602 27.7352 13.7092 28.0188 12.4061C28.2333 11.4208 28.4008 10.4198 28.4993 9.41703C28.551 8.89066 28.4609 8.33399 28.3452 7.81081C28.0736 6.58243 27.0521 6.14713 25.9627 6.43238C25.1472 6.64592 24.5797 7.20831 24.1352 7.87619C23.7121 8.51198 23.3073 9.17384 23.0033 9.87164C22.6157 10.761 22.2967 11.686 22.0249 12.6181C21.8004 13.3879 21.6698 14.1871 21.5322 14.9793C21.4565 15.415 21.4083 15.865 21.4275 16.3051C21.4487 16.7936 21.5118 17.2922 21.6458 17.7609C21.8045 18.3157 22.1337 18.8117 22.735 18.9433C23.147 19.0334 23.5927 18.9696 24.0659 18.9565Z" fill="black"/>
<path d="M54.9357 26.4235C55.3827 24.9937 55.8184 23.5832 56.2522 22.1721C56.3543 21.8397 56.4571 21.5073 56.5447 21.171C56.5828 21.025 56.6489 20.9777 56.7999 20.9785C57.9554 20.9847 59.1119 20.9556 60.2663 20.9936C60.8033 21.0112 61.36 21.1053 61.749 21.5531C62.0271 21.8731 62.1288 22.2455 62.0483 22.6775C61.9693 23.1019 61.8631 23.5079 61.6094 23.8647C61.2364 24.3891 60.6959 24.6209 60.0879 24.7427C60.4332 25.4636 60.7782 26.184 61.1431 26.9457C60.5378 26.9457 59.9815 26.953 59.426 26.9371C59.3517 26.9349 59.2496 26.8293 59.2132 26.748C58.9655 26.1934 58.7322 25.6323 58.4935 25.0737C58.4368 24.941 58.3562 24.869 58.1898 24.8803C57.9112 24.8993 57.63 24.8948 57.3507 24.882C57.186 24.8745 57.129 24.9353 57.0841 25.0923C56.9077 25.7089 56.7104 26.3194 56.5198 26.9357C55.9558 26.9357 55.389 26.9357 54.8047 26.9357C54.8465 26.7624 54.8851 26.6025 54.9357 26.4235ZM58.9523 23.747C59.6683 23.7259 59.9922 23.5166 60.2037 22.9933C60.372 22.577 60.2202 22.191 59.8583 22.1801C59.2287 22.1611 58.5982 22.1748 57.9765 22.1748C57.8168 22.7001 57.663 23.2061 57.4986 23.747C57.9871 23.747 58.4435 23.747 58.9523 23.747Z" fill="black"/>
<path d="M87.4449 20.9819C87.9634 21.0123 88.463 21.0526 88.8719 21.355C89.3906 21.7387 89.525 22.2695 89.3291 22.9728C89.0576 23.9477 88.7077 24.4147 87.4293 24.7576C87.7712 25.4728 88.1111 26.1839 88.4665 26.9274C87.8405 26.9274 87.2597 26.9274 86.6455 26.9274C86.3789 26.3242 86.0947 25.7012 85.8312 25.0695C85.7739 24.9322 85.7197 24.8771 85.5711 24.8823C85.2643 24.8931 84.9563 24.8752 84.6502 24.8926C84.5701 24.8972 84.4467 24.9731 84.4251 25.042C84.2282 25.6709 84.0493 26.3055 83.8661 26.9352C83.2809 26.9352 82.7142 26.9352 82.1245 26.9352C82.7343 24.9437 83.3392 22.9682 83.9474 20.9819C85.1075 20.9819 86.2631 20.9819 87.4449 20.9819ZM87.5974 22.5083C87.527 22.3259 87.3976 22.1847 87.2044 22.1804C86.5668 22.1663 85.9286 22.1751 85.3093 22.1751C85.1475 22.7073 84.9938 23.2132 84.8315 23.7469C85.3967 23.7469 85.9386 23.7833 86.4737 23.7382C87.2276 23.6747 87.5217 23.3273 87.5974 22.5083Z" fill="black"/>
<path d="M102.148 26.9458C101.996 26.9458 101.87 26.9458 101.694 26.9458C101.76 26.6892 101.812 26.4494 101.884 26.216C102.402 24.5386 102.927 22.8632 103.441 21.1845C103.488 21.0304 103.547 20.977 103.711 20.978C104.849 20.9854 105.987 20.9699 107.125 20.9877C107.599 20.9952 108.066 21.1045 108.465 21.3775C108.896 21.6729 109.08 22.2956 108.893 22.9281C108.795 23.2561 108.668 23.5898 108.481 23.8734C108.136 24.399 107.586 24.6241 106.978 24.7422C107.323 25.4642 107.668 26.1854 108.032 26.9458C107.434 26.9458 106.878 26.9506 106.322 26.939C106.259 26.9377 106.171 26.856 106.141 26.7905C105.905 26.2683 105.676 25.7426 105.453 25.2146C105.361 24.9977 105.259 24.8173 104.975 24.8842C104.933 24.8942 104.885 24.8856 104.84 24.8856C103.961 24.8856 103.969 24.8874 103.767 25.7334C103.681 26.0964 103.562 26.4524 103.439 26.805C103.417 26.8683 103.305 26.9366 103.232 26.9395C102.88 26.9535 102.527 26.9458 102.148 26.9458ZM106.103 23.7458C106.668 23.6392 107.065 23.3716 107.148 22.7462C107.186 22.4518 107.017 22.1805 106.713 22.1768C106.145 22.1697 105.577 22.1706 105.009 22.1804C104.944 22.1815 104.839 22.2475 104.82 22.3052C104.669 22.7802 104.534 23.2603 104.392 23.7469C104.954 23.7469 105.503 23.7469 106.103 23.7458Z" fill="black"/>
<path d="M62.4448 25.0266C62.5375 24.7137 62.6127 24.4183 62.7017 24.1272C63.0213 23.0814 63.3455 22.037 63.6691 20.9883C65.4095 20.9883 67.1427 20.9883 68.9353 20.9883C68.8696 21.2147 68.8098 21.4242 68.748 21.6332C68.6911 21.8256 68.6882 22.1032 68.5596 22.1872C68.4057 22.2876 68.1436 22.2276 67.9283 22.2281C66.9623 22.2301 65.9964 22.229 65.0254 22.229C64.913 22.5936 64.8038 22.9477 64.6883 23.3225C65.637 23.3225 66.5646 23.3225 67.518 23.3225C67.3909 23.7424 67.2704 24.1405 67.1433 24.5603C66.2942 24.5603 65.4281 24.5648 64.5621 24.5567C64.3787 24.555 64.2789 24.5829 64.2355 24.793C64.1779 25.0712 64.0634 25.3377 63.9636 25.6385C65.1529 25.6385 66.3213 25.6385 67.5206 25.6385C67.3985 26.0616 67.291 26.4547 67.1659 26.8421C67.1499 26.8917 67.0429 26.9413 66.9779 26.9415C65.2802 26.9469 63.5824 26.9458 61.8387 26.9458C62.0422 26.2961 62.2378 25.6711 62.4448 25.0266Z" fill="black"/>
<path d="M99.7048 23.3132C100.147 23.3132 100.563 23.3132 100.996 23.3132C100.888 23.6825 100.781 24.039 100.681 24.3974C100.643 24.532 100.564 24.5642 100.429 24.5633C99.5449 24.5573 98.6604 24.5602 97.7806 24.5602C97.6685 24.9224 97.5607 25.2704 97.4473 25.637C98.6285 25.637 99.8043 25.637 101.011 25.637C100.872 26.0873 100.741 26.5121 100.609 26.9397C98.8662 26.9397 97.133 26.9397 95.3582 26.9397C95.3893 26.7901 95.4072 26.6477 95.4488 26.5127C95.9018 25.0431 96.3594 23.5748 96.8137 22.1055C96.9139 21.7815 96.9997 21.4528 97.1075 21.1314C97.1283 21.0693 97.2206 20.9884 97.2802 20.9881C98.9866 20.9804 100.693 20.9819 102.429 20.9819C102.31 21.3853 102.207 21.769 102.076 22.1434C102.058 22.1954 101.909 22.2248 101.82 22.2253C100.79 22.2309 99.76 22.2321 98.7302 22.2256C98.5648 22.2246 98.4728 22.2586 98.4306 22.4371C98.3629 22.7233 98.2646 23.0022 98.1705 23.3132C98.6891 23.3132 99.1834 23.3132 99.7048 23.3132Z" fill="black"/>
<path d="M69.0183 26.9458C68.7326 26.9458 68.4739 26.9458 68.2024 26.9458C68.8135 24.9445 69.4165 22.9694 70.0233 20.982C71.1753 20.982 72.3313 20.9547 73.485 20.9947C73.9822 21.012 74.4865 21.1072 74.9066 21.4564C75.16 21.6671 75.3264 21.9253 75.3509 22.2226C75.417 23.0254 75.1774 23.7624 74.6467 24.3628C74.3191 24.7335 73.8522 24.9507 73.3529 24.9864C72.4701 25.0496 71.5841 25.0722 70.699 25.0975C70.5231 25.1025 70.4649 25.1557 70.4213 25.3256C70.2939 25.822 70.1427 26.3127 69.9846 26.8003C69.9638 26.8645 69.8509 26.9338 69.7762 26.9392C69.5337 26.9568 69.2891 26.9458 69.0183 26.9458ZM71.81 23.9097C71.9184 23.9097 72.0268 23.9084 72.1352 23.9099C72.9676 23.9217 73.364 23.6717 73.539 22.8841C73.6401 22.4288 73.5902 22.2255 73.1318 22.1855C72.6028 22.1394 72.0666 22.1711 71.5338 22.1798C71.4721 22.1808 71.3733 22.2382 71.3565 22.2903C71.1856 22.822 71.0281 23.358 70.8617 23.9097C71.1786 23.9097 71.4672 23.9097 71.81 23.9097Z" fill="black"/>
<path d="M91.8976 20.9819C93.3518 20.9819 94.779 20.9819 96.2396 20.9819C96.1257 21.3696 96.0252 21.7417 95.9008 22.1055C95.8804 22.1651 95.7554 22.2221 95.6776 22.2235C95.1447 22.2338 94.6114 22.234 94.0784 22.2259C93.9139 22.2234 93.8403 22.2619 93.7874 22.4399C93.3664 23.8565 92.9279 25.2679 92.495 26.681C92.4697 26.7637 92.4468 26.8471 92.4209 26.9371C91.8546 26.9371 91.2874 26.9371 90.6789 26.9371C91.1585 25.3667 91.6322 23.8156 92.1141 22.2379C91.409 22.2379 90.711 22.2379 89.978 22.2379C90.1097 21.8003 90.2312 21.3967 90.356 20.9819C90.8599 20.9819 91.3652 20.9819 91.8976 20.9819Z" fill="black"/>
</g>
<defs>
<clipPath id="clip0_2164_1530">
<rect width="115.645" height="27" fill="white"/>
</clipPath>
</defs>
</svg>
