<svg width="142" height="27" viewBox="0 0 142 27" fill="none" xmlns="http://www.w3.org/2000/svg">
<g clip-path="url(#clip0_2164_1358)">
<path d="M48.3714 0.0634766C48.4012 8.88049 48.4012 17.6975 48.4012 26.5349C47.0091 26.5349 45.6263 26.5349 44.2264 26.5349C43.9167 25.7905 43.6037 25.0303 43.2837 24.273C43.1673 23.9976 43.0458 24.1769 42.9498 24.2899C42.6547 24.637 42.3953 25.0188 42.0726 25.3373C41.2697 26.1296 40.275 26.5819 39.1815 26.8012C38.6352 26.9108 38.0704 27.0015 37.5167 26.988C35.6505 26.9423 33.9061 26.493 32.3858 25.3355C31.081 24.3421 30.2096 23.0529 29.6342 21.5366C29.2856 20.618 29.0567 19.6752 29.0062 18.6951C28.9667 17.9286 28.9014 17.1564 28.9522 16.3937C29.0376 15.1113 29.3142 13.8615 29.8343 12.6742C30.3161 11.5742 30.9693 10.5916 31.8489 9.77266C32.9722 8.72686 34.2864 8.03748 35.8155 7.8224C36.4758 7.72952 37.1523 7.66679 37.8159 7.70001C39.1996 7.76928 40.4612 8.19265 41.4489 9.22763C41.5763 9.36113 41.6709 9.52533 41.792 9.66565C41.8437 9.72562 41.9243 9.76078 42.041 9.84111C42.041 6.55427 42.041 3.33865 42.041 0.0932501C44.1412 0.0634766 46.2414 0.0634766 48.3714 0.0634766ZM35.9018 14.74C35.4517 15.63 35.3177 16.573 35.3534 17.5648C35.3863 18.4792 35.5904 19.3253 36.0581 20.114C36.8666 21.4775 38.0668 21.8921 39.361 21.7078C40.7217 21.514 41.6008 20.6657 42.0473 19.3606C42.3245 18.5503 42.4656 17.7303 42.358 16.8768C42.3 16.4171 42.2752 15.9471 42.1566 15.5028C41.9685 14.7987 41.6296 14.1451 41.0574 13.6819C40.2559 13.0331 39.3289 12.7688 38.2854 12.9558C37.2038 13.1498 36.434 13.7398 35.9018 14.74Z" fill="black"/>
<path d="M66.8756 27.0635C66.6043 26.979 66.3687 26.8667 66.1204 26.8147C64.5565 26.4872 63.1641 25.8224 61.9314 24.7996C60.9233 23.9631 60.1757 22.9354 59.6203 21.7684C59.2201 20.9274 58.9162 20.0411 58.8389 19.1058C58.7638 18.198 58.662 17.2798 58.7225 16.3762C58.8478 14.5014 59.4685 12.7701 60.5866 11.2495C61.439 10.0902 62.5378 9.19339 63.8447 8.58607C64.6787 8.19855 65.5483 7.88013 66.4814 7.8164C67.2755 7.76216 68.0752 7.65703 68.8652 7.7017C70.6606 7.8032 72.3403 8.31295 73.7757 9.43953C74.8531 10.2852 75.6196 11.381 76.1262 12.6484C76.4775 13.5272 76.7352 14.4394 76.7612 15.3908C76.7903 16.4524 76.7679 17.5155 76.7679 18.6039C72.8474 18.6039 68.878 18.6039 64.8689 18.6039C64.8972 19.2235 65.0811 19.7683 65.3658 20.2753C65.9482 21.3127 66.8808 21.7906 68.0301 21.9927C69.5848 22.266 71.0495 22.0042 72.4714 21.397C72.8725 21.2257 73.249 20.9919 73.6227 20.7637C73.7686 20.6747 73.8102 20.7107 73.8769 20.8387C74.349 21.7452 74.8268 22.6488 75.3036 23.5529C75.5177 23.9589 75.7336 24.3639 75.9721 24.8136C74.3221 26.1824 72.3916 26.8005 70.2901 27.0382C69.1553 27.0635 68.0304 27.0635 66.8756 27.0635ZM69.7359 12.8941C68.9163 12.268 67.9971 12.1259 67.0336 12.4305C65.7418 12.839 65.2352 13.8889 64.9409 15.1033C66.885 15.1033 68.7988 15.1033 70.7115 15.1033C70.758 14.3174 70.4477 13.6063 69.7359 12.8941Z" fill="black"/>
<path d="M0.0635986 0.283924C2.17048 0.25415 4.27737 0.25415 6.40402 0.25415C6.40402 9.01826 6.40402 17.7715 6.40402 26.5553C4.31044 26.5553 2.21683 26.5553 0.0934062 26.5553C0.0635986 17.8081 0.0635986 9.06091 0.0635986 0.283924Z" fill="black"/>
<path d="M133.529 27.0635C133.153 27 132.808 26.9275 132.459 26.8746C130.954 26.6464 129.584 26.112 128.378 25.163C127.403 24.3959 126.638 23.462 126.096 22.3578C125.613 21.3729 125.253 20.3365 125.174 19.231C125.107 18.3017 125.009 17.3652 125.059 16.4391C125.132 15.0954 125.44 13.7889 125.995 12.5473C126.417 11.6069 126.982 10.7645 127.696 10.0333C128.785 8.91832 130.115 8.21973 131.637 7.87513C132.545 7.66956 133.468 7.62715 134.383 7.69936C135.812 7.81206 137.159 8.22416 138.33 9.08752C139.149 9.69195 139.82 10.4365 140.346 11.3138C140.947 12.3174 141.258 13.4225 141.509 14.549C141.563 14.7907 141.565 15.0438 141.617 15.3011C141.642 15.9896 141.642 16.6686 141.612 17.3773C136.924 17.4071 132.267 17.4071 127.512 17.4071C127.636 18.2399 127.698 19.0471 127.887 19.8236C128.235 21.2563 128.952 22.4806 130.13 23.4159C131.15 24.2264 132.316 24.6792 133.597 24.759C134.417 24.8101 135.254 24.7431 136.072 24.6364C137.092 24.5034 138.049 24.1406 138.925 23.5869C139.204 23.4103 139.478 23.2263 139.751 23.0486C140.045 23.6073 140.311 24.1369 140.602 24.6524C140.721 24.8632 140.668 24.9982 140.498 25.1237C139.017 26.2206 137.341 26.7836 135.515 26.9396C135.287 26.9591 135.062 27.0212 134.836 27.0635C134.748 27.0635 134.66 27.0635 134.536 27.0387C134.337 27.0305 134.173 27.047 134.01 27.0635C133.859 27.0635 133.708 27.0635 133.529 27.0635ZM133.783 9.84707C133.286 9.88939 132.782 9.89579 132.292 9.98058C130.641 10.2663 129.43 11.1957 128.611 12.6301C128.141 13.4525 127.872 14.355 127.743 15.29C131.499 15.29 135.264 15.29 139.063 15.29C139.008 14.9495 138.97 14.6315 138.905 14.3194C138.675 13.2321 138.264 12.2214 137.496 11.4011C136.515 10.3529 135.264 9.89256 133.783 9.84707Z" fill="black"/>
<path d="M20.8615 16.582C20.8927 15.8898 20.8133 15.2484 20.4769 14.6662C19.9758 13.799 19.215 13.3426 18.2148 13.2768C17.4723 13.228 16.7637 13.3369 16.156 13.79C15.4997 14.2794 15.031 14.9274 15.0201 15.7615C14.9751 19.2173 14.9677 22.6737 14.9466 26.1298C14.9458 26.2566 14.9465 26.3834 14.9465 26.5327C12.8383 26.5327 10.7351 26.5327 8.60913 26.5327C8.60913 20.4196 8.60913 14.2886 8.60913 8.14468C9.90028 8.14468 11.1898 8.14468 12.4933 8.14468C12.7899 8.87632 13.0879 9.61929 13.3946 10.3586C13.4333 10.4519 13.5253 10.599 13.5796 10.5934C13.6801 10.5832 13.7973 10.4979 13.8618 10.4103C14.7732 9.17096 15.8789 8.19304 17.4254 7.85289C18.3829 7.64228 19.3515 7.57167 20.3414 7.67252C21.1576 7.75566 21.9482 7.89696 22.7087 8.19583C23.419 8.47495 24.0683 8.85125 24.6608 9.34396C25.9639 10.4277 26.6399 11.8658 27.0164 13.4617C27.1581 14.0624 27.21 14.6962 27.213 15.3154C27.2307 18.9356 27.2217 22.5559 27.2217 26.1762C27.2217 26.291 27.2217 26.4058 27.2217 26.5379C25.1031 26.5379 23 26.5379 20.8615 26.5379C20.8615 23.2314 20.8615 19.9225 20.8615 16.582Z" fill="black"/>
<path d="M104.607 3.85578C104.973 2.64436 105.323 1.45428 105.673 0.261688C106.527 0.261688 107.373 0.261688 108.275 0.261688C108.189 0.569279 108.117 0.859541 108.027 1.14402C107.508 2.78512 106.986 4.42526 106.462 6.06494C105.923 7.75298 105.377 9.43897 104.842 11.1281C104.444 12.3808 104.063 13.6387 103.666 14.8914C103.13 16.5804 102.581 18.2654 102.046 19.9544C101.522 21.6053 101.009 23.2595 100.489 24.9113C100.318 25.4547 100.138 25.9953 99.9586 26.5462C99.2845 26.5462 98.6076 26.5462 97.8985 26.5462C95.85 19.1856 93.7989 11.8156 91.7478 4.44565C91.7251 4.44325 91.7024 4.44086 91.6796 4.43846C89.6461 11.8012 87.6125 19.1639 85.571 26.5553C84.9499 26.5553 84.3049 26.5595 83.6602 26.5493C83.5886 26.5481 83.4741 26.4786 83.4541 26.4167C83.1666 25.5247 82.8982 24.6266 82.6128 23.7339C82.0112 21.852 81.3983 19.9736 80.7978 18.0913C80.3581 16.7131 79.9365 15.3292 79.4968 13.951C78.8963 12.0687 78.2829 10.1905 77.6814 8.30856C77.2193 6.86276 76.7685 5.41336 76.3099 3.96645C75.9188 2.73288 75.5239 1.50056 75.1263 0.254165C75.967 0.254165 76.793 0.250133 77.6188 0.260803C77.6959 0.2618 77.8204 0.340959 77.8411 0.408791C78.232 1.6851 78.6139 2.96421 78.9909 4.24471C79.5032 5.98468 80.0078 7.7269 80.5194 9.46708C81.0683 11.3344 81.6215 13.2004 82.1729 15.067C82.7243 16.9335 83.2768 18.7998 83.8263 20.6669C83.9817 21.1948 84.1277 21.7255 84.2814 22.2539C84.292 22.2903 84.3312 22.3183 84.3853 22.385C86.4131 14.9934 88.4326 7.63212 90.454 0.263811C91.2867 0.263811 92.1119 0.263811 92.9733 0.263811C94.9914 7.61986 97.0126 14.9874 99.0339 22.355C99.0528 22.3548 99.0717 22.3547 99.0906 22.3545C99.2122 21.9691 99.3382 21.585 99.4547 21.198C99.7544 20.2029 100.052 19.207 100.347 18.2105C100.841 16.5397 101.331 14.8676 101.827 13.197C102.461 11.0576 103.099 8.91922 103.734 6.78006C104.021 5.81285 104.306 4.84478 104.607 3.85578Z" fill="black"/>
<path d="M56.5953 26.5552C54.5315 26.5552 52.4987 26.5552 50.4512 26.5552C50.4512 20.4099 50.4512 14.2855 50.4512 8.14636C52.5609 8.14636 54.6643 8.14636 56.7966 8.14636C56.7966 8.23419 56.7966 8.31555 56.7966 8.39692C56.7966 14.3473 56.7973 20.2977 56.7917 26.2481C56.7916 26.3602 56.9084 26.5775 56.5953 26.5552Z" fill="black"/>
<path d="M124.826 8.09383C124.847 8.79031 124.847 9.46487 124.847 10.1647C124.448 10.1647 124.069 10.1554 123.691 10.1664C122.468 10.2022 121.417 10.6461 120.512 11.4741C119.559 12.3469 119.064 13.4512 118.815 14.6863C118.76 14.96 118.748 15.2461 118.748 15.5265C118.744 19.1884 118.745 22.8502 118.745 26.5337C117.907 26.5337 117.076 26.5337 116.223 26.5337C116.223 20.4176 116.223 14.2869 116.223 8.14414C116.826 8.14414 117.424 8.14414 118.043 8.14414C118.134 9.26725 118.223 10.3798 118.319 11.5704C118.55 11.1942 118.728 10.8809 118.928 10.5824C119.404 9.87253 120.022 9.31406 120.758 8.87742C121.723 8.30474 122.769 8.06138 123.883 8.06813C124.19 8.06999 124.497 8.07067 124.826 8.09383Z" fill="black"/>
<path d="M110.35 19.8847C110.35 15.9581 110.35 12.0633 110.35 8.15015C111.173 8.15015 111.983 8.15015 112.812 8.15015C112.812 14.27 112.812 20.3942 112.812 26.5369C112.007 26.5369 111.196 26.5369 110.35 26.5369C110.35 24.3331 110.35 22.1248 110.35 19.8847Z" fill="black"/>
<path d="M52.3318 5.92916C50.5501 5.15883 50.0306 2.94105 51.1485 1.46895C52.1614 0.135096 54.1012 -0.103866 55.4227 0.721764C56.1977 1.20594 56.6843 1.92138 56.8076 2.88361C57.0144 4.499 55.8696 5.75893 54.5562 6.105C53.7928 6.30615 53.0695 6.21873 52.3318 5.92916Z" fill="black"/>
<path d="M110.032 4.14199C110.096 3.16355 110.949 2.59665 111.81 2.7431C113.078 2.95879 113.434 4.33744 112.818 5.22423C112.58 5.56622 112.209 5.76734 111.763 5.78341C111.385 5.79702 111.019 5.77648 110.684 5.5725C110.153 5.2493 109.98 4.76309 110.032 4.14199Z" fill="black"/>
</g>
<defs>
<clipPath id="clip0_2164_1358">
<rect width="141.578" height="27" fill="white"/>
</clipPath>
</defs>
</svg>
