<svg width="23" height="27" viewBox="0 0 23 27" fill="none" xmlns="http://www.w3.org/2000/svg">
<g clip-path="url(#clip0_2164_1376)">
<path d="M17.579 27.0354C17.4476 27 17.3352 26.9498 17.2177 26.9315C16.605 26.8364 16.0235 26.6463 15.4523 26.4073C14.8598 26.1594 14.3267 25.8177 13.8372 25.4133C13.3083 24.9763 12.8764 24.4491 12.5171 23.8603C12.1314 23.2281 11.899 22.5407 11.7492 21.8233C11.6974 21.575 11.6883 21.3164 11.6753 21.0616C11.6634 20.8317 11.6699 20.6006 11.6733 20.3701C11.6841 19.6202 11.8469 18.9025 12.1327 18.2107C12.4291 17.4931 12.8322 16.8478 13.3615 16.2743C13.8285 15.7683 14.3595 15.3542 14.9528 15.012C15.6019 14.6375 16.3029 14.3921 17.0351 14.2742C17.5912 14.1848 18.1637 14.1528 18.7272 14.1661C19.4572 14.1834 20.1893 14.2774 20.8721 14.5538C21.3611 14.7517 21.8223 15.018 22.2965 15.2525C22.4044 15.3059 22.4077 15.3795 22.3521 15.4738C21.9412 16.1721 21.5312 16.8708 21.1205 17.5692C21.1148 17.5789 21.1032 17.5851 21.0902 17.5967C20.8524 17.4441 20.6227 17.2732 20.3725 17.141C19.804 16.8407 19.1984 16.6992 18.5481 16.705C17.7687 16.7119 17.0709 16.9422 16.4287 17.3663C15.5583 17.941 15.0116 18.7529 14.7374 19.7464C14.6569 20.0383 14.6191 20.3527 14.6245 20.6556C14.6394 21.4845 14.8901 22.2401 15.3996 22.9062C15.9229 23.5903 16.5918 24.0663 17.4139 24.3093C17.7305 24.4028 18.066 24.4456 18.3962 24.4769C19.1832 24.5516 19.9187 24.3609 20.606 23.9825C20.8305 23.8589 21.0446 23.7148 21.2552 23.5683C21.3492 23.5029 21.3839 23.5157 21.4391 23.6128C21.7271 24.1184 22.0232 24.6194 22.3169 25.1217C22.4263 25.3086 22.5368 25.4947 22.6591 25.6842C22.6714 25.703 22.6714 25.7187 22.6586 25.7464C22.2069 26.0064 21.7785 26.2758 21.3263 26.4966C20.8775 26.7158 20.3953 26.8532 19.8984 26.9301C19.7101 26.9592 19.5236 27 19.3364 27.0354C18.7561 27.0354 18.1759 27.0354 17.579 27.0354Z" fill="black"/>
<path d="M2.39662 0.0355225C2.59417 0.0530129 2.77575 0.0705032 2.97138 0.089347C2.97138 3.39028 2.97138 6.70354 2.97138 10.034C4.78967 10.034 6.59506 10.034 8.44858 10.034C8.00537 10.8836 7.57931 11.7004 7.15134 12.5208C4.88399 12.5208 2.61438 12.5208 0.332031 12.5208C0.332031 8.37666 0.332031 4.23159 0.332031 0.0645303C0.914983 0.0645303 1.49819 0.0645303 2.08733 0.0500264C2.18906 0.0355225 2.28486 0.0355225 2.39662 0.0355225Z" fill="black"/>
<path d="M22.6714 12.5125C21.7671 12.5243 20.8627 12.5223 19.9584 12.5267C19.839 12.5273 19.7781 12.4971 19.7217 12.3806C19.4804 11.8825 19.2179 11.3947 18.9732 10.8983C18.9196 10.7897 18.8476 10.7844 18.7492 10.7845C17.2243 10.7864 15.6994 10.7858 14.1744 10.7858C14.1118 10.7858 14.0492 10.7858 13.9626 10.7858C14.2048 10.2995 14.435 9.83562 14.6667 9.37242C14.7893 9.12711 14.9287 8.8889 15.0327 8.63601C15.0898 8.49721 15.1667 8.47638 15.2967 8.47718C16.0943 8.4821 16.892 8.47964 17.7191 8.47964C17.5731 8.18512 17.4375 7.90611 17.297 7.62954C17.0748 7.19202 16.8492 6.75626 16.6254 6.31953C16.1414 5.37493 15.6584 4.42982 15.1734 3.48572C15.03 3.20653 14.8785 2.93144 14.7378 2.65091C14.7145 2.60432 14.7056 2.52828 14.7274 2.4846C14.9701 1.9997 15.2206 1.5187 15.4682 1.03625C15.6347 0.711924 15.7998 0.386956 15.9657 0.0488832C16.0615 0.035491 16.1573 0.035491 16.2691 0.0487186C16.3362 0.156762 16.3887 0.250809 16.438 0.346514C16.8899 1.22408 17.3414 2.10187 17.7928 2.97971C18.2599 3.88811 18.7273 4.79637 19.1936 5.7052C19.6493 6.59342 20.1038 7.48224 20.5588 8.37086C21.0267 9.28501 21.4927 10.2002 21.9633 11.113C22.1949 11.5621 22.4351 12.0067 22.6714 12.4534C22.6714 12.4691 22.6714 12.4849 22.6714 12.5125Z" fill="black"/>
<path d="M0.0354005 25.2038C0.156308 24.9936 0.28223 24.7995 0.397131 24.5992C0.68085 24.1044 0.965121 23.6098 1.23666 23.1084C1.3141 22.9654 1.38713 23.0396 1.45693 23.0849C1.68233 23.2311 1.89791 23.3926 2.12504 23.5359C2.73105 23.9184 3.36745 24.2507 4.07902 24.3657C4.85779 24.4916 5.62535 24.411 6.31272 23.9808C6.78695 23.6839 7.03233 23.2354 7.05993 22.6739C7.08501 22.1634 6.93016 21.7218 6.55328 21.3653C6.35082 21.1737 6.34808 21.1688 6.48244 20.9249C6.82617 20.3009 7.17649 19.6804 7.51962 19.0561C7.58538 18.9364 7.66805 18.9127 7.77362 18.9832C8.021 19.1486 8.28519 19.2968 8.50456 19.4943C9.00617 19.9457 9.45397 20.4475 9.7362 21.0725C9.91914 21.4776 10.0502 21.896 10.043 22.3493C10.0403 22.5175 10.0773 22.6865 10.074 22.8547C10.0568 23.729 9.79582 24.5219 9.25372 25.2135C8.61553 26.0278 7.77352 26.5218 6.78327 26.7909C6.35294 26.9078 5.92004 26.9883 5.46946 27.0211C5.06094 27.0354 4.6581 27.0354 4.23356 27.0216C3.90592 26.9578 3.5964 26.9236 3.2947 26.855C2.38762 26.6488 1.53305 26.3102 0.754768 25.7937C0.511993 25.6326 0.275026 25.4628 0.0354004 25.2969C0.0354006 25.2703 0.0354006 25.2437 0.0354005 25.2038Z" fill="black"/>
<path d="M11.0082 9.76787C11.4424 8.91682 11.8675 8.07627 12.2947 7.23674C12.5587 6.71787 12.8254 6.20038 13.0916 5.68261C13.2506 5.37327 13.4114 5.06484 13.5705 4.75554C13.8329 4.24538 14.0945 3.73486 14.3706 3.19714C14.4531 3.36357 14.5208 3.50531 14.593 3.64475C14.9628 4.35926 15.3373 5.07138 15.6985 5.79024C15.7321 5.85722 15.707 5.9773 15.6694 6.05298C14.938 7.52594 14.2005 8.99591 13.4645 10.4666C13.1222 11.1506 12.7803 11.8348 12.4391 12.5172C11.4989 12.5172 10.5612 12.5172 9.60156 12.5172C10.0726 11.5947 10.5363 10.6867 11.0082 9.76787Z" fill="black"/>
<path d="M3.14878 20.0697C3.46758 19.5014 3.77856 18.9442 4.08956 18.387C4.32845 17.9589 4.5665 17.5304 4.80648 17.1029C5.18888 16.4218 5.57387 15.7422 5.95505 15.0604C6.09395 14.812 6.22054 14.5566 6.36337 14.3105C6.39423 14.2573 6.47055 14.1972 6.52632 14.1968C7.49555 14.1902 8.46485 14.1923 9.43413 14.1931C9.44424 14.1931 9.45435 14.2009 9.48117 14.2118C9.31898 14.513 9.16182 14.8146 8.99566 15.1111C8.74479 15.5588 8.48533 16.0017 8.23367 16.449C7.8424 17.1445 7.45367 17.8414 7.06572 18.5387C6.81915 18.9819 6.5763 19.4271 6.3311 19.8711C6.14916 20.2005 5.96746 20.53 5.78153 20.8572C5.76264 20.8904 5.71128 20.9332 5.68192 20.9285C4.79859 20.7863 3.90932 20.8966 3.02375 20.8623C2.95383 20.8596 2.88372 20.862 2.80161 20.862C2.79103 20.5367 3.02709 20.3347 3.14878 20.0697Z" fill="black"/>
<path d="M1.17072 14.1919C2.67041 14.1919 4.15236 14.1919 5.67739 14.1919C5.60621 14.3238 5.5501 14.4263 5.4953 14.5295C5.22501 15.0386 4.95452 15.5477 4.68529 16.0573C4.58419 16.2487 4.48925 16.4434 4.38434 16.6327C4.36454 16.6684 4.31099 16.7076 4.2729 16.7077C2.9616 16.7116 1.65029 16.7109 0.329102 16.7109C0.329102 15.8725 0.329102 15.0423 0.329102 14.1919C0.602079 14.1919 0.877528 14.1919 1.17072 14.1919Z" fill="black"/>
</g>
<defs>
<clipPath id="clip0_2164_1376">
<rect width="22.636" height="27" fill="white"/>
</clipPath>
</defs>
</svg>
