<svg width="169" height="22" viewBox="0 0 169 22" fill="none" xmlns="http://www.w3.org/2000/svg">
<g clip-path="url(#clip0_2164_1388)">
<path d="M42.7183 0.069458C43.1533 0.138853 43.5572 0.20069 43.9579 0.279142C44.9317 0.469793 45.828 0.846887 46.5399 1.54706C47.2191 2.2151 47.5858 3.05087 47.6076 4.01611C47.6359 5.27044 47.6753 6.52502 47.6723 7.77941C47.6696 8.92233 47.4439 10.0157 46.6942 10.929C46.0178 11.7528 45.1521 12.325 44.1345 12.6174C43.503 12.7989 42.8415 12.9163 42.1862 12.9652C41.2128 13.0378 40.233 13.044 39.256 13.0444C27.4635 13.049 15.671 13.0474 3.8785 13.0474C3.75338 13.0474 3.62827 13.0474 3.47003 13.0474C3.47003 16.047 3.47003 19.0257 3.47003 22.0369C2.33871 22.0695 1.20738 22.0695 0.0694008 22.0695C0.0694008 18.0428 0.0694008 14.0161 0.101926 9.95687C14.0796 9.92435 28.0248 9.92468 41.9699 9.92144C42.1945 9.92139 42.4254 9.90381 42.6425 9.85015C43.7634 9.57301 44.1794 9.07317 44.251 8.28668C44.3533 7.16309 44.31 6.02167 44.2566 4.89129C44.2406 4.55351 44.0388 4.18436 43.8242 3.90466C43.403 3.3556 42.7446 3.2694 42.113 3.26898C28.0985 3.25971 14.0839 3.26189 0.0694008 3.26189C0.0694008 2.19845 0.0694008 1.13501 0.0694008 0.0694581C14.2748 0.0694581 28.4803 0.0694581 42.7183 0.069458Z" fill="black"/>
<path d="M168.991 3.15996C155.839 3.19249 142.688 3.18715 129.537 3.20313C128.539 3.20434 127.541 3.3489 126.624 3.80997C125.546 4.35238 124.882 5.20525 124.717 6.41104C124.645 6.93919 124.584 7.47359 124.58 8.00556C124.565 10.2378 124.557 12.4705 124.584 14.7025C124.593 15.4279 124.678 16.1543 125.04 16.8227C125.563 17.7855 126.39 18.3386 127.396 18.667C128.217 18.935 129.067 18.9507 129.923 18.9503C142.924 18.9447 155.925 18.9464 168.958 18.9464C168.991 19.9867 168.991 21.027 168.991 22.0695C155.41 22.0695 141.829 22.0695 128.215 22.0695C127.816 22.0001 127.448 21.9316 127.081 21.8611C125.785 21.6121 124.568 21.1847 123.512 20.3541C122.538 19.5883 121.902 18.6065 121.597 17.4202C121.453 16.8577 121.33 16.2713 121.325 15.6947C121.298 12.6443 121.267 9.59264 121.33 6.5433C121.366 4.77416 121.935 3.15971 123.306 1.93381C124.05 1.26833 124.925 0.804682 125.888 0.570847C126.747 0.362121 127.634 0.268785 128.519 0.0969944C142.017 0.069458 155.504 0.069458 168.991 0.069458C168.991 1.0931 168.991 2.11027 168.991 3.15996Z" fill="black"/>
<path d="M58.4028 0.069458C59.2687 0.485925 60.0989 0.909035 60.9363 1.31732C62.2294 1.94777 63.5267 2.56937 64.8235 3.1923C65.9487 3.73287 67.0761 4.26904 68.2017 4.80898C69.9711 5.65775 71.7398 6.50804 73.5087 7.35771C74.6645 7.91282 75.8204 8.46757 76.9758 9.0232C78.7544 9.8785 80.5313 10.7375 82.312 11.5885C82.9645 11.9003 83.6215 12.2039 84.2868 12.4868C84.4204 12.5436 84.6256 12.5415 84.7561 12.4793C86.2664 11.7589 87.7666 11.0175 89.2736 10.29C91.0207 9.44672 92.7718 8.61173 94.5212 7.77327C95.6973 7.2096 96.8736 6.64635 98.0497 6.08263C99.8193 5.23443 101.589 4.38673 103.358 3.53736C104.484 2.99694 105.608 2.45307 106.733 1.91222C107.979 1.3134 109.226 0.716267 110.479 0.0939263C111.621 0.0694584 112.756 0.0694584 113.923 0.0694584C113.956 0.797708 113.956 1.52596 113.956 2.26356C112.393 3.01534 110.836 3.76467 109.278 4.51353C108.163 5.0499 107.047 5.58543 105.931 6.12172C104.112 6.9964 102.293 7.87205 100.473 8.74599C99.3573 9.28178 98.2396 9.81352 97.1242 10.35C95.3048 11.225 93.4866 12.1024 91.6678 12.9789C90.5326 13.5259 89.3991 14.0765 88.2619 14.6192C87.3951 15.0329 86.5047 15.3934 85.551 15.5396C84.0717 15.7662 82.6459 15.5205 81.2979 14.8988C79.8694 14.2399 78.4662 13.5267 77.0499 12.8414C75.8954 12.2828 74.738 11.7304 73.5818 11.1753C72.4257 10.6201 71.2698 10.0644 70.1134 9.50994C68.9271 8.94114 67.7401 8.37386 66.5537 7.80531C64.7936 6.9618 63.0331 6.11891 61.2739 5.27352C60.0877 4.7035 58.9052 4.12574 57.7175 3.55884C56.9031 3.1701 56.084 2.79093 55.2638 2.41447C55.0521 2.31728 54.9432 2.2044 54.9561 1.9383C54.9853 1.3383 54.9653 0.735919 54.9653 0.101984C56.1003 0.0694584 57.2353 0.0694584 58.4028 0.069458Z" fill="black"/>
<path d="M54.9978 22.0694C54.9653 16.2919 54.9653 10.5144 54.9653 4.66284C56.1212 5.21466 57.2329 5.74539 58.3659 6.28632C58.3659 11.512 58.3659 16.7582 58.3659 22.0369C57.2541 22.0694 56.1422 22.0694 54.9978 22.0694Z" fill="black"/>
<path d="M110.588 22.0694C110.555 16.9382 110.558 11.807 110.548 6.67588C110.547 6.39229 110.637 6.26069 110.888 6.14357C111.828 5.70556 112.756 5.24038 113.689 4.78702C113.756 4.75434 113.83 4.73479 113.956 4.68896C113.956 10.4868 113.956 16.2456 113.956 22.0369C112.844 22.0694 111.732 22.0694 110.588 22.0694Z" fill="black"/>
</g>
<defs>
<clipPath id="clip0_2164_1388">
<rect width="168.921" height="22" fill="white"/>
</clipPath>
</defs>
</svg>
