<svg width="145" height="27" viewBox="0 0 145 27" fill="none" xmlns="http://www.w3.org/2000/svg">
<g clip-path="url(#clip0_2164_1398)">
<path d="M0.0726318 0.976559C3.15639 0.9436 6.24046 0.918044 9.32377 0.955303C10.6902 0.971815 12.0494 1.14717 13.3573 1.59445C14.5488 2.00195 15.5726 2.63659 16.2493 3.73376C16.5532 4.22644 16.6894 4.7702 16.7807 5.34655C16.9115 6.17143 16.7619 6.94224 16.4998 7.70325C16.2527 8.42067 15.7854 8.97406 15.1982 9.46296C14.0565 10.4136 12.6872 10.7615 11.3438 11.058C11.9802 11.1988 12.6757 11.3223 13.3536 11.5093C14.7199 11.8861 15.585 12.8042 15.9543 14.1505C16.1643 14.9161 16.2568 15.7139 16.4035 16.497C16.5859 17.4716 16.6246 18.478 17.0571 19.3971C17.389 20.1023 18.0033 20.3676 18.7181 20.4642C19.1176 20.5182 19.522 20.5363 19.9424 20.5721C19.9424 20.8102 19.9424 21.058 19.9424 21.369C19.1423 21.4315 18.3412 21.5449 17.5408 21.5405C16.8964 21.5369 16.2398 21.4457 15.6116 21.2963C14.4905 21.0298 13.8601 20.239 13.6566 19.1385C13.5066 18.3268 13.4574 17.4967 13.3535 16.6761C13.2221 15.6375 13.2205 14.5807 12.8864 13.5705C12.5471 12.5443 11.8274 11.8915 10.7911 11.7816C9.29391 11.6229 7.78051 11.6174 6.24199 11.5449C6.24199 11.8079 6.24199 11.974 6.24199 12.1402C6.24199 14.3895 6.24199 16.6388 6.24199 18.8881C6.24199 19.824 6.62094 20.2667 7.55734 20.3925C8.14406 20.4713 8.73427 20.524 9.34461 20.5907C9.34461 20.8075 9.34461 21.0547 9.34461 21.3388C6.27536 21.3388 3.20801 21.3388 0.106647 21.3388C0.0726318 21.0948 0.0726318 20.8508 0.106354 20.5736C0.785702 20.4675 1.44378 20.4498 2.07369 20.3074C2.80689 20.1418 3.27941 19.8005 3.27567 18.838C3.25559 13.6631 3.26064 8.48811 3.27336 3.31321C3.2749 2.68332 2.9404 2.26142 2.33063 2.02602C1.59974 1.74387 0.831023 1.75021 0.0726318 1.66941C0.0726318 1.44944 0.0726318 1.22948 0.0726318 0.976559ZM6.24199 3.66537C6.24199 5.99376 6.24199 8.32214 6.24199 10.6694C7.20914 10.6694 8.13797 10.6639 9.06669 10.6711C9.82916 10.677 10.5698 10.5542 11.2867 10.3039C12.2716 9.96011 12.9572 9.31588 13.286 8.3023C13.6584 7.15389 13.6824 5.9767 13.4823 4.81428C13.2853 3.67044 12.6484 2.82239 11.5086 2.37331C10.6693 2.04264 9.81345 1.89834 8.92532 1.88917C8.0359 1.87998 7.1463 1.88715 6.24199 1.88715C6.24199 2.4837 6.24199 3.03825 6.24199 3.66537Z" fill="black"/>
<path d="M94.6066 27.0725C94.5726 26.8441 94.5726 26.6157 94.5726 26.3837C94.9865 26.3464 95.3866 26.3082 95.7871 26.2746C96.4336 26.2203 96.7498 25.8739 96.7498 25.2105C96.7503 21.2434 96.7501 17.2763 96.7501 13.3092C96.7501 12.1481 96.7493 10.987 96.7503 9.82594C96.7511 8.87788 96.2742 8.51834 95.4706 8.3514C95.193 8.29372 94.9051 8.28519 94.5963 8.25141C94.5963 8.04535 94.5963 7.82122 94.5963 7.5645C96.1372 7.52848 97.6954 7.49205 99.2823 7.45495C99.2823 8.08144 99.2823 8.66655 99.2823 9.21441C99.9719 8.75391 100.619 8.21336 101.354 7.85248C103.236 6.9283 105.125 7.00333 106.852 8.22168C107.899 8.96027 108.526 10.0566 108.873 11.3013C109.193 12.4477 109.311 13.6191 109.224 14.7968C109.095 16.5455 108.61 18.1695 107.443 19.5492C106.525 20.6341 105.357 21.2449 103.992 21.472C102.673 21.6914 101.384 21.4979 100.149 20.9743C99.893 20.8658 99.6393 20.752 99.363 20.6312C99.363 22.2655 99.3534 23.8823 99.3774 25.4986C99.3799 25.6649 99.5493 25.921 99.6994 25.9757C100.154 26.1415 100.633 26.2598 101.112 26.3362C101.452 26.3904 101.808 26.3467 102.194 26.3467C102.194 26.5789 102.194 26.7923 102.194 27.0391C99.676 27.0725 97.1583 27.0725 94.6066 27.0725ZM99.363 14.4072C99.363 15.4831 99.3797 16.5594 99.3556 17.6348C99.3443 18.1363 99.4513 18.5819 99.6874 19.0222C100.488 20.5143 101.749 20.8459 103.15 20.6598C104.338 20.5018 105.084 19.6632 105.579 18.6265C106.194 17.3395 106.337 15.9417 106.392 14.5414C106.414 13.964 106.32 13.38 106.255 12.8017C106.134 11.7144 105.789 10.7196 105.115 9.83114C104.42 8.91692 103.031 8.38474 101.924 8.65229C101.17 8.83455 100.51 9.20809 99.924 9.67713C99.5769 9.95491 99.3016 10.3158 99.3402 10.8908C99.417 12.0341 99.363 13.1862 99.363 14.4072Z" fill="black"/>
<path d="M36.1838 0.0726318C36.2178 3.0668 36.2178 6.06097 36.2178 9.09006C36.6469 8.7686 37.0315 8.4674 37.4296 8.18523C38.1511 7.67377 38.9605 7.43377 39.8387 7.31539C40.7569 7.19162 41.6386 7.28933 42.4945 7.57161C43.7877 7.99815 44.711 8.89981 45.3534 10.0733C45.8223 10.9299 46.0619 11.8638 46.1705 12.8437C46.383 14.7617 46.1307 16.5888 45.2134 18.2966C44.3728 19.8616 43.1064 20.9505 41.3778 21.3951C40.2023 21.6974 39.0011 21.6148 37.8201 21.3094C37.0102 21.1 36.2648 20.7508 35.5767 20.285C35.3731 20.1471 35.3115 20.1643 35.1719 20.3682C34.8924 20.7765 34.5831 21.1723 34.2345 21.5218C34.0873 21.6694 33.8098 21.6871 33.5013 21.7956C33.5418 21.2352 33.6004 20.7976 33.6008 20.36C33.6069 14.397 33.5965 8.43407 33.6132 2.47116C33.616 1.49355 33.2496 1.23577 32.4595 1.02895C32.1879 0.957861 31.893 0.93807 31.6116 0.951944C31.2911 0.967744 31.1607 0.863746 31.2076 0.54286C31.2213 0.449615 31.2097 0.352693 31.2097 0.254552C31.6717 0.212134 32.1195 0.171023 32.578 0.101272C32.737 0.0726318 32.8851 0.0726318 33.0772 0.102296C33.5969 0.112183 34.0727 0.0924077 34.5484 0.0726319C35.0822 0.0726318 35.616 0.0726318 36.1838 0.0726318ZM37.5559 20.0351C38.5961 20.8776 40.244 21.0114 41.3874 20.2067C42.1935 19.6394 42.6183 18.8224 42.8876 17.9265C43.3266 16.466 43.4732 14.9727 43.3431 13.4406C43.229 12.0973 42.8921 10.8628 42.025 9.80599C41.4894 9.15331 40.7989 8.74111 39.9684 8.64621C38.5828 8.48786 37.3765 8.90458 36.4157 9.93837C36.3085 10.0537 36.2268 10.2435 36.226 10.3992C36.2144 12.901 36.217 15.4028 36.2205 17.9046C36.2207 18.0182 36.2507 18.1347 36.2833 18.245C36.4981 18.9704 36.9358 19.5449 37.5559 20.0351Z" fill="black"/>
<path d="M50.0467 0.0726318C50.0807 3.06667 50.0807 6.0607 50.0807 9.10898C50.43 8.83936 50.7317 8.60402 51.036 8.37198C51.8268 7.76894 52.7158 7.44799 53.7067 7.3186C54.9464 7.15674 56.0962 7.36209 57.1877 7.94428C58.2955 8.53523 59.0223 9.47908 59.5052 10.6026C59.9017 11.5249 60.0611 12.5042 60.1113 13.518C60.1933 15.1761 59.9224 16.747 59.1482 18.2113C58.2429 19.9234 56.8706 21.1178 54.9422 21.4629C53.0182 21.8072 51.1909 21.4137 49.5395 20.3245C49.4414 20.2598 49.3452 20.1923 49.249 20.1267C48.85 20.6275 48.4695 21.1529 48.0304 21.6235C47.9172 21.7448 47.6197 21.694 47.3949 21.7238C47.4268 21.564 47.4623 21.4619 47.4654 21.3588C47.4936 20.4335 47.536 19.5081 47.5371 18.5827C47.5438 13.2252 47.5415 7.86758 47.5394 2.51C47.539 1.49075 47.0508 1.12763 46.1765 1.01694C45.9418 0.987212 45.7034 0.935161 45.4708 0.951451C45.1443 0.974313 45.0259 0.854265 45.0706 0.539136C45.0838 0.445999 45.0726 0.349399 45.0726 0.262074C45.4652 0.216212 45.8396 0.172479 46.224 0.100689C46.3821 0.0726318 46.5303 0.0726318 46.7224 0.102301C47.137 0.136385 47.5079 0.149686 47.8784 0.141673C48.0806 0.137299 48.2821 0.0968255 48.4839 0.0726319C48.9935 0.0726318 49.5031 0.0726318 50.0467 0.0726318ZM50.0807 17.2367C49.9497 18.3172 50.4524 19.1706 51.1902 19.8402C51.9864 20.5629 52.9728 20.9464 54.0787 20.6736C54.532 20.5617 55.0039 20.3879 55.3772 20.1178C56.1062 19.5903 56.5141 18.8123 56.7726 17.9568C57.2529 16.3673 57.3645 14.7497 57.2 13.1005C57.0834 11.9326 56.7439 10.8527 56.0235 9.92387C55.4962 9.24403 54.7998 8.75921 53.9328 8.64686C52.6657 8.48267 51.5301 8.84525 50.5437 9.66257C50.2276 9.92446 50.0591 10.2123 50.0661 10.6699C50.0989 12.8343 50.0807 14.9996 50.0807 17.2367Z" fill="black"/>
<path d="M144.726 18.9146C144.605 19.0848 144.469 19.2157 144.367 19.3691C143.906 20.0598 143.411 20.7128 142.658 21.1205C141.834 21.5672 140.973 21.7073 140.036 21.5774C139.366 21.4844 138.8 21.2715 138.319 20.7843C137.776 20.2342 137.498 19.5565 137.481 18.8247C137.422 16.1952 137.418 13.5643 137.396 10.9339C137.39 10.2331 137.395 9.53221 137.395 8.80178C136.511 8.80178 135.635 8.80178 134.737 8.80178C134.726 8.69629 134.727 8.61555 134.708 8.53937C134.617 8.16028 134.844 8.04717 135.153 7.98389C135.84 7.84308 136.528 7.70306 137.209 7.53587C137.292 7.51552 137.386 7.33101 137.387 7.22149C137.4 6.14527 137.397 5.06881 137.393 3.99243C137.393 3.81818 137.394 3.68107 137.601 3.59566C138.364 3.28039 139.118 2.94272 139.876 2.61636C139.905 2.60387 139.947 2.62124 140.006 2.62693C140.006 4.25557 140.006 5.88411 140.006 7.54128C141.438 7.54128 142.846 7.54128 144.272 7.54128C144.272 7.93777 144.272 8.30589 144.272 8.70304C142.86 8.70304 141.452 8.70304 140.008 8.70304C140.008 8.83599 140.008 8.9407 140.008 9.04541C140.008 12.1173 140.004 15.1893 140.012 18.2612C140.014 18.7722 140.154 19.2596 140.48 19.6675C140.936 20.2378 142.032 20.4075 142.785 19.8122C143.208 19.4776 143.575 19.0604 143.918 18.6402C144.101 18.4159 144.222 18.2933 144.471 18.5167C144.53 18.5704 144.604 18.608 144.699 18.6532C144.726 18.7307 144.726 18.8081 144.726 18.9146Z" fill="black"/>
<path d="M48.4498 0.0726318C48.282 0.0968254 48.0805 0.137299 47.8783 0.141673C47.5078 0.149686 47.1369 0.136385 46.754 0.102301C47.2999 0.0726318 47.8578 0.0726318 48.4498 0.0726318Z" fill="white"/>
<path d="M34.5144 0.0726318C34.0726 0.0924076 33.5968 0.112183 33.1089 0.102295C33.558 0.0726318 34.0192 0.0726318 34.5144 0.0726318Z" fill="white"/>
<path d="M69.8952 15.75C69.8952 16.8145 69.9259 17.8438 69.8871 18.8705C69.843 20.0403 70.4743 20.2312 71.2318 20.3851C71.7993 20.5004 72.3854 20.524 72.992 20.5916C72.992 20.7959 72.992 21.0433 72.992 21.3149C69.9056 21.3149 66.8035 21.3149 63.6773 21.3149C63.6773 21.0825 63.6773 20.8352 63.6773 20.5745C64.0852 20.5399 64.5118 20.5224 64.9324 20.4631C65.4626 20.3883 65.9898 20.3117 66.4503 19.9778C66.7562 19.756 66.9159 19.4844 66.9162 19.1286C66.9208 13.8063 66.9208 8.48403 66.9173 3.16176C66.9169 2.601 66.5914 2.22273 66.0073 2.04538C65.4849 1.88679 64.9294 1.83605 64.3876 1.7432C64.1556 1.70344 63.9212 1.67758 63.6703 1.64297C63.6703 1.42616 63.6703 1.20245 63.6703 0.943547C63.8035 0.943547 63.9327 0.943547 64.062 0.943547C66.8924 0.943547 69.7229 0.93909 72.5534 0.945388C74.0143 0.948639 75.4648 1.09948 76.8592 1.53753C78.093 1.92512 79.1854 2.56213 79.8909 3.71509C80.2022 4.22372 80.3414 4.7765 80.4279 5.36262C80.5613 6.26723 80.4113 7.11931 80.0527 7.94088C79.7946 8.53223 79.407 9.03236 78.8959 9.43696C77.6086 10.4559 76.2495 10.7966 75.0642 11.0438C75.7826 11.2281 76.6439 11.3728 77.4472 11.6727C78.7034 12.1416 79.3985 13.1606 79.6813 14.4292C79.911 15.4599 80.009 16.5194 80.2107 17.5574C80.3278 18.1598 80.509 18.7534 80.7066 19.3356C80.9673 20.1036 81.6273 20.3494 82.3473 20.4626C82.7468 20.5254 83.1545 20.5366 83.5868 20.5734C83.5868 20.7916 83.5868 21.0385 83.5868 21.3734C82.7653 21.4332 81.9187 21.5431 81.0726 21.5402C80.4655 21.5381 79.8481 21.431 79.2546 21.2897C78.1262 21.0211 77.5107 20.2249 77.3088 19.1248C77.1618 18.3243 77.1134 17.5062 77.0061 16.698C76.8653 15.6384 76.8691 14.5614 76.513 13.5284C76.1503 12.4759 75.4126 11.8757 74.3564 11.7753C72.8904 11.6358 71.413 11.6161 69.8952 11.5429C69.8952 12.9901 69.8952 14.3519 69.8952 15.75ZM71.0205 10.6694C72.177 10.6494 73.3438 10.7708 74.4794 10.4493C75.2416 10.2335 75.9544 9.9368 76.4382 9.24922C76.8744 8.62938 77.1395 7.9553 77.1515 7.19766C77.1643 6.38882 77.2592 5.56043 77.1227 4.77455C76.8632 3.28062 75.834 2.46314 74.4014 2.10335C73.4887 1.87412 72.5607 1.87557 71.6301 1.88591C71.0554 1.8923 70.4805 1.8871 69.9163 1.8871C69.9163 4.84001 69.9163 7.74692 69.9163 10.6694C70.2741 10.6694 70.611 10.6694 71.0205 10.6694Z" fill="black"/>
<path d="M31.409 17.9758C30.3944 19.7981 28.9517 21.0024 26.8927 21.4159C25.2848 21.7388 23.7414 21.5566 22.2744 20.85C21.2096 20.3372 20.3657 19.5468 19.7492 18.5345C19.2339 17.6883 18.9239 16.77 18.7908 15.7812C18.612 14.4532 18.6537 13.1437 19.095 11.8772C19.8262 9.77861 21.2184 8.30788 23.3542 7.60145C24.1808 7.32803 25.0399 7.20305 25.9091 7.26368C27.2889 7.35993 28.5909 7.74076 29.6837 8.61292C30.8838 9.57072 31.6494 10.8258 32.0123 12.3283C32.2336 13.2444 32.2826 14.1743 32.213 15.1003C32.1383 16.0933 31.8847 17.0565 31.409 17.9758ZM22.4247 9.9006C21.8411 10.8809 21.7119 11.991 21.6497 13.0817C21.5678 14.5208 21.5576 15.9733 21.9201 17.3928C22.1306 18.2168 22.4384 19.0096 23.0226 19.6314C24.0465 20.7211 25.3154 21.004 26.7313 20.5527C27.8625 20.1922 28.4467 19.3085 28.8137 18.2464C29.2654 16.9386 29.3362 15.5848 29.3303 14.214C29.3246 12.8795 29.1853 11.5775 28.6686 10.3354C28.0884 8.94086 27.0182 8.16565 25.6238 8.06597C24.195 7.96384 23.1065 8.55574 22.4247 9.9006Z" fill="black"/>
<path d="M121.919 19.5046C120.922 20.572 119.713 21.2587 118.313 21.4641C115.814 21.8307 113.57 21.2606 111.863 19.271C111.033 18.3037 110.549 17.1507 110.398 15.8755C110.332 15.3214 110.237 14.7608 110.261 14.2077C110.354 12.0828 111.079 10.2141 112.736 8.81692C113.755 7.95795 114.944 7.45848 116.302 7.31445C117.672 7.1692 118.972 7.35457 120.185 7.95515C122.036 8.87223 123.167 10.4032 123.59 12.4148C123.753 13.1872 123.836 13.9978 123.805 14.7849C123.734 16.5553 123.151 18.1541 121.919 19.5046ZM114.425 19.3804C115.048 20.3124 115.981 20.6977 117.042 20.747C118.496 20.8146 119.556 20.1223 120.173 18.826C120.684 17.7548 120.863 16.5852 120.909 15.4094C120.94 14.5833 120.884 13.7527 120.844 12.9252C120.79 11.8356 120.508 10.8111 119.994 9.83889C119.143 8.22822 117.169 7.69636 115.647 8.29315C114.628 8.69243 114.088 9.5092 113.733 10.4889C113.239 11.8533 113.166 13.2704 113.232 14.6981C113.269 15.5032 113.321 16.3139 113.458 17.1063C113.596 17.9095 113.853 18.6908 114.425 19.3804Z" fill="black"/>
<path d="M89.6026 7.27478C90.2287 7.44581 90.8366 7.56701 91.4175 7.76662C92.4334 8.11567 93.1617 8.84261 93.6951 9.74315C94.4275 10.9796 94.6709 12.2277 94.5491 13.7098C91.4741 13.7098 88.3966 13.7098 85.2798 13.7098C85.3059 14.2485 85.2936 14.7626 85.3634 15.2652C85.4873 16.1569 85.6877 17.0279 86.1455 17.8277C86.8398 19.0409 87.8106 19.8169 89.2259 20.0413C90.6801 20.2719 91.9016 19.8548 92.9451 18.859C93.3282 18.4935 93.6779 18.0925 94.0345 17.7001C94.1776 17.5427 94.2968 17.5106 94.446 17.6881C94.5306 17.7887 94.6375 17.8705 94.7926 18.015C94.2826 18.6544 93.8334 19.3249 93.2774 19.8904C92.3833 20.7998 91.2802 21.3252 89.9931 21.4937C88.6062 21.6753 87.2693 21.5288 86.0182 20.9321C84.9595 20.4271 84.1144 19.6482 83.5185 18.6081C82.8286 17.4039 82.5379 16.1196 82.5113 14.7367C82.4839 13.312 82.733 11.9692 83.402 10.713C84.3246 8.9806 85.7258 7.83563 87.6545 7.41706C88.2758 7.28222 88.932 7.30797 89.6026 7.27478ZM86.512 9.18774C85.6912 10.3182 85.4826 11.6289 85.3508 12.9315C87.5107 12.9315 89.6242 12.9315 91.7171 12.9315C91.7538 12.574 91.8399 12.2715 91.8033 11.9847C91.7173 11.313 91.6461 10.6245 91.4358 9.98673C91.0236 8.73628 90.133 8.08908 88.7909 8.05934C87.8634 8.03879 87.1384 8.46255 86.512 9.18774Z" fill="black"/>
<path d="M125.347 21.3387C124.828 21.3387 124.346 21.3387 123.843 21.3387C123.843 21.1008 123.843 20.8777 123.843 20.6405C124.302 20.5833 124.771 20.5444 125.232 20.4623C125.749 20.3701 125.999 20.0372 126 19.5028C126 16.2743 126 13.0458 126 9.81735C126 8.87252 125.514 8.51178 124.713 8.35086C124.435 8.29512 124.148 8.28423 123.844 8.25036C123.844 8.03975 123.844 7.81589 123.844 7.53368C125.392 7.53368 126.951 7.53368 128.536 7.53368C128.536 8.3033 128.536 9.10529 128.536 9.92764C128.97 9.43759 129.355 8.94381 129.801 8.51432C130.597 7.74719 131.531 7.28372 132.681 7.32603C134.323 7.38645 135.206 9.04095 134.415 10.3706C133.865 11.293 132.716 11.2873 131.947 10.7004C131.57 10.4124 131.402 10.0271 131.441 9.54865C131.457 9.35762 131.443 9.16424 131.443 8.93558C130.784 8.87917 130.281 9.19796 129.827 9.57997C129.509 9.84735 129.242 10.1794 128.972 10.4986C128.724 10.7904 128.598 11.1127 128.602 11.5262C128.623 14.1983 128.623 16.8707 128.604 19.5428C128.601 20.0377 128.825 20.3048 129.222 20.3858C129.821 20.5078 130.432 20.5709 131.061 20.6625C131.061 20.8512 131.061 21.0749 131.061 21.3387C129.171 21.3387 127.277 21.3387 125.347 21.3387Z" fill="black"/>
</g>
<defs>
<clipPath id="clip0_2164_1398">
<rect width="144.653" height="27" fill="white"/>
</clipPath>
</defs>
</svg>
