<svg width="151" height="27" viewBox="0 0 151 27" fill="none" xmlns="http://www.w3.org/2000/svg">
<g clip-path="url(#clip0_2164_1421)">
<path d="M15.4611 0.0612793C15.7894 0.102091 16.0883 0.149606 16.3887 0.182607C18.0858 0.368995 19.7143 0.773028 21.1277 1.78112C22.1444 2.50631 22.7824 3.48958 23.0253 4.73275C23.3156 6.21845 23.1051 7.62386 22.4031 8.95243C21.8212 10.0535 20.963 10.9156 19.9094 11.5603C19.2921 11.9379 18.6228 12.2346 17.9615 12.5339C17.7789 12.6166 17.7415 12.6414 17.8071 12.8444C18.4613 14.8684 19.4106 16.7396 20.722 18.4137C21.2849 19.1323 21.88 19.8369 22.5374 20.4677C23.7604 21.6412 25.1599 22.5634 26.7317 23.229C27.7182 23.6468 28.732 23.9641 29.784 24.1065C30.6411 24.2226 31.5196 24.2697 32.3826 24.2264C33.2431 24.1833 34.0994 23.9984 34.719 23.2908C35.1554 22.7923 35.2934 22.2323 35.0827 21.5936C34.8759 20.9665 34.4407 20.6028 33.7965 20.5157C33.3585 20.4564 32.9134 20.4496 32.4623 20.4188C32.579 19.8023 32.7033 19.1756 32.8129 18.5464C32.8446 18.3644 32.9183 18.3057 33.106 18.3001C33.5511 18.2869 34.0449 18.2968 34.3289 17.8995C34.5117 17.6438 34.5868 17.2916 34.646 16.9708C34.8278 15.9861 34.9846 14.9966 35.14 14.0072C35.291 13.0455 35.4185 12.0801 35.5744 11.1192C35.7458 10.063 35.9422 9.01086 36.1194 7.95555C36.2491 7.18348 36.3733 6.41027 36.4822 5.63507C36.5091 5.44421 36.357 5.38569 36.1809 5.38664C35.6002 5.38976 35.0193 5.38781 34.4256 5.38781C34.5239 4.81271 34.6132 4.25182 34.7194 3.69412C34.747 3.54951 34.8042 3.42507 34.9841 3.3534C36.0139 2.94317 37.0334 2.50701 38.0594 2.08721C39.1212 1.65279 40.1851 1.22357 41.2524 0.802963C41.3545 0.762728 41.5016 0.766223 41.6016 0.809715C41.7166 0.859742 41.7359 0.959051 41.7072 1.12431C41.4797 2.43443 41.2892 3.75092 41.0794 5.06419C40.8808 6.30789 40.6726 7.55007 40.4686 8.79291C40.2646 10.0358 40.0604 11.2786 39.8566 12.5215C39.6319 13.8916 39.4073 15.2618 39.1828 16.632C39.1218 17.0039 39.0438 17.374 39.0055 17.7482C38.9763 18.034 39.1468 18.2058 39.4424 18.2441C39.6995 18.2774 39.9576 18.304 40.2079 18.3327C40.1322 18.8186 40.0545 19.3076 39.9803 19.7971C39.9549 19.9646 39.9604 20.1408 39.9073 20.298C39.8837 20.3676 39.7503 20.4407 39.6653 20.4425C39.0661 20.4548 38.4664 20.449 37.9267 20.449C38.3495 20.7171 38.8466 20.9633 39.2613 21.3085C40.3753 22.2359 40.2219 23.867 39.4716 24.8413C38.7052 25.8365 37.6089 26.2919 36.4401 26.558C35.6003 26.7493 34.7356 26.8656 33.8757 26.9263C32.8336 26.9999 31.7817 27.041 30.7397 26.9868C28.8034 26.8861 26.8931 26.5941 25.0222 26.0481C23.5695 25.6241 22.1863 25.0469 20.8661 24.3202C19.8593 23.766 18.9265 23.1008 18.0377 22.3654C16.4865 21.082 15.2381 19.5468 14.2139 17.831C13.4518 16.5545 12.871 15.1864 12.4362 13.7622C12.3755 13.5633 12.2848 13.5176 12.1023 13.5285C11.6485 13.5555 11.1934 13.5634 10.7406 13.6001C10.6662 13.6061 10.5508 13.7108 10.5381 13.7843C10.3441 14.9082 10.1617 16.0342 9.98152 17.1604C9.87501 17.8261 9.77073 18.4923 9.67798 19.16C9.6286 19.5155 9.98431 19.8372 10.4923 19.8959C11.168 19.9739 11.8453 20.0371 12.5399 20.1085C12.3807 20.927 12.22 21.7534 12.0506 22.6244C11.1977 22.5724 10.3627 22.5214 9.52779 22.4707C9.49728 22.4688 9.46659 22.47 9.43599 22.4694C8.37987 22.449 7.32379 22.4153 6.26762 22.4126C5.48702 22.4106 4.70585 22.4382 3.9258 22.4725C3.05927 22.5106 2.19373 22.5713 1.26099 22.6261C1.40188 21.7494 1.53425 20.9258 1.66064 20.1394C2.24174 20.0576 2.81006 20.0115 3.36255 19.8922C4.26352 19.6976 4.4242 19.1217 4.53244 18.447C4.66271 17.6349 4.80918 16.8253 4.94402 16.0139C5.05461 15.3484 5.15537 14.6812 5.2661 14.0157C5.39948 13.2141 5.54084 12.4138 5.6749 11.6123C5.78616 10.947 5.89102 10.2807 6.00023 9.61507C6.10617 8.96933 6.21121 8.32342 6.32186 7.67848C6.43575 7.01468 6.55756 6.35224 6.67293 5.68868C6.79677 4.97641 6.91808 4.2637 7.03727 3.55064C7.04677 3.49382 7.03124 3.43282 7.02398 3.32289C6.31755 3.54676 5.6303 3.74582 4.9571 3.98449C4.50985 4.14305 4.11168 4.41603 3.89608 4.84806C3.8085 5.02357 3.85325 5.28145 3.88558 5.4946C3.90646 5.63225 4.02573 5.75206 4.08028 5.88814C4.17548 6.12561 4.05584 6.40549 3.74322 6.63002C3.22589 7.0016 2.64325 7.20432 2.00491 7.22291C1.2242 7.24564 0.383806 6.71671 0.176571 5.9221C0.167366 5.88681 0.129513 5.85899 0.0831115 5.82203C0.0612183 5.52928 0.0612183 5.24219 0.0820223 4.92141C0.0889569 4.82993 0.0750876 4.77214 0.0612183 4.71434C0.0612183 4.68713 0.0612183 4.65992 0.0859226 4.61202C0.128737 4.58541 0.160872 4.5826 0.162967 4.57314C0.377093 3.60621 1.00754 2.93898 1.77739 2.39245C2.60206 1.80701 3.53259 1.42813 4.50431 1.16975C5.31339 0.954626 6.13312 0.772387 6.95632 0.619723C7.68923 0.483802 8.43178 0.394237 9.17307 0.310911C9.7419 0.246971 10.316 0.231035 10.8866 0.181037C11.1774 0.15556 11.4657 0.102094 11.7551 0.0612794C12.9809 0.0612794 14.2066 0.0612794 15.4611 0.0612793ZM17.7143 6.19206C17.6869 5.87182 17.6959 5.5433 17.6253 5.23288C17.4056 4.26636 16.8784 3.51544 15.9904 3.0383C14.8466 2.42371 13.6373 2.64997 12.4379 2.76222C12.3903 2.76667 12.3206 2.84859 12.3116 2.90279C12.2221 3.44157 12.1455 3.98248 12.0606 4.52206C11.9696 5.10029 11.8744 5.67786 11.7795 6.25547C11.6702 6.92089 11.5582 7.58586 11.4493 8.25136C11.3548 8.82904 11.2629 9.40713 11.1703 9.98512C11.1162 10.3228 11.063 10.6607 10.9941 11.0954C11.875 10.9994 12.7031 10.9714 13.5027 10.8057C14.4242 10.6148 15.26 10.1971 15.9956 9.57753C17.0382 8.69934 17.6785 7.63583 17.7143 6.19206Z" fill="black"/>
<path d="M72.4573 27.0613C72.2463 27.0408 72.0642 27.0181 71.8816 27.0004C70.6341 26.8795 69.4289 26.642 68.3346 25.9661C66.7504 24.9876 66.5982 22.6384 67.8883 21.4788C68.3104 21.0994 68.7877 20.7813 69.2106 20.4575C67.3163 20.4575 65.357 20.4575 63.359 20.4575C63.4143 20.1117 63.4641 19.7942 63.5161 19.477C63.5674 19.164 63.636 18.8528 63.6674 18.5379C63.684 18.3708 63.731 18.3044 63.9027 18.3021C64.0912 18.2996 64.2798 18.27 64.4672 18.2441C64.8834 18.1866 65.0762 18.0211 65.1388 17.6197C65.2522 16.8929 65.3396 16.1621 65.451 15.435C65.5638 14.6999 65.6959 13.9677 65.813 13.2332C65.8819 12.8013 65.9662 12.3691 65.993 11.9339C66.0292 11.3469 65.4786 10.8556 64.8811 10.9663C63.8778 11.1521 62.8871 12.3674 62.8003 13.2832C62.7089 14.2476 62.4883 15.1995 62.3296 16.1578C62.2421 16.6856 62.1638 17.2151 62.0854 17.7444C62.0545 17.9534 62.3031 18.2072 62.5717 18.2441C62.8081 18.2766 63.0454 18.3026 63.3167 18.3356C63.2085 19.0329 63.0997 19.7331 62.9904 20.4372C60.6411 20.4372 58.3079 20.4372 55.9519 20.4372C56.026 19.9845 56.0978 19.5466 56.1695 19.1086C56.2015 18.9129 56.216 18.712 56.2731 18.5239C56.2991 18.4382 56.3986 18.3358 56.4832 18.3147C56.6746 18.2671 56.8771 18.2587 57.0758 18.2465C57.4005 18.2265 57.559 18.019 57.607 17.7369C57.7619 16.8274 57.8931 15.9137 58.0422 15.0031C58.1991 14.0445 58.3694 13.0881 58.5254 12.1293C58.5496 11.9805 58.5288 11.8245 58.5288 11.6384C57.8791 11.6384 57.2326 11.6384 56.5379 11.6384C56.6249 11.1618 56.7042 10.7255 56.7849 10.2895C56.7883 10.2706 56.815 10.2524 56.8126 10.2366C56.7368 9.74138 57.0722 9.59446 57.4458 9.44151C58.9524 8.82477 60.452 8.19116 61.9544 7.56417C62.4432 7.36022 62.9319 7.15642 63.4216 6.95469C63.6454 6.86249 63.8093 6.96144 63.7896 7.21259C63.7617 7.56816 63.6901 7.92028 63.6382 8.27403C63.6272 8.34887 63.6208 8.4244 63.6032 8.58006C63.8775 8.38931 64.0951 8.24394 64.3065 8.09008C65.3793 7.30915 66.5495 6.79118 67.9042 6.92678C69.2394 7.06043 70.0721 7.73604 70.4711 9.10662C70.6713 9.79421 70.6915 10.4988 70.643 11.1994C70.6021 11.792 70.4752 12.3787 70.3841 12.9676C70.2915 13.5659 70.198 14.164 70.1016 14.7617C69.9894 15.4569 69.8721 16.1512 69.7605 16.8464C69.7258 17.0626 69.6835 17.2799 69.6773 17.4977C69.6641 17.9614 70.1204 18.3661 70.5736 18.3C70.6254 18.2925 70.6934 18.2223 70.7094 18.1681C71.0512 17.0038 71.9336 16.3925 72.9907 15.9277C72.5654 15.3857 72.1771 14.8263 71.9917 14.1414C71.7775 13.3501 71.7777 12.5603 71.8736 11.7576C72.0257 10.4852 72.6385 9.4519 73.5493 8.59282C74.4213 7.77024 75.4784 7.27481 76.6358 6.97698C77.4478 6.76803 78.277 6.73906 79.0968 6.80774C80.5462 6.92915 81.7997 7.49936 82.7518 8.6405C82.7696 8.66186 82.7676 8.69875 82.7824 8.72396C82.7908 8.73824 82.8146 8.74347 82.8616 8.76945C82.9532 8.64934 83.0526 8.52931 83.1408 8.40152C83.6771 7.62442 84.3502 7.00033 85.2987 6.82836C86.2481 6.65623 87.2422 6.85252 87.56 8.01205C87.7477 8.69656 87.6069 9.35933 87.1055 9.90077C86.8419 10.1854 86.579 10.5023 86.1342 10.4619C86.0013 10.4498 85.8353 10.3814 85.7548 10.2819C85.2939 9.71199 84.5778 9.70044 84.1535 10.2896C83.8955 10.6478 83.7216 11.0421 83.7535 11.5044C83.8122 12.3541 83.6932 13.1811 83.3198 13.9483C82.9748 14.6573 82.5483 15.3221 81.8951 15.7942C81.4159 16.1405 80.9313 16.4878 80.4145 16.7717C79.7817 17.1194 79.0902 17.3127 78.3644 17.3924C77.3174 17.5073 76.2881 17.4717 75.2738 17.1619C75.208 17.1418 75.0642 17.2132 75.0299 17.2798C74.7568 17.8097 75.0492 18.2107 75.6358 18.2285C76.4503 18.2532 77.2679 18.1534 78.0849 18.1262C79.059 18.0939 80.0363 18.0303 81.0075 18.0774C81.8134 18.1165 82.579 18.4097 83.1934 18.953C83.6845 19.3874 83.9587 19.9606 84.0695 20.6255C84.2071 21.4509 84.0361 22.2024 83.6449 22.9164C83.182 23.7611 82.4616 24.3484 81.6654 24.8593C80.408 25.6661 79.0285 26.179 77.5824 26.5001C76.6934 26.6975 75.784 26.8063 74.8808 26.934C74.5027 26.9875 74.117 26.9871 73.7245 27.0362C73.3048 27.0613 72.8954 27.0613 72.4573 27.0613ZM74.0716 22.1019C73.9954 22.0816 73.9195 22.0599 73.8428 22.0412C73.318 21.9133 72.7848 21.8119 72.2703 21.6509C71.7817 21.4979 71.7932 21.4734 71.4475 21.8275C71.0823 22.2015 70.8985 22.9625 71.115 23.3946C71.3481 23.8597 71.7492 24.1274 72.2072 24.299C72.7978 24.5202 73.4072 24.5553 74.0486 24.5082C74.9466 24.4423 75.8286 24.3261 76.682 24.0541C77.3801 23.8316 78.058 23.553 78.5667 22.9784C78.9385 22.5584 78.8118 22.1723 78.3471 22.0966C78.241 22.0793 78.1344 22.0399 78.0293 22.0439C77.1012 22.0794 76.1737 22.1327 75.2453 22.1583C74.874 22.1685 74.5011 22.1225 74.0716 22.1019ZM76.5306 12.098C76.4898 12.6482 76.4143 13.1987 76.4204 13.7483C76.4245 14.1133 76.4566 14.5194 76.826 14.7519C77.2681 15.0302 77.8588 14.858 78.1796 14.3292C78.9434 13.0698 79.2982 11.6968 79.1509 10.2287C79.0869 9.59069 78.6406 9.11448 77.8627 9.49788C77.4019 9.72504 77.1443 10.1546 76.968 10.6104C76.7882 11.0749 76.6738 11.5647 76.5306 12.098Z" fill="black"/>
<path d="M150.796 11.7296C150.215 12.0172 149.635 12.2785 149.054 12.5413C147.695 13.1569 146.334 13.7681 144.978 14.3911C144.185 14.7556 143.4 15.1394 142.61 15.5152C142.718 16.5182 143.248 17.4563 144.241 17.7184C144.96 17.908 145.652 17.8007 146.222 17.3206C146.614 16.9911 146.698 16.6744 146.411 16.2843C146.121 15.8923 146.265 15.48 146.612 15.2485C147.035 14.9662 147.482 14.7827 148.008 14.7432C148.643 14.6956 149.183 14.8475 149.606 15.3166C150.026 15.7829 150.133 16.3667 150.052 16.9654C149.94 17.7858 149.594 18.5202 149.022 19.1192C148.505 19.6614 147.869 20.0491 147.17 20.3241C146.439 20.6124 145.679 20.7528 144.893 20.8291C143.522 20.962 142.211 20.8061 140.969 20.2053C139.419 19.4557 138.515 18.185 138.132 16.5385C137.993 15.9407 137.891 15.3183 137.891 14.7071C137.89 13.0097 138.398 11.4658 139.391 10.0735C140.345 8.73673 141.548 7.73499 143.116 7.229C143.647 7.05786 144.217 6.99864 144.774 6.92272C145.706 6.79562 146.619 6.9402 147.503 7.22893C148.881 7.679 149.802 8.62222 150.302 9.97195C150.479 10.4491 150.602 10.946 150.773 11.4414C150.796 11.534 150.796 11.6191 150.796 11.7296ZM146.203 10.0292C146.093 9.92978 145.992 9.81682 145.87 9.7333C145.225 9.28917 144.51 9.70314 144.064 10.2067C143.477 10.8697 143.137 11.6677 142.979 12.5738C143.338 12.415 143.669 12.2685 144 12.1226C144.708 11.8103 145.42 11.5046 146.122 11.1804C146.249 11.122 146.44 10.9771 146.431 10.8911C146.4 10.6147 146.289 10.3472 146.203 10.0292Z" fill="black"/>
<path d="M0.0612183 4.7373C0.0750876 4.77214 0.0889569 4.82994 0.0820223 4.89288C0.0612183 4.8521 0.0612183 4.80618 0.0612183 4.7373Z" fill="white"/>
<path d="M96.2976 22.4684C95.597 22.6123 94.9275 22.7994 94.2451 22.886C93.507 22.9797 92.753 23.0462 92.0133 23.0013C91.2987 22.958 90.5926 22.7627 89.8845 22.6252C89.1191 22.4766 88.361 22.2496 87.5893 22.1889C87.1306 22.1529 86.6451 22.3485 86.1846 22.4841C85.8782 22.5743 85.5843 22.4306 85.5285 22.1145C85.2689 20.6428 85.0036 19.172 84.7356 17.7017C84.6241 17.0901 84.501 16.4805 84.3722 15.813C84.6093 15.7499 84.8652 15.6775 85.1233 15.6138C85.6968 15.4722 86.2716 15.3356 86.8456 15.1956C87.051 15.1455 87.1385 15.2134 87.1902 15.4317C87.4194 16.4002 87.7233 17.3365 88.2972 18.1738C88.9083 19.0653 89.763 19.5631 90.776 19.8352C91.5326 20.0384 92.3101 20.0618 93.0832 20.0124C93.8416 19.9641 94.568 19.7482 95.1495 19.2358C95.624 18.8176 95.9 18.2638 95.935 17.6223C95.9749 16.8908 95.9716 16.1649 95.5093 15.5269C95.1379 15.0142 94.6501 14.6329 94.1391 14.2831C92.9179 13.4473 91.6523 12.6728 90.4637 11.7937C89.1914 10.8528 88.3789 9.58825 88.0948 7.99606C87.8604 6.6818 87.9439 5.40369 88.4937 4.1943C88.9515 3.18725 89.6938 2.39353 90.6193 1.77222C91.67 1.06683 92.819 0.626494 94.0735 0.4965C94.8447 0.416586 95.6268 0.343527 96.3977 0.384856C97.2277 0.429355 98.0489 0.623062 98.8768 0.729056C99.5118 0.810359 100.151 0.902477 100.789 0.904012C101.312 0.905272 101.846 0.822855 102.355 0.694898C102.652 0.619981 102.76 0.810492 102.916 0.932367C102.967 0.972095 102.927 1.15422 102.9 1.26453C102.583 2.58516 102.251 3.90247 101.943 5.22523C101.815 5.77387 101.738 6.33421 101.627 6.88701C101.615 6.94572 101.529 7.03303 101.477 7.0336C100.633 7.04282 99.7902 7.04011 98.9835 7.04011C99.073 6.42961 99.1693 5.84475 99.2421 5.25698C99.319 4.63573 99.0037 4.19784 98.5068 3.89147C97.9693 3.56 97.3691 3.39727 96.7368 3.36806C96.004 3.3342 95.2784 3.3326 94.5741 3.60681C93.936 3.85525 93.3867 4.19637 93.0909 4.83968C92.7926 5.48839 92.8458 6.55299 93.4594 7.08604C94.1869 7.71797 94.9656 8.29232 95.736 8.87312C96.7248 9.61854 97.74 10.3294 98.7206 11.0853C99.5854 11.7519 100.278 12.5732 100.734 13.5775C101.019 14.206 101.169 14.8678 101.203 15.555C101.248 16.4617 101.175 17.3602 100.892 18.2249C100.635 19.0084 100.239 19.7237 99.6862 20.3443C98.7686 21.3744 97.6008 22.008 96.2976 22.4684Z" fill="black"/>
<path d="M132.122 16.778C132.245 15.9249 132.363 15.0988 132.491 14.2744C132.606 13.5397 132.748 12.809 132.851 12.0728C132.953 11.3419 132.447 10.8483 131.739 10.9716C130.686 11.1553 129.815 12.2777 129.67 13.2589C129.501 14.3968 129.304 15.5305 129.125 16.667C129.073 17.0015 129.024 17.3383 129.005 17.6759C128.985 18.0388 129.137 18.1916 129.506 18.2454C129.623 18.2625 129.739 18.2932 129.856 18.304C129.966 18.3141 130.078 18.3061 130.241 18.3061C130.19 18.7139 130.145 19.1049 130.092 19.4949C130.06 19.7306 130.018 19.965 129.979 20.1996C129.958 20.3272 129.947 20.4515 129.759 20.4512C127.373 20.4478 124.987 20.449 122.559 20.449C122.692 19.7249 122.821 19.0229 122.947 18.3373C123.245 18.3051 123.524 18.28 123.801 18.2439C124.255 18.1848 124.518 17.9291 124.591 17.4732C124.736 16.5622 124.872 15.6495 125.022 14.7393C125.156 13.9283 125.305 13.1197 125.447 12.31C125.449 12.3001 125.447 12.2895 125.448 12.2795C125.552 11.6327 125.552 11.6327 124.886 11.6327C124.469 11.6327 124.053 11.6327 123.591 11.6327C123.647 11.2763 123.695 10.9461 123.751 10.6174C123.778 10.4621 123.866 10.3037 123.847 10.1569C123.793 9.73905 124.085 9.62809 124.371 9.50499C125.524 9.00847 126.678 8.51403 127.833 8.02126C128.663 7.66719 129.494 7.31632 130.325 6.96551C130.524 6.88139 130.684 7.00088 130.653 7.22137C130.59 7.66824 130.515 8.11338 130.434 8.62873C130.646 8.46635 130.82 8.3326 130.995 8.19847C131.772 7.60201 132.631 7.16256 133.594 6.99074C134.494 6.83025 135.383 6.90264 136.155 7.47101C136.815 7.95598 137.203 8.62394 137.387 9.41364C137.589 10.2787 137.541 11.143 137.393 12.0119C137.214 13.0585 137.066 14.1103 136.896 15.1585C136.761 15.9891 136.601 16.8158 136.478 17.6482C136.444 17.882 136.55 18.1194 136.813 18.178C137.171 18.2573 137.537 18.2964 137.957 18.3616C137.829 19.0314 137.695 19.7322 137.56 20.439C135.132 20.439 132.717 20.439 130.297 20.439C130.416 19.7281 130.534 19.0279 130.65 18.3378C130.903 18.3064 131.139 18.2628 131.377 18.2509C131.745 18.2323 131.897 17.9877 131.973 17.6857C132.045 17.3979 132.074 17.0995 132.122 16.778Z" fill="black"/>
<path d="M33.843 15.8325C33.4658 16.6987 33.052 17.5118 32.4546 18.2251C31.8764 18.9156 31.2209 19.511 30.4385 19.9551C29.7163 20.3651 28.9491 20.707 28.1236 20.7912C27.3467 20.8706 26.5556 20.8325 25.7716 20.8129C25.0288 20.7944 24.3376 20.5471 23.6904 20.1997C22.6812 19.6579 21.9772 18.8358 21.5493 17.7728C21.2545 17.0402 21.1238 16.281 21.0505 15.4941C20.8679 13.5365 21.3359 11.7609 22.4053 10.1275C23.0726 9.10827 23.9423 8.30746 25.0092 7.72431C26.0799 7.13904 27.2192 6.84706 28.4506 6.84668C29.5455 6.84635 30.5842 7.01315 31.5605 7.52263C32.9449 8.2451 33.7858 9.3975 34.1517 10.888C34.3026 11.5023 34.3985 12.1486 34.3916 12.7789C34.3808 13.7703 34.2361 14.7558 33.8746 15.6938C33.8606 15.73 33.8614 15.7718 33.843 15.8325ZM25.8956 13.7292C25.8548 14.0347 25.8124 14.34 25.7734 14.6457C25.6706 15.4503 25.5979 16.2606 25.7882 17.0565C25.8607 17.3597 26.0007 17.712 26.2275 17.9002C26.7639 18.3451 27.3168 18.3104 27.8252 17.8111C28.577 17.0729 28.9348 16.114 29.1922 15.1284C29.3765 14.4227 29.5007 13.6923 29.56 12.9654C29.6211 12.2169 29.6598 11.446 29.5491 10.7088C29.3813 9.59205 28.2596 9.13546 27.4542 9.99044C27.0799 10.3878 26.8031 10.8944 26.5535 11.3877C26.1921 12.1021 25.997 12.878 25.8956 13.7292Z" fill="black"/>
<path d="M123.429 12.1936C123.473 13.401 123.348 14.553 122.943 15.6694C122.59 16.6428 122.099 17.528 121.429 18.3243C120.46 19.4768 119.257 20.2489 117.813 20.6485C116.822 20.9224 115.816 20.9271 114.799 20.8255C114.09 20.7548 113.425 20.5602 112.795 20.2451C111.591 19.642 110.843 18.6414 110.462 17.3783C110.289 16.8054 110.205 16.1971 110.154 15.5986C110.103 15.0011 110.091 14.3902 110.156 13.7953C110.24 13.0136 110.41 12.2383 110.757 11.5213C111.034 10.9488 111.257 10.3258 111.646 9.83866C112.13 9.23276 112.732 8.70966 113.334 8.21212C114.177 7.51555 115.186 7.10352 116.25 6.94284C117.572 6.74333 118.899 6.77022 120.174 7.30429C121.796 7.9839 122.752 9.22532 123.225 10.8707C123.345 11.2869 123.364 11.7322 123.429 12.1936ZM116.48 10.0406C115.941 10.5414 115.651 11.1918 115.41 11.8645C114.899 13.2872 114.723 14.7649 114.739 16.2679C114.744 16.744 114.825 17.2085 115.069 17.6365C115.319 18.0751 115.853 18.2996 116.343 18.1357C117.081 17.8885 117.416 17.2432 117.706 16.6179C117.997 15.9917 118.189 15.3132 118.363 14.6416C118.685 13.3939 118.824 12.1216 118.645 10.8364C118.591 10.4479 118.452 10.0526 118.121 9.80597C117.587 9.40855 116.986 9.46668 116.48 10.0406Z" fill="black"/>
<path d="M107.956 6.2063C107.88 6.67269 107.819 7.11569 107.758 7.56117C109.037 7.56117 110.313 7.56117 111.615 7.56117C111.202 8.44013 110.787 9.32417 110.358 10.2372C110.096 10.1721 109.834 10.0731 109.566 10.048C109.074 10.0021 108.578 9.99897 108.084 9.98023C107.962 9.97559 107.837 9.99414 107.717 9.97669C107.406 9.93136 107.346 10.0756 107.315 10.3639C107.245 11.0238 107.118 11.6778 107.01 12.3335C106.914 12.9101 106.813 13.4858 106.714 14.062C106.617 14.6283 106.506 15.1926 106.428 15.7615C106.377 16.1392 106.354 16.5233 106.353 16.9047C106.352 17.169 106.735 17.3818 107.062 17.325C107.567 17.2369 108.009 17.0041 108.411 16.6974C108.712 16.4681 108.999 16.2205 109.335 15.9458C109.67 16.5907 110 17.2247 110.342 17.8841C109.625 18.7319 108.788 19.4417 107.843 20.0341C107.225 20.4217 106.558 20.7103 105.845 20.7802C104.648 20.8976 103.443 20.9132 102.53 19.9062C102.118 19.4532 101.913 18.9033 101.818 18.3099C101.677 17.436 101.778 16.5744 101.933 15.7098C102.138 14.5677 102.309 13.4196 102.488 12.273C102.606 11.517 102.711 10.759 102.825 9.98327C102.28 9.98327 101.724 9.98327 101.141 9.98327C101.258 9.33082 101.368 8.70233 101.486 8.07528C101.516 7.91473 101.528 7.66383 101.623 7.62145C101.794 7.54527 102.021 7.58661 102.224 7.59518C102.475 7.60574 102.725 7.65028 102.974 7.64339C103.059 7.64105 103.201 7.53718 103.213 7.46252C103.313 6.86426 103.378 6.26032 103.474 5.66155C103.513 5.41917 103.502 5.1894 103.856 5.05703C105.196 4.55654 106.511 3.98666 107.835 3.44238C107.889 3.4202 107.941 3.39432 107.994 3.37012C108.323 3.53006 108.376 3.78867 108.311 4.12878C108.182 4.81046 108.082 5.49786 107.956 6.2063Z" fill="black"/>
<path d="M43.8149 5.38778C43.2579 5.38778 42.7289 5.38778 42.1764 5.38778C42.2896 4.73003 42.3984 4.09788 42.5083 3.45896C43.4307 3.07686 44.3624 2.69219 45.2931 2.30501C46.3526 1.86422 47.4113 1.42156 48.47 0.978821C48.6779 0.891871 48.8805 0.791059 49.092 0.714213C49.3419 0.623388 49.5081 0.745007 49.4664 0.994283C49.3358 1.77544 49.187 2.55355 49.0561 3.33468C48.9413 4.02004 48.845 4.70849 48.7335 5.39442C48.6429 5.9518 48.5381 6.50688 48.4464 7.06408C48.3545 7.62244 48.2746 8.18279 48.1826 8.74114C48.0893 9.30811 47.9827 9.87293 47.8907 10.4401C47.7794 11.1262 47.6816 11.8144 47.5704 12.5005C47.4371 13.3225 47.2921 14.1426 47.1591 14.9646C47.0465 15.6605 46.942 16.3577 46.8379 17.055C46.8098 17.2425 46.7953 17.4321 46.7756 17.6208C46.7214 18.1411 46.9214 18.225 47.4437 18.3028C47.5927 18.3249 47.7478 18.3061 47.9608 18.3061C47.8525 19.0248 47.7469 19.7253 47.6397 20.4362C45.1681 20.4362 42.7119 20.4362 40.2464 20.4362C40.3414 19.7819 40.4302 19.1289 40.5395 18.4793C40.5509 18.4112 40.6766 18.3287 40.7607 18.3127C41.0052 18.2664 41.2624 18.278 41.5019 18.2169C41.9851 18.0936 42.2345 17.744 42.3105 17.2505C42.4794 16.1532 42.6783 15.0605 42.8533 13.9641C42.9864 13.1301 43.0923 12.2918 43.227 11.4581C43.3788 10.519 43.5565 9.58425 43.7093 8.64539C43.8242 7.93915 43.9173 7.22936 44.0205 6.52123C44.0607 6.24611 44.0867 5.96775 44.1471 5.69711C44.2106 5.41288 44.062 5.3749 43.8149 5.38778Z" fill="black"/>
<path d="M49.9374 9.41318C51.1618 8.89886 52.3668 8.40044 53.5692 7.89576C54.2749 7.59955 54.9746 7.28883 55.682 6.99661C55.7872 6.95315 55.9721 6.92438 56.0267 6.98022C56.1014 7.0566 56.1209 7.22521 56.1043 7.34612C56.0263 7.91626 55.9305 8.48404 55.8361 9.05184C55.7223 9.73607 55.6021 10.4192 55.4874 11.1033C55.3775 11.7586 55.2721 12.4146 55.1631 13.07C55.0231 13.9108 54.8753 14.7503 54.7424 15.5923C54.6294 16.3087 54.5178 17.0261 54.4352 17.7465C54.398 18.0711 54.5409 18.2043 54.8784 18.2431C55.2065 18.2809 55.5364 18.304 55.9073 18.3373C55.8007 19.0275 55.6926 19.7272 55.5829 20.4373C53.0589 20.4373 50.5422 20.4373 48.0025 20.4373C48.1104 19.7362 48.2169 19.0438 48.3231 18.3537C48.6404 18.2987 48.9686 18.2362 49.2986 18.1859C49.73 18.1201 49.9428 17.8116 50.0096 17.4417C50.1632 16.5914 50.2566 15.7304 50.3901 14.8763C50.5431 13.8967 50.7142 12.9199 50.8738 11.9413C50.8883 11.8522 50.8757 11.7586 50.8757 11.6374C50.2038 11.6374 49.5351 11.6374 48.8553 11.6374C48.9616 11.0124 49.0602 10.4177 49.168 9.82456C49.1782 9.7688 49.2362 9.70116 49.2892 9.67741C49.4947 9.58534 49.7071 9.50879 49.9374 9.41318Z" fill="black"/>
<path d="M56.5714 3.06935C56.5854 4.16526 56.0693 4.95681 55.245 5.56453C54.3981 6.18889 53.4355 6.44235 52.3839 6.36879C51.5777 6.31239 50.8026 5.73939 50.7074 5.01996C50.6018 4.22199 50.7427 3.45426 51.2451 2.78461C51.9285 1.87358 52.8526 1.33814 53.957 1.17923C54.7401 1.06656 55.5215 1.15141 56.103 1.82336C56.4085 2.17651 56.5409 2.58667 56.5714 3.06935Z" fill="black"/>
</g>
<defs>
<clipPath id="clip0_2164_1421">
<rect width="150.735" height="27" fill="white"/>
</clipPath>
</defs>
</svg>
