<svg width="140" height="27" viewBox="0 0 140 27" fill="none" xmlns="http://www.w3.org/2000/svg">
<g clip-path="url(#clip0_2164_1442)">
<path d="M21.06 0.0687256C21.3816 0.114538 21.6735 0.150779 21.9613 0.20772C23.7902 0.569581 25.0345 1.83784 25.4148 3.61497C25.6123 4.53749 25.4419 5.44875 25.1671 6.32741C24.6083 8.11378 24.0187 9.89073 23.4233 11.6654C23.0068 12.9068 22.5594 14.1378 22.1275 15.3741C22.1216 15.391 22.1374 15.4154 22.1547 15.4795C22.205 15.4245 22.2476 15.3923 22.2716 15.3497C22.9827 14.0855 23.8054 12.9021 24.8788 11.9178C25.9986 10.8909 27.2561 10.0253 28.7875 9.85504C30.105 9.70861 31.4691 9.71781 32.6311 10.5803C33.1892 10.9945 33.5358 11.5581 33.7275 12.2137C33.8264 12.5519 33.8982 12.9034 33.9337 13.2538C34.0393 14.2959 33.7095 15.2637 33.3483 16.2124C32.9725 17.1993 32.5417 18.1652 32.1387 19.1419C31.6098 20.4234 31.064 21.6985 30.5666 22.9922C30.3235 23.6246 30.1828 24.2902 30.4326 24.9738C30.5906 25.4064 30.9733 25.6028 31.4327 25.5033C32.6965 25.2295 33.4985 24.3819 34.1431 23.3422C34.4178 22.8992 34.401 22.8902 34.8216 23.1759C34.9588 23.2691 35.1002 23.356 35.2577 23.4574C34.8983 24.2305 34.3822 24.8749 33.7556 25.4186C33.0487 26.0319 32.2471 26.5078 31.3345 26.752C29.9039 27.1348 28.4685 27.1754 27.1164 26.5014C25.9703 25.9302 25.3755 24.9275 25.2118 23.6603C25.042 22.3453 25.4505 21.1266 25.879 19.9303C26.2866 18.7923 26.8037 17.6927 27.2914 16.5844C27.895 15.2129 28.5266 13.8536 29.1244 12.4797C29.2272 12.2434 29.2522 11.9613 29.261 11.6986C29.2791 11.1573 28.8746 10.8844 28.3323 10.9769C27.4295 11.131 26.7216 11.6233 26.0429 12.189C24.0667 13.8359 22.7631 15.9657 21.6917 18.2586C20.7985 20.1702 20.2337 22.2005 19.5801 24.1985C19.3336 24.9522 19.0701 25.7006 18.8313 26.4567C18.7776 26.6268 18.7445 26.6351 18.5614 26.6067C18.0178 26.5226 17.4655 26.4903 16.9156 26.4527C16.4181 26.4188 15.9171 26.3643 15.4216 26.3912C14.6875 26.4311 13.9568 26.5349 13.175 26.6167C13.2691 26.2792 13.3564 25.9212 13.4686 25.5713C14.0605 23.7251 14.6582 21.8807 15.2548 20.0361C15.8717 18.1288 16.4912 16.2223 17.1068 14.3146C17.5498 12.9415 17.9871 11.5666 18.4292 10.1932C18.9085 8.70434 19.4047 7.22078 19.866 5.72641C20.1618 4.76812 20.429 3.79961 20.6655 2.82511C20.7612 2.43073 20.6669 2.01708 20.447 1.66319C20.2265 1.30848 19.5352 1.18028 19.0973 1.37107C18.3465 1.69818 17.8027 2.25793 17.392 2.93885C17.1212 3.38764 16.931 3.88503 16.6948 4.38153C16.4846 4.29007 16.228 4.19811 15.9946 4.06531C15.9215 4.02373 15.8536 3.85247 15.8805 3.77373C16.4451 2.11975 17.4089 0.825763 19.1546 0.286846C19.5021 0.179547 19.8815 0.175252 20.2567 0.0960924C20.5209 0.0687256 20.7746 0.0687256 21.06 0.0687256Z" fill="black"/>
<path d="M42.3524 27.0687C42.064 27 41.8111 26.9073 41.55 26.8667C40.2453 26.6639 39.0627 26.1971 38.0262 25.3582C36.9712 24.5043 36.2265 23.4448 35.8564 22.1449C35.6903 21.5613 35.5988 20.9518 35.5247 20.3478C35.3193 18.6737 35.7533 17.1228 36.5604 15.6785C36.9155 15.043 37.3742 14.4606 37.8235 13.8834C38.6687 12.7975 39.7736 12.0082 40.9423 11.3164C41.963 10.7123 43.0704 10.3048 44.227 10.0272C45.2648 9.77811 46.3209 9.77054 47.3672 9.84019C48.441 9.91167 49.4719 10.1814 50.4132 10.775C51.6157 11.5335 51.8738 13.0185 51.3395 14.1836C50.931 15.0743 50.2782 15.731 49.4964 16.2711C47.6756 17.5293 45.6329 18.2787 43.5063 18.8247C42.8645 18.9895 42.2187 19.1391 41.5793 19.3126C41.4921 19.3362 41.3712 19.4562 41.368 19.5356C41.3308 20.4797 41.2511 21.4284 41.308 22.3683C41.3618 23.2578 41.5086 24.1517 42.0421 24.923C42.6277 25.7698 43.55 26.0379 44.4589 25.8482C45.1333 25.7074 45.8255 25.536 46.4367 25.2315C48.1179 24.3939 49.4377 23.1521 50.2889 21.4509C50.3133 21.4022 50.3433 21.3562 50.3904 21.2748C50.6751 21.4324 50.95 21.5845 51.2505 21.7507C51.0562 22.3927 50.6763 22.9505 50.2652 23.4724C49.5795 24.3431 48.7793 25.0993 47.8132 25.6671C46.8237 26.2487 45.7868 26.6995 44.642 26.8602C44.1753 26.9257 43.7047 26.9629 43.2248 27.0409C42.9372 27.0687 42.6607 27.0687 42.3524 27.0687ZM46.3414 16.2128C46.6909 15.8629 47.0797 15.5438 47.3819 15.157C48.0831 14.2597 48.4177 13.2398 48.1543 12.098C47.9821 11.3512 47.3651 10.8035 46.5658 10.7809C45.5785 10.753 44.8564 11.2721 44.2486 11.9359C43.3638 12.9022 42.7975 14.0728 42.3954 15.3111C42.0746 16.2991 41.817 17.3076 41.5314 18.307C41.5615 18.3331 41.5916 18.3592 41.6217 18.3853C42.3097 18.1649 43.01 17.9764 43.6828 17.7164C44.6232 17.3529 45.5209 16.897 46.3414 16.2128Z" fill="black"/>
<path d="M92.2306 27.0687C91.9878 27.0004 91.7817 26.9053 91.5657 26.8682C90.0575 26.6092 88.7287 25.98 87.5511 25.0034C86.0887 23.7907 85.2218 22.2311 84.7759 20.4068C84.5167 19.3467 84.4961 18.2634 84.5912 17.1988C84.7512 15.4065 85.4052 13.7964 86.6082 12.4132C87.7987 11.0442 89.303 10.2286 91.0181 9.76536C92.1238 9.46668 93.2732 9.46748 94.3952 9.56877C96.1233 9.72478 97.7039 10.3526 99.0704 11.4456C100.201 12.3495 101.019 13.4947 101.537 14.8441C101.869 15.709 102.029 16.6082 102.106 17.538C102.22 18.9364 102.016 20.2719 101.542 21.5775C101.222 22.4597 100.747 23.248 100.146 23.9744C99.3463 24.9423 98.3713 25.6634 97.241 26.1864C96.4243 26.5644 95.5769 26.8436 94.6751 26.9312C94.3838 26.9595 94.0922 26.9858 93.7897 27.0409C93.2733 27.0687 92.7681 27.0687 92.2306 27.0687ZM86.974 19.0104C87.0441 19.4264 87.0675 19.857 87.1922 20.2559C87.8304 22.2975 89.1379 23.7256 91.1775 24.4225C92.0677 24.7267 92.9836 24.8527 93.9429 24.7481C94.8177 24.6528 95.6454 24.4337 96.4093 24.0295C97.1849 23.6192 97.8504 23.0565 98.4015 22.3533C99.2072 21.3251 99.6441 20.1563 99.743 18.8755C99.8104 18.0032 99.7511 17.1319 99.4929 16.2699C99.001 14.627 98.0245 13.3873 96.5294 12.5803C95.158 11.8401 93.6884 11.5929 92.1392 11.8832C90.5857 12.1744 89.2684 12.8603 88.2789 14.1207C87.1587 15.5473 86.7934 17.1816 86.974 19.0104Z" fill="black"/>
<path d="M0.0687256 22.4291C0.139269 22.2922 0.218989 22.1925 0.278831 22.082C0.612229 21.4663 1.49887 21.2064 2.32518 21.459C3.58307 21.8436 4.15291 23.2169 3.57203 24.4626C3.32027 25.0025 3.37265 25.2047 3.85377 25.5292C4.40031 25.8977 5.00285 26.1071 5.66301 26.1022C6.12355 26.0988 6.60433 26.127 7.03988 26.0083C7.96234 25.7569 8.36333 25.0806 8.08484 23.991C7.82498 22.9743 7.22794 22.1382 6.67909 21.2709C5.98222 20.1697 5.25695 19.0793 4.66086 17.924C4.26193 17.1507 3.94938 16.2919 3.80783 15.4367C3.6051 14.2119 3.89788 13.0412 4.6935 12.0319C5.68389 10.7756 6.98437 10.0923 8.55573 9.89277C10.0486 9.70322 11.5186 9.79821 12.9051 10.4113C13.921 10.8604 14.6543 11.6112 14.9594 12.723C15.1814 13.5315 14.8882 14.4085 14.2444 14.69C13.2101 15.1423 11.338 14.4803 11.4058 12.9275C11.4205 12.5893 11.4603 12.2522 11.4713 11.914C11.4966 11.1331 11.0713 10.8749 10.5247 10.7332C9.97877 10.5918 9.41693 10.6067 8.86883 10.7864C8.06741 11.049 7.65863 11.8279 7.86646 12.6488C8.12582 13.6732 8.70848 14.5353 9.22325 15.4317C9.71293 16.2844 10.2257 17.1239 10.7128 17.978C11.1064 18.668 11.5129 19.3543 11.8483 20.0727C12.2667 20.9686 12.6039 21.8955 12.5773 22.9166C12.5582 23.6476 12.2926 24.2798 11.8673 24.8484C11.0121 25.9917 9.7885 26.5355 8.44089 26.777C7.5588 26.935 6.64395 27.0197 5.75048 26.9813C3.98776 26.9054 2.36513 26.3439 1.06667 25.1086C0.657251 24.7191 0.429035 24.1391 0.093306 23.6399C0.0687254 23.2428 0.0687254 22.852 0.0687256 22.4291Z" fill="black"/>
<path d="M132.215 27.0686C132.074 26.7889 131.801 26.9214 131.619 26.877C129.86 26.4493 128.421 25.5839 127.596 23.9208C127.331 23.3867 127.227 22.7724 127.027 22.1221C127.551 22.1221 128 22.1203 128.448 22.1228C128.722 22.1243 129.051 22.0426 129.253 22.1657C129.42 22.2671 129.412 22.6271 129.525 22.8508C130.04 23.8744 130.881 24.5032 131.983 24.7682C133.383 25.1047 134.745 24.9928 135.958 24.1734C137.154 23.3645 137.423 21.9437 136.688 20.7845C136.243 20.0845 135.49 19.7242 134.695 19.5163C133.744 19.2676 132.778 19.0769 131.83 18.8183C130.697 18.5091 129.612 18.0896 128.792 17.186C128.165 16.4937 127.838 15.6766 127.787 14.7478C127.74 13.8769 127.809 13.0279 128.226 12.2331C128.913 10.921 130.026 10.1705 131.409 9.75336C132.329 9.4763 133.276 9.4908 134.203 9.5685C135.317 9.66177 136.35 10.0488 137.237 10.782C138.14 11.5284 138.66 12.4631 138.781 13.6261C138.798 13.7895 138.839 13.9504 138.873 14.1359C138.071 14.1359 137.309 14.1359 136.528 14.1359C136.494 13.4273 136.172 12.8529 135.629 12.4207C135.113 12.0102 134.527 11.7549 133.852 11.669C132.907 11.5485 132.035 11.6934 131.248 12.2292C130.086 13.0194 129.667 14.5673 130.7 15.7683C131.176 16.3222 131.873 16.5815 132.58 16.7634C133.734 17.0602 134.897 17.3274 136.039 17.6642C137.139 17.9884 138.065 18.6177 138.717 19.5692C139.132 20.1753 139.389 20.8662 139.439 21.631C139.466 21.9405 139.466 22.2398 139.442 22.5768C139.434 22.6794 139.45 22.7443 139.466 22.8091C139.466 22.8396 139.466 22.8702 139.44 22.931C139.387 22.9964 139.343 23.0284 139.336 23.0671C139.05 24.6266 138.045 25.6224 136.704 26.3005C135.748 26.7841 134.71 27.0377 133.621 27.0032C133.577 27.0019 133.533 27.0458 133.489 27.0686C133.075 27.0686 132.661 27.0686 132.215 27.0686Z" fill="black"/>
<path d="M104.22 12.0263C104.766 13.5186 105.311 14.9829 105.855 16.4475C106.518 18.2316 107.182 20.0155 107.842 21.8007C107.982 22.1799 108.109 22.5641 108.276 23.0442C108.407 22.7464 108.517 22.5289 108.599 22.3016C109.368 20.1927 110.13 18.0817 110.897 15.9722C111.603 14.0281 112.312 12.0849 113.022 10.142C113.084 9.97189 113.183 9.87925 113.399 9.88596C114.039 9.90587 114.681 9.90613 115.322 9.88595C115.543 9.87898 115.63 9.98558 115.691 10.1519C116.567 12.5491 117.434 14.9498 118.318 17.3442C119.008 19.212 119.718 21.0723 120.452 23.0249C122.074 18.6133 123.675 14.2591 125.277 9.89994C126.104 9.89994 126.927 9.89994 127.807 9.89994C125.723 15.4925 123.649 21.0615 121.565 26.6564C120.935 26.6564 120.283 26.6625 119.632 26.6483C119.555 26.6466 119.44 26.5489 119.41 26.47C118.353 23.7286 117.299 20.9864 116.258 18.2393C115.646 16.6245 115.056 15.0011 114.455 13.3824C114.429 13.3129 114.38 13.2518 114.308 13.127C114.033 13.8734 113.777 14.5674 113.524 15.2623C112.815 17.2055 112.108 19.1491 111.399 21.0925C110.748 22.8813 110.098 24.6707 109.437 26.4561C109.406 26.5411 109.279 26.6455 109.195 26.6477C108.555 26.6637 107.914 26.6564 107.288 26.6564C105.144 21.0607 103.006 15.4842 100.866 9.89936C101.733 9.89936 102.579 9.89936 103.428 9.89936C103.693 10.6022 103.956 11.3004 104.22 12.0263Z" fill="black"/>
<path d="M53.3817 20.3359C53.3817 13.7083 53.3817 7.11501 53.3817 0.501343C54.1556 0.501343 54.9163 0.501343 55.7127 0.501343C55.7127 5.68295 55.7127 10.871 55.7127 16.1234C55.8238 16.0414 55.8879 16.0053 55.938 15.9553C56.8219 15.0746 57.7087 14.1966 58.5855 13.309C59.5962 12.2859 60.6152 11.27 61.5915 10.2148C61.839 9.94724 62.0659 9.88055 62.3964 9.88695C63.3188 9.90481 64.2418 9.89316 65.2229 9.89316C62.804 12.3461 60.4264 14.7572 58.0374 17.1799C61.1193 20.3204 64.1943 23.4539 67.3099 26.6289C67.1833 26.6418 67.1114 26.6554 67.0394 26.6556C66.1235 26.657 65.2075 26.6626 64.2918 26.6496C64.1628 26.6478 64.0014 26.5864 63.9118 26.4962C62.293 24.8671 60.6797 23.2326 59.0721 21.5925C57.9711 20.4693 56.8807 19.3358 55.7312 18.1509C55.7312 21.0268 55.7312 23.822 55.7312 26.6368C54.9422 26.6368 54.1815 26.6368 53.3817 26.6368C53.3817 24.5509 53.3817 22.4606 53.3817 20.3359Z" fill="black"/>
<path d="M79.7811 10.3542C81.485 11.3087 82.4255 12.7911 82.843 14.6224C82.9864 15.2512 83.0476 15.911 83.0517 16.5573C83.0721 19.785 83.0611 23.013 83.0611 26.2408C83.0611 26.3655 83.0611 26.4902 83.0611 26.6357C82.2881 26.6357 81.5276 26.6357 80.7252 26.6357C80.7252 26.5234 80.7252 26.4025 80.7252 26.2815C80.7252 23.191 80.7231 20.1005 80.7262 17.01C80.7274 15.7758 80.4469 14.6297 79.6961 13.6272C79.0355 12.7452 78.165 12.1858 77.086 11.9544C75.8091 11.6806 74.5716 11.8722 73.4054 12.3943C72.056 12.9985 71.164 14.058 70.7744 15.4894C70.6177 16.065 70.506 16.6723 70.501 17.2663C70.4744 20.3795 70.4885 23.4929 70.4885 26.6314C69.7016 26.6314 68.9179 26.6314 68.1091 26.6314C68.1091 21.0758 68.1091 15.4993 68.1091 9.90794C68.8923 9.90794 69.6756 9.90794 70.4968 9.90794C70.4968 10.7762 70.4968 11.635 70.4968 12.4988C70.8839 12.0514 71.2295 11.6054 71.6234 11.2072C72.3094 10.5137 73.1749 10.1215 74.0908 9.82322C75.0997 9.49468 76.1424 9.49729 77.1747 9.56456C78.0815 9.62364 78.9534 9.89756 79.7811 10.3542Z" fill="black"/>
</g>
<defs>
<clipPath id="clip0_2164_1442">
<rect width="139.397" height="27" fill="white"/>
</clipPath>
</defs>
</svg>
