<svg width="76" height="27" viewBox="0 0 76 27" fill="none" xmlns="http://www.w3.org/2000/svg">
<g clip-path="url(#clip0_2164_1640)">
<path d="M65.108 0H10.7142C7.87266 0 5.14753 1.12879 3.13828 3.13804C1.12903 5.14729 0.000244141 7.87242 0.000244141 10.7139C0.000244141 13.5554 1.12903 16.2806 3.13828 18.2898C5.14753 20.2991 7.87266 21.4279 10.7142 21.4279H38.0667L45.2192 26.5387L45.2258 21.4279H65.108C67.9495 21.4279 70.6746 20.2991 72.6839 18.2898C74.6931 16.2806 75.8219 13.5554 75.8219 10.7139C75.8219 7.87242 74.6931 5.14729 72.6839 3.13804C70.6746 1.12879 67.9495 0 65.108 0Z" fill="black"/>
<path d="M16.0863 5.06186C14.7854 3.84057 12.7411 3.20349 10.7764 3.20349C8.25425 3.20349 5.2818 4.47765 5.2818 7.63721C5.2818 10.1321 7.29937 11.062 9.13161 11.4867C10.9368 11.9117 11.7601 12.177 11.7601 13.0014C11.7601 13.8512 10.9104 14.1431 10.1937 14.1431C9.5808 14.1293 8.97722 13.9901 8.42015 13.7341C7.86307 13.4782 7.3643 13.1109 6.95455 12.6548L4.51196 15.2299C5.89245 16.5575 8.12238 17.2745 10.2739 17.2745C12.9823 17.2745 15.9289 16.1061 15.9289 12.76C15.9289 10.1846 13.7254 9.1757 11.7078 8.72425C10.0087 8.3527 9.29169 8.14034 9.29169 7.39663C9.29169 6.62679 10.115 6.33454 10.9377 6.33454C11.976 6.37109 12.9623 6.79775 13.6999 7.5294L16.0896 5.06038L16.0863 5.06186Z" fill="white"/>
<path d="M30.7908 10.1856C30.7908 5.85819 27.4456 3.20325 23.4366 3.20325C19.4541 3.20325 16.1089 5.85819 16.1089 10.1856C16.1089 14.513 19.4541 17.2745 23.4366 17.2745C27.4462 17.2745 30.7908 14.5124 30.7908 10.1856ZM26.5959 10.1856C26.5959 11.8848 25.5074 13.6107 23.4631 13.6107C21.4188 13.6107 20.3302 11.8848 20.3302 10.1856C20.3302 8.4864 21.392 6.81426 23.4366 6.81426C25.4812 6.81426 26.5962 8.4867 26.5962 10.1859L26.5959 10.1856Z" fill="white"/>
<path d="M39.6808 11.5396C39.6808 13.1856 38.6986 14.2477 36.9463 14.2477C36.0704 14.2477 35.0612 13.9026 35.0612 12.894C35.0612 11.3276 37.2118 11.0885 39.1234 11.0885H39.6808V11.5396ZM33.8931 7.79734C34.7805 6.96363 35.9416 6.4822 37.1587 6.44328C38.5127 6.44328 39.5484 7.05393 39.5484 8.35482V8.56659C35.6986 8.56659 31.0525 9.20366 31.0525 13.027C31.0525 16.1334 33.7606 17.1688 35.8584 17.1688C37.4248 17.1688 38.938 16.532 39.6006 15.4429H39.6802V16.8501H43.6628V10.1856C43.6628 5.38 42.0168 3.20324 37.5834 3.20324C35.4083 3.18041 33.3043 3.97641 31.689 5.43316L33.8928 7.79615L33.8931 7.79734Z" fill="white"/>
<path d="M59.9344 10.1855C59.9344 6.49523 57.5186 3.25607 53.6676 3.25607C52.8582 3.23977 52.0559 3.41091 51.3236 3.75613C50.5913 4.10134 49.9488 4.61126 49.4462 5.24601H49.3664V3.62792H45.2261V26.9997H49.5802V15.3894H49.6334C50.4564 16.5311 52.0231 17.2213 53.643 17.2213C57.6255 17.2213 59.9353 13.8761 59.9353 10.1855H59.9344ZM55.7131 10.1855C55.7131 11.9117 54.6777 13.6106 52.6067 13.6106C50.6423 13.6106 49.4207 11.9379 49.4207 10.2123C49.4207 8.53952 50.6423 6.81421 52.6067 6.81421C54.6774 6.81421 55.7131 8.48636 55.7131 10.1855Z" fill="white"/>
<path d="M71.1609 5.06192C69.8615 3.84033 67.8157 3.20325 65.8519 3.20325C63.3294 3.20325 60.3573 4.47741 60.3573 7.63697C60.3573 10.1318 62.3749 11.0618 64.2071 11.4865C66.0123 11.9115 66.8353 12.1767 66.8353 13.0012C66.8353 13.8509 65.9856 14.1429 65.2689 14.1429C64.6561 14.1292 64.0526 13.9902 63.4955 13.7345C62.9385 13.4788 62.4396 13.1118 62.0297 12.6561L59.5872 15.2311C60.9679 16.5588 63.1979 17.2757 65.3491 17.2757C68.0572 17.2757 71.0041 16.1073 71.0041 12.7612C71.0041 10.1859 68.8003 9.17695 66.7827 8.7255C65.0836 8.35394 64.3666 8.14158 64.3666 7.39788C64.3666 6.62803 65.1899 6.33578 66.0129 6.33578C67.0512 6.37233 68.0375 6.79899 68.7751 7.53064L71.1645 5.06162L71.1609 5.06192Z" fill="white"/>
</g>
<defs>
<clipPath id="clip0_2164_1640">
<rect width="75.8223" height="27" fill="white"/>
</clipPath>
</defs>
</svg>
