<svg width="93" height="27" viewBox="0 0 93 27" fill="none" xmlns="http://www.w3.org/2000/svg">
<g clip-path="url(#clip0_2164_1470)">
<path d="M11.8531 0.0720216C12.641 0.52739 13.3983 0.988903 14.1635 1.43675C15.4617 2.19646 16.7634 2.95017 18.0666 3.70125C18.8082 4.12872 19.5559 4.54573 20.3004 4.96839C20.3507 4.99694 20.3965 5.03337 20.4656 5.08062C19.7818 5.48085 19.1143 5.87259 18.4457 6.26236C18.2355 6.38485 18.0016 6.47643 17.815 6.6272C17.4608 6.91338 17.143 6.8085 16.8049 6.6103C15.2967 5.72613 13.7853 4.84727 12.2755 3.96589C12.1956 3.91924 12.1196 3.86579 12.0404 3.81784C11.8663 3.7124 11.731 3.70512 11.5252 3.8299C10.5159 4.44207 9.48373 5.01643 8.46121 5.60688C7.43929 6.19698 6.42053 6.79256 5.39791 7.38145C4.70639 7.77967 4.01058 8.17046 3.27254 8.58964C3.85881 8.93506 4.39903 9.25757 4.94328 9.57314C6.12426 10.2579 7.30656 10.9404 8.48971 11.6214C9.50272 12.2044 10.5138 12.7912 11.5368 13.3562C11.6595 13.4239 11.885 13.4248 12.0068 13.3566C13.2082 12.6837 14.3973 11.9887 15.5909 11.3018C16.6041 10.7187 17.6182 10.1374 18.6334 9.55789C18.69 9.52553 18.7602 9.51681 18.8641 9.48472C18.8641 10.4242 18.8064 11.3365 18.8831 12.2374C18.9403 12.9104 18.6535 13.2027 18.1076 13.4933C16.9233 14.124 15.7825 14.8362 14.6211 15.5101C13.7701 16.0039 12.9224 16.5043 12.054 16.9657C11.8967 17.0492 11.6088 17.0264 11.4455 16.9362C10.3819 16.3489 9.33659 15.7284 8.2842 15.1207C7.29206 14.5478 6.29781 13.9785 5.30583 13.4053C4.3038 12.8263 3.30547 12.2409 2.30163 11.6651C1.57984 11.251 0.851661 10.8481 0.0992238 10.4401C0.0721153 9.23852 0.0721153 8.03701 0.0989449 6.80165C0.256322 6.69549 0.387762 6.62473 0.517282 6.55062C2.15324 5.61457 3.79144 4.6824 5.42397 3.7404C7.11773 2.76308 8.80707 1.77807 10.4957 0.791915C10.8906 0.561284 11.2749 0.31247 11.6641 0.0720215C11.7181 0.0720216 11.7721 0.0720216 11.8531 0.0720216Z" fill="black"/>
<path d="M0.0720215 13.8577C0.448312 14.0223 0.82975 14.2115 1.19971 14.4209C1.78366 14.7516 2.35361 15.1073 2.94257 15.4285C3.17258 15.5539 3.25159 15.7026 3.24586 15.9602C3.22933 16.7036 3.24909 17.4478 3.23487 18.1913C3.23019 18.436 3.31386 18.5689 3.5281 18.6914C5.02462 19.5471 6.51037 20.4217 8.00337 21.2836C9.17554 21.9604 10.3498 22.6337 11.5333 23.2902C11.6563 23.3585 11.8823 23.3626 12.0032 23.2946C13.2131 22.6138 14.4102 21.9102 15.6126 21.2159C16.4745 20.7182 17.3377 20.2226 18.2024 19.7299C18.8857 19.3404 19.5772 18.9648 20.2512 18.5601C20.3359 18.5093 20.3707 18.3185 20.371 18.1925C20.3775 15.3254 20.376 12.4583 20.376 9.59116C20.376 9.24351 20.376 8.89585 20.376 8.53904C21.3849 7.95853 22.3917 7.37917 23.4494 6.77051C23.4494 11.3412 23.4494 15.8321 23.4494 20.3449C21.4743 21.4758 19.4757 22.6133 17.484 23.7628C15.7095 24.7869 13.9385 25.817 12.1766 26.8624C11.864 27.0478 11.6092 27.0006 11.3325 26.8396C10.1826 26.1703 9.03258 25.5012 7.88313 24.8311C6.08313 23.7818 4.28481 22.7296 2.48306 21.6833C1.84327 21.3118 1.19772 20.9499 0.54964 20.5931C0.421795 20.5226 0.270281 20.4952 0.100852 20.448C0.0720215 18.2625 0.0720215 16.077 0.0720215 13.8577Z" fill="black"/>
<path d="M92.7361 11.1263C92.3422 11.401 91.9551 11.6541 91.553 11.8805C90.4718 12.4892 89.31 12.5558 88.1087 12.389C87.1884 12.2613 86.3867 11.8764 85.7378 11.2371C85.0329 10.5426 84.6496 9.68016 84.5149 8.67684C84.308 7.13575 84.728 5.81866 85.8147 4.74228C86.6084 3.95612 87.5933 3.5387 88.7372 3.52305C89.5781 3.51155 90.4131 3.53344 91.1862 3.89586C91.6336 4.10562 92.045 4.39207 92.5078 4.66468C92.0519 5.21179 91.649 5.69543 91.2375 6.18928C90.9036 5.98928 90.5738 5.74858 90.2102 5.58147C88.668 4.87272 86.9913 5.63782 86.6184 7.31306C86.3611 8.46889 86.622 9.48287 87.5937 10.2114C88.0974 10.589 88.695 10.8053 89.3516 10.6551C89.7658 10.5603 90.1749 10.4422 90.5834 10.3244C90.8097 10.2591 90.8841 10.0959 90.8684 9.86144C90.8501 9.58849 90.8641 9.31337 90.8641 9.01056C90.2179 9.01056 89.5882 9.01056 88.9395 9.01056C88.9395 8.42498 88.9395 7.86774 88.9395 7.27204C90.1819 7.27204 91.4253 7.27204 92.7024 7.27204C92.7361 8.54555 92.7361 9.81905 92.7361 11.1263Z" fill="black"/>
<path d="M67.121 20.5668C66.5072 19.745 65.9082 18.9453 65.3092 18.1456C65.2867 18.1551 65.2641 18.1647 65.2416 18.1743C65.2416 19.9279 65.2416 21.6816 65.2416 23.4535C64.5831 23.4535 63.954 23.4535 63.3064 23.4535C63.3064 20.5666 63.3064 17.6817 63.3064 14.7602C63.8795 14.7602 64.4512 14.7564 65.0226 14.7652C65.0903 14.7662 65.1785 14.8193 65.221 14.8756C66.366 16.3937 67.5062 17.9156 68.6481 19.4362C68.7265 19.5406 68.8126 19.6393 68.9531 19.7232C69.0934 19.178 69.0352 18.6404 69.0457 18.1086C69.0566 17.5569 69.0481 17.0048 69.0481 16.4529C69.0481 15.9025 69.0481 15.3521 69.0481 14.7809C69.6922 14.7809 70.3214 14.7809 70.9715 14.7809C70.9715 17.6606 70.9715 20.5455 70.9715 23.4715C70.4665 23.4715 69.955 23.4816 69.4446 23.4618C69.358 23.4584 69.2615 23.3379 69.1947 23.2519C68.5054 22.3665 67.8213 21.4771 67.121 20.5668Z" fill="black"/>
<path d="M80.2269 10.5665C79.3198 9.38401 78.4314 8.21997 77.4809 6.97445C77.4809 8.81539 77.4809 10.5383 77.4809 12.2867C76.8374 12.2867 76.208 12.2867 75.5532 12.2867C75.5532 9.44435 75.5532 6.58327 75.5532 3.67242C76.1158 3.67242 76.6979 3.66966 77.2799 3.67656C77.3402 3.67728 77.4201 3.72027 77.457 3.76919C78.3773 4.98875 79.2904 6.21383 80.2112 7.43297C80.5197 7.84138 80.8462 8.23621 81.2548 8.61576C81.2548 6.97731 81.2548 5.33886 81.2548 3.68657C81.9453 3.68657 82.5744 3.68657 83.2177 3.68657C83.2177 6.56167 83.2177 9.42267 83.2177 12.312C82.691 12.312 82.1763 12.3368 81.6668 12.296C81.5243 12.2846 81.3743 12.0976 81.2675 11.9602C80.9171 11.5094 80.5849 11.0445 80.2269 10.5665Z" fill="black"/>
<path d="M37.1071 11.5042C36.4572 10.9249 35.9322 10.2799 35.7009 9.45516C35.1892 7.63046 35.5008 5.9845 36.9272 4.67C37.7237 3.93603 38.693 3.55502 39.8062 3.51745C40.9072 3.48029 41.9179 3.69681 42.8297 4.32017C43.8922 5.04656 44.4583 6.06544 44.6466 7.33231C44.8276 8.55061 44.5701 9.64832 43.8472 10.6324C43.1568 11.5723 42.2384 12.1821 41.0808 12.3795C40.0709 12.5516 39.0659 12.5266 38.1151 12.09C37.7715 11.9322 37.4571 11.7106 37.1071 11.5042ZM37.5121 7.82869C37.5359 8.03805 37.5588 8.24754 37.5838 8.45677C37.7641 9.9659 39.3289 10.9557 40.7078 10.5824C42.2098 10.1759 42.8548 8.80795 42.5824 7.42402C42.3654 6.32135 41.6664 5.61984 40.5395 5.35776C39.7818 5.18153 38.6959 5.56991 38.2059 6.15843C37.8075 6.63692 37.631 7.18019 37.5121 7.82869Z" fill="black"/>
<path d="M36.1583 16.15C36.8357 15.4179 37.633 14.9369 38.5845 14.7291C40.8598 14.2322 43.3311 15.2305 44.0776 17.636C44.6647 19.5278 44.2328 21.2795 42.6566 22.5948C41.9904 23.1506 41.1916 23.4434 40.3105 23.5569C39.3858 23.676 38.5113 23.55 37.6826 23.1757C36.3754 22.5852 35.5447 21.5803 35.203 20.1693C34.9864 19.2746 35.0298 18.3971 35.364 17.556C35.5578 17.0679 35.8776 16.6298 36.1583 16.15ZM37.2978 18.1333C37.1457 18.6567 37.0978 19.1789 37.2197 19.7224C37.5586 21.2349 39.0529 22.096 40.5392 21.6393C41.7181 21.2771 42.5116 19.8298 42.1937 18.4786C41.8601 17.0607 40.5105 16.1457 39.0812 16.4984C38.2261 16.7093 37.6618 17.2785 37.2978 18.1333Z" fill="black"/>
<path d="M61.1073 21.9033C61.4676 22.4162 61.8086 22.9107 62.1952 23.4712C61.3916 23.4712 60.6566 23.4747 59.9218 23.4644C59.866 23.4636 59.7999 23.3734 59.7584 23.3114C59.2282 22.5211 58.6972 21.7313 58.1773 20.9342C58.0532 20.7439 57.9277 20.6364 57.6785 20.6569C57.3338 20.6852 56.9851 20.664 56.6096 20.664C56.6096 21.5913 56.6096 22.5086 56.6096 23.4489C55.9527 23.4489 55.3234 23.4489 54.6479 23.4489C54.6479 22.0155 54.6479 20.5695 54.6479 19.1236C54.6479 17.6849 54.6479 16.2461 54.6479 14.7872C54.7096 14.7774 54.7647 14.7612 54.8198 14.7612C56.2113 14.7597 57.605 14.7117 58.9938 14.7741C60.2788 14.8318 61.3784 15.3582 61.7276 16.6331C62.0123 17.6726 61.9672 18.7169 61.2162 19.5831C60.973 19.8636 60.6064 20.0423 60.2826 20.2457C60.1163 20.3501 60.0784 20.4085 60.211 20.5876C60.5213 21.0067 60.7978 21.4509 61.1073 21.9033ZM58.4873 16.56C57.8588 16.56 57.2303 16.56 56.6126 16.56C56.6126 17.3777 56.6126 18.1492 56.6126 18.936C57.0861 18.936 57.5401 18.9546 57.9917 18.9304C58.3969 18.9088 58.8127 18.887 59.1999 18.7794C59.6062 18.6665 59.9816 18.097 59.863 17.5441C59.7355 16.9498 59.4495 16.6069 58.4873 16.56Z" fill="black"/>
<path d="M54.6479 7.77606C54.6479 6.39781 54.6479 5.05556 54.6479 3.68926C54.7655 3.68302 54.8689 3.67285 54.9723 3.67277C56.3282 3.6717 57.6845 3.65022 59.0397 3.679C60.1163 3.70186 61.0298 4.096 61.5606 5.09394C61.7181 5.39017 61.8128 5.74651 61.8352 6.08203C61.8732 6.65394 61.9103 7.23833 61.6591 7.78835C61.3337 8.50075 60.7706 8.94676 60.076 9.23408C60.763 10.2466 61.4511 11.2605 62.1646 12.3121C61.4148 12.3121 60.7321 12.3226 60.0504 12.3023C59.9277 12.2987 59.7679 12.1963 59.6949 12.0912C59.1583 11.3187 58.6433 10.5313 58.1097 9.75671C58.0502 9.67036 57.919 9.58932 57.817 9.58416C57.4235 9.56422 57.0284 9.57606 56.6053 9.57606C56.6053 10.4837 56.6053 11.3772 56.6053 12.2912C55.9479 12.2912 55.3186 12.2912 54.6479 12.2912C54.6479 10.8017 54.6479 9.30689 54.6479 7.77606ZM57.7784 5.40006C57.3877 5.40006 56.997 5.40006 56.6124 5.40006C56.6124 6.23883 56.6124 7.03554 56.6124 7.88204C57.3927 7.84605 58.1526 7.83281 58.9083 7.76897C59.4721 7.72134 59.9156 7.24152 59.8959 6.60691C59.876 5.96431 59.5097 5.5817 58.9083 5.47861C58.5611 5.4191 58.2029 5.42409 57.7784 5.40006Z" fill="black"/>
<path d="M52.7766 21.6662C52.1294 23.0007 51.0296 23.5349 49.6246 23.5428C48.9438 23.5467 48.279 23.5376 47.6153 23.2747C46.562 22.8575 45.9821 22.0854 45.7292 21.0363C45.6257 20.6068 45.5876 20.1533 45.5826 19.7099C45.5654 18.1868 45.576 16.6634 45.576 15.1401C45.576 15.0232 45.576 14.9063 45.576 14.7749C46.2322 14.7749 46.8612 14.7749 47.52 14.7749C47.52 16.2709 47.5097 17.7549 47.5266 19.2386C47.5314 19.6575 47.5901 20.0805 47.6694 20.493C47.8105 21.2264 48.4718 21.7332 49.2223 21.7475C49.6404 21.7555 50.0443 21.7179 50.4016 21.4876C50.9612 21.127 51.1726 20.5572 51.183 19.9388C51.2098 18.344 51.192 16.7484 51.192 15.1531C51.192 15.0349 51.192 14.9166 51.192 14.7795C51.8387 14.7795 52.4677 14.7795 53.1215 14.7795C53.1262 14.8682 53.1353 14.9598 53.1354 15.0515C53.1362 16.7667 53.1615 18.4826 53.1196 20.1968C53.1078 20.6797 52.8981 21.1578 52.7766 21.6662Z" fill="black"/>
<path d="M47.736 8.13454C47.7223 8.72408 47.7764 9.25412 48.0114 9.77815C48.3222 10.471 49.2802 10.7447 49.8901 10.6292C51.1236 10.3956 51.3706 9.56049 51.3955 8.63749C51.4398 6.99713 51.408 5.3547 51.408 3.69259C52.0524 3.69259 52.6814 3.69259 53.3359 3.69259C53.341 3.78959 53.3512 3.89296 53.3512 3.99633C53.3522 5.65149 53.3847 7.30755 53.3396 8.96149C53.3127 9.94676 53.0104 10.8642 52.257 11.5714C51.7948 12.0053 51.2329 12.2736 50.6255 12.3702C49.5253 12.5452 48.4404 12.5352 47.4101 11.9693C46.4788 11.4577 45.931 10.6575 45.8888 9.66074C45.8049 7.68139 45.864 5.69597 45.864 3.69238C46.4368 3.69238 47.0659 3.69238 47.736 3.69238C47.736 5.1582 47.736 6.62852 47.736 8.13454Z" fill="black"/>
<path d="M28.3223 11.5035C28.1285 11.3455 27.9573 11.202 27.7668 11.0425C28.1588 10.5743 28.5408 10.1182 28.8791 9.7141C29.4927 10.0076 30.0905 10.328 30.7157 10.5807C31.1496 10.7561 31.6217 10.7833 32.0872 10.6384C32.4975 10.5107 32.7751 10.2417 32.7559 9.93484C32.7317 9.54985 32.4735 9.33161 32.1367 9.21938C31.3825 8.96813 30.6185 8.74644 29.8648 8.49398C29.1326 8.24874 28.5039 7.86235 28.2706 7.06566C27.8954 5.78479 28.2827 4.50302 29.5687 3.86281C30.9912 3.1547 33.3365 3.61303 34.4261 4.67022C34.0993 5.1431 33.7706 5.6187 33.4328 6.10736C32.9742 5.88504 32.5126 5.62781 32.0256 5.43453C31.533 5.23901 31.0149 5.16158 30.5024 5.40682C30.2662 5.51983 30.1027 5.67397 30.0922 5.96283C30.0811 6.26926 30.1932 6.51492 30.4703 6.61804C30.9872 6.81036 31.52 6.95989 32.0459 7.12813C32.728 7.34633 33.4332 7.52 33.9793 8.02524C34.6196 8.61757 34.7598 9.34911 34.6427 10.196C34.4951 11.2637 33.8625 11.8872 32.9153 12.2332C32.2117 12.4903 31.4802 12.5012 30.7296 12.3975C29.8612 12.2774 29.0764 11.9829 28.3223 11.5035Z" fill="black"/>
<path d="M69.6705 4.0493C70.0342 4.30958 70.3749 4.55465 70.7483 4.82317C70.4785 5.14345 70.2488 5.41891 70.0155 5.69136C69.9534 5.764 69.8779 5.82508 69.8128 5.89543C69.4288 6.31041 69.4288 6.31127 68.996 5.95924C67.4609 4.71054 65.229 5.30402 64.8245 7.48867C64.5685 8.87093 65.3013 10.3666 66.9043 10.6425C67.7823 10.7936 68.5657 10.4602 69.218 9.86501C69.429 9.67247 69.5657 9.68325 69.7518 9.87794C70.083 10.2246 70.4301 10.5559 70.7771 10.9002C69.8386 11.9509 68.6999 12.4751 67.2765 12.4695C65.919 12.4642 64.7738 12.0437 63.86 11.0421C63.2321 10.3536 62.9105 9.53204 62.7713 8.60442C62.6164 7.57248 62.8238 6.62209 63.3021 5.73917C63.9354 4.57023 64.9335 3.8329 66.2566 3.60526C67.4236 3.40447 68.5692 3.48122 69.6705 4.0493Z" fill="black"/>
<path d="M73.206 20.2781C73.4738 19.6473 73.723 19.0394 73.979 18.4344C74.5047 17.1923 75.0341 15.9516 75.5675 14.6973C76.1512 14.6973 76.7497 14.6973 77.3867 14.6973C78.6202 17.5959 79.8599 20.5092 81.1206 23.4719C80.4396 23.4719 79.8191 23.4852 79.2002 23.4584C79.0999 23.4541 78.9687 23.2883 78.9175 23.169C78.6404 22.5227 78.3859 21.8667 78.12 21.2155C77.593 19.9246 77.0639 18.6345 76.534 17.3448C76.5169 17.303 76.4822 17.2684 76.4341 17.1995C76.1281 17.9288 75.8266 18.6281 75.5405 19.3336C75.0033 20.6582 74.4773 21.9874 73.9368 23.3106C73.907 23.3833 73.7875 23.4632 73.7082 23.4649C73.0976 23.4777 72.4866 23.4719 71.8315 23.4719C72.2933 22.3948 72.7419 21.3485 73.206 20.2781Z" fill="black"/>
<path d="M86.616 23.472C85.0458 23.472 83.5117 23.472 81.9568 23.472C81.9568 20.5717 81.9568 17.6869 81.9568 14.781C82.5797 14.781 83.2089 14.781 83.8668 14.781C83.8668 17.0601 83.8668 19.3452 83.8668 21.6587C85.3159 21.6587 86.7371 21.6587 88.1791 21.6587C88.1791 22.2679 88.1791 22.8491 88.1791 23.472C87.6742 23.472 87.1631 23.472 86.616 23.472Z" fill="black"/>
<path d="M30.1583 21.6276C30.9696 21.8547 31.4333 21.6834 31.6814 21.0517C31.7725 20.82 31.8165 20.5552 31.818 20.3051C31.8291 18.4709 31.824 16.6365 31.824 14.7811C32.4914 14.7811 33.1447 14.7811 33.8237 14.7811C33.8289 14.8768 33.8392 14.9802 33.8393 15.0835C33.8403 16.9313 33.8645 18.7795 33.8302 20.6266C33.8115 21.6335 33.4899 22.5514 32.569 23.1027C32.2122 23.3163 31.7868 23.4809 31.3766 23.5278C30.0107 23.684 28.781 23.3849 27.854 22.2412C28.2588 21.7888 28.6655 21.3342 29.0474 20.9074C29.4177 21.1448 29.7778 21.3756 30.1583 21.6276Z" fill="black"/>
<path d="M71.856 10.7999C71.856 8.41388 71.856 6.06382 71.856 3.69287C72.5239 3.69287 73.1771 3.69287 73.8512 3.69287C73.8512 6.54839 73.8512 9.40924 73.8512 12.291C73.204 12.291 72.5508 12.291 71.856 12.291C71.856 11.8102 71.856 11.3231 71.856 10.7999Z" fill="black"/>
</g>
<defs>
<clipPath id="clip0_2164_1470">
<rect width="92.664" height="27" fill="white"/>
</clipPath>
</defs>
</svg>
