<svg width="106" height="27" viewBox="0 0 106 27" fill="none" xmlns="http://www.w3.org/2000/svg">
<g clip-path="url(#clip0_2164_1494)">
<path d="M105.928 4.16531C105.896 4.2683 105.85 4.35837 105.835 4.4534C105.714 5.21452 105.407 5.89671 104.946 6.50709C104.765 6.74561 104.554 6.96229 104.344 7.17615C103.822 7.70638 103.295 8.2311 102.767 8.75468C101.886 9.62835 101.002 10.4999 100.119 11.3714C99.4549 12.0265 98.7874 12.6782 98.1266 13.3366C98.0328 13.4301 97.9794 13.4346 97.8869 13.3371C97.6458 13.0828 97.3943 12.8382 97.1454 12.5913C95.97 11.4258 94.795 10.2599 93.6174 9.09664C93.43 8.91151 93.2304 8.73878 93.023 8.548C92.9927 8.57998 92.956 8.62103 92.9169 8.6597C91.9705 9.5959 91.0243 10.5323 90.077 11.4677C89.3527 12.1828 88.6269 12.8964 87.902 13.6109C87.1506 14.3515 86.4002 15.0931 85.6473 15.8322C85.5509 15.9269 85.4421 16.009 85.3304 16.1043C85.0108 15.8118 84.7639 15.4628 84.5356 15.0967C84.2078 14.5712 84.0085 13.9958 83.9083 13.3922C83.8272 12.9034 83.8195 12.4098 83.8924 11.91C83.9772 11.3278 84.1302 10.7705 84.4191 10.2654C84.6353 9.88719 84.8938 9.52356 85.1853 9.20025C85.633 8.70385 86.1233 8.24573 86.5989 7.7748C87.3372 7.0437 88.0784 6.31545 88.8185 5.58606C89.5548 4.86039 90.2909 4.13455 91.0275 3.40927C91.662 2.78462 92.2983 2.16186 92.9304 1.53484C93.0077 1.45809 93.0644 1.44135 93.1336 1.53385C93.1493 1.55488 93.1706 1.57175 93.1895 1.59043C94.3765 2.76684 95.562 3.9448 96.7514 5.11879C97.1657 5.52779 97.5898 5.927 98.023 6.34381C98.0798 6.28193 98.1406 6.20982 98.2073 6.14373C99.1571 5.20332 100.107 4.26329 101.058 3.32415C101.786 2.60523 102.515 1.88681 103.245 1.1699C103.626 0.795679 104.01 0.425197 104.396 0.0424642C104.412 0.0319014 104.426 0.0319014 104.453 0.0424946C104.926 0.510098 105.281 1.04099 105.531 1.63565C105.698 2.03223 105.831 2.44359 105.866 2.87923C105.875 2.99362 105.907 3.10621 105.928 3.21962C105.928 3.44343 105.928 3.66724 105.916 3.91001C105.912 3.99004 105.92 4.05111 105.928 4.11218C105.928 4.12635 105.928 4.14052 105.928 4.16531Z" fill="black"/>
<path d="M0.0319824 9.25929C0.0636797 9.15729 0.106384 9.07256 0.125342 8.98281C0.284583 8.22894 0.634641 7.58095 1.1579 7.01403C1.90662 6.20285 2.84266 5.73164 3.89053 5.45184C4.35653 5.32741 4.82883 5.23789 5.31356 5.22719C5.65637 5.21963 6.00071 5.18024 6.34145 5.20158C6.99649 5.24259 7.64229 5.3516 8.27302 5.54481C8.95754 5.7545 9.60964 6.02972 10.2001 6.43958C10.2723 6.48971 10.3488 6.53825 10.4071 6.60222C10.4482 6.64718 10.4842 6.71702 10.4844 6.77587C10.4887 8.04562 10.4877 9.31539 10.4875 10.5852C10.4875 10.6145 10.4848 10.6438 10.4818 10.7055C10.2791 10.5427 10.1072 10.3867 9.91765 10.2562C9.49468 9.96514 9.07235 9.67108 8.63236 9.40726C8.05403 9.06049 7.42623 8.82506 6.76414 8.69218C6.31429 8.6019 5.86398 8.5414 5.39866 8.59942C5.10153 8.63646 4.81455 8.69349 4.56386 8.84654C3.97856 9.20388 3.9342 9.98853 4.56218 10.3534C4.88618 10.5417 5.24739 10.6679 5.59649 10.8106C6.20149 11.058 6.81433 11.2865 7.41601 11.5415C7.93392 11.761 8.44816 11.9919 8.95054 12.2445C9.43533 12.4883 9.88048 12.794 10.2857 13.1631C10.8658 13.6915 11.2523 14.3309 11.3954 15.0942C11.4731 15.5084 11.47 15.941 11.4714 16.3654C11.4733 16.9022 11.3314 17.4116 11.1292 17.9093C10.8703 18.5468 10.456 19.0668 9.94981 19.5151C9.52043 19.8954 9.02785 20.1784 8.4999 20.4105C7.95519 20.65 7.38855 20.8094 6.80844 20.9021C6.33465 20.9778 5.84859 20.9953 5.36751 21.0012C4.90559 21.0069 4.43918 20.995 3.98167 20.9366C3.15038 20.8304 2.3356 20.6342 1.56839 20.2885C1.11188 20.0828 0.67308 19.8372 0.230978 19.6008C0.181005 19.5741 0.132159 19.4908 0.131904 19.4336C0.126295 18.1744 0.127602 16.9153 0.127874 15.6562C0.127878 15.6361 0.131469 15.6161 0.135907 15.5697C0.337564 15.6989 0.522424 15.8243 0.713868 15.9386C1.15404 16.2015 1.59303 16.4669 2.04067 16.7166C2.54159 16.9961 3.07023 17.2138 3.62012 17.3801C4.03598 17.5059 4.45666 17.6033 4.89162 17.6275C5.13852 17.6412 5.38725 17.6717 5.63249 17.6552C6.11607 17.6226 6.59635 17.5603 7.01516 17.2778C7.53959 16.9241 7.56655 16.1947 7.1642 15.7834C6.86867 15.4813 6.48655 15.3409 6.11215 15.1853C5.54637 14.9502 4.97335 14.7323 4.4095 14.4927C3.78854 14.2289 3.16647 13.9654 2.55967 13.6712C1.96526 13.3831 1.41723 13.0154 0.969384 12.5217C0.503566 12.0082 0.18406 11.4183 0.0941955 10.7193C0.0912466 10.6963 0.0693186 10.6758 0.04411 10.6506C0.0319823 10.1894 0.0319823 9.7318 0.0319824 9.25929Z" fill="black"/>
<path d="M81.2062 27.0318C81.0277 26.9999 80.8617 26.9774 80.7012 26.9343C80.3559 26.8416 80.0076 26.7549 79.6712 26.6354C79.2332 26.4799 78.8467 26.2226 78.4764 25.9454C78.3214 25.8294 78.1831 25.6912 78.021 25.549C78.4503 25.1352 78.8735 24.7313 79.292 24.3227C79.5923 24.0296 79.8865 23.7303 80.1832 23.4336C80.5251 23.0918 80.8654 22.7484 81.209 22.4084C82.0007 21.6254 82.7938 20.8438 83.5866 20.062C84.3152 19.3436 85.0443 18.6257 85.7731 17.9075C86.4981 17.1931 87.223 16.4786 87.948 15.7642C87.9664 15.7461 87.9859 15.7292 88.0428 15.6769C88.073 15.7255 88.0936 15.7778 88.1299 15.8144C88.6994 16.3868 89.2688 16.9593 89.8424 17.5276C90.392 18.0719 90.9435 18.6143 91.501 19.1505C91.6119 19.2572 91.5877 19.3215 91.4853 19.3998C91.4234 19.4471 91.3604 19.4942 91.3054 19.549C90.662 20.1902 90.0221 20.835 89.3772 21.4747C88.6131 22.2327 87.8453 22.987 87.0785 23.7423C86.4479 24.3633 85.8246 24.9921 85.183 25.6016C84.4827 26.2669 83.6633 26.7224 82.706 26.9021C82.4412 26.9518 82.1708 26.9721 81.8978 27.0189C81.6688 27.0318 81.445 27.0318 81.2062 27.0318Z" fill="black"/>
<path d="M38.0295 17.7875C38.0295 15.2754 38.0295 12.7794 38.0295 10.2739C39.3557 10.2739 40.6755 10.2739 42.0071 10.2739C42.0071 10.6766 42.0071 11.0827 42.0071 11.5126C42.194 11.3436 42.3531 11.179 42.5329 11.0411C42.9666 10.7086 43.4606 10.507 43.994 10.3899C44.5732 10.2627 45.1593 10.2623 45.7466 10.2644C45.9103 10.2649 46.0741 10.2645 46.2539 10.2645C46.2539 10.1991 46.2539 10.1426 46.2539 10.086C46.2539 9.49638 46.256 8.90671 46.2515 8.31709C46.2509 8.23046 46.2724 8.18395 46.3572 8.16016C46.894 8.00969 47.4302 7.85744 47.9661 7.70415C48.6939 7.49598 49.4212 7.28616 50.1491 7.07822C50.173 7.07141 50.2005 7.07736 50.2373 7.07736C50.2373 8.13876 50.2373 9.19393 50.2373 10.2617C51.09 10.2617 51.9317 10.2617 52.781 10.2617C52.781 11.456 52.781 12.6376 52.781 13.832C51.9372 13.832 51.0955 13.832 50.2385 13.832C50.2385 13.8957 50.2385 13.9471 50.2385 13.9984C50.2385 14.9971 50.2364 15.9958 50.2393 16.9945C50.241 17.5617 50.5526 17.931 51.1033 18.0372C51.5073 18.115 51.9049 18.041 52.2773 17.866C52.457 17.7816 52.6264 17.6752 52.8074 17.5749C52.8074 18.715 52.8074 19.8628 52.8074 21.0256C52.4082 21.188 51.9854 21.3256 51.5377 21.3553C51.0498 21.3876 50.5586 21.4366 50.0723 21.412C49.5023 21.3831 48.9468 21.2472 48.4184 21.0101C48.003 20.8236 47.632 20.5775 47.3102 20.2599C46.8319 19.7877 46.5264 19.2112 46.3885 18.5597C46.3072 18.1753 46.2655 17.7764 46.2597 17.3832C46.2431 16.2573 46.2539 15.1309 46.2539 14.0048C46.2539 13.9527 46.2539 13.9006 46.2539 13.8661C45.7532 13.8661 45.2629 13.8506 44.7741 13.8716C44.4495 13.8855 44.1226 13.9307 43.8046 13.9986C43.233 14.1206 42.7379 14.3876 42.3935 14.8776C42.1896 15.1678 42.0567 15.5012 42.0518 15.8519C42.0284 17.5543 42.0248 19.2569 42.0142 20.9594C42.0139 21.0225 42.0142 21.0855 42.0142 21.1574C40.6872 21.1574 39.3675 21.1574 38.0295 21.1574C38.0295 20.0407 38.0295 18.9221 38.0295 17.7875Z" fill="black"/>
<path d="M11.9539 12.5915C11.9539 11.8113 11.9539 11.0471 11.9539 10.2737C13.2803 10.2737 14.6 10.2737 15.9313 10.2737C15.9313 10.496 15.9313 10.7215 15.9313 10.972C16.3556 10.6397 16.8069 10.4085 17.2985 10.256C17.7105 10.1281 18.1293 10.041 18.563 10.0413C18.8499 10.0415 19.1393 10.0175 19.4233 10.0468C19.8625 10.0921 20.2906 10.1966 20.7067 10.3556C21.4898 10.6549 22.1452 11.1329 22.6986 11.7527C23.1308 12.2367 23.442 12.7976 23.6847 13.3978C23.8804 13.8816 24.0125 14.3862 24.0578 14.9013C24.1 15.3811 24.0728 15.8675 24.0657 16.3508C24.0585 16.8456 23.9312 17.3198 23.7792 17.7857C23.5555 18.4717 23.2087 19.0888 22.742 19.6433C22.2688 20.2055 21.702 20.6394 21.0429 20.9538C20.6254 21.153 20.1905 21.3136 19.7263 21.3543C19.2976 21.3919 18.8638 21.4395 18.4366 21.4128C17.6965 21.3665 16.9898 21.1702 16.3533 20.7683C16.2197 20.684 16.0861 20.5995 15.9421 20.5085C15.9421 22.2015 15.9421 23.8914 15.9421 25.5893C14.6098 25.5893 13.2901 25.5893 11.9539 25.5893C11.9539 21.2615 11.9539 16.9345 11.9539 12.5915ZM16.2885 17.1967C16.4503 17.3619 16.5952 17.5493 16.7771 17.6881C17.2566 18.0538 17.809 18.1421 18.3944 18.0416C19.0987 17.9207 19.6014 17.5124 19.9067 16.8854C20.1852 16.3134 20.2223 15.6981 20.0819 15.0768C19.9323 14.4149 19.5614 13.9107 18.9607 13.5964C18.6267 13.4216 18.2631 13.3539 17.8767 13.3821C17.6088 13.4016 17.3588 13.4594 17.1165 13.565C16.6179 13.7822 16.2814 14.1585 16.0682 14.6506C15.8591 15.1332 15.8059 15.6408 15.88 16.1554C15.9328 16.5217 16.0644 16.8679 16.2885 17.1967Z" fill="black"/>
<path d="M70.3749 20.4097C70.1139 20.2026 69.8426 20.0227 69.6158 19.7979C69.3222 19.5068 69.0372 19.1994 68.7966 18.8644C68.3741 18.2759 68.1006 17.6123 67.9654 16.8988C67.9134 16.624 67.8845 16.3429 67.8702 16.0634C67.8541 15.7507 67.8417 15.434 67.8722 15.1234C67.9218 14.6166 68.0381 14.1206 68.2311 13.6464C68.4434 13.1251 68.7194 12.6386 69.0735 12.2012C69.4007 11.7969 69.7838 11.4495 70.2127 11.1532C70.7347 10.7925 71.2908 10.4956 71.9029 10.327C72.3032 10.2168 72.7151 10.1447 73.1254 10.0772C73.3875 10.0341 73.6569 10.0061 73.9218 10.0139C74.8104 10.0399 75.6745 10.1929 76.4944 10.5568C77.0252 10.7925 77.5075 11.0987 77.9541 11.4701C78.5972 12.0049 79.087 12.6546 79.4332 13.4105C79.6472 13.8778 79.7996 14.3689 79.8501 14.8836C79.8834 15.2224 79.91 15.5632 79.9124 15.9033C79.9156 16.3667 79.8337 16.8226 79.7122 17.2685C79.5592 17.83 79.3173 18.3539 78.9917 18.8376C78.5103 19.5527 77.8901 20.1201 77.1511 20.5598C76.5244 20.9326 75.847 21.1769 75.1355 21.3224C74.5499 21.4421 73.9518 21.4569 73.3599 21.4149C72.4861 21.353 71.6517 21.1189 70.8726 20.7094C70.7049 20.6213 70.5469 20.5149 70.3749 20.4097ZM75.9011 15.1217C75.8899 15.061 75.8828 14.9991 75.867 14.9396C75.7334 14.4366 75.4667 14.0197 75.0362 13.7237C74.6436 13.4539 74.2065 13.349 73.7252 13.3835C73.275 13.4158 72.8809 13.5661 72.5469 13.8597C72.0245 14.3189 71.8257 14.9305 71.7928 15.6009C71.7806 15.8486 71.8121 16.1024 71.8552 16.348C71.9293 16.7705 72.1068 17.1552 72.408 17.4627C72.9156 17.9809 73.5398 18.1639 74.2531 18.0425C75.0419 17.9082 75.532 17.4278 75.8052 16.6972C75.9949 16.1901 76 15.6703 75.9011 15.1217Z" fill="black"/>
<path d="M34.3386 10.9568C34.7082 11.2522 35.1011 11.5075 35.4244 11.8321C36.1469 12.5576 36.616 13.4336 36.8533 14.4359C36.9981 15.0474 37.0171 15.6683 36.9683 16.2827C36.8834 17.35 36.5022 18.3232 35.8331 19.1632C35.3459 19.7747 34.7559 20.2759 34.0635 20.6549C33.4227 21.0056 32.7418 21.2463 32.0255 21.3469C31.4966 21.4211 30.9513 21.4456 30.4185 21.4114C29.4969 21.3523 28.6255 21.0824 27.8135 20.6302C27.2438 20.3129 26.737 19.9159 26.3058 19.431C25.6914 18.74 25.2757 17.9372 25.0634 17.0365C24.9268 16.4568 24.8867 15.8624 24.9335 15.2711C24.9991 14.443 25.2368 13.6596 25.6512 12.934C25.978 12.3616 26.4079 11.8795 26.9078 11.4524C27.2908 11.1251 27.7109 10.8614 28.1629 10.6444C28.6687 10.4014 29.1958 10.2218 29.7516 10.1391C30.0496 10.0948 30.3505 10.0689 30.6508 10.0422C31.4684 9.96924 32.2662 10.0884 33.0334 10.36C33.4792 10.5179 33.8989 10.7496 34.3386 10.9568ZM29.264 17.1912C29.418 17.3566 29.5525 17.5474 29.7295 17.6827C30.2327 18.0674 30.8211 18.1693 31.4234 18.0338C32.1264 17.8756 32.6121 17.4321 32.8666 16.7461C33.0629 16.2169 33.1004 15.6767 32.9913 15.1268C32.8778 14.5547 32.6124 14.0647 32.1289 13.7258C31.7357 13.4501 31.2889 13.349 30.8033 13.385C30.0482 13.4412 29.5076 13.8067 29.1565 14.4669C28.9343 14.8848 28.8665 15.3338 28.8779 15.8036C28.8899 16.2936 28.9914 16.753 29.264 17.1912Z" fill="black"/>
<path d="M91.2564 16.2654C90.628 15.5981 90.0076 14.9387 89.366 14.257C89.6147 14.0763 89.9278 13.8322 90.2574 13.6132C90.7855 13.2623 91.3788 13.0607 91.9967 12.9482C92.4767 12.8608 92.9636 12.8568 93.4539 12.9053C94.1619 12.9754 94.8258 13.179 95.4337 13.536C95.7787 13.7387 96.103 13.9867 96.4043 14.2511C96.7549 14.5588 97.0686 14.9082 97.4009 15.2369C98.2264 16.0535 99.0527 16.8694 99.88 17.6842C100.378 18.1747 100.879 18.6619 101.378 19.1517C101.522 19.2932 101.52 19.3097 101.36 19.4396C101.332 19.463 101.307 19.4914 101.281 19.5177C100.631 20.1675 99.9835 20.8194 99.3311 21.4666C98.5747 22.217 97.8149 22.9641 97.0549 23.711C96.6624 24.0968 96.2786 24.4926 95.8688 24.8593C95.2909 25.3764 94.6232 25.7475 93.8702 25.9432C93.562 26.0233 93.2418 26.0583 92.9258 26.1056C92.7813 26.1272 92.6339 26.1379 92.4877 26.1377C91.8299 26.1371 91.19 26.0254 90.5793 25.7806C89.9861 25.5429 89.4537 25.2034 88.9819 24.7692C88.886 24.681 88.8973 24.6276 88.9854 24.5413C89.796 23.7475 90.6018 22.9487 91.4106 22.153C91.8408 21.7297 92.2827 21.3181 92.7039 20.8862C93.2293 20.3476 93.7388 19.7936 94.2669 19.2338C93.3075 18.2879 92.286 17.2806 91.2564 16.2654Z" fill="black"/>
<path d="M62.9353 15.8004C62.9551 16.1299 63.0134 16.4386 63.1578 16.7224C63.4892 17.374 64.0226 17.7827 64.7295 17.9426C65.3997 18.0941 66.0603 18.0308 66.6942 17.7541C66.867 17.6786 67.0356 17.5934 67.2154 17.5083C67.2154 18.7194 67.2154 19.9355 67.2154 21.1946C66.7907 21.2584 66.3555 21.3423 65.9164 21.3841C65.5284 21.4209 65.1354 21.4292 64.7456 21.4173C64.0761 21.3971 63.4296 21.2482 62.8039 21.0082C62.2837 20.8086 61.8002 20.5408 61.3563 20.2073C60.7841 19.7774 60.3082 19.2553 59.9396 18.6398C59.6298 18.1225 59.3986 17.571 59.2736 16.9809C59.2169 16.7129 59.1956 16.4371 59.1656 16.164C59.1473 15.9974 59.1285 15.8288 59.1348 15.662C59.1638 14.8934 59.2987 14.1471 59.6111 13.4371C59.9389 12.6919 60.4153 12.0539 61.0221 11.5207C61.7999 10.8372 62.7051 10.3855 63.7198 10.1734C64.0638 10.1016 64.4181 10.0668 64.7696 10.046C65.1297 10.0247 65.495 10.0122 65.8527 10.0487C66.2874 10.0931 66.7167 10.1914 67.1477 10.2697C67.2344 10.2854 67.2304 10.357 67.2302 10.4283C67.2284 11.1561 67.2291 11.8838 67.2291 12.6116C67.2291 13.0469 67.2291 13.4821 67.2291 13.941C67.17 13.9206 67.1208 13.9118 67.08 13.8884C66.6886 13.664 66.2704 13.5066 65.8234 13.4573C65.3159 13.4013 64.813 13.4307 64.3329 13.6416C63.6469 13.9429 63.187 14.4382 63.0092 15.1725C62.9608 15.3727 62.9533 15.5828 62.9353 15.8004Z" fill="black"/>
<path d="M54.2285 10.2645C55.5285 10.2645 56.813 10.2645 58.1048 10.2645C58.1048 13.9006 58.1048 17.5262 58.1048 21.1591C56.7818 21.1591 55.4619 21.1591 54.1276 21.1591C54.1276 21.1151 54.1276 21.0742 54.1276 21.0334C54.1276 17.4951 54.1273 13.9568 54.13 10.4186C54.1301 10.3623 54.0716 10.2533 54.2285 10.2645Z" fill="black"/>
<path d="M54.6309 5.47337C55.1129 5.07742 55.6586 4.90352 56.2665 4.94329C56.7383 4.97415 57.1663 5.12679 57.5396 5.43237C57.8957 5.72391 58.145 6.08418 58.2454 6.52796C58.3975 7.19992 58.3094 7.83137 57.8677 8.39244C57.5397 8.80911 57.1134 9.06783 56.6043 9.1654C55.8408 9.31175 55.1456 9.1616 54.5597 8.61197C54.235 8.30737 54.0167 7.93984 53.9424 7.5102C53.8095 6.74071 54.0028 6.06012 54.5891 5.51543C54.6008 5.5046 54.6118 5.49305 54.6309 5.47337Z" fill="black"/>
</g>
<defs>
<clipPath id="clip0_2164_1494">
<rect width="105.896" height="27" fill="white"/>
</clipPath>
</defs>
</svg>
