<svg width="61" height="27" viewBox="0 0 61 27" fill="none" xmlns="http://www.w3.org/2000/svg">
<g clip-path="url(#clip0_2164_1512)">
<path d="M0.451172 27.0703C0.766957 26.3424 1.21456 25.6727 1.6184 24.9785C2.52137 23.4261 3.43683 21.881 4.34859 20.3337C5.20732 18.8765 6.07047 17.4218 6.92683 15.9632C7.81317 14.4535 8.69021 12.9384 9.57754 11.4293C10.8958 9.1872 12.2223 6.94997 13.5401 4.70759C14.4381 3.17941 15.3272 1.64594 16.2312 0.0925776C16.3172 0.0703125 16.3922 0.0703125 16.4953 0.0703125C16.5481 0.300995 16.3967 0.465733 16.2936 0.64157C15.1009 2.67628 13.9017 4.70716 12.7056 6.7399C12.6835 6.77755 12.6788 6.82548 12.6681 6.86116C12.7348 6.95645 12.8245 6.93486 12.9015 6.93311C14.2232 6.90308 15.5385 6.96908 16.8388 7.21969C18.5163 7.54303 20.0976 8.08204 21.2876 9.39369C21.9182 10.0888 22.2587 10.922 22.3145 11.8667C22.3288 12.1095 22.237 12.1956 21.9919 12.1937C20.8087 12.1849 19.6253 12.187 18.442 12.1922C18.2352 12.193 18.1387 12.1451 18.1055 11.9079C18.0178 11.281 17.5378 10.9602 17.0299 10.7076C16.4191 10.4037 15.7435 10.3256 15.0766 10.2104C14.4961 10.1102 13.9114 10.1386 13.3326 10.1058C12.4872 10.058 11.6318 10.1334 10.7844 10.2241C10.6816 10.235 10.6163 10.2846 10.5646 10.3738C10.196 11.0109 9.82861 11.6488 9.45 12.2799C9.31743 12.5009 9.43638 12.561 9.61485 12.6279C10.352 12.9045 11.1258 13.0147 11.8977 13.1195C13.3726 13.3197 14.8484 13.52 16.3287 13.6736C17.479 13.793 18.6211 13.9399 19.7168 14.317C20.9075 14.7267 21.9665 15.3308 22.4875 16.5632C23.1066 18.0276 22.9728 20.2035 21.5876 21.4661C20.751 22.2287 19.735 22.6697 18.6481 22.9502C17.3678 23.2806 16.0641 23.4398 14.7429 23.4379C13.6909 23.4364 12.6374 23.4854 11.5878 23.3699C9.75512 23.1684 7.96681 22.8229 6.40079 21.762C5.91246 21.4312 5.49767 21.0259 5.16919 20.5336C5.08618 20.4092 4.99135 20.2927 4.85402 20.1081C3.48334 22.4447 2.13945 24.7356 0.784501 27.0484C0.675781 27.0703 0.578125 27.0703 0.451172 27.0703ZM14.6374 16.7644C13.8231 16.7216 13.0196 16.5859 12.2116 16.4874C10.7101 16.3043 9.20479 16.1468 7.76509 15.6419C7.59736 15.5831 7.49157 15.6121 7.3964 15.7828C7.08355 16.344 6.75032 16.8938 6.42831 17.45C6.33861 17.605 6.18957 17.7366 6.20704 17.9747C6.90739 17.9747 7.59674 17.9789 8.28598 17.972C8.48561 17.97 8.62736 18.0149 8.67065 18.234C8.79058 18.8409 9.2185 19.1988 9.72238 19.4714C10.9492 20.1351 12.3099 20.1992 13.6559 20.2888C14.5767 20.3501 15.4985 20.2514 16.4137 20.1451C17.0056 20.0763 17.5852 19.9375 18.1051 19.6176C18.8533 19.1572 18.9027 18.1434 18.2026 17.6117C17.965 17.4313 17.6913 17.3363 17.412 17.2542C16.5264 16.9937 15.6084 16.9118 14.6374 16.7644Z" fill="black"/>
<path d="M60.8203 8.05324C59.8896 9.2515 58.9615 10.4191 58.0277 11.5821C57.0358 12.8174 56.0359 14.0463 55.0444 15.2819C54.3735 16.1179 53.7122 16.9616 53.0442 17.7999C52.9186 17.9574 52.8968 18.1348 52.8972 18.3273C52.9001 19.8148 52.8987 21.3024 52.8987 22.79C52.8987 22.9175 52.8987 23.045 52.8987 23.1442C52.7954 23.2502 52.6974 23.2319 52.606 23.2319C51.5284 23.2324 50.4507 23.221 49.3734 23.2368C49.0593 23.2414 48.9749 23.1332 48.9776 22.8308C48.9909 21.3903 48.9731 19.9493 48.9918 18.5089C48.9964 18.156 48.8907 17.8806 48.6789 17.6148C47.4208 16.0356 46.1646 14.455 44.9151 12.869C43.7457 11.3846 42.5864 9.89213 41.4201 8.40524C41.2041 8.12975 40.9775 7.86239 40.7523 7.5942C40.6616 7.48625 40.5681 7.38308 40.5756 7.22613C40.6631 7.11119 40.7894 7.14921 40.8991 7.14895C42.1758 7.14602 43.4526 7.15217 44.7292 7.1425C44.9508 7.14082 45.1015 7.21 45.2352 7.38178C46.4876 8.99096 47.7418 10.5988 49.0016 12.2022C49.6408 13.0157 50.2926 13.8194 50.9582 14.652C51.3169 14.3666 51.5463 13.9962 51.8146 13.6689C53.0637 12.145 54.2926 10.6046 55.5277 9.06928C55.9807 8.50618 56.4357 7.94458 56.8799 7.37454C57.0173 7.19811 57.1786 7.14188 57.3947 7.14354C58.3785 7.1511 59.3624 7.14799 60.3463 7.14577C60.486 7.14546 60.6256 7.12893 60.7928 7.11072C60.8203 7.40788 60.8203 7.71422 60.8203 8.05324Z" fill="black"/>
<path d="M25.2427 23.2299C24.2335 23.2302 24.2336 23.2302 24.2336 22.2536C24.2337 17.3909 24.2336 12.5282 24.2338 7.66552C24.2339 7.14819 24.2348 7.14737 24.7481 7.14734C28.357 7.14712 31.9661 7.13264 35.5748 7.15599C36.6943 7.16323 37.8096 7.29615 38.8637 7.72638C40.1204 8.23934 40.9281 9.16363 41.2625 10.4681C41.7183 12.2467 41.7594 14.021 41.0311 15.7519C40.5405 16.9177 39.6239 17.6139 38.4637 18.0261C37.6678 18.3088 36.8417 18.4426 35.9997 18.4454C33.5626 18.4533 31.1254 18.4478 28.6882 18.4478C28.227 18.4478 28.2216 18.4495 28.2209 18.9201C28.2189 20.2207 28.2117 21.5214 28.2279 22.8218C28.2319 23.1456 28.131 23.2449 27.8084 23.2371C26.9653 23.2166 26.1213 23.2299 25.2427 23.2299ZM35.1009 10.4318C34.8669 10.4321 34.6328 10.4328 34.3987 10.4328C32.4794 10.433 30.56 10.4315 28.6407 10.4341C28.1505 10.4347 28.1498 10.4406 28.1497 10.9175C28.1494 12.1932 28.1596 13.469 28.143 14.7444C28.1387 15.0769 28.2618 15.1715 28.573 15.1652C30.8521 15.1187 33.1338 15.2553 35.4109 15.0873C36.2014 15.029 36.9914 14.8395 37.3481 14.0454C37.7126 13.234 37.6412 12.3637 37.3616 11.5218C37.3301 11.4271 37.2487 11.3465 37.1818 11.2666C36.6556 10.6382 35.9092 10.5391 35.1009 10.4318Z" fill="black"/>
</g>
<defs>
<clipPath id="clip0_2164_1512">
<rect width="60.75" height="27" fill="white"/>
</clipPath>
</defs>
</svg>
