<svg width="129" height="27" viewBox="0 0 129 27" fill="none" xmlns="http://www.w3.org/2000/svg">
<g clip-path="url(#clip0_2164_1516)">
<path d="M0.228278 20.2323V16.6605H0.342597C1.88577 18.3465 3.77191 20.404 5.91456 20.404C7.14359 20.404 8.40081 19.7469 8.40081 18.318C8.40081 16.8606 7.02895 16.346 4.68616 15.5173C1.77209 14.5169 -0.000366211 13.317 -0.000366211 11.0309C-0.000366211 8.37301 2.34274 6.82983 5.57159 6.82983C7.29545 6.8705 8.99457 7.24912 10.5726 7.94422V11.3165H10.4586C8.97241 9.54472 7.22941 7.88722 5.28595 7.88722C4.02874 7.88722 2.82853 8.54465 2.82853 9.77336C2.82853 11.2022 4.3717 11.6595 6.65781 12.4313C9.82998 13.5168 11.116 14.8602 11.116 17.0035C11.116 20.1186 8.51545 21.5187 5.68656 21.5187C4.28652 21.518 2.40006 21.1469 0.228278 20.2323Z" fill="black"/>
<path d="M14.4602 17.3179V8.1443H12.3739V7.20124C15.0603 6.20084 16.4606 4.54334 17.575 2.57202H17.8312V7.00141H21.7748V8.14463H17.8322V16.9461C17.8322 18.5178 18.6039 19.261 19.8608 19.261C20.7238 19.2433 21.5648 18.9861 22.2901 18.5181C21.5756 20.1471 20.1766 21.5474 18.0608 21.5474C15.7747 21.5474 14.4602 19.9184 14.4602 17.3179Z" fill="black"/>
<path d="M22.878 23.1477L22.9353 23.1192C24.6498 24.8052 26.9359 25.6627 27.9648 23.1192L28.5092 21.7473L23.6513 10.8596C22.9081 9.23057 21.9365 7.63039 21.4222 7.08729V7.00146H27.1947V7.08729C26.7439 8.25903 26.7645 9.55982 27.252 10.7167L30.1952 17.4896L32.9101 10.7741C33.5387 9.23089 33.0814 7.60189 32.8816 7.08761V7.00179H36.0233V7.08761C35.3681 8.11754 34.7947 9.19736 34.3085 10.3171L28.9076 23.7196C27.5645 27.0628 25.3066 27.6344 22.1921 26.406L22.878 23.1477Z" fill="black"/>
<path d="M41.5111 21.2897H36.8242V21.1756C36.9385 20.6614 37.4816 18.8037 37.4816 17.0319V4.68649C37.4541 3.30267 37.2032 1.93238 36.7387 0.628562L36.7102 0.54274L37.3676 0.42842L40.8543 -0.000366211V17.0319C40.8543 18.8037 41.3987 20.6614 41.5117 21.1756L41.5111 21.2897Z" fill="black"/>
<path d="M43.1112 14.1454C43.1112 9.63022 46.0253 6.82983 50.0281 6.82983C54.2577 6.82983 56.3155 10.002 56.3155 13.7467H46.7973C46.9975 16.9759 48.4548 19.262 51.4842 19.262C53.0274 19.262 54.4562 18.7176 56.1137 17.3186L56.1992 17.4044C55.6997 18.6311 54.8454 19.6808 53.7457 20.419C52.646 21.1572 51.351 21.5504 50.0265 21.5481C46.4544 21.5472 43.1112 18.9466 43.1112 14.1454ZM46.7692 13.0599L52.8855 12.4024C52.7997 9.94469 51.9994 7.8584 49.9714 7.8584C47.6837 7.85872 46.7692 10.402 46.7692 13.0599Z" fill="black"/>
<path d="M58.7214 14.0986C58.7214 9.48254 61.4969 6.79456 65.1199 6.79456C66.8728 6.79456 68.3043 7.43757 69.6479 8.25543V10.9431H69.5314C68.5963 9.30706 67.4569 7.58328 65.1199 7.58328C62.0524 7.58328 60.2697 10.5934 60.2697 14.0986C60.2697 17.8091 62.3736 20.3508 65.4997 20.3508C66.8728 20.3508 68.5966 19.8541 70.2909 17.9843L70.3492 18.0134C69.1224 20.5259 67.0771 21.461 65.0334 21.461C61.38 21.4613 58.7214 18.5981 58.7214 14.0986Z" fill="black"/>
<path d="M71.9568 17.3707C71.9568 13.894 76.1643 11.9659 81.1015 13.0476H81.1595V11.0622C81.1595 8.69575 79.4652 7.64412 77.5953 7.64412C75.6378 7.64412 73.9726 9.10468 72.7746 10.7116H72.6869V8.08027C74.2094 7.27082 75.9009 6.83041 77.6248 6.79456C80.3708 6.79456 82.5621 8.13951 82.5621 10.914V19.3574C82.5621 20.5554 83.4677 20.7891 84.4319 20.5845V20.6723C84.2327 20.8711 83.9955 21.0279 83.7345 21.1333C83.4734 21.2387 83.1939 21.2906 82.9124 21.2858C81.8605 21.2858 81.1592 20.6133 81.1592 19.5037V19.2991C80.6139 19.9823 79.92 20.5321 79.1302 20.9067C78.3405 21.2813 77.4757 21.4709 76.6017 21.461C73.6806 21.4613 71.9568 19.5915 71.9568 17.3707ZM77.0404 20.614C78.5602 20.614 80.0794 19.7084 81.1598 18.2475V13.8652H81.131C76.3103 12.7841 73.4775 14.9168 73.4775 17.4002C73.4753 19.3283 75.2001 20.614 77.0404 20.614Z" fill="black"/>
<path d="M85.7175 19.913V17.4296H85.8053C86.9738 18.9779 88.6684 20.6431 90.8594 20.6431C92.4958 20.6431 94.2487 19.7084 94.2487 17.7217C94.2487 15.9396 92.8756 15.2966 90.4796 14.5079C87.7337 13.6023 85.7758 12.9884 85.7758 10.6805C85.7758 8.19715 87.938 6.79456 90.4796 6.79456C92.1216 6.84755 93.7261 7.29879 95.155 8.10941V10.3882H95.0675C93.811 8.72297 92.3501 7.61274 90.4803 7.61274C88.6982 7.61274 87.0622 8.60544 87.0622 10.2706C87.0622 11.9653 88.6105 12.3742 91.065 13.1629C93.6947 14.0102 95.4771 14.9158 95.4771 17.3701C95.4771 20.0581 93.4027 21.4607 90.7733 21.4607C89.1068 21.4613 87.4122 20.906 85.7175 19.913Z" fill="black"/>
<path d="M99.3038 17.9846V7.84646H97.1708V7.37861C99.3326 7.08656 99.9462 5.45052 100.209 3.49329H100.706V6.96968H104.855V7.84646H100.706V17.7216C100.706 19.4451 101.466 20.4093 102.985 20.4093C104.106 20.3806 105.185 19.9796 106.053 19.2696C105.68 19.9278 105.141 20.4766 104.49 20.8612C103.839 21.2458 103.098 21.4527 102.342 21.4613C100.297 21.4606 99.3038 19.913 99.3038 17.9846Z" fill="black"/>
<path d="M106.55 14.0986C106.55 9.77555 109.297 6.79456 112.744 6.79456C115.841 6.79456 118.442 9.21932 118.442 13.5145H108.098V14.0986C108.098 17.7214 110.144 20.3508 113.357 20.3508C115.081 20.3508 116.805 19.5912 118.5 17.6628L118.587 17.7214C117.389 20.2047 115.227 21.461 112.89 21.461C109.238 21.4613 106.55 18.4521 106.55 14.0986ZM108.187 12.696H116.834C116.659 9.3948 115.14 7.58295 112.744 7.58295C110.145 7.58327 108.566 9.71567 108.187 12.696Z" fill="black"/>
<path d="M123.321 21.2858H121.071V21.1981C121.36 20.0121 121.507 18.7958 121.509 17.575V10.6805C121.507 9.45979 121.36 8.2436 121.071 7.05776V6.97002H122.882V9.0736C123.474 8.1737 124.336 7.485 125.344 7.1069C126.352 6.72881 127.455 6.68087 128.492 6.97002L128.317 8.75209H128.229C126.768 7.70046 124.431 7.61272 122.881 9.7749V17.5753C122.882 18.7961 123.029 20.0124 123.319 21.1984L123.321 21.2858Z" fill="black"/>
<path d="M23.6452 7.00146H21.6989V8.14468H23.6452V7.00146Z" fill="black"/>
</g>
<defs>
<clipPath id="clip0_2164_1516">
<rect width="128.492" height="27" fill="white"/>
</clipPath>
</defs>
</svg>
