<svg width="113" height="27" viewBox="0 0 113 27" fill="none" xmlns="http://www.w3.org/2000/svg">
<g clip-path="url(#clip0_2164_1564)">
<path d="M51.7719 0.0356447C51.6879 0.320835 51.5951 0.609085 51.4852 0.890674C51.0654 1.96595 50.6423 3.0399 50.2164 4.11276C49.8368 5.06914 49.4497 6.02257 49.0699 6.97888C48.6776 7.96682 48.2906 8.95689 47.9002 9.94561C47.5601 10.8068 47.2175 11.6671 46.8779 12.5285C46.5279 13.4164 46.1819 14.3058 45.8309 15.1932C45.522 15.9746 45.2081 16.7541 44.8973 17.5348C44.5548 18.3951 44.2122 19.2553 43.8717 20.1164C43.5606 20.9029 43.2526 21.6907 42.9423 22.4775C42.5984 23.3494 42.2534 24.2209 41.9088 25.0925C41.6817 25.667 41.4544 26.2413 41.2249 26.8216C41.1676 26.8216 41.1145 26.8216 41.0613 26.8216C39.1536 26.8216 37.2458 26.8207 35.338 26.8239C35.2169 26.8241 35.1705 26.7949 35.1221 26.6691C34.724 25.6343 34.3059 24.6072 33.9013 23.5748C33.4865 22.5161 33.0839 21.4524 32.6688 20.3937C32.3015 19.4571 31.9207 18.5259 31.5529 17.5895C31.1601 16.5896 30.7786 15.5852 30.3865 14.5851C30.0423 13.707 29.6876 12.8331 29.3421 11.9555C28.9863 11.0515 28.638 10.1445 28.2827 9.24031C27.9609 8.42105 27.6322 7.60449 27.3102 6.78531C26.9548 5.88116 26.6048 4.97487 26.25 4.07047C25.891 3.15534 25.528 2.24178 25.1688 1.32674C25.0039 0.90673 24.8439 0.484814 24.6816 0.0497029C26.7392 0.0356447 28.7967 0.0356447 30.8711 0.0493951C30.9711 0.275622 31.0558 0.487541 31.1373 0.700677C31.4149 1.42662 31.6916 2.15292 31.9683 2.87922C32.2267 3.55749 32.4847 4.2359 32.7428 4.9143C33.0172 5.63542 33.2905 6.35691 33.5659 7.07764C33.8494 7.81974 34.1348 8.5611 34.4193 9.30281C34.6915 10.0125 34.9647 10.7218 35.2354 11.432C35.559 12.2811 35.8798 13.1313 36.2031 13.9806C36.4776 14.7016 36.7542 15.4219 37.0295 16.1427C37.313 16.8847 37.5955 17.6272 37.8796 18.369C38.0169 18.7277 38.1569 19.0853 38.313 19.4883C38.4093 19.2303 38.4872 19.0174 38.568 18.8055C38.8553 18.0526 39.1453 17.3007 39.431 16.5472C39.7046 15.8257 39.9715 15.1017 40.246 14.3807C40.5836 13.494 40.9287 12.6103 41.2658 11.7234C41.6069 10.8259 41.9396 9.92525 42.2808 9.02776C42.6483 8.06089 43.0226 7.09658 43.3917 6.13027C43.6914 5.34543 43.9873 4.55914 44.2857 3.77376C44.5333 3.12203 44.7841 2.47155 45.0294 1.81895C45.2523 1.22561 45.4697 0.630162 45.6896 0.0356445C47.7114 0.0356447 49.7333 0.0356447 51.7719 0.0356447Z" fill="#040707"/>
<path d="M24.3796 0.0356445C24.3963 1.81221 24.3963 3.58878 24.3963 5.37976C21.3302 5.37976 18.2722 5.37976 15.1998 5.37976C15.1998 12.4706 15.1998 19.5471 15.1998 26.6334C13.2212 26.6334 11.257 26.6334 9.27841 26.6334C9.27841 19.5577 9.27841 12.4813 9.27841 5.38571C6.19908 5.38571 3.13408 5.38571 0.0523602 5.38571C0.0356445 3.60329 0.0356445 1.82087 0.0356445 0.0356445C8.14471 0.0356445 16.2538 0.0356445 24.3796 0.0356445Z" fill="#040707"/>
<path d="M112.672 17.1391C107.64 17.1559 102.607 17.1559 97.5712 17.1559C97.5712 17.4817 97.5707 17.8037 97.5718 18.1257C97.5719 18.1603 97.5817 18.1947 97.585 18.2294C97.6327 18.7226 97.6762 19.2163 97.7286 19.709C97.7945 20.3291 97.9443 20.9311 98.1569 21.5161C98.4021 22.1909 98.7373 22.8131 99.2065 23.3656C99.8637 24.1393 100.698 24.6376 101.648 24.9368C102.161 25.0982 102.698 25.186 103.229 25.2852C104.063 25.4414 104.91 25.4215 105.75 25.3869C106.914 25.3391 108.058 25.1385 109.133 24.6656C109.855 24.3479 110.525 23.9329 111.161 23.4645C111.225 23.4169 111.289 23.3684 111.367 23.3098C111.549 23.5448 111.727 23.7724 111.903 24.0017C112.051 24.1944 112.192 24.3918 112.344 24.5814C112.402 24.6545 112.398 24.6792 112.318 24.7386C111.607 25.2624 110.856 25.7152 110.05 26.0752C109.315 26.4035 108.556 26.66 107.759 26.7841C107.203 26.8706 106.644 26.9334 106.08 27.0212C105.241 27.0356 104.408 27.0356 103.558 27.0356C103.439 27.0119 103.337 26.9741 103.233 26.9666C102.579 26.9192 101.938 26.7996 101.306 26.6306C100.5 26.4147 99.7289 26.1045 99.0343 25.6375C98.2502 25.1103 97.6098 24.4363 97.1239 23.6234C96.6735 22.8699 96.3678 22.0546 96.1712 21.2029C96.0545 20.6975 95.9864 20.1802 95.9106 19.6661C95.7914 18.8565 95.7564 18.0411 95.7649 17.2231C95.7712 16.6227 95.7384 16.0205 95.7738 15.4221C95.8112 14.7901 95.8813 14.1569 95.9876 13.5328C96.0973 12.8886 96.2294 12.2429 96.4212 11.6193C96.6543 10.8618 97.0083 10.1511 97.4784 9.5053C98.1316 8.60809 98.9627 7.92714 99.9665 7.45484C100.66 7.12832 101.381 6.88815 102.142 6.77717C102.589 6.71184 103.037 6.64054 103.487 6.60286C104.003 6.55971 104.522 6.51868 105.038 6.53426C105.91 6.56056 106.778 6.62693 107.633 6.83836C108.467 7.04458 109.25 7.34565 109.951 7.84622C110.595 8.30622 111.105 8.88274 111.502 9.57123C111.89 10.2452 112.131 10.9706 112.303 11.7191C112.412 12.1972 112.473 12.6883 112.525 13.1768C112.583 13.7125 112.605 14.252 112.658 14.7958C112.672 15.5754 112.672 16.3489 112.672 17.1391ZM99.2794 15.4438C103.147 15.4438 107.015 15.4438 110.901 15.4438C110.883 15.3258 110.861 15.2295 110.855 15.1322C110.816 14.5882 110.79 14.0433 110.744 13.5001C110.71 13.1127 110.679 12.7214 110.596 12.3427C110.455 11.6939 110.274 11.0582 109.939 10.4703C109.565 9.81328 109.048 9.31476 108.395 8.95522C107.523 8.47481 106.562 8.29367 105.586 8.24949C104.659 8.20753 103.727 8.2053 102.804 8.37788C101.991 8.52976 101.207 8.75211 100.491 9.17333C99.8525 9.54852 99.3203 10.0389 98.896 10.6494C98.4887 11.2354 98.2008 11.876 98.0187 12.5607C97.8977 13.0158 97.8187 13.4824 97.7296 13.9455C97.6837 14.1842 97.6479 14.4257 97.6242 14.6676C97.5992 14.9223 97.5941 15.1788 97.5799 15.4438C98.1516 15.4438 98.6976 15.4438 99.2794 15.4438Z" fill="#040707"/>
<path d="M55.5526 0.0356445C55.5693 8.31551 55.5693 16.5954 55.5693 24.8897C60.3831 24.8897 65.1889 24.8897 70.0045 24.8897C70.0045 25.4773 70.0045 26.0505 70.0045 26.6335C64.5579 26.6335 59.1101 26.6335 53.6433 26.6335C53.6433 17.779 53.6433 8.92404 53.6433 0.0523602C54.2742 0.0356445 54.905 0.0356445 55.5526 0.0356445Z" fill="#040707"/>
<path d="M79.8128 12.4004C79.7272 12.9101 79.63 13.4051 79.579 13.9049C79.5289 14.3958 79.5059 14.8914 79.5051 15.3849C79.4993 19.0642 79.502 22.7436 79.502 26.4229C79.502 26.4881 79.502 26.5533 79.502 26.6309C78.8897 26.6309 78.2808 26.6309 77.6595 26.6309C77.6595 20.1221 77.6595 13.6048 77.6595 7.07342C78.1321 7.05036 78.6146 7.02682 79.1029 7.003C79.1713 7.87549 79.2396 8.74712 79.3087 9.62782C79.509 9.33979 79.6864 9.05982 79.8887 8.7992C80.2246 8.36664 80.634 8.0127 81.1015 7.72506C81.7831 7.30573 82.5278 7.04441 83.2997 6.86088C83.6754 6.77154 84.0611 6.71444 84.4456 6.67404C84.9521 6.62082 85.4615 6.59366 85.9702 6.56436C86.3235 6.54402 86.6795 6.51063 87.0311 6.53313C87.7107 6.57663 88.3913 6.60468 89.0657 6.73322C89.782 6.86977 90.4678 7.07217 91.1137 7.41409C91.8239 7.79007 92.3768 8.32315 92.7823 9.01518C93.183 9.69889 93.4048 10.442 93.5173 11.2199C93.5772 11.6341 93.6319 12.0505 93.6577 12.4678C93.6971 13.1031 93.7289 13.7399 93.7299 14.3762C93.7362 18.3943 93.7331 22.4125 93.7331 26.4306C93.7331 26.4951 93.7331 26.5595 93.7331 26.6336C93.1153 26.6336 92.5065 26.6336 91.8784 26.6336C91.8784 26.5652 91.8784 26.4961 91.8784 26.427C91.8784 22.296 91.8876 18.1649 91.8711 14.0338C91.8676 13.1678 91.8173 12.2971 91.5935 11.4498C91.4302 10.8315 91.1837 10.2592 90.7559 9.76926C90.2681 9.2106 89.6478 8.87337 88.952 8.67432C88.5387 8.55607 88.1104 8.45822 87.6833 8.42674C86.9129 8.36997 86.137 8.33103 85.3659 8.35747C84.6517 8.38196 83.9422 8.49959 83.2513 8.71319C82.5851 8.91916 81.9629 9.2087 81.4303 9.65549C81.0629 9.96368 80.7347 10.3201 80.4827 10.7359C80.1805 11.2346 79.9718 11.7722 79.8235 12.3344C79.8191 12.3512 79.822 12.37 79.8128 12.4004Z" fill="#040707"/>
<path d="M74.58 9.87976C74.58 15.4725 74.58 21.0474 74.58 26.6328C73.9638 26.6328 73.3549 26.6328 72.7356 26.6328C72.7356 20.0942 72.7356 13.553 72.7356 7.00122C73.3415 7.00122 73.9504 7.00122 74.58 7.00122C74.58 7.95292 74.58 8.90742 74.58 9.87976Z" fill="#040707"/>
<path d="M73.1893 4.173C73.0296 4.173 72.8877 4.173 72.7356 4.173C72.7356 2.99777 72.7356 1.83026 72.7356 0.652344C73.3416 0.652344 73.9504 0.652344 74.5696 0.652344C74.5696 1.81722 74.5696 2.98473 74.5696 4.173C74.1174 4.173 73.6622 4.173 73.1893 4.173Z" fill="#040707"/>
</g>
<defs>
<clipPath id="clip0_2164_1564">
<rect width="112.637" height="27" fill="white"/>
</clipPath>
</defs>
</svg>
