<svg width="96" height="27" viewBox="0 0 96 27" fill="none" xmlns="http://www.w3.org/2000/svg">
<g clip-path="url(#clip0_2164_1576)">
<path d="M25.3563 0.0562748C25.7527 0.149985 26.1215 0.255907 26.496 0.334828C27.2423 0.492071 27.9904 0.641152 28.74 0.781011C29.4022 0.90455 30.0675 1.01157 30.7316 1.1248C31.5037 1.25643 32.2745 1.39709 33.0486 1.51504C33.8709 1.64031 34.6968 1.7418 35.5207 1.85688C36.444 1.98585 37.3655 2.12803 38.2901 2.24628C39.0004 2.33714 39.7149 2.39574 40.4267 2.47615C41.2101 2.56467 41.9919 2.66836 42.7758 2.75262C43.2526 2.80387 43.7323 2.82747 44.2102 2.86954C45.0264 2.94139 45.842 3.02002 46.6583 3.09152C46.9531 3.11735 47.2489 3.13421 47.5445 3.14937C48.3134 3.1888 49.0824 3.2252 49.8514 3.26248C50.6298 3.30022 51.4081 3.33899 52.1865 3.37454C52.66 3.39616 53.1335 3.41648 53.6072 3.43037C54.3619 3.4525 55.1167 3.4744 55.8716 3.48633C57.3201 3.50921 58.7686 3.53231 60.2172 3.54018C60.7938 3.54331 61.3708 3.51213 61.9472 3.486C62.6321 3.45494 63.317 3.41947 64.001 3.37303C64.7003 3.32555 65.3998 3.27406 66.097 3.20342C67.1012 3.10169 68.107 3.00519 69.1057 2.86206C70.2143 2.70318 71.3152 2.49121 72.4204 2.30807C74.004 2.04567 75.5649 1.68764 77.093 1.19486C77.7018 0.998552 78.3035 0.780454 78.907 0.567973C79.0694 0.510805 79.203 0.527691 79.3627 0.611131C80.0355 0.962586 80.6989 1.34615 81.4041 1.61815C82.4539 2.02301 83.5249 2.38402 84.6084 2.68693C85.4453 2.92091 86.3106 3.0672 87.1717 3.19612C87.8632 3.29963 88.5666 3.32929 89.2659 3.37229C90.0716 3.42184 90.8784 3.46835 91.6853 3.48167C92.3178 3.49211 92.9515 3.4591 93.5838 3.42795C93.9879 3.40804 94.3899 3.35105 94.7937 3.32099C95.0165 3.3044 95.2596 3.29309 95.3511 3.561C95.4264 3.78155 95.2948 3.93444 95.0143 3.99239C93.8327 4.23651 92.654 4.49623 91.4683 4.7185C90.5278 4.8948 89.5795 5.03041 88.6332 5.17398C87.721 5.31236 86.808 5.44625 85.8934 5.56657C84.9575 5.68968 84.0198 5.79915 83.0817 5.90475C82.3419 5.98803 81.6009 6.06121 80.8596 6.12992C80.1803 6.19289 79.5001 6.24613 78.8199 6.29941C78.295 6.34053 77.7698 6.37933 77.2443 6.41147C76.5599 6.45332 75.8754 6.49395 75.1904 6.52355C74.1873 6.56692 73.184 6.619 72.1803 6.63362C70.0195 6.66508 67.8584 6.68274 65.6974 6.69013C64.7833 6.69325 63.869 6.65884 62.9549 6.63657C62.3968 6.62297 61.8389 6.6027 61.2811 6.58066C60.3901 6.54545 59.4992 6.50912 58.6085 6.46786C57.8955 6.43483 57.1827 6.39782 56.4702 6.35522C55.6024 6.30333 54.7348 6.247 53.8676 6.18647C53.131 6.13506 52.3947 6.07898 51.6588 6.01762C50.8144 5.9472 49.9704 5.8719 49.1267 5.79273C48.3761 5.72229 47.6257 5.64898 46.8763 5.56738C45.8914 5.46014 44.9069 5.34885 43.9234 5.22937C43.0604 5.12453 42.1979 5.014 41.3372 4.89152C40.2075 4.73076 39.0777 4.56828 37.9518 4.3835C36.7936 4.19343 35.6375 3.98833 34.4849 3.76692C32.8893 3.46039 31.2972 3.13521 29.7048 2.81207C29.2083 2.71133 28.7166 2.58729 28.2205 2.4847C28.1508 2.47028 28.0505 2.49549 27.995 2.54033C27.8011 2.69696 27.6159 2.86537 27.4359 3.0381C26.85 3.60026 26.2706 4.16923 25.6835 4.7301C24.9903 5.39221 24.2919 6.04876 23.5955 6.70743C22.9059 7.35967 22.2158 8.01138 21.5262 8.66362C20.8298 9.32228 20.1337 9.98123 19.4376 10.6402C18.7279 11.3121 18.0184 11.9842 17.3087 12.6561C16.6126 13.3151 15.9162 13.9738 15.22 14.6327C14.5238 15.2915 13.8277 15.9506 13.1313 16.6092C12.4417 17.2615 11.7516 17.9132 11.062 18.5654C10.3656 19.2241 9.66951 19.883 8.97339 20.542C8.26366 21.2139 7.55415 21.886 6.84441 22.5578C6.1483 23.2168 5.45215 23.8757 4.75578 24.5344C4.06622 25.1867 3.3717 25.8338 2.68897 26.4932C2.4189 26.754 2.11395 26.8788 1.73924 26.8935C1.43043 26.9057 1.1237 26.9707 0.808019 27.0343C0.610912 27.0563 0.42184 27.0563 0.207171 27.0342C0.270675 26.7387 0.359358 26.4652 0.448947 26.192C0.878849 24.881 1.30845 23.5699 1.73921 22.2592C2.15306 21 2.5682 19.7412 2.98277 18.4822C3.39734 17.2232 3.81248 15.9645 4.22632 14.7052C4.65709 13.3945 5.08532 12.083 5.51697 10.7726C6.11789 8.94831 6.72283 7.12534 7.32151 5.30031C7.44082 4.93663 7.53971 4.56625 7.65673 4.1694C7.52622 4.20175 7.46319 4.214 7.40226 4.23298C6.33534 4.56537 5.27836 4.93517 4.19909 5.22075C3.22725 5.4779 2.23373 5.65754 1.24398 5.83992C0.936657 5.89655 0.608086 5.87383 0.293666 5.84272C0.101486 5.8237 0.0574835 5.62759 0.190725 5.47927C0.250339 5.41292 0.332936 5.36626 0.407982 5.31487C0.879456 4.992 1.37937 4.70374 1.81792 4.34118C2.69069 3.61965 3.25448 2.6697 3.66281 1.62547C3.71399 1.49458 3.72794 1.47303 3.88363 1.5061C5.07621 1.75939 6.27605 1.96791 7.50454 1.85557C8.07182 1.8037 8.64151 1.76559 9.20467 1.68382C10.4624 1.5012 11.6739 1.13947 12.8611 0.690445C13.0824 0.606721 13.3155 0.553897 13.6008 0.46983C13.5624 0.652896 13.5509 0.770221 13.513 0.878314C13.2538 1.61809 12.9881 2.35556 12.7264 3.09446C12.1819 4.6317 11.6387 6.16937 11.0949 7.70687C10.5512 9.24436 10.0064 10.7815 9.46391 12.3194C8.79562 14.2141 8.12863 16.1092 7.46247 18.0047C7.30033 18.466 7.14367 18.9293 6.98449 19.3917C7.00914 19.4105 7.03379 19.4293 7.05844 19.4481C7.16218 19.3535 7.27436 19.2666 7.36824 19.1631C7.85905 18.622 8.34188 18.0737 8.83381 17.5337C9.47705 16.8276 10.1257 16.1263 10.773 15.4239C11.4456 14.6939 12.1197 13.9653 12.7926 13.2355C13.2264 12.7651 13.6589 12.2934 14.0926 11.8229C14.759 11.0999 15.4264 10.3778 16.0925 9.6546C16.7397 8.95202 17.3849 8.24767 18.0325 7.54552C18.7182 6.8021 19.4065 6.06114 20.0921 5.31765C20.7397 4.61544 21.3824 3.90876 22.0324 3.20883C22.6144 2.5821 23.2077 1.96576 23.788 1.33747C24.1763 0.917069 24.5506 0.48379 24.9312 0.0562744C25.0646 0.0562749 25.1979 0.0562749 25.3563 0.0562748Z" fill="black"/>
<path d="M29.5888 9.20792C30.5327 8.48208 31.6145 8.16037 32.7415 7.92576C34.4781 7.56425 36.2356 7.6136 37.9854 7.66619C39.4884 7.71137 40.978 7.96668 42.3756 8.55904C43.4873 9.0302 44.4474 9.70804 44.9808 10.8518C45.1934 11.3076 45.3065 11.7829 45.3602 12.2889C45.4672 13.2954 45.2672 14.2223 44.7933 15.1045C44.157 16.2889 43.1473 16.9985 41.8871 17.3777C41.1752 17.5918 40.4369 17.6573 39.699 17.5988C39.1111 17.5521 38.5285 17.4385 37.8939 17.3475C37.9412 17.8528 37.9745 18.3676 38.0409 18.878C38.1185 19.474 38.1833 20.0766 38.3281 20.6577C38.5735 21.6417 38.9368 22.5718 39.7023 23.3017C40.4578 24.022 41.8423 23.8701 42.2063 22.7557C42.2956 22.4823 42.3874 22.2097 42.4805 21.9375C42.5504 21.7328 42.6608 21.7001 42.8163 21.8515C43.341 22.3623 43.6271 22.985 43.6618 23.7181C43.6921 24.3581 43.6127 24.9772 43.2889 25.5455C42.9157 26.2005 42.3094 26.5331 41.6107 26.7007C40.8138 26.8917 40.0084 26.8783 39.2213 26.6348C38.2781 26.343 37.5903 25.7234 37.089 24.8892C36.5595 24.0082 36.2931 23.0393 36.1183 22.032C35.9321 20.9589 35.8668 19.88 35.9088 18.7978C35.9376 18.0553 36.0472 17.3159 36.1251 16.5756C36.1567 16.2754 36.198 15.9762 36.2383 15.677C36.2719 15.4268 36.3934 15.352 36.608 15.4851C37.4351 15.9982 38.347 16.0932 39.2843 16.025C39.7707 15.9896 40.2025 15.7689 40.5892 15.4741C41.3441 14.8987 41.6793 14.1084 41.8145 13.1871C41.9539 12.2379 41.7395 11.3942 41.1836 10.636C40.7671 10.0678 40.1803 9.70824 39.5299 9.4663C38.9116 9.23627 38.2699 9.10966 37.6031 9.10462C37.3881 9.103 37.3108 9.18929 37.2595 9.36491C36.7887 10.9754 36.3185 12.5861 35.8434 14.1953C35.3402 15.8996 34.8301 17.6019 34.3262 19.3059C33.8299 20.9841 33.3366 22.6631 32.8443 24.3424C32.7454 24.6797 32.8161 24.8189 33.1434 24.9155C33.4892 25.0175 33.8361 25.1221 34.1893 25.1903C34.3778 25.2268 34.3912 25.2884 34.328 25.4415C34.273 25.5745 34.239 25.7161 34.1921 25.8654C31.9443 25.8654 29.6869 25.8654 27.4066 25.8654C27.4647 25.6807 27.5123 25.5013 27.5803 25.3299C27.6019 25.2755 27.6715 25.2238 27.7303 25.2034C27.9686 25.1212 28.2068 25.0247 28.4534 24.9833C28.9221 24.9045 29.099 24.6037 29.2157 24.1793C29.4716 23.2491 29.7744 22.3319 30.0486 21.4066C30.5587 19.6854 31.0617 17.9621 31.5683 16.24C32.0929 14.4572 32.6182 12.6746 33.1435 10.892C33.2863 10.4076 33.4332 9.92431 33.5706 9.43836C33.5974 9.34353 33.5892 9.23881 33.5977 9.13287C32.8599 9.29105 32.1659 9.51147 31.5695 9.95863C31.1555 10.2691 30.9218 10.6837 30.8906 11.2131C30.8621 11.697 30.9737 12.13 31.2422 12.5363C31.4427 12.8397 31.2677 13.2517 30.8823 13.3046C30.1845 13.4003 29.4865 13.3675 28.9754 12.783C28.5514 12.298 28.4307 11.7114 28.5036 11.0749C28.5925 10.2989 29.008 9.71876 29.5888 9.20792Z" fill="black"/>
<path d="M65.2633 10.0762C65.1364 9.77918 64.9149 9.6731 64.6222 9.67386C63.5631 9.6766 62.5039 9.67862 61.4449 9.67132C61.2683 9.6701 61.2002 9.71932 61.1484 9.89917C60.7291 11.3552 60.2936 12.8066 59.8623 14.2592C59.6726 14.8979 59.4814 15.5362 59.2833 16.1999C60.3206 16.1999 61.3324 16.1783 62.3425 16.2099C62.7851 16.2238 63.0473 16.0397 63.2698 15.6956C63.5211 15.307 63.8099 14.9427 64.0608 14.5539C64.1528 14.4112 64.2564 14.3923 64.3998 14.3981C64.5851 14.4056 64.771 14.3999 65.0297 14.3999C64.9567 14.7103 64.9033 14.9905 64.8244 15.2634C64.4114 16.6933 63.9911 18.1211 63.576 19.5504C63.5394 19.6762 63.4983 19.7595 63.3375 19.7479C63.1067 19.7313 62.8738 19.7437 62.6187 19.7437C62.6187 19.0977 62.6192 18.4724 62.6186 17.8471C62.6183 17.5633 62.5071 17.4399 62.2256 17.439C61.1296 17.4352 60.0336 17.4374 58.9219 17.4374C58.2104 19.8371 57.5006 22.2309 56.787 24.6374C58.478 24.6374 60.1632 24.6428 61.8484 24.6328C62.1765 24.6309 62.4389 24.4452 62.6391 24.1926C63.258 23.412 63.8686 22.6249 64.4886 21.8452C64.526 21.7982 64.6157 21.7739 64.6821 21.7721C64.9626 21.7641 65.2434 21.7687 65.5583 21.7687C64.9052 23.3155 64.2615 24.8399 63.6107 26.3812C63.4692 26.3812 63.32 26.3741 63.1718 26.3831C63.0187 26.3924 62.9341 26.3309 62.8323 26.2095C62.7251 26.0816 62.5466 25.9809 62.3819 25.9417C62.1425 25.8849 61.8876 25.8777 61.6392 25.8774C58.2088 25.8738 54.7784 25.8749 51.348 25.8749C51.2466 25.8749 51.1453 25.8749 51.0457 25.8749C51.0418 25.8376 51.0369 25.8192 51.0384 25.8015C51.0916 25.1921 51.5675 25.1303 52.024 25.0283C52.3651 24.9521 52.7561 24.9453 52.9756 24.6216C53.129 24.3952 53.2462 24.1325 53.326 23.8698C53.7268 22.5493 54.1079 21.2229 54.4999 19.8998C55.0072 18.1875 55.5206 16.477 56.0271 14.7645C56.4568 13.3113 56.8803 11.8564 57.3066 10.4023C57.3143 10.3761 57.323 10.3503 57.3308 10.3242C57.558 9.56257 57.3838 9.50301 56.7966 9.37925C56.5867 9.335 56.3895 9.23325 56.1824 9.17133C56.0408 9.12899 56.0233 9.0698 56.0699 8.92955C56.214 8.49636 56.2059 8.49369 56.6485 8.49369C59.5165 8.49369 62.3846 8.49828 65.2526 8.48831C65.644 8.48695 66.0449 8.49076 66.3364 8.10188C66.4179 7.99304 66.716 8.04648 66.9618 8.02051C66.9618 9.44839 66.9618 10.8434 66.9618 12.2507C66.6885 12.2507 66.3915 12.2507 66.084 12.2507C65.8134 11.5389 65.5395 10.8185 65.2633 10.0762Z" fill="black"/>
<path d="M12.3481 23.0736C12.6186 22.7477 12.8713 22.4331 13.1304 22.124C13.7327 21.4056 14.336 20.6879 14.9432 19.9736C15.3072 19.5453 15.6825 19.1266 16.0469 18.6985C16.5411 18.1178 17.0278 17.5307 17.5213 16.9493C17.879 16.5279 18.2456 16.114 18.603 15.6923C19.0899 15.1176 19.5698 14.537 20.0567 13.9622C20.4079 13.5476 20.7677 13.1402 21.1197 12.7262C21.6318 12.124 22.1379 11.5165 22.6512 10.9152C23.0222 10.4806 23.4051 10.0561 23.7748 9.62027C24.2439 9.06722 24.704 8.50654 25.1701 7.95091C25.3126 7.78114 25.4464 7.59907 25.6132 7.45655C25.736 7.35162 25.8986 7.26926 26.0562 7.23392C26.4543 7.14469 26.8595 7.08768 27.2897 7.01294C27.2709 7.40989 27.2623 7.77778 27.2335 8.14407C27.2098 8.44526 27.1502 8.74366 27.1275 9.04488C27.0816 9.65369 27.056 10.264 27.0111 10.8729C26.9413 11.8203 26.8631 12.7672 26.7872 13.7142C26.732 14.4034 26.6747 15.0925 26.6188 15.7818C26.5622 16.4803 26.5059 17.1789 26.45 17.8775C26.3934 18.5854 26.3377 19.2934 26.2811 20.0013C26.2252 20.7 26.1684 21.3985 26.1125 22.0971C26.0559 22.805 25.9988 23.5129 25.9441 24.221C25.8984 24.8127 25.95 24.8829 26.5291 25.0359C26.7384 25.0912 26.9512 25.1365 27.1551 25.2074C27.2028 25.2239 27.2561 25.3327 27.2456 25.3874C27.2141 25.5519 27.1523 25.7107 27.1035 25.8679C24.97 25.8679 22.853 25.8679 20.7359 25.8679C20.7488 25.3822 20.8945 25.2124 21.3942 25.0882C21.6128 25.0338 21.8314 24.9788 22.0481 24.9172C22.3153 24.8412 22.4679 24.6326 22.5039 24.3851C22.5701 23.9299 22.5841 23.4674 22.6258 23.0085C22.674 22.4784 22.7286 21.9489 22.7828 21.3951C22.7249 21.3891 22.6567 21.3759 22.5886 21.3759C20.3672 21.3748 18.1458 21.3812 15.9245 21.3687C15.5679 21.3666 15.5005 21.667 15.3372 21.8477C14.9139 22.3158 14.5313 22.8207 14.1348 23.3128C13.8423 23.6759 13.5461 24.0363 13.2659 24.4088C13.0926 24.6392 13.1544 24.8149 13.4352 24.9092C13.7681 25.021 14.1076 25.1133 14.4882 25.2272C14.443 25.4116 14.4091 25.6057 14.3418 25.7873C14.3237 25.836 14.2037 25.8712 14.1303 25.8714C12.3965 25.876 10.6626 25.875 8.90628 25.875C8.98056 25.6877 9.01781 25.4878 9.12949 25.3469C9.21407 25.2402 9.38766 25.1744 9.53184 25.1495C10.2612 25.0237 10.9215 24.779 11.4088 24.1842C11.7117 23.8143 12.0247 23.4527 12.3481 23.0736ZM18.1531 20.0812C19.7329 20.0812 21.3127 20.0812 22.8779 20.0812C22.9271 19.6501 22.9791 19.2498 23.0173 18.8482C23.0967 18.0147 23.1725 17.1808 23.2426 16.3464C23.3043 15.6114 23.3556 14.8755 23.4129 14.14C23.4316 13.9014 23.4546 13.6631 23.4758 13.4246C23.5225 12.8972 23.5693 12.3698 23.6161 11.8424C23.5891 11.8357 23.5622 11.8291 23.5352 11.8224C21.3167 14.5608 19.0981 17.2991 16.8441 20.0812C17.2993 20.0812 17.6981 20.0812 18.1531 20.0812Z" fill="black"/>
<path d="M79.326 11.8074C79.1563 11.261 78.9892 10.7371 78.8183 10.2145C78.6833 9.8017 78.5057 9.6751 78.0747 9.67502C77.5498 9.67491 77.0247 9.68001 76.4998 9.67198C76.3395 9.66953 76.2608 9.70218 76.2097 9.87864C75.8512 11.1177 75.4756 12.3518 75.1061 13.5878C74.5248 15.5324 73.9444 17.4774 73.3629 19.422C72.8798 21.038 72.3941 22.6532 71.9136 24.27C71.8134 24.6073 71.9151 24.7966 72.2577 24.9013C72.6365 25.0171 73.0214 25.113 73.4444 25.2287C73.3966 25.4408 73.3494 25.6501 73.3007 25.8659C70.8547 25.8659 68.4184 25.8659 65.9603 25.8659C66.0096 25.6987 66.0419 25.5246 66.1149 25.3698C66.1503 25.2946 66.2545 25.2292 66.3406 25.2043C66.825 25.0639 67.3166 24.9477 67.7989 24.8008C68.0074 24.7372 68.1273 24.5752 68.1942 24.3496C68.653 22.802 69.1297 21.2597 69.5928 19.7133C70.1597 17.8207 70.7176 15.9254 71.2818 14.032C71.7119 12.589 72.1458 11.1472 72.5869 9.6754C71.8276 9.6754 71.087 9.63668 70.3547 9.698C70.1223 9.71746 69.8633 9.96558 69.7009 10.1746C69.2105 10.8057 68.7646 11.4711 68.2923 12.1165C68.2406 12.1872 68.1327 12.2495 68.0465 12.2559C67.7972 12.2745 67.5457 12.2625 67.254 12.2625C67.7126 10.8385 68.16 9.44954 68.6128 8.04374C68.705 8.04374 68.8083 8.05328 68.9092 8.04174C69.1157 8.01813 69.2564 8.06671 69.3781 8.26581C69.5117 8.48413 69.7841 8.48878 70.0125 8.48932C72.8999 8.49605 75.7874 8.49923 78.6748 8.4853C78.9657 8.4839 79.3654 8.46014 79.5225 8.27959C79.7932 7.96837 80.0742 8.07547 80.3784 8.03926C80.407 9.52347 80.4352 10.9869 80.4642 12.4874C80.1849 12.4874 79.926 12.4982 79.6692 12.4796C79.6075 12.4752 79.5307 12.3837 79.4995 12.3147C79.4292 12.1591 79.3831 11.9926 79.326 11.8074Z" fill="black"/>
<path d="M86.9599 19.0492C86.4742 20.6308 86.0013 22.1929 85.5291 23.7552C85.4743 23.9363 85.4243 24.1187 85.3697 24.2998C85.2807 24.5952 85.367 24.7756 85.6688 24.8605C86.1031 24.9826 86.541 25.0929 86.98 25.197C87.1219 25.2306 87.1723 25.2621 87.0944 25.4159C87.0263 25.5503 87.0046 25.7082 86.9596 25.8655C84.4628 25.8655 81.9621 25.8655 79.4868 25.8655C79.451 25.1533 80.0201 25.1571 80.4887 25.0295C80.7828 24.9495 81.0913 24.8897 81.3589 24.7533C81.6987 24.5802 81.7464 24.1905 81.8455 23.8672C82.2078 22.686 82.545 21.4971 82.894 20.3119C83.2074 19.2477 83.5356 18.1876 83.8276 17.1176C83.8754 16.9426 83.7832 16.7223 83.7328 16.529C83.4297 15.3667 83.1229 14.2054 82.8116 13.0452C82.5379 12.0251 82.2385 11.0114 81.9881 9.98572C81.8867 9.57065 81.6322 9.38825 81.2644 9.29267C81.0553 9.23834 80.8426 9.19767 80.6038 9.1447C80.6376 8.9607 80.6492 8.77553 80.7133 8.61084C80.7379 8.54772 80.8825 8.49878 80.9725 8.49849C82.9313 8.4922 84.8901 8.4937 86.8489 8.4937C86.9417 8.4937 87.0345 8.4937 87.1522 8.4937C87.1283 8.55594 87.097 8.59668 87.1006 8.63404C87.1465 9.10809 86.8301 9.21356 86.4616 9.28438C86.2589 9.32332 86.0603 9.38809 85.8634 9.452C85.5651 9.54886 85.4792 9.72868 85.5579 10.0404C86.0315 11.9159 86.503 13.7919 86.976 15.6676C86.9956 15.7456 87.0233 15.8215 87.0605 15.9409C87.3417 15.5582 87.6059 15.1916 87.8774 14.8304C88.5787 13.8974 89.2836 12.9671 89.9863 12.0352C90.5021 11.3512 91.021 10.6695 91.5299 9.98054C91.7495 9.68326 91.6768 9.49126 91.3238 9.40053C90.9998 9.31724 90.674 9.23985 90.3466 9.17133C90.2052 9.14174 90.1344 9.102 90.2328 8.95539C90.2461 8.93562 90.2339 8.90014 90.238 8.87261C90.2775 8.61074 90.3742 8.47849 90.695 8.48341C92.2028 8.50654 93.7111 8.4937 95.2148 8.4937C95.2267 8.52254 95.2384 8.53792 95.2388 8.55356C95.2532 9.15909 94.8051 9.27027 94.359 9.33086C93.6835 9.4226 93.2615 9.83582 92.8767 10.348C92.3058 11.1078 91.7052 11.8452 91.117 12.592C90.6191 13.2242 90.118 13.8539 89.6236 14.4889C89.1979 15.0357 88.824 15.6309 88.3475 16.1283C87.6807 16.8243 87.3136 17.6456 87.0892 18.5556C87.0502 18.7136 87.0116 18.8717 86.9599 19.0492Z" fill="black"/>
<path d="M47.2063 18.3371C47.5448 17.1529 47.8791 15.991 48.2227 14.8319C48.7021 13.2146 49.1893 11.5997 49.6705 9.98301C49.7358 9.76371 49.6251 9.58866 49.3853 9.50437C49.0215 9.37651 48.6578 9.24855 48.2904 9.11938C48.3523 8.90056 48.4091 8.69929 48.4654 8.50012C50.7861 8.50012 53.0909 8.50012 55.4088 8.50012C55.3699 8.66288 55.3516 8.82522 55.2889 8.96803C55.2522 9.05163 55.1551 9.13578 55.067 9.16504C54.6909 9.28992 54.3114 9.40789 53.9268 9.50247C53.5679 9.59072 53.3871 9.83245 53.2898 10.1587C52.9187 11.4033 52.5539 12.6499 52.1822 13.8943C51.5963 15.8563 51.0043 17.8165 50.4195 19.7788C50.0099 21.1532 49.6081 22.5299 49.2023 23.9054C49.1589 24.0525 49.1045 24.1967 49.0679 24.3454C48.9923 24.6526 49.0869 24.8158 49.4041 24.919C49.753 25.0325 50.1049 25.1368 50.4314 25.2377C50.4513 25.276 50.4598 25.2848 50.458 25.29C50.2563 25.875 50.2562 25.875 49.6112 25.875C47.6803 25.875 45.7493 25.875 43.8183 25.875C43.7161 25.875 43.6139 25.875 43.5107 25.875C43.5485 25.3526 43.6844 25.2016 44.1512 25.084C44.4292 25.0139 44.7084 24.9307 44.9687 24.8129C45.4101 24.613 45.4955 24.1661 45.6201 23.7621C45.8752 22.9345 46.1168 22.1028 46.3602 21.2716C46.6443 20.3019 46.9243 19.3311 47.2063 18.3371Z" fill="black"/>
</g>
<defs>
<clipPath id="clip0_2164_1576">
<rect width="96" height="27" fill="white"/>
</clipPath>
</defs>
</svg>
