<svg width="102" height="27" viewBox="0 0 102 27" fill="none" xmlns="http://www.w3.org/2000/svg">
<g clip-path="url(#clip0_2164_1761)">
<path d="M19.2236 27.0004H3.36358L0 0.0624169H10.2599L12.4041 18.0517L18.3286 0.0624169H29.4523L19.2236 27.0004ZM31.3187 0.0311863H42.489V26.9692H31.3187V0.0311863ZM62.7632 18.729C62.7632 21.5677 61.9918 22.4165 60.2461 22.4165H58.2418V14.8727H60.2461C62.0822 14.8727 62.7632 15.8138 62.7632 18.7299M72.1897 19.2389C72.1897 14.3637 69.8125 13.5456 66.6199 12.867C69.8446 12.219 72.1897 11.3241 72.1897 6.66465C72.1897 0.894456 66.7896 -0.000976562 62.3003 -0.000976562H47.0878V26.9986H62.3003C66.9751 26.9986 72.1897 25.9185 72.1897 19.238M62.7632 7.8682C62.7632 10.5992 61.961 11.3241 60.2461 11.3241H58.2418V4.58199H60.2461C61.9587 4.58199 62.7632 5.43035 62.7632 7.8682ZM101.272 14.9039V7.01984C101.272 1.24965 94.2674 -4.43063e-05 88.2968 -4.43063e-05C82.2954 -4.43063e-05 75.3524 1.23426 75.3524 7.01984V19.2394C75.3524 25.9199 81.9868 27 88.2968 27C94.576 27 101.272 25.9353 101.272 19.2394V16.445H91.2436V18.8982C91.2436 21.7369 90.6265 22.4161 88.8664 22.4161C87.0611 22.4161 86.4598 21.7374 86.4598 18.8982V14.9021L101.272 14.9039ZM86.4607 7.69899C86.4607 5.26114 87.2014 4.58246 88.8673 4.58246C90.5332 4.58246 91.2446 5.26114 91.2446 7.69899V11.2015H86.4607V7.69899Z" fill="black"/>
</g>
<defs>
<clipPath id="clip0_2164_1761">
<rect width="101.272" height="27" fill="white"/>
</clipPath>
</defs>
</svg>
