<svg width="92" height="27" viewBox="0 0 92 27" fill="none" xmlns="http://www.w3.org/2000/svg">
<g clip-path="url(#clip0_2164_1604)">
<path d="M30.528 27.072C27.9345 27.072 25.341 27.072 22.7138 27.0413C22.5844 26.6174 22.495 26.2226 22.3922 25.8313C21.8752 23.864 21.3551 21.8974 20.8355 19.9308C20.2982 17.8972 19.7613 15.8635 19.2209 13.8308C19.1537 13.5779 19.0655 13.3306 18.9677 13.019C18.8697 13.1333 18.8219 13.1645 18.8111 13.2054C18.6101 13.9655 18.4155 14.7272 18.2155 15.4876C17.8687 16.8067 17.5215 18.1258 17.1699 19.4437C16.7531 21.0066 16.3317 22.5683 15.9119 24.1305C15.6483 25.1111 15.384 26.0915 15.12 27.072C12.5265 27.072 9.93301 27.072 7.2978 27.0447C7.13371 26.5623 7.01234 26.1068 6.8888 25.6519C6.17757 23.0329 5.46276 20.4148 4.75511 17.7948C4.05644 15.208 3.35894 12.6209 2.67169 10.0311C1.91611 7.18381 1.17607 4.33238 0.419486 1.48535C0.33661 1.17348 0.189395 0.878718 0.0720215 0.576022C0.0720215 0.408669 0.0720215 0.241316 0.0720215 0.0720216C2.61753 0.0720216 5.16303 0.0720216 7.75025 0.0993006C8.27287 2.01942 8.74926 3.91341 9.23585 5.80479C9.80057 7.99986 10.3756 10.1923 10.9432 12.3866C11.1293 13.106 11.3061 13.8279 11.4871 14.5486C11.5718 14.4626 11.5819 14.3766 11.6043 14.2939C12.1989 12.0962 12.8006 9.90043 13.3886 7.70099C13.914 5.73552 14.4285 3.7671 14.939 1.79768C15.087 1.22653 15.2045 0.647461 15.336 0.0720215C17.8095 0.0720216 20.283 0.0720216 22.7903 0.101682C24.1028 4.95082 25.3815 9.7703 26.6603 14.5898C26.797 14.327 26.8747 14.0536 26.9462 13.7786C27.4929 11.6754 28.0409 9.57245 28.5833 7.46809C28.9961 5.86681 29.4028 4.26397 29.8093 2.66109C30.028 1.79886 30.2406 0.935095 30.456 0.0720216C32.8575 0.0720216 35.259 0.0720216 37.694 0.101067C37.5457 0.809971 37.3642 1.48988 37.1823 2.16968C36.7643 3.73158 36.3449 5.29313 35.9283 6.8554C35.577 8.17263 35.2303 9.49107 34.8789 10.8083C34.4621 12.3705 34.041 13.9315 33.6244 15.4938C33.2731 16.811 32.9273 18.1297 32.5758 19.4469C32.159 21.0091 31.7391 22.5704 31.3198 24.132C31.0566 25.1122 30.792 26.092 30.528 27.072Z" fill="black"/>
<path d="M61.344 27.072C58.7265 27.072 56.109 27.072 53.4577 27.0424C52.1876 22.3266 50.9511 17.6406 49.7147 12.9545C49.4672 13.633 49.2845 14.3074 49.1042 14.9825C48.6806 16.5688 48.2594 18.1557 47.8349 19.7417C47.4195 21.294 47.0013 22.8455 46.584 24.3972C46.3443 25.2889 46.104 26.1804 45.864 27.072C43.2945 27.072 40.725 27.072 38.1138 27.0448C37.8416 26.1844 37.6069 25.3523 37.3815 24.5178C37.0138 23.1565 36.6533 21.7932 36.2876 20.4313C35.871 18.8799 35.4493 17.3298 35.0364 15.7774C34.9628 15.5005 34.8186 15.1893 34.8814 14.9375C35.3573 13.0311 35.8752 11.1352 36.383 9.23674C37.0938 6.57902 37.8068 3.92187 38.5214 1.26517C38.539 1.19966 38.5865 1.1422 38.6202 1.08099C38.6588 1.13696 38.7173 1.18782 38.7333 1.24966C39.2783 3.35506 39.8177 5.46194 40.3615 7.56767C40.9455 9.82936 41.5331 12.0902 42.1201 14.3511C42.1424 14.4371 42.1741 14.5207 42.2217 14.6683C42.284 14.5465 42.3195 14.4989 42.334 14.4455C42.8155 12.6729 43.2989 10.9008 43.7739 9.12641C44.3448 6.99373 44.9109 4.85975 45.474 2.72498C45.7068 1.84246 45.9264 0.956447 46.152 0.072022C48.6015 0.0720216 51.051 0.0720216 53.5422 0.0992958C54.8665 4.93525 56.1491 9.74393 57.4317 14.5526C57.5199 14.4424 57.5462 14.3434 57.5717 14.2442C58.0611 12.3396 58.5525 10.4356 59.0391 8.53031C59.6058 6.31114 60.1723 4.09189 60.7299 1.87043C60.8794 1.27516 60.9962 0.671715 61.128 0.0720215C63.5535 0.0720216 65.979 0.0720216 68.4619 0.0971847C68.4866 0.256826 68.457 0.392091 68.4211 0.525663C67.9831 2.15374 67.5404 3.78059 67.1064 5.4097C66.5383 7.54152 65.9819 9.67646 65.4109 11.8075C64.9268 13.6143 64.4239 15.4162 63.9385 17.2227C63.2942 19.6208 62.6563 22.0206 62.0209 24.421C61.7876 25.3026 61.5692 26.1882 61.344 27.072Z" fill="black"/>
<path d="M91.944 11.232C91.944 12.7695 91.944 14.307 91.9195 15.8843C91.9114 15.9921 91.9277 16.0601 91.944 16.128C91.944 16.16 91.944 16.192 91.9163 16.2564C91.8593 16.3377 91.8128 16.3834 91.8032 16.4358C91.7262 16.859 91.671 17.2866 91.5815 17.7069C91.1605 19.683 90.3086 21.4519 88.9576 22.9585C88.09 23.9261 87.044 24.6814 85.8874 25.2691C84.0155 26.2201 82.016 26.7294 79.9319 26.9308C79.6381 26.9592 79.3479 27.0241 79.056 27.072C74.9985 27.072 70.941 27.072 66.8497 27.0383C66.816 21.8573 66.8164 16.7101 66.8154 11.5628C66.8153 11.0094 66.8608 10.476 67.0152 9.928C67.6892 7.53574 68.3104 5.12856 68.9456 2.72545C69.179 1.84288 69.3983 0.956605 69.624 0.0720215C72.7935 0.0720215 75.963 0.0720215 79.1774 0.100776C79.6412 0.182299 80.0594 0.243129 80.4794 0.286279C81.6051 0.401928 82.6962 0.666239 83.774 1.00519C85.4689 1.53821 86.998 2.36694 88.3224 3.55056C89.0535 4.20386 89.6501 4.97763 90.1635 5.8144C90.9103 7.0314 91.3618 8.35992 91.6547 9.74802C91.7587 10.2411 91.848 10.7373 91.944 11.232ZM74.808 7.24902C74.808 11.5498 74.808 15.8506 74.808 20.088C75.8097 20.088 76.763 20.0866 77.7163 20.0884C78.6602 20.0902 79.5787 19.9336 80.4788 19.6555C81.4215 19.3643 82.2032 18.8453 82.8032 18.0533C83.6445 16.9427 83.8536 15.6343 83.9418 14.3053C84.0171 13.1716 83.9471 12.0348 83.6605 10.9272C83.3685 9.79905 82.8125 8.83196 81.8379 8.14756C80.7616 7.39171 79.5119 7.16125 78.2474 7.07152C77.185 6.99614 76.113 7.05341 75.0454 7.06135C74.966 7.06194 74.8873 7.13827 74.808 7.24902Z" fill="black"/>
</g>
<defs>
<clipPath id="clip0_2164_1604">
<rect width="91.872" height="27" fill="white"/>
</clipPath>
</defs>
</svg>
