<svg width="87" height="31" viewBox="0 0 87 31" fill="none" xmlns="http://www.w3.org/2000/svg">
<path fill-rule="evenodd" clip-rule="evenodd" d="M39.2511 0.58374C39.5792 1.10481 39.7649 1.65544 39.7632 2.25996C39.762 2.65836 39.7623 3.05677 39.7626 3.47967V3.47986L39.7628 4.07539C39.8556 4.06378 39.945 4.05398 40.0318 4.04446C40.2117 4.02473 40.3808 4.00618 40.5475 3.97521C41.1386 3.86545 41.729 3.75143 42.3194 3.63741L42.3194 3.6374C43.5066 3.40812 44.6938 3.17884 45.8866 2.98417C47.5037 2.72025 49.1316 2.51568 50.7597 2.32842C52.1934 2.16351 53.6329 2.0445 55.072 1.9323C56.0674 1.85468 57.0659 1.80246 58.0641 1.77567C58.3738 1.76736 58.6835 1.75806 58.9933 1.74876C60.3044 1.70941 61.6163 1.67003 62.9258 1.70519C65.8751 1.78439 68.7915 2.12608 71.6 3.10761C72.2335 3.32902 72.622 3.73201 72.6339 4.2105C72.6478 4.77357 72.2483 5.11963 71.6973 5.00096C71.4807 4.95433 71.2438 4.90101 71.0695 4.77623C70.0871 4.07298 68.932 3.88823 67.7953 3.70643L67.6885 3.68933C66.2661 3.46117 64.8278 3.28904 63.39 3.21205C61.6146 3.11698 59.8309 3.08528 58.054 3.13682C56.4161 3.18432 54.7779 3.33696 53.1481 3.51751C50.8416 3.77301 48.5345 4.04537 46.2428 4.40653C44.9003 4.6181 43.567 4.88763 42.2336 5.15717L42.2335 5.15718C41.5346 5.29846 40.8357 5.43975 40.1354 5.5727C39.7931 5.63768 39.6791 5.78583 39.6729 6.14876C39.6623 6.77676 39.6348 7.40494 39.6073 8.033L39.6073 8.03329C39.5634 9.03679 39.5195 10.04 39.5444 11.0417C39.5953 13.0866 39.7353 15.1353 40.2454 17.1311C40.3747 17.6368 40.5703 18.1312 40.7855 18.6082C41.2467 19.63 41.9848 19.3292 42.4347 18.751C42.6831 18.4319 42.904 18.0917 43.125 17.7513L43.125 17.7513C43.2981 17.4849 43.4711 17.2183 43.6575 16.9617C44.6119 15.6476 45.6245 14.3873 47.0819 13.5797C47.8045 13.1792 48.5841 12.9618 49.3988 12.8644C49.7373 12.824 50.0793 12.7843 50.419 12.7893C50.9929 12.7978 51.3076 13.2291 51.2432 13.7907L51.2229 13.9673V13.9674C51.1308 14.767 51.0383 15.5697 51.0247 16.3724C51.0132 17.0471 51.0793 17.7242 51.1453 18.399L51.1453 18.3991C51.156 18.5088 51.1667 18.6184 51.1771 18.728C51.1872 18.8347 51.2585 18.9355 51.3298 19.0364C51.3627 19.0829 51.3956 19.1295 51.4225 19.1765C51.4603 19.1419 51.5029 19.1096 51.5455 19.0772C51.6376 19.0073 51.7296 18.9374 51.7728 18.8448C52.2214 17.8809 52.6533 16.9092 53.0813 15.936C53.2448 15.564 53.4045 15.1904 53.5642 14.8167L53.5643 14.8165C53.8375 14.1772 54.1107 13.5379 54.4032 12.9075C54.6149 12.4511 55.0301 12.2211 55.5363 12.158C55.9172 12.1105 56.3201 12.271 56.4739 12.6594C56.6305 13.0548 56.7632 13.4857 56.7788 13.9057C56.8084 14.705 56.8028 15.5056 56.7973 16.3003V16.3007C56.795 16.6156 56.7928 16.9295 56.7928 17.2421C56.8044 17.1997 56.816 17.1564 56.8278 17.1125C56.8392 17.0704 56.8506 17.0276 56.8623 16.9844L56.8625 16.9835C56.916 16.7842 56.9723 16.5744 57.0312 16.3654C57.0725 16.2188 57.1129 16.0718 57.1532 15.9248C57.4258 14.9312 57.6986 13.9372 58.2812 13.0622C58.3892 12.9001 58.5202 12.7431 58.671 12.6214C59.2157 12.1819 59.9357 12.3643 60.1173 13.0386C60.2348 13.4748 60.2939 13.9267 60.353 14.3786C60.3789 14.5768 60.4048 14.775 60.4357 14.9719C60.4788 15.2473 60.5205 15.5231 60.5622 15.7988L60.5623 15.7989C60.6754 16.5467 60.7885 17.2946 60.9303 18.0369C60.9619 18.2019 61.078 18.3507 61.1941 18.4995C61.2475 18.568 61.301 18.6364 61.3461 18.7065C61.3962 18.6417 61.4523 18.5792 61.5084 18.5168C61.6308 18.3803 61.7533 18.2438 61.8136 18.0838C61.9447 17.7368 62.0578 17.3828 62.1709 17.0289C62.3017 16.6198 62.4324 16.2108 62.5907 15.8127C63.0105 14.7569 63.5882 13.8162 64.6637 13.2743C65.4204 12.8931 66.2065 12.9036 67.0135 12.9729C67.1323 12.9831 67.3153 12.9176 67.3754 12.8259C67.6785 12.3635 68.0469 12.1912 68.5821 12.3207C69.0365 12.4306 69.0998 12.8225 69.1373 13.1839C69.2185 13.9687 69.2871 14.7549 69.3556 15.5411L69.3557 15.5423L69.3558 15.5425C69.3932 15.9718 69.4306 16.4011 69.4701 16.8302C69.4785 16.9211 69.5004 17.0108 69.527 17.1201L69.5271 17.1203C69.5411 17.1777 69.5564 17.2405 69.5718 17.3118C69.6973 17.1052 69.8162 16.903 69.9325 16.7052L69.9326 16.7051C70.1843 16.2771 70.4239 15.8695 70.6922 15.4818C71.2973 14.6073 71.9149 13.7379 72.5858 12.914C72.9294 12.492 73.3704 12.1301 73.822 11.8206C74.2506 11.5269 74.7447 11.4419 75.2145 11.8195C75.2962 11.8852 75.4339 11.9054 75.5458 11.9058L75.5671 11.9059H75.5673C76.9593 11.9112 78.3513 11.9166 79.7433 11.9053C80.0445 11.9029 80.3457 11.8874 80.6468 11.8719L80.6469 11.8719C80.9765 11.8549 81.3061 11.8379 81.6356 11.8381C81.9456 11.8383 82.2555 11.8549 82.5654 11.8716C82.8862 11.8888 83.207 11.9061 83.5278 11.905C83.9767 11.9035 84.4256 11.8858 84.8745 11.8681C85.2146 11.8547 85.5548 11.8413 85.8951 11.835C86.3873 11.8258 86.7061 12.0862 86.7321 12.4806C86.7695 13.0486 86.5289 13.3851 85.967 13.4017C85.5368 13.4144 85.1059 13.3969 84.6748 13.3794C84.3753 13.3672 84.0757 13.3551 83.7762 13.353C83.5523 13.3515 83.3284 13.367 83.1044 13.3825C82.9089 13.396 82.7134 13.4095 82.5179 13.4118C82.1156 13.4163 81.7133 13.4151 81.311 13.4139C80.8289 13.4124 80.3468 13.411 79.8648 13.4195C79.4463 13.4269 79.0281 13.4523 78.6215 13.477L78.6213 13.477C78.4428 13.4878 78.2666 13.4985 78.0935 13.5075C78.1532 13.667 78.2167 13.8238 78.2799 13.9796L78.2799 13.9796C78.4185 14.3217 78.5551 14.6589 78.6448 15.0081C78.8866 15.9504 78.6702 16.8669 78.3272 17.7456C77.9176 18.7951 77.3184 19.7211 76.3149 20.3023C75.2901 20.8958 74.182 21.0245 73.2716 20.2249C72.7015 19.7241 72.4548 19.0561 72.316 18.3287C72.1079 17.2381 72.3593 16.2169 72.7057 15.1792C72.6767 15.2206 72.6475 15.2618 72.6184 15.3031C72.5521 15.3969 72.4859 15.4907 72.4215 15.5858L72.3836 15.6417C72.3002 15.7646 72.2166 15.8876 72.1407 16.0151C71.9049 16.4111 71.6699 16.8077 71.435 17.2042L71.4346 17.2048C71.0662 17.8265 70.6978 18.4483 70.3262 19.0681C70.1193 19.4132 70.0643 19.7565 70.1543 20.1607C70.2108 20.4145 70.221 20.6784 70.2311 20.9425V20.9427C70.2362 21.0745 70.2413 21.2063 70.2521 21.337C70.4307 23.4908 70.3136 25.6139 69.6335 27.6855C69.2051 28.9903 68.5517 30.1339 67.4064 30.9723C67.0093 31 66.6115 31 66.1768 31C66.1077 30.8912 66.0352 30.784 65.963 30.6772C65.7303 30.3331 65.5002 29.9929 65.3974 29.6178C65.1105 28.57 65.1256 27.4881 65.3047 26.4118C65.7087 23.9836 66.8458 21.874 68.1537 19.8391C68.2952 19.6189 68.3684 19.4233 68.2947 19.1459C68.2105 18.8292 68.1576 18.5042 68.1026 18.1669C68.0789 18.0214 68.0549 17.8736 68.0278 17.7232C67.9382 17.8649 67.8546 18.0056 67.7725 18.1436C67.5942 18.4435 67.4233 18.7308 67.2157 18.9885C66.7568 19.5583 66.157 19.9357 65.4034 19.9851C64.4949 20.0446 63.7274 19.4114 63.4589 18.406C63.4352 18.3172 63.4111 18.2285 63.3828 18.1243L63.3353 17.9493C63.2786 18.1133 63.2282 18.2739 63.179 18.4306C63.0699 18.7786 62.9669 19.1071 62.8133 19.41C62.6171 19.797 62.3475 20.1734 62.0287 20.4654C61.5932 20.8642 60.6783 20.6237 60.2026 20.0595C59.4887 19.213 59.2262 18.1826 59.0149 17.135C58.9838 16.9808 58.9577 16.8256 58.9314 16.669C58.879 16.3576 58.8257 16.0407 58.7304 15.7153C58.7018 15.8333 58.6748 15.9517 58.6478 16.0702C58.5885 16.3301 58.5292 16.5901 58.4534 16.8452C58.4091 16.9945 58.365 17.1439 58.3209 17.2933C58.0868 18.0862 57.8527 18.8795 57.5773 19.658C57.4235 20.0929 57.1025 20.4086 56.564 20.389C56.0476 20.3701 55.7321 20.0993 55.5528 19.6451C55.1331 18.5813 55.0914 17.469 55.1505 16.3458C55.1675 16.0221 55.1867 15.6986 55.2059 15.375C55.2146 15.228 55.2234 15.0809 55.2319 14.9338L55.099 14.8927C55.051 15.0048 55.0022 15.1166 54.9534 15.2284L54.9534 15.2284C54.847 15.4722 54.7406 15.716 54.6425 15.9631C54.4813 16.369 54.3226 16.7759 54.164 17.1828L54.1638 17.1833C53.8311 18.0366 53.4984 18.89 53.1421 19.7333C52.9981 20.074 52.7383 20.3834 52.4758 20.6528C51.7564 21.391 50.4805 21.2983 49.9614 20.175C49.88 19.999 49.8084 19.8185 49.7316 19.625L49.7315 19.6248L49.7314 19.6246C49.6944 19.5314 49.6562 19.4351 49.6152 19.3348C49.1897 19.8343 48.7443 20.2756 48.1131 20.4423C46.5897 20.8444 45.6147 20.1845 45.4729 18.5407C45.4465 18.2347 45.4531 17.9257 45.4601 17.5973V17.5972L45.4602 17.5967C45.4635 17.44 45.467 17.2789 45.467 17.1115C45.3794 17.2374 45.2945 17.3619 45.2106 17.485C45.0274 17.7537 44.849 18.0154 44.6587 18.2681C44.5383 18.4279 44.4198 18.5898 44.3013 18.7518L44.3012 18.7519C43.9456 19.2378 43.5896 19.7244 43.179 20.1588C42.0392 21.3645 40.1222 21.3071 39.2163 19.5345C38.6704 18.4663 38.4324 17.3125 38.2572 16.1393C37.9129 13.8344 37.9269 11.5176 37.941 9.20082C37.9457 8.42395 37.9504 7.64707 37.9416 6.87065L37.9411 6.82282C37.9396 6.69359 37.938 6.56432 37.9404 6.43514C37.9447 6.19492 37.866 6.11261 37.6032 6.17357C37.1928 6.26878 36.7828 6.36604 36.3728 6.46331C35.0596 6.77483 33.746 7.08642 32.4203 7.33075C31.0553 7.58231 29.6711 7.71972 28.266 7.57467C28.1773 7.56552 28.0886 7.55664 28 7.54777C27.1717 7.46487 26.3497 7.38259 25.5675 7.0774C25.2649 6.9593 24.9581 6.815 24.7041 6.61724C24.288 6.29327 24.1901 5.76409 24.4152 5.38752C24.6557 4.98534 25.145 4.84949 25.662 5.07093C25.8009 5.13047 25.9288 5.21555 26.0568 5.30075L26.0568 5.30076C26.1265 5.34719 26.1963 5.39365 26.268 5.43603C27.0023 5.87011 27.8205 6.02133 28.6494 6.04047C30.9778 6.09423 33.2466 5.63812 35.5087 5.15697C35.8564 5.08301 36.2019 4.99833 36.5474 4.91365C36.9414 4.81707 37.3354 4.7205 37.7327 4.63984C37.9794 4.58976 38.0334 4.4756 38.0196 4.26669C38.003 4.01558 37.9903 3.76392 37.9776 3.51226L37.9776 3.51214C37.9472 2.91033 37.9168 2.30854 37.8333 1.7142C37.7693 1.25901 37.8136 0.918504 38.1793 0.61175C38.5241 0.58374 38.8692 0.58374 39.2511 0.58374ZM76.2043 18.2906C76.2772 18.1574 76.3561 18.0262 76.435 17.895C76.6142 17.597 76.7934 17.2989 76.9028 16.9772C77.0722 16.4791 77.2214 15.9239 77.1736 15.4129C77.0801 14.412 76.3769 13.8751 75.461 13.5699C75.1856 13.4781 75.0269 13.5337 74.941 13.7937C74.8531 14.0598 74.7619 14.3251 74.6707 14.5904C74.4299 15.291 74.189 15.9918 74.0083 16.7076C73.8392 17.3777 73.8516 18.0894 74.1897 18.7393C74.4254 19.1924 74.8482 19.3518 75.2795 19.0893C75.5226 18.9413 75.7329 18.7394 75.9588 18.5225L75.9589 18.5225C76.0381 18.4465 76.1192 18.3686 76.2043 18.2906ZM67.1024 17.0234C67.367 16.5134 67.5529 15.9802 67.4778 15.3976C67.4491 15.1754 67.4095 14.8936 67.2638 14.7591C66.8438 14.371 65.8928 14.3727 65.3996 14.6703C64.4081 15.2686 64.4309 17.5457 65.0657 18.1983C65.3291 18.4691 65.687 18.5183 65.9586 18.2773C66.2886 17.9845 66.5764 17.6442 66.8824 17.2823C66.9545 17.1971 67.0275 17.1107 67.1024 17.0234ZM68.7537 23.4314V21.9982L68.6385 21.9814C68.5748 22.1054 68.5102 22.2289 68.4456 22.3525C68.3053 22.621 68.165 22.8894 68.0339 23.1623C67.2394 24.816 66.66 26.5271 66.7874 28.395C66.802 28.6088 66.8983 28.817 66.9947 29.0252C67.0392 29.1214 67.0838 29.2176 67.1202 29.3144L67.2381 29.1722C67.3842 28.9961 67.5302 28.82 67.6755 28.6432C67.6912 28.6241 67.7016 28.5999 67.7115 28.5767L67.7128 28.5736C68.4066 26.9567 68.6528 25.2478 68.7537 23.4314ZM48.3955 14.876C47.2819 15.5151 46.8564 17.5455 47.1664 18.5433C47.2938 18.953 47.6631 19.0763 48.006 18.813C48.2208 18.648 48.4193 18.4376 48.563 18.2086C49.0168 17.4852 49.2357 16.6739 49.343 15.8348C49.3822 15.5289 49.3992 15.2201 49.4162 14.9114C49.4239 14.772 49.4316 14.6326 49.4413 14.4935L49.3105 14.4229C49.0205 14.5617 48.7305 14.7005 48.3955 14.876ZM0 5.60667C0.0496461 5.54698 0.103048 5.4995 0.153944 5.45424C0.200105 5.41319 0.244206 5.37398 0.281574 5.32915C0.567745 4.98586 0.940322 4.956 1.32607 5.06058C1.67988 5.15649 1.90872 5.52592 1.89782 5.95949C1.88024 6.65849 1.85938 7.35742 1.83852 8.05634C1.8044 9.19971 1.77027 10.3431 1.75053 11.4867C1.74154 12.0072 1.75748 12.5491 1.89043 13.047C2.17785 14.1232 3.07798 14.3386 3.90606 13.5911C4.8863 12.7063 5.37426 11.5607 5.6935 10.3169C6.02029 9.04364 5.97251 7.74778 5.92494 6.45773C5.92115 6.35515 5.91737 6.2526 5.91378 6.1501C5.89264 5.54677 6.12002 4.9336 6.92759 5.01565C7.37242 5.06085 7.64875 5.29827 7.67696 5.77117C7.70239 6.19733 7.72244 6.62386 7.74248 7.05036C7.77181 7.67437 7.80114 8.29834 7.84731 8.92109C7.89831 9.60892 7.97041 10.2952 8.0425 10.9815C8.07457 11.2867 8.10664 11.592 8.13685 11.8973C8.16468 12.1787 8.19227 12.46 8.21985 12.7414L8.21986 12.7414C8.27808 13.3353 8.3363 13.9291 8.39683 14.5226C8.43648 14.9114 8.47939 15.2998 8.52602 15.7219L8.52612 15.7227C8.54809 15.9216 8.57089 16.128 8.59457 16.3455C8.68038 16.249 8.75966 16.1594 8.83474 16.0746L8.83479 16.0745C8.98613 15.9035 9.1204 15.7517 9.25667 15.6018C9.44218 15.3978 9.62754 15.1936 9.8129 14.9893C10.4235 14.3166 11.0341 13.6439 11.6501 12.9762C12.2787 12.295 13.029 11.9537 13.9922 11.9724C14.9717 11.9913 15.8915 11.6643 16.8062 11.3391C16.9348 11.2934 17.0632 11.2477 17.1917 11.203C17.7613 11.005 18.3355 10.8096 18.9215 10.6714C19.6844 10.4915 20.162 10.8246 20.1796 11.605C20.1996 12.4966 20.144 13.3932 20.0649 14.2827L20.063 14.3045C19.9586 15.4794 19.8543 16.6522 20.1278 17.8131C20.1842 18.0529 20.3788 18.4061 20.5556 18.4361C20.8002 18.4776 21.1479 18.3272 21.3469 18.1449C22.0207 17.5273 22.2148 16.653 22.4013 15.8113C22.5431 15.1716 22.6493 14.5242 22.7555 13.8766L22.7555 13.8766C22.8254 13.45 22.8954 13.0234 22.9755 12.5989C23.0381 12.2674 23.1448 11.9368 23.2822 11.6284C23.5165 11.1028 23.8336 10.9499 24.3519 11.0502C24.7053 11.1186 24.9242 11.4067 24.9454 11.9215C24.9633 12.3571 24.9722 12.7932 24.9812 13.2292V13.2293C24.9931 13.8069 25.005 14.3844 25.0376 14.9607C25.0798 15.7059 25.1749 16.4495 25.2823 17.1886C25.3052 17.3461 25.3835 17.4955 25.4618 17.6449C25.4976 17.7133 25.5334 17.7817 25.5639 17.8509L25.7233 17.8681C25.7666 17.7887 25.8164 17.7108 25.8661 17.6329C25.9743 17.4635 26.0824 17.2941 26.125 17.1096C26.3898 15.9611 26.6358 14.807 26.8437 13.6469C26.9167 13.2392 26.9578 12.8259 26.9989 12.4125C27.0293 12.1074 27.0596 11.8021 27.1028 11.4989C27.1643 11.068 27.4969 10.9127 27.8877 10.8404C28.2627 10.771 28.735 10.9064 28.8701 11.2546C29.0903 11.8223 29.251 12.419 29.3745 13.0164C29.4367 13.3168 29.4502 13.6273 29.4635 13.9317V13.9317C29.4693 14.0657 29.4751 14.1985 29.485 14.3288C29.5741 14.1851 29.6597 14.0376 29.7456 13.8895L29.7456 13.8894C29.9377 13.5584 30.1313 13.2246 30.3688 12.9257C30.9626 12.1785 31.7765 11.8005 32.7307 11.7555C33.2698 11.7301 33.8105 11.7192 34.3108 11.9932C34.7181 12.2162 34.8613 12.5736 34.6983 13.0231C34.5589 13.4074 34.2776 13.5355 33.8136 13.4259C32.2819 13.064 31.2321 13.6438 30.6472 15.1255C30.1804 16.308 30.019 17.5322 30.0163 18.791C30.0155 19.1573 30.0006 19.5293 29.935 19.8883C29.8399 20.4092 29.538 20.638 29.0644 20.6206C28.5301 20.6009 28.08 20.2429 28.0541 19.7534C28.0422 19.5278 28.058 19.3009 28.0738 19.0739C28.0872 18.8808 28.1007 18.6876 28.0971 18.495C28.0845 17.8155 28.0518 17.1364 28.0191 16.4574L28.0072 16.21C27.996 15.9754 27.9606 15.7419 27.8811 15.4952C27.8566 15.6187 27.8358 15.7435 27.815 15.8683L27.815 15.8683C27.7687 16.1456 27.7224 16.4229 27.636 16.6871C27.4211 17.3441 27.1963 18.0047 26.8956 18.625C26.606 19.2224 26.0411 19.4139 25.397 19.3512C24.7772 19.2907 24.3915 18.8912 24.1711 18.3634C24.0235 18.0101 23.9189 17.6388 23.8102 17.2535L23.8102 17.2534C23.7614 17.0802 23.7117 16.9041 23.657 16.7255C23.6245 16.8301 23.5939 16.9336 23.5637 17.036L23.5636 17.0362L23.5636 17.0363C23.498 17.2581 23.4339 17.4747 23.3559 17.6861C23.0855 18.4192 22.7473 19.1064 22.161 19.6583C21.0625 20.6922 19.2861 20.705 18.6479 18.9063C18.4449 18.3344 18.3264 17.7046 18.3143 17.0985C18.296 16.1814 18.3199 15.2636 18.3438 14.3458C18.3556 13.8936 18.3674 13.4414 18.3741 12.9892C18.381 12.5242 18.332 12.4897 17.9064 12.6333C17.3013 12.8373 16.6977 13.0457 16.0859 13.257L16.0858 13.2571L16.084 13.2577C15.8302 13.3453 15.5749 13.4335 15.3176 13.522C15.3958 13.6121 15.4739 13.7003 15.5514 13.7878L15.5515 13.7878C15.7188 13.9767 15.883 14.162 16.0376 14.355C16.7424 15.2349 17.0437 16.2663 17.2008 17.3659C17.3282 18.2578 17.2712 19.1209 16.9968 19.9734C16.5719 21.294 15.3198 21.6342 14.1932 21.1401C13.0856 20.6542 12.6839 19.6483 12.4481 18.5696C12.2046 17.4561 12.2145 16.3246 12.3472 15.1941C12.357 15.1106 12.3549 15.0257 12.3523 14.9167L12.3523 14.9166C12.3508 14.8578 12.3492 14.7919 12.3492 14.7154C12.2876 14.7561 12.2311 14.7903 12.1793 14.8217L12.1793 14.8218C12.08 14.8819 11.9978 14.9318 11.9294 14.9963C10.8217 16.0411 9.938 17.2692 9.05932 18.5029C8.80453 18.8607 8.86744 19.2254 8.92992 19.5877C8.95117 19.7109 8.97237 19.8338 8.981 19.9561C9.02973 20.6463 9.09821 21.3351 9.1667 22.0239L9.16672 22.024C9.20077 22.3666 9.23483 22.7091 9.26646 23.0518C9.27498 23.1441 9.28568 23.2367 9.29639 23.3293C9.32665 23.5911 9.35699 23.8535 9.33834 24.1119L9.31991 24.3682L9.31991 24.3683C9.24063 25.4732 9.16121 26.58 9.0053 27.6751C8.94361 28.1083 8.70649 28.5569 8.4359 28.9119C7.83469 29.7008 6.36587 29.5742 5.69475 28.7108C5.08643 27.9283 4.81239 27.0285 4.74756 26.0424C4.59181 23.6738 5.41959 21.5856 6.53915 19.5744C6.58958 19.4838 6.6381 19.392 6.68661 19.3002L6.68665 19.3001L6.68667 19.3001C6.78591 19.1123 6.88514 18.9245 7.00068 18.7473C7.21691 18.4157 7.22095 18.087 7.16036 17.7006C7.0543 17.0244 6.98016 16.3432 6.90603 15.662L6.90602 15.662L6.90601 15.6618C6.87509 15.3778 6.84418 15.0937 6.81095 14.8099C6.7287 14.1077 6.64487 13.4057 6.48699 12.6702L6.41175 12.8119C6.35737 12.9142 6.303 13.0165 6.24967 13.1193C5.78694 14.0113 5.16336 14.7585 4.3181 15.3178C3.2334 16.0354 1.67918 15.9146 0.865295 15.0304C0.448508 14.5776 0.291268 14.0071 0.157071 13.4271C0.137756 13.3436 0.0932681 13.266 0.030215 13.1817C0 12.8326 0 12.4875 0.0111016 12.0749C0.0205121 12.0081 0.0303979 11.948 0.0395202 11.8926C0.0573066 11.7845 0.07219 11.6941 0.0749874 11.6053C0.0718073 11.706 0.0530577 11.8076 0.0321695 11.9208C0.0252189 11.9585 0.0180314 11.9974 0.0111016 12.0381C0 10.0605 0 8.0522 0 6.0068C0.00586176 6.03633 0.0128431 6.06775 0.0201485 6.10063C0.041315 6.19588 0.0652037 6.30337 0.0724601 6.41285C0.0662256 6.31844 0.0477041 6.22407 0.0291826 6.1297C0.0187159 6.07638 0.00824927 6.02305 0 5.96971V5.60667ZM0.0754574 11.5778C0.0759337 11.3651 0.0763649 11.1525 0.0767439 10.9399C0.0763649 11.1525 0.0759337 11.3651 0.0754574 11.5777M6.56106 26.9201C6.69038 27.2235 6.88584 27.5583 7.22395 27.4693C7.39923 27.4232 7.55311 27.0353 7.59123 26.7828C7.6712 26.2534 7.69207 25.7115 7.69428 25.1746C7.6988 24.074 7.67965 22.9732 7.65887 21.8727C7.65616 21.7288 7.62893 21.5854 7.60171 21.442C7.58915 21.3759 7.57659 21.3097 7.56644 21.2435C7.2797 21.6798 7.05101 22.1207 6.87152 22.5808C6.32857 23.9725 5.97492 25.3851 6.56106 26.9201ZM14.8567 19.5142C15.2609 19.7403 15.4684 19.6355 15.5055 19.0776C15.5738 18.0518 15.586 17.0175 15.1676 16.0466C14.9488 15.5389 14.7218 15.0145 14.0226 14.7198C14.0226 14.9893 14.0174 15.2517 14.0123 15.5087C14.0011 16.0768 13.9904 16.6191 14.0372 17.1564C14.1088 17.9779 14.2702 18.7983 14.8567 19.5142Z" fill="black"/>
</svg>
