<svg width="63" height="22" viewBox="0 0 63 22" fill="none" xmlns="http://www.w3.org/2000/svg">
<path fill-rule="evenodd" clip-rule="evenodd" d="M28.3903 0C28.6275 0.376892 28.7618 0.775158 28.7606 1.2124C28.7598 1.50017 28.76 1.78795 28.7602 2.09336V2.09485L28.7604 2.5255C28.8275 2.51711 28.8921 2.51002 28.9549 2.50313C29.085 2.48886 29.2073 2.47544 29.3279 2.45305C29.7555 2.37365 30.1825 2.29119 30.6095 2.20872C31.4682 2.04287 32.3269 1.87703 33.1897 1.73622C34.3593 1.54534 35.5368 1.39737 36.7144 1.26192C37.7514 1.14265 38.7926 1.05656 39.8334 0.97541C40.5535 0.919271 41.2757 0.8815 41.9976 0.86212C42.2216 0.856108 42.4457 0.849383 42.6697 0.842657C43.6181 0.814192 44.567 0.785711 45.5141 0.811143C47.6473 0.868427 49.7567 1.11557 51.7881 1.82551C52.2464 1.98566 52.5273 2.27714 52.5359 2.62323C52.546 3.03049 52.2571 3.2808 51.8585 3.19497C51.7018 3.16124 51.5305 3.12267 51.4044 3.03242C50.6938 2.52376 49.8583 2.39013 49.0362 2.25864L48.9589 2.24627C47.9302 2.08124 46.8898 1.95674 45.8498 1.90105C44.5657 1.83229 43.2756 1.80936 41.9903 1.84664C40.8057 1.88099 39.6208 1.9914 38.4419 2.12199C36.7736 2.30679 35.1049 2.50379 33.4473 2.76502C32.4763 2.91805 31.5119 3.11299 30.5475 3.30795C30.0419 3.41014 29.5364 3.51234 29.0298 3.6085C28.7823 3.6555 28.6998 3.76266 28.6953 4.02517C28.6876 4.47947 28.6678 4.9339 28.6479 5.38825C28.6161 6.11408 28.5844 6.83969 28.6024 7.56423C28.6392 9.04331 28.7404 10.5251 29.1094 11.9687C29.2029 12.3345 29.3444 12.692 29.5001 13.037C29.8336 13.7761 30.3675 13.5585 30.6929 13.1404C30.8726 12.9095 31.0324 12.6635 31.1922 12.4173L31.1922 12.4173L31.1923 12.4172C31.3174 12.2245 31.4426 12.0318 31.5774 11.8462C32.2677 10.8956 33.0001 9.9841 34.0542 9.39993C34.5769 9.11027 35.1407 8.95304 35.73 8.88261C35.9749 8.85334 36.2222 8.82465 36.468 8.82829C36.883 8.83443 37.1107 9.14638 37.0641 9.55255L37.0494 9.68037C36.9828 10.2588 36.9159 10.8394 36.906 11.4199C36.8977 11.908 36.9456 12.3977 36.9933 12.8858L36.9933 12.8863C37.0011 12.9655 37.0088 13.0446 37.0163 13.1237C37.0236 13.2009 37.0752 13.2738 37.1268 13.3468C37.1506 13.3804 37.1743 13.4141 37.1938 13.4481C37.2211 13.4231 37.2519 13.3997 37.2828 13.3763C37.3493 13.3257 37.4159 13.2752 37.4471 13.2082C37.7716 12.511 38.084 11.8082 38.3936 11.1042C38.5119 10.8353 38.6274 10.565 38.7429 10.2948L38.7429 10.2947C38.9405 9.83222 39.1382 9.36977 39.3497 8.91376C39.5029 8.58366 39.8031 8.41726 40.1693 8.37161C40.4448 8.33726 40.7362 8.45335 40.8475 8.73432C40.9607 9.02028 41.0567 9.33193 41.068 9.63575C41.0894 10.2139 41.0854 10.7931 41.0813 11.368V11.3684C41.0797 11.596 41.0781 11.823 41.0781 12.049C41.0945 11.9888 41.1112 11.9263 41.1284 11.8624C41.1671 11.7181 41.2079 11.5662 41.2506 11.4148C41.2804 11.3088 41.3096 11.2025 41.3388 11.0962L41.3388 11.0961C41.536 10.3775 41.7332 9.65852 42.1547 9.02565C42.2328 8.90837 42.3276 8.79486 42.4366 8.70685C42.8306 8.38893 43.3514 8.52086 43.4827 9.00856C43.5677 9.32405 43.6104 9.65093 43.6532 9.97779C43.6719 10.1212 43.6907 10.2645 43.713 10.4069C43.7442 10.6062 43.7744 10.8056 43.8045 11.005C43.8864 11.546 43.9682 12.0869 44.0708 12.6238C44.0936 12.7432 44.1776 12.8508 44.2616 12.9585C44.3002 13.008 44.3389 13.0575 44.3715 13.1081C44.4078 13.0613 44.4483 13.0161 44.4889 12.9709C44.5774 12.8722 44.666 12.7734 44.7097 12.6578C44.8044 12.4068 44.8862 12.1508 44.968 11.8949L44.9681 11.8947C45.0627 11.5988 45.1572 11.303 45.2717 11.0151C45.5754 10.2514 45.9932 9.57098 46.7711 9.17907C47.3185 8.90333 47.887 8.9109 48.4707 8.96108C48.5567 8.96846 48.689 8.92103 48.7325 8.85476C48.9517 8.52031 49.2181 8.39568 49.6053 8.4893C49.934 8.56878 49.9798 8.85229 50.0068 9.11364C50.0656 9.68163 50.1152 10.2506 50.1649 10.8195C50.1919 11.1301 50.219 11.4406 50.2476 11.751C50.2536 11.8168 50.2695 11.8817 50.2888 11.9609L50.2888 11.9609C50.2989 12.0024 50.31 12.0478 50.3212 12.0994C50.4119 11.9499 50.4979 11.8036 50.5821 11.6605L50.5821 11.6604C50.7642 11.3509 50.9375 11.0562 51.1315 10.7757C51.5692 10.1432 52.0159 9.51438 52.5011 8.91848C52.7497 8.61322 53.0687 8.35146 53.3953 8.12761C53.7053 7.91513 54.0627 7.8537 54.4025 8.12678C54.4616 8.1743 54.5611 8.18892 54.6421 8.18923L54.6573 8.18929C55.6642 8.19315 56.6712 8.197 57.6781 8.18887C57.896 8.18711 58.1139 8.1759 58.3317 8.16468C58.5701 8.15241 58.8085 8.14014 59.0469 8.14027C59.271 8.14038 59.4952 8.15242 59.7194 8.16447L59.7194 8.16447C59.9515 8.17694 60.1835 8.18941 60.4155 8.18864C60.7402 8.18757 61.0648 8.17478 61.3895 8.16199L61.3896 8.16198C61.6356 8.15229 61.8816 8.1426 62.1277 8.13801C62.4837 8.13136 62.7144 8.31972 62.7332 8.60496C62.7602 9.0158 62.5861 9.25919 62.1797 9.27118C61.8686 9.28037 61.5569 9.26772 61.2451 9.25506C61.0284 9.24627 60.8117 9.23748 60.5951 9.236C60.4332 9.2349 60.2713 9.24611 60.1093 9.25731L60.1092 9.25731C59.9678 9.26709 59.8264 9.27687 59.685 9.27848C59.3941 9.28179 59.1031 9.28091 58.8121 9.28003C58.4634 9.27898 58.1146 9.27792 57.7661 9.28407C57.4633 9.28941 57.1608 9.30779 56.8666 9.32566C56.7375 9.33351 56.61 9.34125 56.4849 9.34776C56.528 9.46302 56.574 9.57638 56.6196 9.689L56.6197 9.68922C56.7199 9.93664 56.8188 10.1805 56.8836 10.4331C57.0585 11.1146 56.902 11.7776 56.6539 12.4131C56.3576 13.1723 55.9242 13.842 55.1984 14.2624C54.4571 14.6917 53.6557 14.7848 52.9972 14.2064C52.5849 13.8442 52.4064 13.361 52.306 12.8349C52.1555 12.0461 52.3373 11.3075 52.5879 10.5569L52.5246 10.6466C52.4767 10.7144 52.4289 10.7822 52.3823 10.851L52.3549 10.8914C52.2946 10.9803 52.2341 11.0692 52.1792 11.1614C52.0088 11.4477 51.839 11.7343 51.6691 12.021L51.6688 12.0215C51.4022 12.4714 51.1357 12.9212 50.8668 13.3697C50.7171 13.6193 50.6774 13.8676 50.7425 14.16C50.7833 14.3435 50.7907 14.5344 50.798 14.7255V14.7256C50.8017 14.8209 50.8054 14.9163 50.8132 15.0108C50.9424 16.5686 50.8577 18.1043 50.3658 19.6027C50.0559 20.5464 49.5833 21.3735 48.7549 21.98C48.4677 22 48.18 22 47.8655 22C47.8156 21.9213 47.7631 21.8438 47.7109 21.7665C47.5426 21.5177 47.3761 21.2716 47.3018 21.0003C47.0943 20.2424 47.1052 19.4599 47.2347 18.6814C47.5269 16.9251 48.3494 15.3992 49.2954 13.9273C49.3978 13.7681 49.4507 13.6266 49.3974 13.4259C49.3365 13.1969 49.2982 12.9618 49.2585 12.7178C49.2414 12.6126 49.224 12.5057 49.2043 12.397C49.1396 12.4994 49.0791 12.6012 49.0197 12.701C48.8907 12.9179 48.7671 13.1257 48.617 13.3121C48.285 13.7243 47.8512 13.9973 47.3061 14.033C46.649 14.076 46.0939 13.618 45.8997 12.8908C45.8825 12.8263 45.8649 12.7617 45.8443 12.6858L45.8103 12.5605C45.7692 12.6791 45.7328 12.7953 45.6973 12.9086C45.6183 13.1603 45.5438 13.3979 45.4327 13.617C45.2908 13.8969 45.0958 14.1692 44.8652 14.3804C44.5502 14.6688 43.8885 14.4948 43.5444 14.0868C43.0281 13.4745 42.8382 12.7292 42.6854 11.9715C42.6629 11.86 42.644 11.7477 42.6249 11.6344L42.6249 11.6344C42.587 11.4091 42.5485 11.18 42.4796 10.9446C42.4589 11.03 42.4394 11.1156 42.4198 11.2013C42.377 11.3893 42.3341 11.5774 42.2792 11.7619C42.2472 11.8698 42.2153 11.9778 42.1834 12.0859L42.1833 12.086C42.0141 12.6595 41.8447 13.2333 41.6455 13.7964C41.5343 14.1109 41.3021 14.3393 40.9126 14.3251C40.5391 14.3114 40.3109 14.1156 40.1812 13.7871C39.8776 13.0176 39.8475 12.2131 39.8902 11.4007C39.9025 11.1671 39.9164 10.9336 39.9302 10.7002L39.9303 10.6985L39.9491 10.3794L39.853 10.3496C39.8183 10.4307 39.783 10.5116 39.7477 10.5924C39.6708 10.7688 39.5938 10.9451 39.5228 11.1239C39.4062 11.4174 39.2915 11.7116 39.1768 12.0059L39.1767 12.0061C38.936 12.6234 38.6954 13.2408 38.4375 13.8509C38.3334 14.0972 38.1455 14.3211 37.9556 14.5159C37.4353 15.0498 36.5124 14.9828 36.1369 14.1703C36.0781 14.0431 36.0263 13.9125 35.9708 13.7726L35.9707 13.7724L35.9704 13.7717C35.9437 13.7044 35.9162 13.635 35.8865 13.5626C35.5788 13.9239 35.2567 14.2431 34.8001 14.3636C33.6983 14.6545 32.993 14.1772 32.8904 12.9883C32.8713 12.7669 32.8761 12.5434 32.8812 12.3058C32.8837 12.1924 32.8862 12.0757 32.8862 11.9545C32.8228 12.0456 32.7614 12.1357 32.7007 12.2247L32.7007 12.2247C32.5682 12.4191 32.4392 12.6083 32.3016 12.791C32.2145 12.9067 32.1288 13.0237 32.043 13.1409L32.043 13.141C31.7858 13.4924 31.5282 13.8444 31.2313 14.1586C30.4069 15.0307 29.0203 14.9892 28.3651 13.7071C27.9702 12.9344 27.7981 12.0999 27.6713 11.2513C27.4223 9.58422 27.4325 7.90849 27.4426 6.23275V6.23271C27.4461 5.6708 27.4495 5.10889 27.4431 4.54731L27.4427 4.51261C27.4416 4.41918 27.4405 4.32571 27.4422 4.23231C27.4453 4.05856 27.3884 3.99902 27.1983 4.04311C26.9015 4.11197 26.605 4.18231 26.3085 4.25265L26.3083 4.25268C25.3585 4.478 24.4084 4.70337 23.4495 4.8801C22.4622 5.06205 21.4611 5.16144 20.4447 5.05653C20.3806 5.0499 20.3164 5.04348 20.2523 5.03707C19.6533 4.97711 19.0587 4.91759 18.4929 4.69685C18.274 4.61143 18.0521 4.50705 17.8684 4.36402C17.5675 4.12969 17.4966 3.74694 17.6595 3.47456C17.8334 3.18367 18.1873 3.08541 18.5612 3.24558C18.6618 3.28864 18.7542 3.35018 18.8468 3.41181C18.8973 3.44539 18.9478 3.479 18.9996 3.50965C19.5307 3.82362 20.1225 3.933 20.7221 3.94684C22.4061 3.98573 24.0472 3.65582 25.6834 3.30781C25.9349 3.25431 26.1848 3.19306 26.4346 3.13182C26.7196 3.06196 27.0046 2.99211 27.292 2.93377C27.4704 2.89754 27.5095 2.81498 27.4995 2.66387C27.4875 2.48225 27.4783 2.30023 27.4691 2.11821C27.4471 1.68289 27.4251 1.24758 27.3647 0.817657C27.3185 0.488423 27.3505 0.242134 27.615 0.0202591C27.8644 0 28.114 0 28.3903 0ZM55.1184 12.8073C55.1712 12.711 55.2282 12.6161 55.2853 12.5212C55.4149 12.3056 55.5445 12.0901 55.6236 11.8574C55.7461 11.4971 55.8541 11.0955 55.8195 10.7259C55.7518 10.0019 55.2432 9.61359 54.5808 9.39285C54.3816 9.32647 54.2668 9.36666 54.2046 9.55474C54.1411 9.7471 54.0752 9.93889 54.0093 10.1307L54.0091 10.131C53.835 10.6378 53.6608 11.1446 53.5301 11.6624C53.4078 12.147 53.4167 12.6618 53.6612 13.1319C53.8317 13.4596 54.1376 13.5749 54.4495 13.385C54.6254 13.278 54.7775 13.132 54.9409 12.9751C54.9982 12.9201 55.0568 12.8638 55.1184 12.8073ZM48.535 11.8908C48.7264 11.5219 48.8609 11.1362 48.8065 10.7148C48.7858 10.5541 48.7571 10.3503 48.6518 10.253C48.348 9.97227 47.6601 9.97355 47.3034 10.1888C46.5863 10.6215 46.6027 12.2685 47.0619 12.7406C47.2524 12.9364 47.5113 12.972 47.7077 12.7977C47.9464 12.5859 48.1545 12.3398 48.3759 12.0781L48.3759 12.078C48.428 12.0164 48.4809 11.9539 48.535 11.8908ZM49.7294 16.5257V15.4891L49.646 15.4769C49.6 15.5665 49.5533 15.6558 49.5066 15.7452L49.5066 15.7452C49.4051 15.9394 49.3036 16.1336 49.2088 16.331C48.6341 17.5272 48.215 18.7647 48.3072 20.1159C48.3177 20.2705 48.3874 20.4211 48.4571 20.5716L48.4571 20.5717C48.4893 20.6412 48.5215 20.7108 48.5479 20.7808L48.633 20.6782C48.7387 20.5507 48.8444 20.4233 48.9495 20.2954C48.9614 20.2809 48.969 20.2625 48.9765 20.245C49.4784 19.0755 49.6564 17.8395 49.7294 16.5257ZM35.0043 10.3376C34.1989 10.7998 33.8911 12.2684 34.1154 12.9901C34.2075 13.2864 34.4746 13.3756 34.7226 13.1852C34.878 13.0658 35.0216 12.9136 35.1255 12.748C35.4537 12.2248 35.612 11.638 35.6897 11.0311C35.718 10.8098 35.7303 10.5865 35.7426 10.3631L35.7427 10.3624C35.7482 10.2618 35.7538 10.1612 35.7608 10.0609L35.6662 10.0098C35.4564 10.1102 35.2466 10.2106 35.0043 10.3376ZM0 3.63308C0.0359089 3.58991 0.074534 3.55556 0.111347 3.52283C0.144736 3.49314 0.176633 3.46477 0.203662 3.43235C0.410649 3.18405 0.680133 3.16245 0.959147 3.23809C1.21505 3.30747 1.38057 3.57467 1.37269 3.88827C1.35998 4.39386 1.34489 4.8994 1.3298 5.40493C1.30512 6.23192 1.28044 7.0589 1.26615 7.88607C1.25965 8.2626 1.27118 8.65456 1.36734 9.01463C1.57524 9.79307 2.2263 9.9489 2.82525 9.40822C3.53425 8.7682 3.88719 7.9396 4.11809 7.03996C4.35446 6.11903 4.3199 5.18174 4.28549 4.24866L4.27743 4.02614C4.26213 3.58975 4.4266 3.14625 5.01071 3.2056C5.33245 3.23829 5.53232 3.41001 5.55273 3.75206C5.57112 4.0603 5.58562 4.3688 5.60012 4.67729V4.6773C5.62133 5.12864 5.64255 5.57996 5.67594 6.03039C5.71283 6.52789 5.76498 7.02426 5.81712 7.52062L5.81712 7.52064L5.81715 7.52087C5.84034 7.74159 5.86352 7.9623 5.88537 8.18311C5.9055 8.38664 5.92546 8.59018 5.94542 8.79372C5.98752 9.2232 6.02963 9.65268 6.07341 10.082C6.10209 10.3632 6.13312 10.6441 6.16685 10.9494L6.16691 10.9499C6.18281 11.0938 6.19931 11.2431 6.21643 11.4004C6.27848 11.3307 6.3358 11.2659 6.39009 11.2045L6.39015 11.2045C6.49963 11.0808 6.59676 10.971 6.69533 10.8626C6.82949 10.715 6.96353 10.5673 7.09758 10.4196C7.53924 9.93302 7.9809 9.44643 8.42652 8.96347C8.88114 8.47075 9.42387 8.2239 10.1205 8.23738C10.829 8.25109 11.4943 8.01455 12.1559 7.77931L12.1559 7.7793C12.2489 7.74625 12.3418 7.71323 12.4347 7.68093C12.8467 7.5377 13.262 7.39638 13.6858 7.29641C14.2377 7.16624 14.5831 7.40723 14.5958 7.97169C14.6103 8.61652 14.5701 9.26509 14.5129 9.90841L14.5115 9.92421C14.436 10.774 14.3606 11.6223 14.5584 12.462C14.5992 12.6354 14.7399 12.8909 14.8679 12.9126C15.0447 12.9426 15.2962 12.8338 15.4401 12.702C15.9275 12.2552 16.0679 11.6229 16.2028 11.014C16.3054 10.5514 16.3822 10.0831 16.459 9.61471C16.5096 9.30617 16.5602 8.99759 16.6181 8.69054C16.6634 8.45075 16.7406 8.21163 16.84 7.98862C17.0094 7.60845 17.2388 7.49783 17.6137 7.57037C17.8693 7.61984 18.0276 7.82821 18.0429 8.20056C18.0559 8.51568 18.0624 8.83111 18.0689 9.14653C18.0775 9.56426 18.0861 9.98196 18.1096 10.3988C18.1401 10.9378 18.2089 11.4757 18.2867 12.0103C18.3032 12.1242 18.3598 12.2322 18.4164 12.3403L18.4164 12.3403C18.4423 12.3898 18.4683 12.4393 18.4903 12.4893L18.6056 12.5017C18.637 12.4443 18.6729 12.388 18.7089 12.3316C18.7871 12.2091 18.8654 12.0866 18.8961 11.9531C19.0877 11.1224 19.2656 10.2876 19.416 9.44853C19.4688 9.15365 19.4985 8.85477 19.5282 8.55577L19.5283 8.55572C19.5502 8.33501 19.5722 8.11423 19.6034 7.89495C19.6479 7.58325 19.8884 7.47091 20.1711 7.41862C20.4424 7.36844 20.784 7.46634 20.8817 7.71825C21.041 8.12886 21.1572 8.56046 21.2465 8.99251C21.2915 9.20983 21.3013 9.43441 21.3109 9.65457L21.3109 9.65463C21.3151 9.75153 21.3193 9.84756 21.3264 9.94175C21.3909 9.83787 21.4528 9.73115 21.5149 9.62403L21.515 9.62396C21.6538 9.38457 21.7939 9.14315 21.9657 8.92694C22.3952 8.38648 22.9839 8.11307 23.674 8.08053C24.064 8.06214 24.4551 8.05427 24.8169 8.25241C25.1115 8.41372 25.2151 8.67221 25.0972 8.99734C24.9964 9.27536 24.7929 9.36801 24.4573 9.28871C23.3494 9.02693 22.5901 9.44634 22.1671 10.518C21.8294 11.3733 21.7127 12.2588 21.7107 13.1693C21.7101 13.4342 21.6993 13.7033 21.6519 13.9629C21.5831 14.3397 21.3648 14.5052 21.0222 14.4926C20.6357 14.4784 20.3102 14.2194 20.2915 13.8654C20.2829 13.7022 20.2943 13.5381 20.3057 13.3739C20.3154 13.2343 20.3252 13.0945 20.3226 12.9552C20.3134 12.4637 20.2898 11.9725 20.2661 11.4815L20.2576 11.3024C20.2495 11.1327 20.2238 10.9639 20.1663 10.7854C20.1486 10.8748 20.1336 10.965 20.1185 11.0553L20.1185 11.0553C20.085 11.2559 20.0516 11.4564 19.9891 11.6475C19.8336 12.1228 19.671 12.6005 19.4535 13.0492C19.2441 13.4813 18.8355 13.6199 18.3696 13.5744C17.9213 13.5307 17.6423 13.2418 17.4829 12.86C17.3762 12.6044 17.3005 12.3359 17.2219 12.0572L17.2219 12.0572L17.2218 12.057C17.1865 11.9318 17.1506 11.8044 17.1111 11.6753C17.0876 11.751 17.0654 11.8259 17.0435 11.9C16.996 12.0605 16.9497 12.2172 16.8933 12.3701C16.6977 12.9004 16.453 13.3974 16.029 13.7966C15.2345 14.5444 13.9496 14.5537 13.488 13.2527C13.3412 12.839 13.2555 12.3835 13.2467 11.9451C13.2334 11.2818 13.2507 10.618 13.268 9.95407C13.2766 9.62699 13.2851 9.29991 13.29 8.97287C13.295 8.63649 13.2595 8.61159 12.9517 8.7154C12.5141 8.86297 12.0775 9.01371 11.6351 9.1665L11.6347 9.16661C11.4507 9.23015 11.2657 9.29404 11.0792 9.3582C11.1357 9.42337 11.1923 9.48718 11.2483 9.55044L11.2484 9.5505C11.3694 9.68709 11.4881 9.82114 11.6 9.96075C12.1097 10.5972 12.3277 11.3432 12.4413 12.1385C12.5334 12.7836 12.4922 13.4079 12.2938 14.0245C11.9864 14.9797 11.0808 15.2258 10.2659 14.8683C9.4648 14.517 9.17424 13.7894 9.00366 13.0092C8.82756 12.2037 8.83473 11.3854 8.93069 10.5676C8.93778 10.5072 8.93628 10.4458 8.93436 10.367V10.3669C8.93332 10.3244 8.93217 10.2767 8.93217 10.2214C8.88761 10.2508 8.84674 10.2756 8.80924 10.2983C8.73745 10.3418 8.67798 10.3779 8.62851 10.4246C7.82731 11.1803 7.18814 12.0686 6.55258 12.9609C6.3683 13.2197 6.4138 13.4835 6.45899 13.7455L6.459 13.7455C6.47437 13.8347 6.4897 13.9236 6.49594 14.012C6.53118 14.5112 6.58072 15.0094 6.63025 15.5076C6.65489 15.7554 6.67953 16.0032 6.70241 16.2511C6.70857 16.3179 6.71631 16.3848 6.72406 16.4518L6.72406 16.4518C6.74595 16.6412 6.76789 16.831 6.7544 17.0179L6.74107 17.2033L6.74107 17.2033C6.68372 18.0025 6.62629 18.8031 6.51351 19.5951C6.4689 19.9085 6.29739 20.2329 6.10167 20.4897C5.66681 21.0603 4.60442 20.9687 4.119 20.3443C3.67901 19.7782 3.48079 19.1274 3.4339 18.4142C3.32125 16.701 3.91998 15.1906 4.72975 13.7359C4.76624 13.6704 4.80134 13.6039 4.83644 13.5375C4.90823 13.4016 4.98 13.2658 5.06358 13.1377C5.21998 12.8978 5.2229 12.6601 5.17907 12.3806C5.10236 11.8915 5.04874 11.3988 4.99511 10.9061L4.9951 10.906C4.97274 10.7005 4.95038 10.495 4.92634 10.2898C4.86685 9.78187 4.80622 9.27409 4.69202 8.74211L4.63756 8.84472C4.59824 8.91866 4.55893 8.99261 4.52037 9.06694C4.18568 9.71214 3.73465 10.2526 3.12327 10.6571C2.33871 11.1762 1.21455 11.0888 0.625866 10.4493C0.324405 10.1218 0.210674 9.70909 0.113609 9.2896C0.0996388 9.22922 0.0674607 9.17306 0.0218544 9.11208C0 8.8596 0 8.60998 0.00802977 8.31155C0.0148359 8.2632 0.0219858 8.21976 0.0285835 8.17967L0.0285848 8.17966C0.0416171 8.10049 0.0524947 8.0344 0.0543128 7.96937C0.052252 8.04302 0.0385522 8.11728 0.0232681 8.20012C0.0182408 8.22737 0.0130421 8.25554 0.00802977 8.28494C0 6.85455 0 5.40196 0 3.92252C0.00423981 3.94389 0.00928944 3.96661 0.0145735 3.99039C0.030798 4.0634 0.0492331 4.14636 0.0532189 4.23043C0.0497635 4.15739 0.0354357 4.08439 0.0211078 4.01139C0.0135372 3.97282 0.0059667 3.93425 0 3.89567V3.63308ZM0.054 4.26076C0.054 4.26076 0.054 4.26076 0.054 4.26076ZM4.7456 19.049C4.83914 19.2685 4.98051 19.5107 5.22507 19.4463C5.35185 19.4129 5.46315 19.1323 5.49072 18.9497C5.54856 18.5668 5.56366 18.1749 5.56525 17.7865C5.56852 16.9904 5.55467 16.1942 5.53965 15.3982C5.53768 15.2942 5.51799 15.1905 5.4983 15.0868L5.4983 15.0867C5.48922 15.0389 5.48013 14.991 5.47279 14.9432C5.26539 15.2587 5.09998 15.5776 4.97016 15.9104C4.57744 16.9171 4.32165 17.9388 4.7456 19.049ZM10.7458 13.6923C11.0382 13.8559 11.1883 13.7801 11.2151 13.3766C11.2645 12.6346 11.2733 11.8865 10.9707 11.1843C10.8124 10.8171 10.6483 10.4377 10.1425 10.2246C10.1425 10.4195 10.1387 10.6093 10.1351 10.7952V10.7952V10.7952C10.127 11.2061 10.1192 11.5984 10.1531 11.987C10.2049 12.5812 10.3216 13.1745 10.7458 13.6923Z" fill="black"/>
</svg>
