<svg width="240" height="145" viewBox="0 0 240 145" fill="none" xmlns="http://www.w3.org/2000/svg">
<path fill-rule="evenodd" clip-rule="evenodd" d="M108.156 30C109.06 31.4358 109.572 32.9531 109.567 34.6188C109.564 35.7159 109.565 36.8129 109.565 37.9774V37.9813C109.566 38.5118 109.566 39.0563 109.566 39.6212C109.822 39.5892 110.068 39.5622 110.307 39.536L110.307 39.536C110.803 39.4816 111.269 39.4305 111.728 39.3452C113.357 39.0427 114.984 38.7285 116.611 38.4144C119.882 37.7826 123.153 37.1508 126.44 36.6144C130.896 35.8871 135.382 35.3234 139.868 34.8074C143.818 34.353 147.785 34.0251 151.75 33.7159C154.493 33.5021 157.245 33.3582 159.995 33.2844C160.848 33.2614 161.702 33.2358 162.556 33.2102C166.168 33.1018 169.783 32.9933 173.391 33.0901C181.518 33.3084 189.554 34.2499 197.293 36.9545C199.039 37.5646 200.109 38.675 200.142 39.9935C200.18 41.545 199.08 42.4986 197.561 42.1716C196.965 42.0431 196.312 41.8962 195.831 41.5524C193.124 39.6146 189.941 39.1055 186.809 38.6046L186.515 38.5574C182.596 37.9287 178.632 37.4544 174.671 37.2423C169.779 36.9803 164.864 36.893 159.967 37.035C155.454 37.1659 150.94 37.5865 146.449 38.084C140.094 38.788 133.736 39.5385 127.422 40.5337C123.722 41.1166 120.049 41.8593 116.374 42.602L116.374 42.6021L116.374 42.6021C114.448 42.9914 112.522 43.3807 110.593 43.747C109.65 43.9261 109.335 44.3343 109.318 45.3344C109.289 47.0651 109.213 48.7962 109.138 50.5271C109.017 53.2923 108.896 56.0566 108.964 58.8169C109.104 64.4516 109.49 70.0967 110.896 75.5961C111.252 76.9896 111.791 78.3519 112.384 79.6661C113.655 82.4818 115.689 81.6529 116.929 80.0599C117.613 79.1805 118.222 78.2431 118.831 77.3053L118.831 77.3051C119.307 76.5709 119.784 75.8365 120.298 75.1294C122.928 71.5082 125.718 68.0356 129.734 65.8102C131.725 64.7067 133.873 64.1077 136.118 63.8394C137.051 63.7279 137.993 63.6186 138.929 63.6324C140.51 63.6559 141.378 64.8442 141.2 66.3916L141.144 66.8779C140.89 69.0816 140.636 71.2937 140.598 73.5055C140.566 75.3648 140.749 77.2305 140.93 79.0899V79.0902L140.931 79.0913C140.96 79.3932 140.99 79.6949 141.018 79.9963C141.046 80.2903 141.242 80.5683 141.439 80.8462C141.53 80.9744 141.62 81.1026 141.694 81.2323C141.798 81.137 141.916 81.0478 142.033 80.9587C142.287 80.7661 142.541 80.5735 142.659 80.3181C143.896 77.6623 145.086 74.9848 146.265 72.303C146.716 71.2781 147.156 70.2484 147.596 69.2188L147.596 69.2186L147.596 69.2184C148.349 67.4567 149.102 65.6951 149.908 63.958C150.491 62.7005 151.635 62.0666 153.03 61.8927C154.079 61.7618 155.19 62.2041 155.613 63.2745C156.045 64.3638 156.411 65.5511 156.453 66.7086C156.535 68.9111 156.52 71.1173 156.504 73.3073V73.308V73.309C156.498 74.1763 156.492 75.0411 156.492 75.9021C156.554 75.6734 156.618 75.4362 156.683 75.1934L156.684 75.1917L156.684 75.19C156.831 74.6408 156.987 74.0625 157.149 73.4862C157.263 73.0834 157.373 72.6797 157.484 72.2758L157.485 72.2723L157.485 72.2721C158.236 69.5342 158.988 66.7953 160.593 64.3843C160.891 63.9375 161.252 63.5051 161.667 63.1698C163.168 61.9586 165.152 62.4613 165.653 64.3192C165.977 65.5211 166.139 66.7664 166.302 68.0116C166.374 68.5578 166.445 69.1039 166.53 69.6464C166.649 70.4055 166.764 71.1654 166.879 71.9253L166.879 71.9264C167.191 73.9866 167.502 76.0469 167.893 78.092C167.98 78.5466 168.3 78.9567 168.62 79.3668C168.767 79.5554 168.914 79.744 169.039 79.937C169.177 79.7586 169.331 79.5865 169.486 79.4143C169.823 79.0382 170.161 78.662 170.327 78.2213C170.688 77.265 171 76.2896 171.311 75.3145C171.672 74.1873 172.032 73.0604 172.468 71.9634C173.625 69.0541 175.217 66.4618 178.18 64.9688C180.266 63.9183 182.432 63.9472 184.655 64.1383C184.983 64.1665 185.487 63.9858 185.652 63.7333C186.488 62.4592 187.503 61.9844 188.978 62.341C190.23 62.6438 190.404 63.7239 190.507 64.7195C190.731 66.8831 190.92 69.0502 191.109 71.2173C191.212 72.4008 191.315 73.5842 191.424 74.767C191.447 75.0177 191.508 75.2649 191.581 75.5663C191.62 75.7245 191.662 75.8977 191.705 76.094C192.05 75.5249 192.378 74.968 192.698 74.4232L192.699 74.4223C193.392 73.2429 194.053 72.1199 194.792 71.0515C196.459 68.6419 198.161 66.2462 200.01 63.976C200.956 62.8131 202.172 61.8159 203.416 60.9631C204.597 60.1537 205.958 59.9196 207.253 60.96C207.478 61.141 207.857 61.1967 208.166 61.1979L208.224 61.1981C212.06 61.2128 215.896 61.2275 219.732 61.1965C220.562 61.1898 221.392 61.1471 222.222 61.1044C223.13 61.0576 224.038 61.0109 224.946 61.0113C225.8 61.0118 226.654 61.0577 227.508 61.1036L227.508 61.1036C228.392 61.1511 229.276 61.1986 230.16 61.1956C231.397 61.1915 232.634 61.1428 233.871 61.0941C234.808 61.0572 235.746 61.0202 236.683 61.0027C238.039 60.9774 238.918 61.695 238.99 62.7816C239.093 64.3468 238.43 65.274 236.881 65.3197C235.696 65.3547 234.509 65.3065 233.321 65.2583L233.32 65.2583C232.495 65.2248 231.67 65.1913 230.845 65.1857C230.228 65.1815 229.611 65.2242 228.993 65.2669C228.455 65.3041 227.916 65.3414 227.377 65.3475C226.269 65.3601 225.16 65.3568 224.052 65.3534C222.723 65.3494 221.395 65.3454 220.067 65.3688C218.914 65.3891 217.761 65.4592 216.641 65.5272L216.64 65.5273C216.149 65.5571 215.663 65.5867 215.186 65.6114C215.35 66.0506 215.526 66.4826 215.699 66.9118L215.7 66.9123C216.082 67.8548 216.458 68.7839 216.705 69.7461C217.371 72.3426 216.775 74.8682 215.83 77.2892C214.701 80.1814 213.05 82.7329 210.285 84.3342C207.461 85.9697 204.408 86.3243 201.899 84.1209C200.328 82.7412 199.648 80.9005 199.266 78.8961C198.693 75.891 199.385 73.0771 200.34 70.2177C200.26 70.3318 200.18 70.4456 200.099 70.5595C199.917 70.8178 199.734 71.0762 199.557 71.338L199.453 71.4914C199.223 71.8302 198.992 72.1694 198.783 72.5209C198.133 73.6124 197.486 74.7054 196.838 75.7983C195.823 77.5118 194.808 79.2253 193.783 80.9334C193.213 81.8845 193.062 82.8303 193.31 83.9441C193.465 84.6435 193.493 85.3706 193.521 86.0984C193.535 86.4617 193.549 86.8252 193.579 87.1855C194.071 93.1202 193.749 98.9705 191.875 104.679C190.694 108.274 188.894 111.425 185.738 113.735C184.644 113.812 183.548 113.812 182.35 113.812C182.159 113.512 181.96 113.217 181.76 112.922C181.119 111.974 180.485 111.037 180.202 110.003C179.411 107.116 179.453 104.135 179.947 101.169C181.06 94.4782 184.193 88.6652 187.797 83.0579C188.187 82.4512 188.389 81.9123 188.185 81.1478C187.953 80.2752 187.808 79.3797 187.656 78.4502L187.656 78.45L187.656 78.4484C187.591 78.0481 187.525 77.6415 187.45 77.2277C187.203 77.6179 186.973 78.0053 186.747 78.3854L186.747 78.386L186.747 78.3862C186.255 79.2125 185.784 80.0041 185.212 80.7142C183.948 82.2843 182.295 83.3243 180.219 83.4603C177.715 83.6242 175.6 81.8795 174.861 79.1092C174.795 78.864 174.729 78.619 174.65 78.3311L174.52 77.8506C174.364 78.3022 174.225 78.7445 174.09 79.1759L174.089 79.1768L174.089 79.177C173.789 80.1358 173.505 81.0409 173.082 81.8755C172.541 82.9421 171.798 83.9792 170.92 84.7837C169.72 85.8827 167.199 85.2198 165.888 83.6653C163.921 81.3327 163.197 78.4936 162.615 75.6068C162.53 75.1823 162.458 74.755 162.385 74.3239L162.385 74.3227L162.385 74.3225C162.241 73.4645 162.094 72.5914 161.831 71.695C161.752 72.02 161.678 72.3463 161.604 72.6726C161.44 73.389 161.277 74.1054 161.068 74.8083C160.946 75.2198 160.824 75.6316 160.703 76.0434C160.058 78.2281 159.413 80.414 158.654 82.5589C158.23 83.7574 157.346 84.6274 155.862 84.5732C154.439 84.5212 153.569 83.7751 153.075 82.5235C151.919 79.592 151.804 76.5272 151.967 73.4323C152.014 72.5405 152.067 71.649 152.119 70.7575C152.143 70.3522 152.168 69.9468 152.191 69.5415L151.825 69.4282C151.693 69.7371 151.558 70.0452 151.424 70.3533L151.423 70.3545C151.13 71.0259 150.837 71.6973 150.567 72.3778C150.123 73.496 149.686 74.6171 149.249 75.7382L149.248 75.7389C148.331 78.0907 147.415 80.4424 146.433 82.7666C146.036 83.7052 145.32 84.5579 144.597 85.3001C142.614 87.3342 139.099 87.0787 137.668 83.9836C137.444 83.4985 137.246 83.001 137.035 82.4674L137.034 82.4649C136.932 82.2086 136.827 81.944 136.714 81.6684C135.542 83.0447 134.315 84.2608 132.575 84.72C128.378 85.8282 125.691 84.0097 125.3 79.4804C125.227 78.6369 125.246 77.7856 125.265 76.8805L125.265 76.8799C125.274 76.4479 125.284 76.0037 125.284 75.5422C125.043 75.8889 124.809 76.232 124.578 76.5711L124.578 76.5712L124.577 76.5713C124.073 77.3118 123.581 78.0328 123.057 78.729C122.725 79.1694 122.399 79.6155 122.072 80.0617L122.072 80.0621C121.092 81.4011 120.111 82.742 118.979 83.9389C115.839 87.2613 110.556 87.1031 108.06 82.2188C106.556 79.2752 105.9 76.0959 105.417 72.8632C104.469 66.5122 104.507 60.1283 104.546 53.7443C104.559 51.6036 104.572 49.463 104.548 47.3235L104.546 47.1909C104.542 46.8351 104.538 46.4792 104.544 46.1235C104.556 45.4616 104.339 45.2348 103.615 45.4027C102.485 45.6651 101.355 45.9331 100.225 46.2011C96.6063 47.0595 92.9869 47.9181 89.3338 48.5913C85.5726 49.2845 81.7585 49.6631 77.8867 49.2635C77.6422 49.2382 77.3979 49.2138 77.1537 49.1893C74.8715 48.9609 72.6063 48.7342 70.4511 47.8932C69.6171 47.5678 68.7718 47.1702 68.072 46.6253C66.9255 45.7326 66.6556 44.2744 67.276 43.2368C67.9386 42.1286 69.2869 41.7542 70.7113 42.3644C71.0943 42.5285 71.4466 42.7629 71.7993 42.9977L71.7995 42.9978C71.9916 43.1257 72.1839 43.2537 72.3813 43.3705C74.4046 44.5665 76.6592 44.9832 78.9433 45.036C85.359 45.1841 91.6107 43.9273 97.8439 42.6015C98.8021 42.3977 99.754 42.1644 100.706 41.9311L100.706 41.931L100.706 41.931C101.792 41.6649 102.878 41.3988 103.972 41.1766C104.652 41.0385 104.801 40.724 104.763 40.1483C104.717 39.4564 104.682 38.763 104.647 38.0696C104.563 36.4112 104.479 34.7528 104.249 33.115C104.073 31.8607 104.195 30.9224 105.203 30.0772C106.153 30 107.104 30 108.156 30ZM210.616 77.7011L210.616 77.7009C211.11 76.8798 211.604 76.0586 211.905 75.172C212.372 73.7995 212.783 72.2698 212.651 70.8617C212.393 68.1036 210.456 66.6241 207.932 65.7832C207.173 65.5303 206.736 65.6835 206.499 66.3999C206.257 67.1331 206.006 67.864 205.755 68.595L205.754 68.5954C205.091 70.5259 204.427 72.4568 203.929 74.4293C203.463 76.2756 203.497 78.2366 204.429 80.0274C205.079 81.2759 206.244 81.7153 207.432 80.9918C208.102 80.5841 208.681 80.0279 209.304 79.4302L209.304 79.4301L209.304 79.4298C209.523 79.2204 209.746 79.006 209.98 78.7911C210.181 78.424 210.399 78.0625 210.616 77.7011ZM184.9 75.2994C185.629 73.8941 186.142 72.4248 185.934 70.8194C185.855 70.2072 185.746 69.4307 185.345 69.06C184.188 67.9906 181.567 67.9955 180.208 68.8154C177.476 70.464 177.539 76.7385 179.288 78.5368C180.014 79.2829 181 79.4185 181.748 78.7545C182.658 77.9476 183.451 77.0099 184.294 76.0128L184.295 76.0112C184.493 75.7769 184.694 75.5393 184.9 75.2994ZM189.45 92.9565V89.0075L189.133 88.961C188.957 89.3025 188.779 89.6428 188.602 89.9831C188.215 90.723 187.828 91.463 187.467 92.215C185.278 96.7719 183.681 101.487 184.032 106.634C184.072 107.223 184.338 107.797 184.603 108.37C184.726 108.635 184.849 108.9 184.949 109.167L185.275 108.774L185.283 108.765C185.682 108.283 186.082 107.801 186.479 107.318C186.523 107.265 186.551 107.198 186.579 107.134L186.582 107.126C188.494 102.671 189.172 97.9616 189.45 92.9565ZM133.353 69.3822C130.285 71.1433 129.112 76.7381 129.967 79.4874C130.318 80.6163 131.335 80.9561 132.28 80.2305C132.872 79.7759 133.419 79.1961 133.815 78.5651C135.065 76.5718 135.668 74.3363 135.964 72.0243C136.072 71.1814 136.119 70.3306 136.166 69.4799C136.187 69.0957 136.208 68.7116 136.235 68.3281L135.875 68.1336C135.076 68.5161 134.276 68.8987 133.353 69.3822ZM0 43.8408C0.136799 43.6763 0.283946 43.5455 0.42419 43.4208C0.551388 43.3077 0.672907 43.1996 0.775875 43.0761C1.56442 42.1302 2.59105 42.0479 3.65399 42.336C4.62889 42.6003 5.25947 43.6183 5.22943 44.813C5.181 46.7391 5.12352 48.665 5.06604 50.5909C4.97201 53.7414 4.87798 56.8919 4.82357 60.0431C4.7988 61.4775 4.84272 62.9707 5.20906 64.3425C6.00106 67.308 8.48135 67.9017 10.7631 65.8419C13.4641 63.4036 14.8087 60.247 15.6884 56.8197C16.5888 53.3113 16.4572 49.7406 16.3261 46.1859V46.1859C16.3157 45.9032 16.3053 45.6207 16.2954 45.3382C16.2371 43.6757 16.8637 41.9861 19.0889 42.2123C20.3146 42.3368 21.0761 42.991 21.1538 44.2941C21.2239 45.4682 21.2791 46.6433 21.3343 47.8184L21.3343 47.8189C21.4152 49.5383 21.496 51.2577 21.6232 52.9736C21.7637 54.8689 21.9624 56.7599 22.161 58.6509L22.161 58.6509C22.2494 59.492 22.3378 60.3332 22.421 61.1747C22.4977 61.9497 22.5737 62.7247 22.6497 63.4997L22.6498 63.501L22.65 63.5027C22.8103 65.1383 22.9707 66.7738 23.1374 68.4087C23.2467 69.4799 23.3649 70.5503 23.4934 71.7134L23.4936 71.715C23.5542 72.2632 23.617 72.8321 23.6823 73.4314C23.9185 73.1659 24.1368 72.9192 24.3435 72.6856L24.3441 72.6849L24.3443 72.6847C24.7613 72.2135 25.1312 71.7954 25.5067 71.3824C26.0166 70.8214 26.5261 70.2601 27.0356 69.6988L27.0394 69.6946C28.7218 67.841 30.4043 65.9873 32.1018 64.1476C33.8338 62.2705 35.9014 61.3301 38.5554 61.3814C41.2543 61.4337 43.7888 60.5325 46.3094 59.6364C46.6636 59.5104 47.0175 59.3846 47.3715 59.2616C48.9412 58.7159 50.5234 58.1775 52.1379 57.7967C54.2401 57.3008 55.5563 58.2189 55.6046 60.3693C55.6599 62.8258 55.5066 65.2966 55.2888 67.7475L55.2834 67.8076C54.9957 71.0449 54.7084 74.2766 55.4619 77.4756C55.6175 78.1362 56.1536 79.1096 56.6409 79.1922C57.3148 79.3064 58.2729 78.8922 58.8211 78.3898C60.6779 76.688 61.2126 74.2789 61.7267 71.9595C62.1174 70.1969 62.4099 68.4129 62.7025 66.6285L62.7025 66.6284C62.8952 65.453 63.088 64.2775 63.3088 63.1078C63.4813 62.1943 63.7752 61.2833 64.1539 60.4338C64.7995 58.9854 65.6732 58.564 67.1015 58.8404C68.0753 59.0288 68.6785 59.8227 68.7368 61.2412C68.7861 62.4416 68.8108 63.6431 68.8355 64.8447V64.8449C68.8683 66.4363 68.901 68.0276 68.9909 69.6158C69.107 71.6691 69.3692 73.7182 69.6653 75.7547C69.7284 76.1886 69.944 76.6003 70.1596 77.012L70.1597 77.0121C70.2584 77.2006 70.3571 77.3891 70.4412 77.5797L70.8803 77.6271C70.9998 77.4083 71.1368 77.1936 71.2739 76.9789C71.5719 76.5121 71.8699 76.0454 71.9871 75.537C72.717 72.3722 73.3948 69.1922 73.9675 65.9955C74.1687 64.8721 74.2819 63.7335 74.3952 62.5944C74.4789 61.7535 74.5626 60.9123 74.6817 60.0769C74.8509 58.8895 75.7674 58.4615 76.8444 58.2623C77.8777 58.0711 79.179 58.4441 79.5513 59.4038C80.1582 60.968 80.6009 62.6122 80.9413 64.2582C81.1125 65.0861 81.1498 65.9416 81.1864 66.7803V66.7804C81.2025 67.1496 81.2185 67.5155 81.2457 67.8744C81.4911 67.4787 81.727 67.0721 81.9638 66.664L81.9638 66.6638C82.493 65.7518 83.0266 64.8321 83.6811 64.0084C85.3172 61.9495 87.5598 60.9079 90.1892 60.7839C91.6747 60.7139 93.1646 60.6839 94.5432 61.4387C95.6655 62.0532 96.06 63.038 95.6109 64.2766C95.2268 65.3358 94.4516 65.6887 93.1731 65.3866C88.9525 64.3893 86.0598 65.9871 84.4482 70.0697C83.1618 73.3282 82.7172 76.7016 82.7096 80.1702C82.7074 81.1794 82.6663 82.2045 82.4857 83.1937C82.2236 84.6291 81.3918 85.2595 80.0866 85.2115C78.6144 85.1573 77.3741 84.1707 77.3029 82.8221C77.2701 82.2004 77.3136 81.5752 77.3572 80.9497C77.3942 80.4176 77.4312 79.8853 77.4214 79.3544C77.3866 77.4822 77.2965 75.6108 77.2064 73.7398L77.1736 73.0582C77.1428 72.4117 77.0451 71.7684 76.8261 71.0884C76.7586 71.429 76.7013 71.7728 76.6439 72.1166C76.5164 72.8807 76.389 73.6448 76.1508 74.3728C75.5586 76.1833 74.9392 78.0035 74.1106 79.7127C73.3127 81.3588 71.7561 81.8866 69.9813 81.7136C68.2734 81.5471 67.2106 80.4463 66.6032 78.9919C66.1967 78.0183 65.9083 76.9954 65.6089 75.9335L65.6089 75.9333C65.4743 75.456 65.3375 74.9708 65.1867 74.4786C65.0972 74.7671 65.0128 75.0524 64.9293 75.3347L64.9293 75.3348L64.9292 75.3351C64.7484 75.9463 64.5719 76.543 64.3571 77.1255C63.6119 79.1456 62.6799 81.0393 61.0644 82.5598C58.0376 85.4088 53.1428 85.4441 51.3841 80.4878C50.8249 78.9119 50.4984 77.1767 50.4649 75.5063C50.4143 72.9795 50.4803 70.4506 50.5462 67.9214C50.5787 66.6754 50.6112 65.4293 50.6297 64.1834C50.6488 62.9019 50.5138 62.807 49.3409 63.2025C47.6736 63.7648 46.0104 64.3391 44.3246 64.9212C43.6234 65.1634 42.9184 65.4068 42.2075 65.6514C42.423 65.8997 42.6384 66.1428 42.8519 66.3839L42.8521 66.384C43.3131 66.9044 43.7655 67.415 44.1914 67.9468C46.1335 70.3713 46.9639 73.2133 47.3966 76.2432C47.7476 78.7009 47.5906 81.0791 46.8346 83.4283C45.6636 87.0671 42.2136 88.0045 39.1093 86.6429C36.0573 85.3042 34.9504 82.5324 34.3005 79.5601C33.6297 76.4918 33.657 73.3741 34.0225 70.2588C34.0495 70.0287 34.0439 69.7947 34.0365 69.4944C34.0326 69.3322 34.0282 69.1507 34.0282 68.94C33.8584 69.0519 33.7027 69.1463 33.5599 69.2329L33.5598 69.2329C33.2864 69.3987 33.0598 69.536 32.8714 69.7137C29.8191 72.5929 27.3841 75.9768 24.9629 79.3763C24.2608 80.3621 24.4342 81.3672 24.6063 82.3654C24.6649 82.7049 24.7233 83.0436 24.7471 83.3805C24.8813 85.2823 25.07 87.1802 25.2588 89.0782L25.2588 89.0782L25.2588 89.0784C25.3526 90.0224 25.4465 90.9663 25.5337 91.9108C25.5571 92.165 25.5866 92.4201 25.6161 92.6753L25.6161 92.6755C25.6995 93.3968 25.7831 94.1199 25.7317 94.8319L25.6809 95.5382C25.4625 98.583 25.2437 101.633 24.814 104.65C24.6441 105.844 23.9907 107.08 23.2451 108.058C21.5884 110.232 17.5411 109.883 15.6918 107.504C14.0156 105.348 13.2605 102.868 13.0819 100.151C12.6527 93.6246 14.9336 87.8706 18.0186 82.3288C18.1576 82.0791 18.2913 81.826 18.425 81.573L18.425 81.5729C18.6985 81.0553 18.9719 80.5379 19.2903 80.0496C19.8861 79.1359 19.8973 78.2303 19.7303 77.1656C19.4381 75.3023 19.2338 73.4252 19.0295 71.5481C18.9443 70.7652 18.8591 69.9823 18.7675 69.2003C18.5409 67.2654 18.3099 65.3309 17.8748 63.3043C17.8059 63.4346 17.7367 63.5648 17.6674 63.695L17.6672 63.6955C17.5175 63.9771 17.3677 64.2587 17.2209 64.5418C15.9459 66.9997 14.2276 69.0586 11.8985 70.5996C8.90962 72.5771 4.62698 72.2443 2.38431 69.8079C1.23586 68.5602 0.802587 66.9881 0.432808 65.39C0.379586 65.16 0.257 64.946 0.0832571 64.7137C0 63.7519 0 62.8009 0.0305904 61.664C0.0565211 61.4798 0.0837614 61.3143 0.108898 61.1616C0.162978 60.833 0.207319 60.5636 0.207922 60.2941C0.209235 59.7082 0.210423 59.1223 0.211467 58.5364C0.210423 59.1222 0.209235 59.7081 0.207922 60.294C0.207245 60.5965 0.151456 60.8989 0.0886433 61.2393C0.0694909 61.3431 0.0496855 61.4505 0.0305904 61.5625C0 56.1132 0 50.5794 0 44.9433C0.016152 45.0247 0.0353891 45.1113 0.0555191 45.2019C0.113642 45.4634 0.179212 45.7585 0.199453 46.0591C0.182071 45.8 0.131242 45.541 0.0804124 45.282C0.0515716 45.1351 0.0227308 44.9881 0 44.8412V43.8408ZM0.205446 46.2023C0.205594 46.2122 0.205688 46.222 0.20572 46.2319L0.205446 46.2023ZM18.0789 102.57C18.4353 103.406 18.9739 104.328 19.9055 104.083C20.3885 103.956 20.8125 102.887 20.9176 102.191C21.1379 100.733 21.1954 99.2395 21.2015 97.76C21.214 94.7273 21.1612 91.694 21.104 88.6616C21.0965 88.2652 21.0215 87.8701 20.9465 87.475L20.9464 87.4749C20.9118 87.2926 20.8772 87.1104 20.8493 86.928C20.0592 88.1301 19.429 89.345 18.9344 90.6128C17.4383 94.4478 16.4638 98.3401 18.0789 102.57ZM40.9376 82.1628C42.0512 82.7859 42.623 82.4973 42.7253 80.9598C42.9134 78.1333 42.947 75.2831 41.7942 72.608C41.1913 71.2091 40.5658 69.764 38.6391 68.952C38.6391 69.6946 38.6248 70.4175 38.6108 71.1258V71.1259C38.5799 72.6911 38.5503 74.1855 38.6794 75.666C38.8767 77.9297 39.3215 80.1901 40.9376 82.1628Z" fill="black"/>
</svg>
